<?xml version="1.0" standalone="no"?>
<!DOCTYPE svg PUBLIC "-//W3C//DTD SVG 20010904//EN"
 "http://www.w3.org/TR/2001/REC-SVG-20010904/DTD/svg10.dtd">
<svg version="1.0" xmlns="http://www.w3.org/2000/svg"
 width="470.000000pt" height="470.000000pt" viewBox="0 0 470.000000 470.000000"
 preserveAspectRatio="xMidYMid meet">
<metadata>
Created by potrace 1.11, written by Peter Selinger 2001-2013
</metadata>
<g transform="translate(0.000000,470.000000) scale(0.100000,-0.100000)"
fill="#000000" stroke="none">
<path d="M759 2579 c-68 -88 -150 -195 -183 -237 -80 -106 -105 -138 -151
-197 -22 -28 -55 -69 -72 -92 -18 -23 -33 -44 -33 -47 0 -3 60 -6 134 -6 l135
0 128 176 c70 97 155 214 189 260 33 46 63 87 67 90 4 4 7 -70 7 -164 l0 -172
-80 0 -80 0 0 -95 0 -95 190 0 190 0 0 370 0 370 -159 0 -158 0 -124 -161z"/>
<path d="M1347 2733 c-4 -3 -7 -170 -7 -370 l0 -363 115 0 115 0 0 85 0 85 68
0 68 0 58 -85 58 -85 140 0 c111 0 138 3 131 13 -5 6 -39 51 -76 99 -37 48
-67 90 -67 93 0 4 20 30 45 57 110 123 98 309 -28 411 -71 59 -119 67 -382 67
-127 0 -235 -3 -238 -7z m465 -204 c25 -13 50 -72 41 -96 -3 -10 -15 -28 -26
-40 -19 -21 -29 -23 -139 -23 l-118 0 0 85 0 85 111 0 c61 0 119 -5 131 -11z"/>
<path d="M2104 2727 c-3 -8 -4 -52 -2 -98 l3 -84 128 -3 127 -3 0 -269 0 -270
118 0 117 0 -3 270 -3 270 114 0 c63 0 116 2 118 4 2 2 3 47 1 100 l-3 96
-355 0 c-286 0 -356 -3 -360 -13z"/>
<path d="M2905 2727 c-3 -6 -4 -173 -3 -371 l3 -358 129 1 c124 2 156 9 156
38 0 4 9 19 21 33 17 21 47 63 135 185 8 11 35 49 62 85 l47 64 3 -202 2 -202
118 0 117 0 52 68 c28 37 61 78 73 92 12 14 30 35 41 48 10 12 19 24 19 27 0
3 30 44 67 92 37 49 71 93 75 98 66 87 123 155 129 155 5 0 9 6 9 13 0 11 8
22 68 97 12 15 22 33 22 39 0 7 -42 11 -131 11 -122 0 -133 -2 -150 -21 -10
-12 -21 -30 -24 -40 -4 -11 -10 -19 -15 -19 -5 0 -11 -8 -14 -17 -3 -10 -16
-29 -28 -43 -13 -14 -35 -43 -51 -66 -15 -22 -36 -50 -48 -62 -11 -12 -17 -22
-14 -22 3 0 -6 -12 -20 -27 -14 -15 -25 -31 -25 -35 0 -4 -11 -18 -24 -31 -14
-14 -22 -28 -18 -33 4 -4 1 -4 -5 0 -10 5 -13 59 -13 212 l0 204 -113 0 -112
0 -32 -35 c-18 -19 -30 -35 -28 -35 4 0 -90 -133 -128 -180 -7 -8 -28 -40 -49
-70 -20 -30 -45 -66 -57 -79 l-21 -24 0 211 0 212 -110 0 c-80 0 -112 -4 -115
-13z"/>
</g>
</svg>
