<svg fill="none" xmlns="http://www.w3.org/2000/svg" viewBox="0 0 64 64"><g clip-path="url(#clip0_318_113199)"><rect width="64" height="64" rx="16" fill="url(#paint0_linear_318_113199)"/><path d="M41.956 40.343H40.08V38.56a2.605 2.605 0 0 1 2.606-2.607h9.694c.96 0 1.738-.777 1.738-1.737v-4.847c0-.915-.778-1.692-1.692-1.692H49.18v-1.875h3.247c1.966 0 3.566 1.6 3.566 3.567v4.847a3.62 3.62 0 0 1-3.612 3.612h-9.694a.722.722 0 0 0-.731.732M23.92 40.343h-1.874V38.56a.722.722 0 0 0-.732-.732H11.62a3.62 3.62 0 0 1-3.612-3.612v-4.847c0-1.967 1.6-3.567 3.567-3.567h3.246v1.875h-3.246c-.915 0-1.692.777-1.692 1.692v4.847c0 .96.777 1.737 1.737 1.737h9.694c1.418 0 2.607 1.19 2.607 2.607M23.008 47.065s.64 0 1.189-.411c.594-.504 1.052-1.51.549-2.653-.458-1.051-1.692-2.606-1.692-2.606s-1.235 1.555-1.692 2.606c-.503 1.098-.092 2.15.549 2.653.548.457 1.005.411 1.188.411M41.04 47.065s.64 0 1.189-.411c.594-.504 1.052-1.51.549-2.653-.458-1.051-1.692-2.606-1.692-2.606s-1.235 1.555-1.692 2.606c-.503 1.098-.091 2.15.549 2.653.548.457 1.005.411 1.188.411" fill="#fff"/><path d="M47.64 29.164s-.043.141-.13.377H16.15c-.044-.236-.13-.283-.13-.377v-1.786s.043-.14.13-.14h31.36s.13.046.13.14v1.786Z" fill="#fff"/><path fill-rule="evenodd" clip-rule="evenodd" d="M13.794 16.934h35.844c.458 0 .87.365.87.868v10.792a.868.868 0 0 1-.87.868h-.801c.02-.058.02-.136.02-.136v-1.738a.203.203 0 0 0-.042-.113v-1.017c0-.182-.32-.32-.32-.32h-33.33c-.183 0-.32.32-.32.32v.764h-1.92v-9.42c0-.457.366-.868.869-.868Zm1.051 10.745v1.784h-1.051a.868.868 0 0 1-.87-.87v-.914h1.921Z" fill="#fff"/></g><defs><linearGradient id="paint0_linear_318_113199" x1="61.846" y1="64" x2="-4.1" y2="-4.205" gradientUnits="userSpaceOnUse"><stop stop-color="currentColor"/><stop offset="1" stop-color="currentColor" stop-opacity=".1"/></linearGradient><clipPath id="clip0_318_113199"><path fill="#fff" d="M0 0h64v64H0z"/></clipPath></defs></svg>
