<svg fill="none" xmlns="http://www.w3.org/2000/svg" viewBox="0 0 64 64"><g clip-path="url(#clip0_317_129639)"><rect width="64" height="64" rx="16" fill="url(#paint0_linear_317_129639)"/><path fill-rule="evenodd" clip-rule="evenodd" d="M34.685 18.331c-7.239 1.124-13.26 2.073-13.38 2.11-.29.086-.745.543-.83.835-.125.418-.18 1.289-.18 2.8-.001 1.65.057 2.687.226 4.062.06.484.113.928.118.985.01.095-.066.116-.818.225-4.74.688-7.641.822-8.246.38-.065-.048-.147-.331-.275-.95-.313-1.508-.296-1.453-.485-1.641-.151-.152-.21-.175-.448-.175-.327 0-.172-.133-2.703 2.315-2.698 2.61-2.591 2.498-2.591 2.742a.68.68 0 0 0 .082.327c.072.103 5.23 4.327 5.58 4.57.081.056.234.092.392.092.215 0 .286-.027.416-.156l.156-.157v-.944c0-1.343.011-1.36 1.013-1.573 2.33-.494 5.259-1.766 7.893-3.426.511-.321.513-.322.626-.218.062.056.22.158.353.224.22.111.491.141 3.153.352 1.602.126 2.966.23 3.032.232.066 0 .12.02.117.042-.001.022-.284.225-.627.45-.82.54-1.4 1.006-2.141 1.726-2.039 1.977-3.4 4.346-4.157 7.242-.104.396-.229.766-.277.822-.189.216-.38.246-1.561.246-.958 0-1.152.014-1.28.09-.186.11-.266.278-.266.557 0 .275-.143.133 3.125 3.126 1.47 1.346 3.04 2.785 3.488 3.198.45.413.882.78.962.815.226.1.461.081.644-.051.165-.119 6.003-6.428 6.173-6.67.187-.267.05-.698-.26-.828-.145-.06-.529-.076-1.843-.076-1.82 0-1.834-.003-2.104-.323-.126-.15-.14-.21-.14-.607 0-1.468.416-3.528 1.024-5.07.597-1.518 1.632-3.235 2.507-4.162l.237-.25 5.96.467c3.28.257 5.99.486 6.026.508.036.022.124.157.197.3.207.408 1.039 1.624 1.554 2.27.257.324.969 1.089 1.58 1.701.613.612 1.127 1.167 1.144 1.233.02.08-.117.49-.4 1.199-.238.593-.432 1.103-.432 1.134 0 .098.26.317.376.317.11 0 6.75-2.746 6.874-2.843.035-.028.08-.12.098-.205.03-.136-.149-.442-1.5-2.566-.843-1.326-1.536-2.45-1.54-2.498-.005-.072.205-.124 1.23-.306.68-.12 1.352-.263 1.493-.317a1.65 1.65 0 0 0 .478-.32c.423-.424.4-.054.4-6.257v-5.514l-.13-.507c-.349-1.378-1.124-2.328-2.188-2.682-.221-.074-4.37-.474-4.677-.452-.047.004-6.008.926-13.248 2.05Zm15.407-.808c2.342.2 2.383.21 2.86.655.346.325.597.774.77 1.383l.138.481-.014 5.418-.014 5.418-.133.096c-.095.068-.764.208-2.273.474-2.004.353-2.19.377-2.926.377h-.786v-14.42l.12-.024c.066-.012.132-.026.147-.029.015-.003.965.074 2.11.171Zm-3.447 5.488v5.453l-.307-.03c-.17-.016-5.814-.285-12.544-.597-6.73-.313-12.252-.584-12.272-.602-.088-.081-.163-2.102-.137-3.666.027-1.618.066-2.002.214-2.094.044-.027 23.2-3.65 25.006-3.912.022-.003.04 2.448.04 5.448Zm-12.69 5.901c6.67.31 12.255.577 12.41.593l.28.03v2.183l-.2-.002c-.11 0-.772-.047-1.471-.103l-1.27-.102-.253-.212a6.942 6.942 0 0 1-.437-.405c-.312-.326-.402-.229-.237.256.047.14.077.262.066.274-.029.028-10.378-.78-10.412-.813-.014-.014.105-.138.266-.275.673-.572.672-.57.615-.733-.078-.223-.284-.254-.798-.124-.578.147-1.717.53-2.266.763l-.447.188-3.828-.296c-2.105-.164-3.843-.313-3.863-.332-.019-.019.23-.233.553-.475.428-.321.564-.45.502-.474-.048-.018-.378.02-.734.083-.357.064-.666.097-.688.073-.022-.024-.056-.181-.076-.35-.033-.275-.027-.308.06-.309.054 0 5.556.252 12.227.562Zm12.741 3.906c.643.052 1.44.078 2.073.067.566-.01 1.028-.006 1.028.008-.007.142-.378 1.464-.428 1.524-.036.044-.136.08-.221.08-.204 0-1.302-.441-2.115-.849-.654-.328-1.564-.846-1.564-.89 0-.037.088-.033 1.227.06Z" fill="#fff"/></g><defs><linearGradient id="paint0_linear_317_129639" x1="61.846" y1="64" x2="-4.1" y2="-4.205" gradientUnits="userSpaceOnUse"><stop stop-color="currentColor"/><stop offset="1" stop-color="currentColor" stop-opacity=".1"/></linearGradient><clipPath id="clip0_317_129639"><path fill="#fff" d="M0 0h64v64H0z"/></clipPath></defs></svg>
