<svg fill="none" xmlns="http://www.w3.org/2000/svg" viewBox="0 0 64 64"><g clip-path="url(#clip0_317_129742)"><rect width="64" height="64" rx="16" fill="url(#paint0_linear_317_129742)"/><path d="M12.592 16.697h-.042c0-.293.882-.63.966-.671-.252.168-.924.461-.924.671ZM17.378 16.487v.042l1.26-.63v-.041l-1.26.63ZM21.32 15.799l-1.202.5.016.038 1.202-.5-.016-.038ZM21.784 16.361v.042l1.302-.63-.042-.083-1.26.671ZM23.927 16.278v.042l.923-.63-.042-.042-.881.63ZM27.075 16.153v.042l.923-.63-.042-.042-.881.63Z" fill="#fff"/><path d="m28.068 15.259-1.172.816.192.275 1.172-.816-.192-.275ZM32.195 15.984v.042l.966-.672-.042-.042-.924.672ZM37.526 15.817l.042.042.966-.714-.042-.042-.966.714ZM41.263 15.69l.042.043.924-.756-.042-.042-.924.756ZM43.403 15.607l.042.042.923-.756-.042-.042-.923.756ZM45.502 15.564l.042.042.924-.798h-.042l-.924.756ZM11.667 32.062l5.247.21 6.759.252 29.05 1.217.041-.084-29.091-1.175-6.759-.252-5.247-.21v.042Z" fill="#fff"/><path d="m11.502 32.188 41.222 1.679h.168v-.336l-35.975-1.47-5.248-.21h-.126l-.041.337ZM36.267 32.146v.126l.084.084-.084.252h.168s.084-.084.126-.168l-.084-.126.168-.168s-.042-.168-.084-.21h-.168c-.084 0-.126.084-.126.126m0 .588-.042-.042v-.294s-.042-.084 0-.126v-.084c0-.042.084-.168.168-.168h.21s.126.168.084.252l-.126.168.084.125-.168.21h-.168l-.042-.041Z" fill="#fff"/><path d="M36.436 32.188v.084l.084-.084h-.084Zm-.126.713h-.042s-.126 0-.126-.126v-.294s-.042-.125-.042-.21v-.167c0-.126.126-.252.336-.252h.294s.168.294.126.461l-.084.126.084.126-.084.084c-.168.21-.21.252-.294.252h-.168ZM24.935 32.819c4.953.251 14.314.587 18.806.755.462 0 .924 0 1.26.042-1.134.168-2.31.63-3.443 1.385-2.728 1.806-4.827 5.038-5.457 8.48l-.084.546s.923.126 1.091.126l-14.524 7.724c-1.092-.924-3.442-2.729-11.082-10.41h.923l.042-.463c.588-5.499 5.247-8.563 12.426-8.227M12.003 22.618h.042v.084h.714v-.672l-.672-.126-.084.714ZM11.835 22.618H10.534l1.008-.882.126.168h.21v.21l.125.168-.126.126v.21h-.042Z" fill="#fff"/><path d="m22.498 13.717-.461-.546c.21-.168.42-.336.587-.462l.42.588s-.378.294-.588.462m-.881.671-.462-.587.588-.462.462.546-.588.462v.042Zm-.882.672-.461-.546.587-.461.462.545-.588.462Zm-.84.672-.46-.546.587-.462.42.546-.588.462h.042Zm-.88.671-.462-.545.587-.462.462.546-.588.461Zm-.84.672-.462-.546.588-.461.461.545-.587.462Zm-.84.672-.462-.546.588-.462.462.546-.588.462Zm-.84.713-.461-.545.587-.462.462.546-.588.461Zm-.839.714-.462-.546.588-.462.462.546-.588.462Zm-.84.714-.461-.546.587-.462.462.546-.588.462Zm-.84.713-.46-.546.587-.461.462.546-.588.461Zm-.839.714-.462-.546.588-.462.462.546-.588.462Zm-.84.713-.461-.545.588-.462.461.546-.545.461h-.042ZM22.918 12.5l.42.547.084-.042.126.042.378-.588-.546-.336-.462.378ZM24.473 13.676l-.63-.42.378-.588.63.42-.378.588Zm.923.588-.63-.42.378-.588.63.42-.378.588Zm.924.587-.63-.42.378-.587.63.42-.378.587Zm.923.588-.63-.42.378-.588.63.42-.378.588Zm.924.588-.63-.42.378-.588.63.42-.378.588Zm.923.587-.63-.42.378-.587.63.42-.378.587Zm.924.588-.63-.42.378-.587.63.42-.378.587Zm.923.588-.63-.42.378-.588.63.42-.378.588Zm.924.588-.63-.42.378-.588.63.42-.378.588Zm.923.587-.63-.42.378-.587.63.42-.378.587Zm.924.588-.63-.42.378-.588.63.42-.378.588Zm.923.587-.63-.42.378-.587.63.42-.378.587Zm.924.588-.63-.42.378-.587.63.42-.378.587Zm.923.588-.63-.42.379-.588.63.42-.379.588ZM36.982 21.273h-.168v.252l-.126.168.168.125v.168l1.47-.041-1.218-.84-.126.168ZM35.68 21.316l.084.756.713-.042-.042-.714h-.755ZM35.931 23.205l-.126-.755.714-.084c0 .251.042.503.126.713l-.714.126Zm.252 1.134c-.084-.252-.126-.504-.168-.756l.714-.168c.042.252.126.504.168.714l-.714.168v.041Zm.336 1.091-.252-.756.672-.21c.084.252.126.462.252.714l-.672.252Zm.42 1.05a5.114 5.114 0 0 1-.294-.714l.671-.252c.084.21.168.462.294.672l-.63.293h-.041Zm.503 1.049a3.726 3.726 0 0 1-.336-.714l.63-.294c.126.21.21.462.336.672l-.63.336Zm.588.965c-.126-.21-.294-.42-.42-.671l.63-.378.378.63-.588.377v.042Zm.672.924s-.294-.42-.462-.63l.588-.42s.293.42.461.588l-.545.462h-.042Zm.755.881s-.336-.377-.503-.587l.545-.462s.336.378.504.546l-.504.503h-.042Zm.84.798s-.378-.336-.588-.546l.504-.503s.336.335.546.503l-.462.546Zm.923.714s-.42-.294-.63-.462l.42-.588s.378.294.588.42l-.42.588.042.042Zm1.008.587a9.586 9.586 0 0 1-.672-.377l.378-.588s.42.252.63.336l-.336.63Zm1.091.462a5.604 5.604 0 0 1-.755-.294l.294-.63c.21.085.461.169.671.252l-.21.672ZM44.201 33.113h-.378v-.084h-.084l.084-.336v-.294h.084v-.084s.252.084.378.084l-.084.714Z" fill="#fff"/><path d="M12.13 23.834c0-.251-.041-.503-.083-.755h.713s0 .42.085.671l-.714.084Zm.21 1.134c-.041-.252-.125-.504-.167-.756l.713-.126c0 .252.084.462.168.672l-.713.168v.042Zm.337 1.091c-.084-.252-.168-.462-.252-.713l.671-.21c.084.21.168.462.252.671l-.671.252Zm.503 1.008a4.997 4.997 0 0 1-.335-.672l.671-.294c.084.21.21.42.336.63l-.63.336h-.042Zm.63.965s-.294-.42-.42-.63l.588-.377s.252.378.42.588l-.588.42Zm.756.84s-.336-.378-.504-.546l.546-.462s.293.336.461.504l-.503.504Zm.84.756s-.379-.336-.589-.504l.462-.546s.336.294.546.462l-.462.546.042.042Zm.923.63c-.21-.127-.42-.295-.63-.42l.42-.588s.378.252.587.378l-.377.587v.042Zm1.007.545c-.252-.126-.462-.21-.671-.336l.335-.63s.42.21.63.336l-.336.63h.042Zm1.05.462c-.252-.084-.462-.21-.714-.294l.294-.63c.21.084.42.168.671.252l-.251.672Zm1.05.335c-.253-.083-.505-.126-.715-.21l.252-.671c.21.084.462.168.672.21l-.21.672Zm1.09.294c-.251-.042-.503-.126-.755-.168l.168-.713c.21.084.462.126.713.168l-.167.713h.041Zm1.092.21c-.252 0-.504-.084-.756-.126l.126-.713c.252.042.462.084.714.125l-.084.714Zm1.091.126c-.251 0-.503-.042-.755-.084l.084-.713c.252 0 .462.041.713.084v.713h-.042Zm1.05.084c-.252 0-.504 0-.756-.042v-.713c.294 0 .546 0 .798.041v.714h-.042Zm1.05 0h-.714v-.756h.755v.756h-.042Zm1.09 0h-.755v-.756h.756v.756Zm1.092 0h-.755v-.756h.713v.756h.042Zm1.092.042h-.756V31.6h.756v.756Zm1.091 0h-.755V31.6h.755v.756Zm1.092.042h-.756v-.756h.714v.756h.042Zm1.091.042h-.756v-.756h.756v.756Zm1.092.042h-.756v-.756h.713v.756h.043Zm1.09.042h-.755v-.756h.756v.756Zm1.092.042h-.755v-.756h.713v.756h.042Zm1.092.042h-.756v-.756h.756v.756Zm1.091.042h-.713v-.756h.755v.756h-.042Zm1.092.042h-.714v-.756h.756v.756h-.042Zm1.091.042h-.755v-.756h.755v.756Zm1.092.042h-.714v-.756h.756v.756h-.042Zm1.091.042h-.756v-.756h.756v.756Zm1.092.042h-.756v-.756h.714v.756h.042Zm1.09.042h-.755l.042-.756h.714v.756Z" fill="#fff"/><path fill-rule="evenodd" clip-rule="evenodd" d="m53.105 34.302.01.002h.006c.246.718.18 1.438-.03 2.076a4.595 4.595 0 0 1-.734 1.375l-14.45-.85a.5.5 0 0 0-.059.998l14.699.864a.5.5 0 0 0 .397-.16 5.452 5.452 0 0 0 1.098-1.916c.242-.74.346-1.624.08-2.535.564-.255.987-.784 1.292-1.406.466-.95.747-2.268.911-3.7.33-2.877.21-6.408.002-8.89-.206-2.452-.894-4-1.468-4.891-.521-.81-1.446-1.077-2.274-1.039L9.044 16.236a.5.5 0 0 0-.441.313c-.807 2.001-.881 4.587-.673 6.955.21 2.381.713 4.614 1.115 5.952l.07-.022c.126.515.41 1.284.867 1.953.453.661 1.14 1.316 2.092 1.395l.011.001.287.01c-.003.753-.372 2.008-1.924 2.56a.5.5 0 0 0 .142.97l5.672.287a.5.5 0 0 0 .05-.999l-4.052-.204c.836-.804 1.096-1.835 1.11-2.576l39.735 1.471Zm.914-18.492c-.262-.406-.771-.61-1.388-.58l-1.322.06c-.377 3.433-.868 10.07.331 14.753h.01l.058.419c.208 1.482.565 2.18.861 2.508.27.299.524.331.72.339v.007c.445.026.853-.243 1.227-1.006.39-.795.655-1.976.816-3.374.32-2.783.204-6.239-.002-8.693-.193-2.295-.83-3.684-1.311-4.433Zm-44.6 1.41 40.88-1.883c-.37 3.414-.839 9.897.304 14.676l-40.7-1.193a31.109 31.109 0 0 1-.977-5.404c-.193-2.193-.122-4.452.492-6.196ZM50.782 31.02c.176 1.01.435 1.724.747 2.224l-39.384-1.458c-.507-.047-.959-.408-1.339-.963a5.076 5.076 0 0 1-.515-.99l40.491 1.186Z" fill="#fff"/></g><defs><linearGradient id="paint0_linear_317_129742" x1="61.846" y1="64" x2="-4.1" y2="-4.205" gradientUnits="userSpaceOnUse"><stop stop-color="currentColor"/><stop offset="1" stop-color="currentColor" stop-opacity=".1"/></linearGradient><clipPath id="clip0_317_129742"><path fill="#fff" d="M0 0h64v64H0z"/></clipPath></defs></svg>
