<svg fill="none" xmlns="http://www.w3.org/2000/svg" viewBox="0 0 64 64"><g clip-path="url(#clip0_318_112958)"><rect width="64" height="64" rx="16" fill="url(#paint0_linear_318_112958)"/><path d="M43.589 54.854h-5.98V25.945c0-1.979-1.592-3.614-3.484-3.614H8.313v-6.108h25.812c5.205 0 9.464 4.345 9.464 9.722v28.909Z" fill="#fff"/><path d="M45.697 54.467h-1.032V25.601c0-5.808-4.603-10.497-10.282-10.497H8.658v-1.032h25.725c6.238 0 11.271 5.205 11.271 11.572V54.51l.043-.043Z" fill="#fff"/><path d="M35.93 54.467h-2.667V26.848H8.7v-2.71H35.93v30.329ZM51.363 30.847l-.752 3.214-2.505.46 2.422.459.835 2.755.71-2.755 2.463-.46-2.505-.5-.668-3.173ZM49.133 8.207l-1.279 5.474-4.265.782 4.123.782 1.421 4.691 1.21-4.691 4.193-.782-4.265-.853-1.138-5.403Z" fill="#fff"/></g><defs><linearGradient id="paint0_linear_318_112958" x1="61.846" y1="64" x2="-4.1" y2="-4.205" gradientUnits="userSpaceOnUse"><stop stop-color="currentColor"/><stop offset="1" stop-color="currentColor" stop-opacity=".1"/></linearGradient><clipPath id="clip0_318_112958"><path fill="#fff" d="M0 0h64v64H0z"/></clipPath></defs></svg>
