<svg fill="none" xmlns="http://www.w3.org/2000/svg" viewBox="0 0 65 64"><g clip-path="url(#clip0_318_113008)"><rect x=".409" width="64" height="64" rx="16" fill="url(#paint0_linear_318_113008)"/><path fill-rule="evenodd" clip-rule="evenodd" d="M30.618 21.994c0 1.619.999 2.962 2.205 2.962 1.205 0 2.204-1.309 2.204-2.962V15.45c0-1.62-.999-2.963-2.204-2.963-1.206 0-2.205 1.31-2.205 2.963v6.544Zm0 26.556c0 1.62.999 2.963 2.205 2.963 1.205 0 2.204-1.31 2.204-2.962v-6.545c0-1.619-.999-2.962-2.204-2.962-1.206 0-2.205 1.309-2.205 2.962v6.544ZM12.845 31.983c0-1.206 1.344-2.204 2.962-2.204h6.545c1.653 0 2.962.998 2.962 2.204 0 1.205-1.343 2.204-2.962 2.204h-6.545c-1.653 0-2.962-.998-2.962-2.204Zm6.578 10.3c-1.17 1.17-1.412 2.79-.55 3.65.86.861 2.48.62 3.65-.55l4.616-4.616c1.17-1.172 1.412-2.79.55-3.652-.86-.86-2.48-.62-3.65.551l-4.616 4.616ZM27.69 26.85c-.861.861-2.48.62-3.651-.551l-4.616-4.616c-1.17-1.17-1.412-2.79-.55-3.65.86-.862 2.48-.62 3.65.55L27.14 23.2c1.17 1.17 1.412 2.79.55 3.65Zm14.777 2.928c-1.62 0-2.963.998-2.963 2.204 0 1.205 1.31 2.204 2.963 2.204h6.544c1.619 0 2.962-.998 2.962-2.204 0-1.206-1.309-2.204-2.962-2.204h-6.544Zm4.374 16.154c-.86.861-2.48.62-3.65-.55l-4.616-4.616c-1.172-1.172-1.413-2.79-.552-3.652.862-.86 2.48-.62 3.652.551l4.615 4.616c1.171 1.171 1.412 2.79.551 3.651ZM38.575 23.2c-1.172 1.17-1.413 2.79-.552 3.65.862.862 2.48.62 3.652-.55l4.615-4.616c1.171-1.17 1.412-2.79.551-3.65-.86-.862-2.48-.62-3.65.55L38.574 23.2Z" fill="#fff"/></g><defs><linearGradient id="paint0_linear_318_113008" x1="62.255" y1="64" x2="-3.691" y2="-4.205" gradientUnits="userSpaceOnUse"><stop stop-color="currentColor"/><stop offset="1" stop-color="currentColor" stop-opacity=".1"/></linearGradient><clipPath id="clip0_318_113008"><path fill="#fff" transform="translate(.41)" d="M0 0h64v64H0z"/></clipPath></defs></svg>
