<svg fill="none" xmlns="http://www.w3.org/2000/svg" viewBox="0 0 65 64"><g clip-path="url(#clip0_318_113083)"><rect x=".409" width="64" height="64" rx="16" fill="url(#paint0_linear_318_113083)"/><path d="M7.892 35.13c2.768 0 2.768-4.265 0-4.265-2.767 0-2.767 4.265 0 4.265ZM10.16 29.46c1.36 0 1.36-2.133 0-2.133-1.362 0-1.407 2.132 0 2.132ZM5.168 24.468c.68 0 .68-1.089 0-1.089s-.68 1.09 0 1.09Z" fill="#fff"/><path fill-rule="evenodd" clip-rule="evenodd" d="m32.502 25.474-.02.038v-.045l.02.007Zm0 0 1.66-3.319.453 1.497c8.62-3.221 10.027-12.976 10.027-13.066h.317l.363 5.308 2.95-.907-.182.317c-3.811 8.121-11.933 9.845-13.203 10.072l.227 1.044-2.612-.946Zm2.475 1.581.049-.135.769.278-.193-.884-.119-.548a19.587 19.587 0 0 0 3.215-1.027c1.166 1.728 1.923 3.832 2.124 6.098-.396.012-.758.02-1.08.025v-2.335l-.509.562c-.265-1.003-.597-1.712-.808-1.852-.264-.199-.264-.035-.261.472 0 .189.002.425-.01.707-.092 1.77-1.226 3.222-2.36 3.902-.998.635-2.223.09-2.495-.045V32c0-.363-.091-.726-.227-1.043.227-.318 1.18-1.86 1.905-3.902Zm6.391 3.762c-.198-2.335-.952-4.511-2.116-6.317 1.946-.873 4.24-2.263 6.252-4.447l4.808.378.765 9.32c-1.328.285-2.826.504-4.324.67a78.721 78.721 0 0 1-5.385.396Zm9.217-10.703-4.782-.394c.284-.324.56-.665.83-1.022l3.68.327v-.046l1.905 1.135v9.363c-.212.057-.432.112-.658.165l.25-9.165-1.225-.363Zm-30.398-3.766 20.73 1.842c-.26.357-.54.711-.84 1.058l-20.344-1.675-1.815.68.454 13.838-.454 13.838 1.815.68 21.169-1.743c.212.329.408.658.59.985l-21.305 1.893-7.623-2.768v-25.77l7.623-2.858Zm.09 1.724 19.482 1.53a13.979 13.979 0 0 1-2.757 2.309c-1.572-1.34-3.476-2.192-5.564-2.342-6.08-.454-11.342 5.127-11.342 12.477 0 7.35 5.263 12.93 11.342 12.477 2.475-.198 4.69-1.364 6.402-3.154a15.114 15.114 0 0 1 2.776 3.068l-20.339 1.628-1.406-14.02 1.406-14.018v.045ZM34.33 20.99a9.64 9.64 0 0 1 2.09 1.27c-.36.205-.739.398-1.133.576a1.864 1.864 0 0 0-.582-.611l-.065-.215-.31-1.02Zm-6.93 1.755c2.055-1.113 4.595-1.378 6.361-.909l.45-.898a8.886 8.886 0 0 0-2.818-.688c-5.716-.409-10.707 4.854-10.707 11.796 0 6.941 4.945 12.205 10.707 11.796 2.289-.155 4.353-1.214 5.967-2.854-.277-.21-.566-.413-.868-.607-.696.316-1.444-.024-2.267-.96l-.142.495v.002l-.4 1.441-2.057-4.114-.324-.566.642-.241.311-.11a21.88 21.88 0 0 1-.907-2.059c-.409 0-.771-.181-1.09-.454l-.02.022c-.267.265-1.296 1.289-1.34 2.655-.091 1.588.408 3.63 1.77 4.537.23.162.427.276.58.365.361.208.477.274.19.497-.408.318-2.813.227-4.809-1.134-2.132-1.452-3.947-4.083-4.582-6.261-.635-2.178.68-3.312 3.63-3.72 1.631-.218 3.06-.088 3.73-.027.169.016.289.027.353.027.227-.409.499-.726.907-.863 0-.363-.317-1.95-1.27-2.722-1.134-.953-2.995-1.497-4.446-.68a9.82 9.82 0 0 0-.62.375c-.399.257-.515.332-.515-.058 0-.59 1.452-2.903 3.585-4.083Zm11.946 15.52c-.337-.168-.665-.32-.983-.46.317-.72.595-1.526.807-2.366l.573.642v-2.214c.343.004.679.01 1.008.017a13.124 13.124 0 0 1-1.405 4.381Zm6.825 5.727c-1.885-2.615-4.21-4.336-6.311-5.46a13.862 13.862 0 0 0 1.441-4.634c4.557.128 7.692.54 9.732.941h.003l-.724 8.822-4.14.331Zm.891 1.364a17.88 17.88 0 0 0-.6-.948l4.123-.34 1.222-.361-.238-8.758c.233.05.45.1.649.148v8.926l-1.906 1.044-3.25.289Zm5.7-13.13 1.951-2.903c-3.357 1.77-12.25 2.268-15.607 2.268v-1.27l-1.86 1.996 1.814 2.042v-1.134c11.706.09 15.426 1.905 15.426 1.905l-1.77-2.903h.046ZM33.98 38.76c8.62 3.176 10.027 13.066 10.027 13.066l.227 1.588.454-6.896 2.949.907-.182-.317c-3.857-8.167-11.932-9.89-13.203-10.118l.227-1.043-2.631.953 1.678 3.357.454-1.497Z" fill="#fff"/></g><defs><linearGradient id="paint0_linear_318_113083" x1="62.255" y1="64" x2="-3.691" y2="-4.205" gradientUnits="userSpaceOnUse"><stop stop-color="currentColor"/><stop offset="1" stop-color="currentColor" stop-opacity=".1"/></linearGradient><clipPath id="clip0_318_113083"><path fill="#fff" transform="translate(.41)" d="M0 0h64v64H0z"/></clipPath></defs></svg>
