<svg fill="none" xmlns="http://www.w3.org/2000/svg" viewBox="0 0 64 64"><g clip-path="url(#clip0_318_112144)"><rect width="64" height="64" rx="16" fill="url(#paint0_linear_318_112144)"/><path d="M23.266 50.595a22.166 22.166 0 0 1-3.192-1.865l1.74-2.447c.83.622 1.742 1.161 2.737 1.617 8.749 4.146 19.238.373 23.343-8.416 2.736-5.846 1.99-12.397-1.368-17.372l-.2-.293c-.268-.396-.416-.615-.691-.932l-2.095 2.095V16.97l6.053-.041-1.819 1.818.037.048c.29.331.58.705.829 1.036 4.27 5.888 5.307 13.848 1.99 20.896-4.85 10.283-17.082 14.719-27.364 9.868ZM17.823 42.356c-3.647-5.023-4.556-11.825-1.73-17.84 4.146-8.79 14.594-12.52 23.343-8.416.87.414 1.7.912 2.487 1.45l1.742-2.445a22.696 22.696 0 0 0-2.944-1.7c-10.282-4.851-22.513-.415-27.364 9.868-3.369 7.188-2.22 15.354 2.279 21.27l-2.072 2.072 6.053-.083v-5.97l-1.794 1.794Z" fill="#fff"/><path fill-rule="evenodd" clip-rule="evenodd" d="M33.506 22.984H30.81L23.68 39.319h2.943l1.659-3.938h7.67l1.658 3.938h3.027l-7.131-16.335Zm-1.41 3.4 2.82 6.509h-5.598l2.778-6.51Z" fill="#fff"/></g><defs><linearGradient id="paint0_linear_318_112144" x1="61.846" y1="64" x2="-4.1" y2="-4.205" gradientUnits="userSpaceOnUse"><stop stop-color="currentColor"/><stop offset="1" stop-color="currentColor" stop-opacity=".1"/></linearGradient><clipPath id="clip0_318_112144"><path fill="#fff" d="M0 0h64v64H0z"/></clipPath></defs></svg>
