<svg fill="none" xmlns="http://www.w3.org/2000/svg" viewBox="0 0 88 88"><path fill-rule="evenodd" clip-rule="evenodd" d="M16.69 3a1 1 0 0 1 1-1h51.702a1 1 0 0 1 1 1v5.57h6.483a4 4 0 0 1 4 4v9.168a4 4 0 0 1-1.172 2.828l-9.311 9.311v5.29a1 1 0 0 1-.45.834L49.048 53.784a9.984 9.984 0 0 1-3.506 1.451v15.537h1.253c7.818 0 14.156 6.338 14.156 14.157 0 .04-.032.072-.072.072H25.45a.072.072 0 0 1-.072-.072c0-7.819 6.338-14.157 14.156-14.157h2.006V55.234a9.985 9.985 0 0 1-3.505-1.45L17.14 40.001a1 1 0 0 1-.45-.835v-5.859l-1.9-1.9-6.841-6.842a4 4 0 0 1-1.172-2.828v-9.169a4 4 0 0 1 4-4h5.914V3Zm53.702 25.22V12.57h6.483v9.168l-6.483 6.483ZM16.691 12.57V27.65l-5.914-5.913v-9.169h5.914Z" fill="url(#paint0_linear_220_48870)"/><path d="M43.768 13.597a.25.25 0 0 1 .464 0l2.28 5.694a1.75 1.75 0 0 0 1.48 1.093l5.985.498a.25.25 0 0 1 .146.436l-4.615 4.105a1.75 1.75 0 0 0-.543 1.7l1.4 6.095a.25.25 0 0 1-.377.267l-5.05-3.204a1.75 1.75 0 0 0-1.875 0l-5.05 3.204a.25.25 0 0 1-.378-.267l1.4-6.096a1.75 1.75 0 0 0-.543-1.699l-4.615-4.105a.25.25 0 0 1 .146-.436l5.985-.498a1.75 1.75 0 0 0 1.48-1.093l2.28-5.694Z" stroke="#fff" stroke-width="1.5"/><defs><linearGradient id="paint0_linear_220_48870" x1="78.381" y1="85" x2="-6.92" y2="6.241" gradientUnits="userSpaceOnUse"><stop stop-color="currentColor"/><stop offset="1" stop-color="currentColor" stop-opacity=".1"/></linearGradient></defs></svg>
