<svg fill="none" xmlns="http://www.w3.org/2000/svg" viewBox="0 0 88 88"><path d="M43.427.401a1 1 0 0 1 1.146 0l5.556 3.887a1 1 0 0 0 .764.162l6.656-1.29a1 1 0 0 1 1.047.465l3.495 5.81a1 1 0 0 0 .632.46l6.606 1.528a1 1 0 0 1 .767.852l.829 6.73a1 1 0 0 0 .39.675l5.413 4.083a1 1 0 0 1 .355 1.09l-1.98 6.485a1 1 0 0 0 .082.777l3.284 5.931a1 1 0 0 1-.12 1.14l-4.446 5.12a1 1 0 0 0-.24.742l.587 6.755a1 1 0 0 1-.573.993l-6.144 2.868a1 1 0 0 0-.522.58l-2.21 6.41a1 1 0 0 1-.928.674l-6.78.121a1 1 0 0 0-.712.318l-4.627 4.957a1 1 0 0 1-1.121.238l-6.243-2.647a1 1 0 0 0-.78 0l-6.243 2.647a1 1 0 0 1-1.121-.238l-4.627-4.957a1 1 0 0 0-.713-.318l-6.779-.12a1 1 0 0 1-.927-.675l-2.21-6.41a1 1 0 0 0-.523-.58l-6.144-2.868a1 1 0 0 1-.573-.993l.588-6.755a1 1 0 0 0-.241-.742l-4.447-5.12a1 1 0 0 1-.12-1.14l3.285-5.931a1 1 0 0 0 .082-.777l-1.98-6.485a1 1 0 0 1 .354-1.09l5.414-4.083a1 1 0 0 0 .39-.676l.83-6.73a1 1 0 0 1 .767-.851l6.605-1.528a1 1 0 0 0 .632-.46l3.495-5.81a1 1 0 0 1 1.047-.466l6.656 1.291a1 1 0 0 0 .764-.162L43.427.4Z" fill="url(#paint0_linear_1841_6119)"/><path fill-rule="evenodd" clip-rule="evenodd" d="M42.642 66.726a1 1 0 0 0-.476 1.42L52.652 86.31a1 1 0 0 0 1.733-.001l4.654-8.083a1 1 0 0 1 .867-.501l9.327.011a1 1 0 0 0 .867-1.5L62.956 63.86a1 1 0 0 0-.884-.5l-4.978.09a1 1 0 0 0-.713.317l-4.627 4.957a1 1 0 0 1-1.121.238l-6.243-2.647a1 1 0 0 0-.78 0l-.968.41Z" fill="url(#paint1_linear_1841_6119)"/><path fill-rule="evenodd" clip-rule="evenodd" d="M26.382 63.368a1 1 0 0 0-.884.5l-7.14 12.367a1 1 0 0 0 .867 1.5l9.326-.01a1 1 0 0 1 .868.5l4.654 8.083a1 1 0 0 0 1.733 0l10.396-18.006a1 1 0 0 0-.476-1.42l-1.336-.567a1 1 0 0 0-.78 0l-6.243 2.647a1 1 0 0 1-1.121-.238l-4.627-4.957a1 1 0 0 0-.713-.318l-4.524-.08Z" fill="url(#paint2_linear_1841_6119)"/><circle cx="43.5" cy="34.5" r="20.75" stroke="#fff" stroke-width="1.5"/><defs><linearGradient id="paint0_linear_1841_6119" x1="76.644" y1="70" x2="4.515" y2="-4.599" gradientUnits="userSpaceOnUse"><stop stop-color="#32A3FD"/><stop offset="1" stop-color="#32A3FD" stop-opacity=".1"/></linearGradient><linearGradient id="paint1_linear_1841_6119" x1="69.287" y1="86.809" x2="45.676" y2="57.438" gradientUnits="userSpaceOnUse"><stop stop-color="#32A3FD"/><stop offset="1" stop-color="#32A3FD" stop-opacity=".1"/></linearGradient><linearGradient id="paint2_linear_1841_6119" x1="45.39" y1="86.809" x2="21.773" y2="57.514" gradientUnits="userSpaceOnUse"><stop stop-color="#32A3FD"/><stop offset="1" stop-color="#32A3FD" stop-opacity=".1"/></linearGradient></defs></svg>