<svg fill="none" xmlns="http://www.w3.org/2000/svg" viewBox="0 0 64 64"><path fill-rule="evenodd" clip-rule="evenodd" d="M12.139 2.455a1 1 0 0 1 1-1h37.055a1 1 0 0 1 1 1v3.232h4.17a4 4 0 0 1 4 4v5.897a4 4 0 0 1-1.172 2.828l-6.998 6.998v2.928a1 1 0 0 1-.45.835l-13.572 8.952a9.986 9.986 0 0 1-3.506 1.45V51.47h.366c5.686 0 10.295 4.61 10.295 10.296a.053.053 0 0 1-.052.052H18.51a.053.053 0 0 1-.053-.052c0-5.686 4.61-10.296 10.296-10.296h.913V39.575a9.985 9.985 0 0 1-3.506-1.45l-13.572-8.952a1 1 0 0 1-.45-.835v-3.342l-1.768-1.768-4.815-4.816a4 4 0 0 1-1.172-2.828V9.687a4 4 0 0 1 4-4h3.756V2.455Zm39.055 17.298V9.687h4.17v5.897l-4.17 4.169ZM12.139 9.687v9.652l-3.756-3.755V9.687h3.756Z" fill="url(#paint0_linear_218_48754)"/><path d="M31.768 10.597a.25.25 0 0 1 .464 0l1.343 3.352a1.75 1.75 0 0 0 1.48 1.094l3.55.295a.25.25 0 0 1 .146.436l-2.76 2.455a1.75 1.75 0 0 0-.543 1.7l.833 3.628a.25.25 0 0 1-.377.267l-2.967-1.881a1.75 1.75 0 0 0-1.874 0l-2.967 1.881a.25.25 0 0 1-.378-.267l.834-3.628a1.75 1.75 0 0 0-.543-1.7l-2.76-2.455a.25.25 0 0 1 .146-.436l3.55-.295a1.75 1.75 0 0 0 1.48-1.094l1.343-3.352Z" stroke="#fff" stroke-width="1.5"/><defs><linearGradient id="paint0_linear_218_48754" x1="57.513" y1="61.818" x2="-4.611" y2="3.297" gradientUnits="userSpaceOnUse"><stop stop-color="#fff"/><stop offset="1" stop-color="#fff" stop-opacity=".1"/></linearGradient></defs></svg>