<svg fill="none" xmlns="http://www.w3.org/2000/svg" viewBox="0 0 64 64"><g clip-path="url(#clip0_317_129316)"><rect width="64" height="64" rx="16" fill="url(#paint0_linear_317_129316)"/><path d="M23.366 47.164c-1.97-1.394-4.23-.769-4.23-.769s1.442.385 3.173 1.875c1.634 1.394 2.066 3.124 2.066 3.124s-.48-1.201-2.066-2.547c-1.779-1.49-3.605-2.211-3.605-2.211s-.577 1.201.192 3.076c.769 1.922 2.403 2.691 4.182 2.98 2.114.336 2.595.961 2.595.961s.048-.384.048-.961c0-1.442-.288-4.134-2.355-5.575M15.677 47.885c1.49-1.25 3.269-2.307 4.23-4.085a6.91 6.91 0 0 0 .769-3.22v-.625c-.144-1.971-.673-3.75-1.779-5.336l-.528-.72s.672 3.412.672 5.142v.193c0 1.49-.336 3.028-1.201 4.277-1.01 1.587-2.644 2.596-3.941 3.942-1.442 1.49-2.356 3.364-2.356 5.48.721-1.971 2.5-3.702 4.134-5M45.237 43.608c-.913-1.298-1.298-2.884-1.298-4.422v-.048c0-1.73.577-5.095.577-5.095l-.48.72c-1.058 1.635-1.539 3.413-1.635 5.384v.385c0 1.201.24 2.403.817 3.46 1.01 1.73 2.836 2.74 4.326 3.942 1.634 1.297 3.46 2.932 4.278 4.903-.048-2.067-1.01-3.942-2.5-5.384-1.345-1.298-2.98-2.307-4.037-3.845" fill="#fff"/><path d="M17.023 42.983c.24-.385.433-.77.625-1.25a2.233 2.233 0 0 1-.433-1.105v-.481l.193-.096h.576V38.465h-.625s-.432-.144-.432-.385l-.625-6.392.096-.337.337-.144h5.912l.336.096.144.337-.096 6.392-.192.24h-1.346c.096.53.145 1.058.193 1.587H22.934l.096.192v2.307c0 .24-.24.48-.528.48h-1.058a6.454 6.454 0 0 1-.577 1.443c-.24.48-.528.865-.865 1.25H43.17a9.394 9.394 0 0 1-.816-1.106 9.34 9.34 0 0 1-.721-1.73H40.19l-.289-.096-.096-.289.288-2.788s.24-.384.433-.432h.817a8.933 8.933 0 0 1 .288-1.635h-.816l-.337-.096-.096-.336.673-5.96h5.335l.288.096.097.288-.818 5.528s-.192.384-.432.384h-.529c-.048.577-.096 1.154-.096 1.587h.24l.337.144.096.288v.048l-.24 1.538-.097.385c.193.577.433 1.105.77 1.586a5.8 5.8 0 0 0 1.009 1.154 5.325 5.325 0 0 0 1.73-3.221l4.038-25.907c.288-1.923-.529-3.797-2.163-4.855-.77-.529-1.779-.817-2.836-.817H17.36c-.914 0-1.73.144-2.452.48-2.259.962-3.749 3.173-3.749 5.624v.77l3.028 23.888c.193 1.538.914 2.884 2.019 3.845.288-.336.577-.625.769-.961m8.267-.096a.636.636 0 0 1-.625-.625v-1.97c0-.29.193-.53.481-.53l5.768-.192.24.096.096.24-.192 2.644-.336.289h-5.432v.048Zm13.074-3.413.144.385-.288 2.595s-.192.385-.433.385h-4.662l-.337-.096-.096-.337.145-2.355c0-.288.24-.48.528-.529l4.663-.192.384.144h-.048Zm9.469-26.532c.433 0 .817.144 1.057.384.337.337.481.721.385 1.202l-.721 4.95s-.192.385-.433.385h-5.816l.77-6.873h4.71l.048-.048Zm-6.921 0 .24.144.096.24-.673 6.201-.336.336h-5.576l-.24-.096-.096-.288.48-6.249.337-.336h5.72l.048.048Zm-8.268 0 .289.144.096.24-.433 6.201-.384.336h-6.922l-.24-.096-.096-.24.096-6.249.384-.384h7.258l-.048.048Zm-17.495 6.585-.385-3.75a2.488 2.488 0 0 1 1.538-2.643c.288-.144.625-.192 1.01-.192h5.43l.337.144.145.337v6.056c0 .24-.241.432-.481.432H15.58s-.433-.144-.433-.384m32.685 2.115.288.144.096.336-1.009 6.922s-.24.385-.432.385h-5.48l.865-7.74h5.672v-.047Zm-7.834 0 .24.096.096.288-.721 7.066-.337.288h-5.335l-.24-.096-.096-.24.528-7.066.337-.336h5.527Zm-7.98 0 .289.096.096.288-.48 7.018-.385.336h-6.393l-.24-.096-.096-.24.096-7.018.384-.384h6.778-.049Zm-15.957 7.402-.673-6.873.096-.337.336-.144h6.874l.336.096.145.336v6.874c0 .24-.241.433-.481.433h-6.152s-.433-.145-.433-.385m22.927 2.019.288.144.097.288-.625 5.816-.385.337-5.047.192-.336-.24.24-3.605v-.24l.192-2.308.385-.336h5.191v-.048Zm-7.498 0 .192.096.096.24-.192 3.269-.192 2.931-.337.337-6.056.192-.24-.096-.096-.24.144-6.249a.43.43 0 0 1 .432-.432h6.297l-.048-.048Z" fill="#fff"/><path d="M32.116 44.04a2.154 2.154 0 0 0-2.163 2.163c0 1.202.961 2.163 2.163 2.163a2.154 2.154 0 0 0 2.163-2.163 2.154 2.154 0 0 0-2.163-2.163ZM28.75 50.866a1.928 1.928 0 0 0-1.922 1.922c0 1.058.865 1.923 1.923 1.923a1.928 1.928 0 0 0 1.922-1.923 1.928 1.928 0 0 0-1.922-1.922ZM43.363 48.655a1.928 1.928 0 0 0-1.922 1.923c0 1.057.864 1.922 1.922 1.922a1.928 1.928 0 0 0 1.923-1.922 1.928 1.928 0 0 0-1.923-1.923ZM37.258 49.136a.81.81 0 0 0-.817.817c0 .48.385.817.817.817a.842.842 0 0 0 .817-.817.842.842 0 0 0-.817-.818Z" fill="#fff"/></g><defs><linearGradient id="paint0_linear_317_129316" x1="61.846" y1="64" x2="-4.1" y2="-4.205" gradientUnits="userSpaceOnUse"><stop stop-color="currentColor"/><stop offset="1" stop-color="currentColor" stop-opacity=".1"/></linearGradient><clipPath id="clip0_317_129316"><path fill="#fff" d="M0 0h64v64H0z"/></clipPath></defs></svg>
