<svg fill="none" xmlns="http://www.w3.org/2000/svg" viewBox="0 0 64 64"><g clip-path="url(#clip0_317_129540)"><rect width="64" height="64" rx="16" fill="url(#paint0_linear_317_129540)"/><path fill-rule="evenodd" clip-rule="evenodd" d="M23.806 13.296c-3.51.996-6.356 3.603-8.556 6.467-.175.234-.36.503-.544.772l-.275.398c-.273.39-.506.79-.74 1.192-.538.908-.959 1.848-1.35 2.838a19.172 19.172 0 0 0-.676 2.051l-3.598-.248 5.48 15.071-.021.079 7.102-14.564-2.544-.092c.81-2.394 1.924-4.664 3.399-6.712.173-.28.363-.53.562-.791l.175-.232c.096-.122.195-.253.293-.385.099-.132.197-.263.293-.385.585-.77 1.21-1.529 1.892-2.188.291-.301.621-.591.941-.843 1.412-1.18 3.473-2.27 5.182-1.264-2.84-1.814-6.599-1.305-6.966-1.193l-.05.029Zm-5.104 37.588 6.033-16.071 2.539 2.786s.02-.078.07-.107c1.447-2.097 2.503-4.468 3.234-6.883l.327-1.218c.4-1.493.721-3.007.886-4.563.049-.184.063-.376.077-.569.007-.096.014-.193.026-.288.188-1.803.09-3.64-.196-5.4a9.2 9.2 0 0 0-.2-.981c-.245-.93-.613-1.853-1.17-2.669h-.305a16.688 16.688 0 0 1 2.108-.319c.108-.013.227-.023.346-.034.118-.01.237-.02.345-.033.11-.013.215-.017.322-.02.106-.003.212-.006.32-.019.11-.013.215-.016.322-.02.106-.002.212-.005.32-.018.297-.005.553-.02.81-.036.141-.008.291-.002.447.005.127.005.258.011.392.01.335.005.67.01.995.055 1.685.157 3.317.51 4.907 1.02.236.063.462.162.689.26.113.049.226.098.34.142.99.392 1.988.912 2.897 1.45.4.234.79.507 1.141.77 1.872 1.343 3.52 3.048 4.75 5.062l.043.066c.281.433.537.826.773 1.29.364.687.716 1.413.98 2.158l2.535-.5.128-.008-4.307 12.617-9.92-9.817 3.248-.646s-.084-.317-.17-.467c-.742-2.262-1.771-4.39-3.15-6.318-.24-.36-.52-.73-.81-1.06l-.872-.992-.005-.005c-.329-.34-.657-.678-.995-.979-1.05-.955-2.23-1.734-3.532-2.378l-.676-.307a3.565 3.565 0 0 1-.608-.247l-.628-.168-.55-.148-.707-.19c-.612-.127-1.246-.17-1.89-.175.058.05.113.102.168.155.075.073.15.146.238.211.311.252.573.532.834.813.262.281.524.562.736.872a19.126 19.126 0 0 1 2.228 3.629c.22.437.4.865.58 1.292.91 2.265 1.391 4.71 1.27 7.205-.002.168-.012.323-.022.478-.01.155-.02.31-.023.478a9.677 9.677 0 0 1-.023.479c-.01.155-.02.31-.023.478-.141 1.941-.322 3.872-1.044 5.784a30.972 30.972 0 0 1-.77 1.773l-.318.715-.318.715c-.216.49-.46.93-.704 1.37-.254.477-.546.944-.84 1.41l-.003.006a.437.437 0 0 1-.076.127c-.033.044-.066.088-.076.127l1.957 2.125-15.43 5.72Z" fill="#fff"/></g><defs><linearGradient id="paint0_linear_317_129540" x1="61.846" y1="64" x2="-4.1" y2="-4.205" gradientUnits="userSpaceOnUse"><stop stop-color="currentColor"/><stop offset="1" stop-color="currentColor" stop-opacity=".1"/></linearGradient><clipPath id="clip0_317_129540"><path fill="#fff" d="M0 0h64v64H0z"/></clipPath></defs></svg>
