<svg fill="none" xmlns="http://www.w3.org/2000/svg" viewBox="0 0 88 88"><circle cx="44" cy="44" r="38" fill="url(#paint0_linear_217_47834)"/><path fill-rule="evenodd" clip-rule="evenodd" d="M42.849 40.808v7.176h1.691v-7.176h-1.691Zm-3.037-2.73H38.07a.151.151 0 0 0-.161.108.15.15 0 0 0-.005.069c.063.452.09.909.08 1.365 0 1.705-.204 4.155-2.076 6.482l-.132.163s-1.128-7.849-1.146-8.005c0 0-.007-.182-.158-.182h-1.754c-.167 0-.155.174-.155.174-.041.91-.548 8.466-6.062 9.686 1.174.13 2.593-.235 3.833-1.005 1.524-.945 2.552-2.35 2.896-3.954 0 0 .676 4.213.762 5.186v.06l-.054.03A10.762 10.762 0 0 1 19 43.009 10.166 10.166 0 0 0 28.935 51c5.622 0 8.965-4.707 9.54-8.048 0 0 .76 4.873.777 5.033h2.302c-.034-.21-1.559-9.582-1.579-9.73-.005 0-.012-.176-.163-.176Zm-19.46 4.102c0-5.147 4.343-9.336 9.68-9.336a9.808 9.808 0 0 1 8.154 4.34C36.878 33.52 33.249 31 29.165 31c-5.26 0-9.542 4.104-9.542 9.148.007 1.38.338 2.74.967 3.97a9.005 9.005 0 0 1-.237-1.938Zm40.345-.33c-.616-.712-1.458-1.073-2.503-1.073-1.045 0-1.937.338-2.636 1.014-.699.677-1.045 1.548-1.045 2.634 0 1.086.345 1.952 1.021 2.593.677.642 1.652.967 2.879.967 2.374 0 2.89-1.637 3.085-2.179l-.614-.198c-.547.998-1.775 1.058-2.492 1.014a2.558 2.558 0 0 1-1.345-.474c-.368-.266-.617-.661-.73-1.26l-.033-.226h5.343c-.025-1.177-.33-2.128-.928-2.812h-.002Zm-4.306 1.828c-.081 0-.088-.082-.085-.12a1.812 1.812 0 0 1 1.871-1.561c.44-.012.867.139 1.202.423.277.236.465.574.585 1.055.017.05.044.198-.076.198l-3.497.005Zm9.671-2.924c-2.03 0-2.747 1.234-2.974 1.824l-.079.213.676.226s.438-1.25 2.16-1.178c1.741.07 1.537 1.496 1.524 1.722-.96-.29-2.337-.261-3.23.147-1.128.514-1.296 1.547-1.26 2.304.051 1.121 1.04 1.91 2.327 1.98 1.156.066 1.676-.187 2.154-.666l-.014.653h1.525v-4.916c.035-.852-.566-2.309-2.807-2.309h-.002Zm1.284 5.566a.238.238 0 0 1-.128.24 3.36 3.36 0 0 1-1.657.283c-.789-.06-1.09-.62-1.143-.863-.019-.092-.188-1.141.824-1.471.666-.217 1.501-.075 1.947.05.131.035.165.112.165.266l-.008 1.495Zm-22.931-8.23h-1.398a.165.165 0 0 0-.171.127.165.165 0 0 0 0 .076V39.8h1.729v-1.53a.155.155 0 0 0-.091-.168.155.155 0 0 0-.067-.013l-.002.002Zm8.6 0h-1.433c-.145 0-.147.167-.147.167V41.2l-.205-.113a2.46 2.46 0 0 0-.692-.244 4.56 4.56 0 0 0-.855-.07c-1.127 0-2.04.328-2.72.977-.681.648-1.015 1.578-1.015 2.719 0 1.015.291 1.875.85 2.542.557.668 1.386 1 2.466 1 1.55 0 2.163-.936 2.163-.936v.902h1.732V38.26s.017-.172-.142-.172l-.002.002Zm-1.676 7.946c-.189.153-.4.275-.628.363-.305.117-.63.174-.957.168-.574 0-1.038-.194-1.38-.575-.344-.381-.501-.953-.501-1.702 0-.75.159-1.284.473-1.63.315-.347.812-.534 1.451-.534.324-.002.645.052.95.16.217.067.417.177.589.324.064.065.1.152.1.243v2.94a.347.347 0 0 1-.094.24l-.003.003Z" fill="#fff"/><defs><linearGradient id="paint0_linear_217_47834" x1="79.442" y1="82" x2="1.131" y2="1.007" gradientUnits="userSpaceOnUse"><stop stop-color="#fff"/><stop offset="1" stop-color="#fff" stop-opacity=".1"/></linearGradient></defs></svg>