<svg fill="none" xmlns="http://www.w3.org/2000/svg" viewBox="0 0 64 64"><g clip-path="url(#clip0_317_129476)"><rect width="64" height="64" rx="16" fill="url(#paint0_linear_317_129476)"/><path fill-rule="evenodd" clip-rule="evenodd" d="M53.806 35.853h-1.567v-2.498h-40.86v2.498H9.601c-.89 0-1.61-.72-1.61-1.608V22.092c0-.889.72-1.609 1.61-1.609h44.205c.889 0 1.608.72 1.608 1.61v12.152c0 .889-.72 1.608-1.608 1.608Zm-.34-1.227h.34s.38-.17.38-.381V22.092s-.169-.38-.38-.38H9.6s-.381.169-.381.38v12.153s.169.38.38.38h.551v-1.524c0-.55.466-1.016 1.016-1.016h41.326c.55 0 .974.466.974 1.016v1.525Zm-40.9-.001-.127.085v1.058l.127.085h38.828l.127-.085V34.71l-.127-.085H12.566Zm.084 2.329h1.143l.042-.043c-.254 1.101-1.143 4.404-3.81 6.564H8.076c3.133-1.652 4.234-5.166 4.573-6.521Zm7.326-.127h-1.143c0 1.312-.424 4.445-2.583 6.69h1.566c1.821-2.456 2.117-5.378 2.16-6.69Zm5.207 0h1.143c-.042 1.312-.38 4.15-1.482 6.563h-1.27c1.228-2.287 1.61-5.335 1.61-6.563Zm7.367 0h-1.185v6.563h1.185v-6.563Zm17.7.126h1.143c.338 1.313 1.44 4.87 4.615 6.563H54.06c-2.667-2.16-3.557-5.462-3.81-6.563Zm-5.081-.126h-1.143c0 1.312.338 4.276 2.159 6.69h1.567c-2.16-2.245-2.54-5.378-2.583-6.69Zm-7.453 0h1.143c.043 1.228.381 4.276 1.61 6.563h-1.271c-1.101-2.371-1.482-5.25-1.482-6.563Z" fill="#fff"/></g><defs><linearGradient id="paint0_linear_317_129476" x1="61.846" y1="64" x2="-4.1" y2="-4.205" gradientUnits="userSpaceOnUse"><stop stop-color="currentColor"/><stop offset="1" stop-color="currentColor" stop-opacity=".1"/></linearGradient><clipPath id="clip0_317_129476"><path fill="#fff" d="M0 0h64v64H0z"/></clipPath></defs></svg>
