<svg width="16" height="16" viewBox="0 0 16 16" fill="none" xmlns="http://www.w3.org/2000/svg">
<path fill-rule="evenodd" clip-rule="evenodd" d="M5.48214 1C5.86677 1 6.17857 1.3118 6.17857 1.69643V2.85714H10.3571L10.3571 1.69643C10.3571 1.3118 10.6689 1 11.0536 1C11.4382 1 11.75 1.3118 11.75 1.69643V2.85714H13.0714C13.6237 2.85714 14.0714 3.30486 14.0714 3.85714V5.57142H2V3.85714C2 3.30486 2.44772 2.85714 3 2.85714H4.78571V1.69643C4.78571 1.3118 5.09752 1 5.48214 1ZM2 6.57142H14.0714V13C14.0714 13.5523 13.6237 14 13.0714 14H3C2.44771 14 2 13.5523 2 13V6.57142Z" fill="#212121" fill-opacity="0.6"/>
</svg>
