<svg viewBox="0 0 64 64" fill="none" xmlns="http://www.w3.org/2000/svg"><g filter="url(#catalogA)"><path d="M40.987 1H11a4 4 0 0 0-4 4v54a4 4 0 0 0 4 4h42a4 4 0 0 0 4-4V16.656L40.987 1Z" fill="url(#catalogB)"/></g><path d="M41 12.123V1l16 15.5-12.125-.379A4 4 0 0 1 41 12.123Z" fill="url(#catalogC)"/><path stroke="#fff" stroke-width="2" stroke-linecap="round" d="M19 28h27M19 41h15"/><defs><linearGradient id="catalogB" x1="55.317" y1="63" x2="-7.567" y2="10.55" gradientUnits="userSpaceOnUse"><stop stop-color="currentColor"/><stop offset="1" stop-color="currentColor" stop-opacity=".1"/></linearGradient><linearGradient id="catalogC" x1="56.462" y1="16.5" x2="40.515" y2="-.524" gradientUnits="userSpaceOnUse"><stop stop-color="currentColor"/><stop offset="1" stop-color="currentColor" stop-opacity=".1"/></linearGradient><filter id="catalogA" x="-3" y="-9" width="70" height="82" filterUnits="userSpaceOnUse" color-interpolation-filters="sRGB"><feFlood flood-opacity="0" result="BackgroundImageFix"/><feGaussianBlur in="BackgroundImage" stdDeviation="5"/><feComposite in2="SourceAlpha" operator="in" result="effect1_backgroundBlur_27_27325"/><feBlend in="SourceGraphic" in2="effect1_backgroundBlur_27_27325" result="shape"/></filter></defs></svg>
