<svg width="64" height="64" viewBox="0 0 64 64" fill="none" xmlns="http://www.w3.org/2000/svg">
<g filter="url(#filter0_b_703_7370)">
<path d="M40.9866 1H11C8.79086 1 7 2.79086 7 5V59C7 61.2091 8.79086 63 11 63H53C55.2091 63 57 61.2091 57 59V16.6562L40.9866 1Z" fill="url(#paint0_linear_703_7370)"/>
</g>
<path d="M41 12.123V1L57 16.5L44.8751 16.1211C42.7156 16.0536 41 14.2835 41 12.123Z" fill="url(#paint1_linear_703_7370)"/>
<line x1="19" y1="28" x2="46" y2="28" stroke="white" stroke-width="2" stroke-linecap="round"/>
<line x1="19" y1="41" x2="34" y2="41" stroke="white" stroke-width="2" stroke-linecap="round"/>
<defs>
<filter id="filter0_b_703_7370" x="-3" y="-9" width="70" height="82" filterUnits="userSpaceOnUse" color-interpolation-filters="sRGB">
<feFlood flood-opacity="0" result="BackgroundImageFix"/>
<feGaussianBlur in="BackgroundImageFix" stdDeviation="5"/>
<feComposite in2="SourceAlpha" operator="in" result="effect1_backgroundBlur_703_7370"/>
<feBlend mode="normal" in="SourceGraphic" in2="effect1_backgroundBlur_703_7370" result="shape"/>
</filter>
<linearGradient id="paint0_linear_703_7370" x1="55.3173" y1="63" x2="-7.56669" y2="10.5504" gradientUnits="userSpaceOnUse">
<stop stop-color="#32A3FD"/>
<stop offset="1" stop-color="#32A3FD" stop-opacity="0.1"/>
</linearGradient>
<linearGradient id="paint1_linear_703_7370" x1="56.4615" y1="16.5" x2="40.5152" y2="-0.524441" gradientUnits="userSpaceOnUse">
<stop stop-color="#32A3FD"/>
<stop offset="1" stop-color="#32A3FD" stop-opacity="0.1"/>
</linearGradient>
</defs>
</svg>
