<svg fill="none" xmlns="http://www.w3.org/2000/svg" viewBox="0 0 64 64"><g clip-path="url(#clip0_132_33716)"><rect width="64" height="64" rx="16" fill="url(#paint0_linear_132_33716)"/><path d="M13.388 36.754c-.122 1.991-1.423 3.657-3.251 4.226 1.788.61 3.129 2.235 3.25 4.226a4.728 4.728 0 0 1 3.251-4.226c-1.788-.61-3.129-2.235-3.25-4.226ZM17.452 31.065h-.284c-3.17 0-5.77-2.56-5.77-5.77 0-3.21 2.6-5.77 5.77-5.77 1.544 0 2.925.61 3.982 1.585a22.68 22.68 0 0 1 1.585-1.87 8.17 8.17 0 0 0-5.527-2.153c-4.51 0-8.208 3.697-8.208 8.208 0 4.51 3.698 8.208 8.208 8.208h.285c0-.406-.04-.812-.04-1.219 0-.406 0-.812.04-1.26" fill="#fff"/><path d="M36.185 13.51c-5.282 0-10.077 2.195-13.531 5.73a17.05 17.05 0 0 0-1.585 1.829c-2.113 2.804-3.413 6.258-3.657 9.956 0 .406-.04.812-.04 1.219 0 .406 0 .812.04 1.178.61 9.793 8.777 17.595 18.773 17.595C46.182 51.017 55 42.565 55 32.244c0-10.322-8.452-18.815-18.815-18.815m0 35.15c-8.777 0-15.97-6.949-16.335-15.604v-.731c0-.65.04-1.3.122-1.951.325-2.6 1.219-4.998 2.6-7.07a16.55 16.55 0 0 1 1.667-2.114c3.007-3.21 7.233-5.242 11.987-5.242 9.021 0 16.376 7.355 16.376 16.377 0 9.02-7.355 16.376-16.376 16.376" fill="#fff"/><path d="M49.473 31.837a1.006 1.006 0 0 1-1.016-1.016c0-4.47-3.007-8.452-7.315-9.712-.528-.162-.853-.731-.69-1.26.162-.528.731-.853 1.26-.69 5.16 1.503 8.777 6.298 8.777 11.662 0 .57-.447 1.016-1.016 1.016ZM32.772 40.452c-.894-1.219-3.454-4.957-3.454-4.957s-3.17 4.266-4.186 5.73c-.812 1.218-2.072 3.372-2.072 5.81 0 4.348 2.845 7.884 6.299 7.884s6.298-3.536 6.298-7.884c0-2.763-1.91-5.201-2.926-6.583M23.953 11.113 22.49 9l-1.788 2.438c-.366.528-.894 1.422-.894 2.479 0 1.87 1.219 3.373 2.682 3.373 1.463 0 2.682-1.504 2.682-3.373 0-1.178-.813-2.194-1.26-2.804" fill="#fff"/></g><defs><linearGradient id="paint0_linear_132_33716" x1="61.846" y1="64" x2="-4.1" y2="-4.205" gradientUnits="userSpaceOnUse"><stop stop-color="currentColor"/><stop offset="1" stop-color="currentColor" stop-opacity=".1"/></linearGradient><clipPath id="clip0_132_33716"><path fill="#fff" d="M0 0h64v64H0z"/></clipPath></defs></svg>
