<svg fill="none" xmlns="http://www.w3.org/2000/svg" viewBox="0 0 64 64"><g clip-path="url(#clip0_317_129262)"><rect width="64" height="64" rx="16" fill="url(#paint0_linear_317_129262)"/><path fill-rule="evenodd" clip-rule="evenodd" d="M54.007 8.097c-.382.12-.52.284-.896 1.062-.76 1.573-1.945 3.064-3.392 4.27-1.325 1.106-3.594 2.408-5.594 3.21l-.899.361-4.354-2.236c-2.617-1.344-4.555-2.299-4.856-2.393-.622-.193-1.587-.215-1.907-.043-.258.14-.474.373-.564.61-.05.132-.07 5.671-.07 18.428v18.24l.15.295c.232.454.518.57 1.387.565.615-.004.77-.03 1.238-.209.294-.112 2.083-1.002 3.975-1.977l3.44-1.774.97.33c2.668.91 5.135 2.199 6.904 3.607.316.252.938.834 1.383 1.294.933.965 1.614 1.94 2.19 3.13.442.915.628 1.083 1.187 1.074.565-.008.951-.407.951-.981 0-.295-.065-.48-.416-1.182-1.24-2.485-3.22-4.567-5.98-6.288-.918-.574-2.83-1.536-3.856-1.94-.412-.163-.749-.311-.748-.33 0-.018.261-.169.581-.334.706-.366 1.304-.931 1.59-1.505l.202-.401.037-7.51.55-.024c.679-.03 1.19-.262 1.618-.738.48-.534.601-.855.602-1.593.002-.709-.108-1.04-.507-1.537-.43-.535-1.335-.925-1.978-.853l-.287.033-.035-10.988-.215-.434a3.542 3.542 0 0 0-.535-.76c-.206-.211-.29-.338-.233-.358.047-.017.589-.28 1.203-.586 1.713-.852 3.05-1.706 4.294-2.743.576-.48 1.709-1.632 2.137-2.172a16.42 16.42 0 0 0 1.599-2.542c.433-.883.494-1.304.24-1.646-.287-.383-.722-.553-1.106-.432ZM36.833 16.1c.786.247 2.476 1.005 2.617 1.173.076.09.117.253.117.464 0 .317-.005.325-.251.394-.34.095-1.862.38-2.544.476-.349.05-.633.131-.769.222-.667.445-.551 1.468.199 1.754.336.129.782.085 2.422-.236l.943-.185v1.223c0 1.177-.006 1.229-.153 1.4a.45.45 0 0 1-.385.177c-.332 0-3.99-.666-4.318-.786-.169-.061-.304-.164-.351-.268-.102-.224-.106-4.5-.005-4.972.097-.454.305-.744.664-.93.26-.136.365-.152.777-.12.262.021.729.117 1.037.214Zm7.175 3.388c.243.244.498.585.613.82.195.4.196.406.216 1.808.02 1.332.013 1.417-.116 1.581a.683.683 0 0 1-.305.216c-.166.041-2.942-.435-3.28-.563-.325-.124-.37-.384-.35-2.013l.018-1.477 1.003-.29c.552-.16 1.124-.335 1.27-.39.148-.055.324-.102.392-.105.067-.003.31.183.54.413Zm-6.916 4.567.316.05c1.646.266 1.848.298 1.96.416l.006.008a.313.313 0 0 1 .01.012l.004.003.008.01.014.019.001.002.001.001.022.028c.128.162.133.278.133 2.924v2.755l-.17.159c-.191.18-.533.211-3.278.302l-1.474.048-.362-.43v-3.066c0-1.867.026-3.136.066-3.242.078-.203.428-.379.67-.336a460.7 460.7 0 0 0 2.073.337Zm5.774.936c1.672.28 1.807.317 1.907.538.053.116.077.848.077 2.335v2.167l-.157.183c-.154.178-.179.184-1.154.233a48.11 48.11 0 0 1-1.703.055c-.677.005-.715-.003-.87-.168l-.162-.172-.02-2.4c-.02-2.595.004-2.804.335-2.937l.006-.003h.003l.028-.012.02-.008.019-.006.016-.005c.16-.05.345-.018 1.61.192l.045.008Zm1.828 6.892c.154.153.166.2.115.45-.03.155-.049.506-.04.782.008.276.031 1.319.051 2.317l.036 1.815-.153.178c-.143.167-.261.197-1.756.445-1.355.225-1.632.254-1.797.185-.364-.15-.38-.273-.38-3.067 0-2.793.016-2.92.377-3.063.198-.079 1.658-.187 2.753-.205.585-.009.632 0 .794.163Zm-5.278.329.15.175v5.737l-.15.174c-.142.164-.275.195-2.346.533-1.741.285-2.237.345-2.394.29-.39-.136-.393-.156-.393-3.466v-3.018l.196-.196c.133-.134.266-.197.418-.2.122-.004 1.035-.06 2.028-.128 2.135-.145 2.287-.139 2.491.099Zm5.233 6.899.21.177-.02 1.378c-.022 1.364-.024 1.38-.212 1.738-.218.413-.69.942-1.085 1.214-.15.103-.586.328-.97.501l-.698.314-.502-.117c-.275-.064-.523-.15-.55-.191-.074-.112-.062-4.085.012-4.28a.649.649 0 0 1 .218-.268c.143-.093 2.815-.623 3.208-.637.103-.004.268.069.39.17Zm-5.233 1.003c.148.162.15.192.15 1.956v1.791l-.942-.185c-1.64-.321-2.086-.365-2.422-.236-.728.278-.865 1.274-.238 1.733.122.089.534.189 1.332.323l.345.057.008.002h.005l.012.003.018.003c.686.113.995.164 1.002.242.006.065-.192.147-.55.297a37.82 37.82 0 0 0-.247.105c-1.097.466-1.501.595-2.07.66-.672.075-1.123-.166-1.382-.743-.106-.236-.122-.53-.141-2.618-.024-2.548-.006-2.692.338-2.804.366-.12 4.314-.811 4.465-.782.055.01.13.048.199.095l.06.046.011.01.01.009.01.01.012.01.015.016Zm2.467-13.51c-.132.132-.176.243-.176.447 0 .75 1.007.905 1.277.196.083-.219-.032-.583-.227-.72-.238-.166-.669-.129-.874.076Zm-3.863 9.749c-.285.092-.503.461-.434.734a.659.659 0 0 0 1.116.313c.254-.253.265-.581.03-.861-.196-.233-.402-.287-.712-.186ZM10.938 12.38c-.495.262-.866.834-.865 1.335.001.583.634 1.568 1.737 2.705 1.088 1.12 2.405 2.072 3.942 2.848l.407.205v3.938c0 2.572-.006 3.49-.046 3.812v2.42c.045.373.046 1.484.046 5.013v9.201l-.002.002.002.067c0 .164-.058.228-.382.421-.787.471-2.02 1.463-2.829 2.275-1.243 1.25-2.655 3.11-2.817 3.712-.276 1.026.675 2.04 1.73 1.844.518-.096.789-.32 1.28-1.053.506-.757 1.358-1.782 2.057-2.474l.201-.2c.383-.381.574-.572.669-.532.095.04.093.309.091.846V49.048c0 1.419.045 1.575.541 1.857.262.149.37.167.963.164.867-.005 1.26-.14 2.993-1.033l1.321-.68v-2.322l-.482.164c-1.01.343-1.8.271-2.157-.196-.156-.205-.363-.808-.299-.873.017-.017.3-.108.626-.203.759-.22 1.728-.329 2.42-.272.678.056 1.02-.03 1.372-.35.543-.49.676-1.132.37-1.79-.343-.734-.935-.939-2.552-.88-.717.025-1.267.083-1.669.175-.329.076-.607.137-.618.137-.04 0-.006-1.24.038-1.398.08-.288.332-.399 1.313-.576.515-.093 1.094-.2 1.287-.24l.351-.069v-.697c0-.384-.014-.698-.031-.698s-.506.078-1.087.173c-1.343.22-1.461.22-1.683 0-.166-.168-.175-.212-.18-.894-.002-.394.023-.773.056-.841.04-.08.036-.15-.011-.197-.081-.081-.095-4.17-.015-4.455a.682.682 0 0 1 .224-.294c.154-.115.35-.143 1.453-.202l1.274-.069v-1.445l-.384.03c-1.195.096-2.037.098-2.256.006-.37-.154-.38-.253-.356-3.665l.02-3.058.177-.178c.143-.142.234-.175.469-.166.219.009.676.082.93.137l1.4.209v-1.4l-.35-.07a108.86 108.86 0 0 0-1.288-.24c-.98-.177-1.232-.287-1.313-.575-.072-.258-.066-1.466.007-1.466.036 0 .385.093.775.206 1.003.29 2.202.532 2.655.537.877.01 1.523-.625 1.52-1.493a1.44 1.44 0 0 0-.498-1.11c-.314-.276-.375-.3-1.276-.478-.86-.17-1.467-.33-2.456-.648-.779-.25-.79-.26-.642-.699.279-.833 1.077-1.06 2.341-.663.234.073.447.134.475.134.028 0 .05-.518.05-1.153l-.002-1.153-1.42-.718c-1.846-.932-2.574-1.144-3.393-.99-.417.08-.635.217-.853.536-.144.213-.15.279-.15 1.65 0 .785-.018 1.428-.04 1.428-.02 0-.313-.188-.649-.418-.789-.54-1.707-1.415-2.196-2.09-.601-.833-.738-.982-1.027-1.113-.36-.163-.993-.16-1.309.007Zm13.417 18.065v-5.36c.028-.569.03-2.042.03-5.69V13.28l.15-.297c.162-.32.45-.526.847-.608.378-.078 1.13.005 1.682.186.279.09 1.076.46 1.773.82l1.266.654.037 2.349-.42-.128c-.56-.172-1.222-.229-1.566-.136a1.277 1.277 0 0 0-.486.29c-.38.388-.407.613-.407 3.31v2.433l.155.155c.155.155.198.165 2.252.537l.435.078.02.716c.01.393.01.715 0 .714l-.035-.005-.037-.006a101.524 101.524 0 0 1-.918-.155c-1.253-.215-1.496-.216-1.707-.005l-.162.163v6.425l.32.372 1.16-.02c.637-.012 1.211-.037 1.276-.055.106-.031.117.032.117.697v.731l-.92.044c-1.392.067-1.623.103-1.801.281l-.155.155v6.3l.164.163c.212.212.453.212 1.708-.003.534-.091.979-.166.99-.166.01 0 .01.32 0 .714l-.02.715-.435.079c-2.063.373-2.097.381-2.255.54l-.158.158.04 4.987.168.332c.31.61.922.77 1.944.505.273-.07.548-.149.613-.174.108-.043.117.036.117 1.114V49.4l-1.321.678c-1.707.876-2.056.995-2.926.992-.716-.001-.93-.068-1.223-.382a1.138 1.138 0 0 1-.217-.39c-.04-.144-.065-3.86-.065-10.043 0-5.287-.014-9.632-.03-9.81ZM51.36 17.331c-.59.124-1.24.595-1.579 1.145-.204.331-.335.93-.3 1.368.111 1.39 1.375 2.375 2.768 2.156 1.739-.272 2.552-2.341 1.489-3.787-.503-.683-1.523-1.062-2.378-.882Zm-39.269 3.023a.286.286 0 0 0-.08.17c0 .05-.076.166-.168.259-.148.147-.204.162-.469.123-.395-.06-.5.03-.501.43-.001.38-.028.422-.387.604-.158.08-.303.188-.323.239-.02.05.043.226.139.39.19.323.174.446-.1.785-.177.22-.118.367.215.537.303.155.38.317.339.713-.026.25-.011.29.131.344a.725.725 0 0 0 .334.028c.239-.046.45.084.558.341.152.366.255.41.568.248.332-.173.534-.178.742-.019.352.27.487.225.743-.249.111-.205.133-.214.482-.2.467.02.561-.061.586-.498.02-.338.028-.35.338-.513.36-.19.41-.364.184-.65-.179-.228-.169-.435.033-.675.244-.29.218-.452-.098-.613-.337-.172-.422-.332-.368-.693.054-.36-.023-.43-.505-.458-.36-.02-.369-.026-.5-.308-.161-.348-.334-.407-.643-.22-.298.182-.474.175-.716-.028-.216-.181-.408-.213-.534-.087Zm-.11 1.89c.448.448-.134 1.145-.703.84-.147-.078-.28-.428-.224-.588.149-.421.627-.551.927-.252Zm2.638.906c.091.219.038.554-.105.673-.054.044-.223.08-.376.08-.333 0-.522-.185-.522-.515 0-.54.8-.73 1.003-.238Zm36.978 21.09c.255-.31.508-.491.934-.67.324-.138.463-.157.98-.137.642.026 1.044.173 1.488.547.516.434.871 1.35.79 2.04a2.488 2.488 0 0 1-1.394 1.915c-.357.164-.5.19-.993.19-.513-.001-.624-.025-1.016-.218a2.377 2.377 0 0 1-.79-3.667ZM8.185 33.578a.287.287 0 0 0-.08.17c0 .05-.076.166-.168.258-.148.148-.205.163-.47.123-.394-.059-.499.03-.5.43-.001.381-.028.423-.387.605-.158.08-.304.187-.323.238-.02.051.043.227.138.39.19.324.175.446-.098.785-.178.22-.12.368.214.538.303.154.38.317.339.712-.026.251-.011.29.131.345a.727.727 0 0 0 .334.028c.239-.046.45.083.558.341.152.366.255.41.567.247.333-.173.535-.178.743-.018.352.27.487.225.743-.25.11-.204.133-.213.481-.2.467.02.562-.06.587-.497.02-.338.027-.35.338-.513.36-.19.41-.364.184-.65-.18-.228-.169-.436.033-.676.244-.29.218-.452-.098-.613-.337-.172-.422-.332-.368-.693.054-.36-.024-.43-.506-.457-.359-.02-.368-.026-.499-.308-.162-.349-.334-.408-.643-.22-.298.182-.475.175-.716-.028-.216-.182-.408-.213-.534-.087Zm-.11 1.89c.448.448-.135 1.144-.703.84-.148-.079-.28-.428-.224-.588.148-.421.627-.552.926-.252Zm2.638.905c.09.22.038.555-.106.674-.053.044-.222.08-.375.08-.334 0-.522-.186-.522-.515 0-.54.8-.73 1.003-.239Z" fill="#fff"/></g><defs><linearGradient id="paint0_linear_317_129262" x1="61.846" y1="64" x2="-4.1" y2="-4.205" gradientUnits="userSpaceOnUse"><stop stop-color="currentColor"/><stop offset="1" stop-color="currentColor" stop-opacity=".1"/></linearGradient><clipPath id="clip0_317_129262"><path fill="#fff" d="M0 0h64v64H0z"/></clipPath></defs></svg>
