<svg fill="none" xmlns="http://www.w3.org/2000/svg" viewBox="0 0 88 88"><rect y="23" width="87" height="38" rx="5" fill="url(#paint0_linear_1841_6088)"/><path stroke="#fff" stroke-width="1.5" stroke-linecap="round" d="M81.25 30.75h-9.5M82.25 50.75H4.75M82.25 55.75H4.75"/><path d="M33.779 66c-1.375.586-4.067 2.921-2.062 6.685 2.062 3.87 7.216 5.982 2.062 12.315" stroke="url(#paint1_linear_1841_6088)" stroke-width="1.5" stroke-linecap="round"/><path d="M43.779 66c-1.375.586-4.067 2.921-2.062 6.685 2.062 3.87 7.216 5.982 2.062 12.315" stroke="url(#paint2_linear_1841_6088)" stroke-width="1.5" stroke-linecap="round"/><path d="M53.779 66c-1.375.586-4.067 2.921-2.062 6.685 2.062 3.87 7.216 5.982 2.062 12.315" stroke="url(#paint3_linear_1841_6088)" stroke-width="1.5" stroke-linecap="round"/><defs><linearGradient id="paint0_linear_1841_6088" x1="84.072" y1="61" x2="55.989" y2="-5.496" gradientUnits="userSpaceOnUse"><stop stop-color="#32A3FD"/><stop offset="1" stop-color="#32A3FD" stop-opacity=".1"/></linearGradient><linearGradient id="paint1_linear_1841_6088" x1="35.832" y1="85" x2="25.904" y2="82.298" gradientUnits="userSpaceOnUse"><stop stop-color="#32A3FD"/><stop offset="1" stop-color="#32A3FD" stop-opacity=".1"/></linearGradient><linearGradient id="paint2_linear_1841_6088" x1="45.832" y1="85" x2="35.904" y2="82.298" gradientUnits="userSpaceOnUse"><stop stop-color="#32A3FD"/><stop offset="1" stop-color="#32A3FD" stop-opacity=".1"/></linearGradient><linearGradient id="paint3_linear_1841_6088" x1="55.832" y1="85" x2="45.904" y2="82.298" gradientUnits="userSpaceOnUse"><stop stop-color="#32A3FD"/><stop offset="1" stop-color="#32A3FD" stop-opacity=".1"/></linearGradient></defs></svg>