<svg fill="none" xmlns="http://www.w3.org/2000/svg" viewBox="0 0 64 64"><path fill-rule="evenodd" clip-rule="evenodd" d="M47.603 8C39.09 8 32.19 14.9 32.19 23.412c0 8.511 6.9 15.411 15.412 15.411 2.233 0 4.356-.475 6.273-1.33.329-.147.71-.12 1.021.063 1.072.628 2.681 1.292 5.036 1.899.857.22 1.538-.743 1.128-1.526a30.065 30.065 0 0 1-1.68-3.826c-.117-.333-.038-.7.184-.974a15.348 15.348 0 0 0 3.45-9.717C63.014 14.9 56.114 8 47.602 8Z" fill="url(#paint0_linear_218_48830)"/><path fill-rule="evenodd" clip-rule="evenodd" d="M25.256 13.394c12.341 0 22.346 10.005 22.346 22.347S37.597 58.088 25.256 58.088c-3.332 0-6.494-.73-9.335-2.038a1.081 1.081 0 0 0-1.017.066c-1.695 1.038-4.397 2.154-8.562 3.143-.86.204-1.534-.756-1.106-1.53 1.012-1.828 2.155-4.21 3.025-6.727a1.01 1.01 0 0 0-.188-.973A22.256 22.256 0 0 1 2.909 35.74c0-12.342 10.005-22.347 22.347-22.347Z" fill="url(#paint1_linear_218_48830)"/><path stroke="#fff" stroke-width="1.5" stroke-linecap="round" d="M12.386 31.25h15.955M12.386 37.795H23.25"/><defs><linearGradient id="paint0_linear_218_48830" x1="61.977" y1="39.487" x2="29.517" y2="6.622" gradientUnits="userSpaceOnUse"><stop stop-color="#fff"/><stop offset="1" stop-color="#fff" stop-opacity=".1"/></linearGradient><linearGradient id="paint1_linear_218_48830" x1="4.413" y1="59.287" x2="51.727" y2="11.631" gradientUnits="userSpaceOnUse"><stop stop-color="#fff"/><stop offset="1" stop-color="#fff" stop-opacity=".1"/></linearGradient></defs></svg>