<svg fill="none" xmlns="http://www.w3.org/2000/svg" viewBox="0 0 88 88"><path fill-rule="evenodd" clip-rule="evenodd" d="M65.454 11c-11.704 0-21.191 9.488-21.191 21.19 0 11.704 9.487 21.192 21.19 21.192 3.15 0 6.139-.687 8.825-1.92.328-.15.71-.122 1.018.066 1.592.97 4.113 2.01 7.974 2.936.86.206 1.534-.754 1.108-1.53-.94-1.711-1.993-3.916-2.799-6.244a1.01 1.01 0 0 1 .188-.973 21.105 21.105 0 0 0 4.877-13.526C86.644 20.487 77.157 11 65.454 11Z" fill="url(#paint0_linear_217_48074)"/><path fill-rule="evenodd" clip-rule="evenodd" d="M35.454 18.417c16.568 0 30 13.431 30 30v1.453c0 16.569-13.432 30-30 30H34a29.89 29.89 0 0 1-12.556-2.746 1.056 1.056 0 0 0-.992.06c-2.45 1.491-6.412 3.098-12.598 4.498-.862.195-1.53-.764-1.09-1.53 1.472-2.564 3.231-6.114 4.549-9.892.118-.337.04-.71-.19-.982A29.88 29.88 0 0 1 4 49.87v-1.453c0-16.569 13.431-30 30-30h1.454Z" fill="url(#paint1_linear_217_48074)"/><path stroke="#fff" stroke-width="1.5" stroke-linecap="round" d="M16.75 43.25h22.5M16.75 52.25h15.5"/><defs><linearGradient id="paint0_linear_217_48074" x1="85.218" y1="54.971" x2="39.884" y2="9.779" gradientUnits="userSpaceOnUse"><stop stop-color="currentColor"/><stop offset="1" stop-color="currentColor" stop-opacity=".1"/></linearGradient><linearGradient id="paint1_linear_217_48074" x1="6.068" y1="82.175" x2="71.802" y2="16.647" gradientUnits="userSpaceOnUse"><stop stop-color="currentColor"/><stop offset="1" stop-color="currentColor" stop-opacity=".1"/></linearGradient></defs></svg>
