<svg viewBox="0 0 64 64" fill="none" xmlns="http://www.w3.org/2000/svg"><g filter="url(#downloadAG)"><path d="M40.987 1H11a4 4 0 0 0-4 4v54a4 4 0 0 0 4 4h42a4 4 0 0 0 4-4V16.656L40.987 1Z" fill="url(#downloadBG)"/></g><path d="M41 12.123V1l16 15.5-12.125-.379A4 4 0 0 1 41 12.123Z" fill="url(downloadCG)"/><path d="M31 23v13M26 33l5 5 5-5" stroke="#fff" stroke-width="2" stroke-linecap="round" stroke-linejoin="round"/><path stroke="#fff" stroke-width="2" stroke-linecap="round" d="M25 44h13"/><defs><linearGradient id="downloadBG" x1="55.317" y1="63" x2="-7.567" y2="10.55" gradientUnits="userSpaceOnUse"><stop stop-color="currentColor" stop-opacity=".5"/><stop offset="1" stop-color="currentColor" stop-opacity="0"/></linearGradient><linearGradient id="downloadCG" x1="56.462" y1="16.5" x2="40.515" y2="-.524" gradientUnits="userSpaceOnUse"><stop stop-color="currentColor" stop-opacity=".5"/><stop offset="1" stop-color="currentColor" stop-opacity="0"/></linearGradient><filter id="downloadAG" x="-3" y="-9" width="70" height="82" filterUnits="userSpaceOnUse" color-interpolation-filters="sRGB"><feFlood flood-opacity="0" result="BackgroundImageFix"/><feGaussianBlur in="BackgroundImage" stdDeviation="5"/><feComposite in2="SourceAlpha" operator="in" result="effect1_backgroundBlur_105_28848"/><feBlend in="SourceGraphic" in2="effect1_backgroundBlur_105_28848" result="shape"/></filter></defs></svg>
