<svg fill="none" xmlns="http://www.w3.org/2000/svg" viewBox="0 0 88 88"><g clip-path="url(#clip0_1841_5688)"><path d="M41.89 16.113a5 5 0 0 1 4.22 0l37.036 17.239c3.853 1.793 3.853 7.272 0 9.066L46.11 59.657a5 5 0 0 1-4.22 0L4.854 42.417C1 40.625 1 35.146 4.854 33.353l37.036-17.24Z" fill="url(#paint0_linear_1841_5688)"/><path fill-rule="evenodd" clip-rule="evenodd" d="M21.005 49.935v19.578c0 2.886 10.061 5.226 22.472 5.226 12.412 0 22.473-2.34 22.473-5.226V50.422l-19.84 9.235a5 5 0 0 1-4.22 0l-20.885-9.721Z" fill="url(#paint1_linear_1841_5688)"/><path d="M74.5 46.5 45 34" stroke="#fff" stroke-width="2" stroke-linecap="round"/><path fill-rule="evenodd" clip-rule="evenodd" d="M73.18 47.056v9.562a4.183 4.183 0 0 0 1 8.241 4.18 4.18 0 0 0 1-8.241V46.125l-2 .931Z" fill="url(#paint2_linear_1841_5688)"/></g><defs><linearGradient id="paint0_linear_1841_5688" x1="42.355" y1="85.124" x2="44.08" y2="-17.344" gradientUnits="userSpaceOnUse"><stop stop-color="#fff"/><stop offset="1" stop-color="#fff" stop-opacity=".1"/></linearGradient><linearGradient id="paint1_linear_1841_5688" x1="64.437" y1="74.739" x2="43.195" y2="34.929" gradientUnits="userSpaceOnUse"><stop stop-color="#fff"/><stop offset="1" stop-color="#fff" stop-opacity=".1"/></linearGradient><linearGradient id="paint2_linear_1841_5688" x1="78.08" y1="64.859" x2="63.38" y2="58.073" gradientUnits="userSpaceOnUse"><stop stop-color="#fff"/><stop offset="1" stop-color="#fff" stop-opacity=".1"/></linearGradient><clipPath id="clip0_1841_5688"><path fill="#fff" d="M0 0h88v88H0z"/></clipPath></defs></svg>