<svg fill="none" xmlns="http://www.w3.org/2000/svg" viewBox="0 0 64 64"><g clip-path="url(#clip0_318_112332)"><rect width="64" height="64" rx="16" fill="url(#paint0_linear_318_112332)"/><path fill-rule="evenodd" clip-rule="evenodd" d="M11.92 26.533h14.63c3.963 0 7.202-3.24 7.202-7.202 0-3.962-3.239-7.2-7.201-7.2-3.963 0-7.201 3.238-7.201 7.2 0 .838.647 1.486 1.486 1.486.838 0 1.486-.648 1.486-1.486a4.196 4.196 0 0 1 4.229-4.229 4.196 4.196 0 0 1 4.23 4.23 4.22 4.22 0 0 1-4.23 4.229H11.92c-.838 0-1.486.647-1.486 1.486 0 .838.648 1.486 1.486 1.486Zm34.483 6.97h-34.52a1.464 1.464 0 0 1-1.486-1.485c0-.838.647-1.486 1.486-1.486h34.52a4.22 4.22 0 0 0 4.229-4.23 4.196 4.196 0 0 0-4.23-4.229 4.196 4.196 0 0 0-4.229 4.23c0 .838-.647 1.485-1.486 1.485a1.464 1.464 0 0 1-1.486-1.486c0-3.962 3.24-7.2 7.202-7.2 3.962 0 7.2 3.238 7.2 7.2 0 3.963-3.238 7.202-7.2 7.202ZM33.523 51.87c-3.962 0-7.2-3.239-7.2-7.201 0-.839.647-1.486 1.485-1.486.838 0 1.486.647 1.486 1.486a4.22 4.22 0 0 0 4.23 4.229 4.196 4.196 0 0 0 4.229-4.23 4.196 4.196 0 0 0-4.23-4.229H11.92a1.464 1.464 0 0 1-1.485-1.486c0-.838.647-1.486 1.486-1.486h21.603c3.963 0 7.201 3.239 7.201 7.202 0 3.962-3.238 7.2-7.2 7.2Z" fill="#fff"/></g><defs><linearGradient id="paint0_linear_318_112332" x1="61.846" y1="64" x2="-4.1" y2="-4.205" gradientUnits="userSpaceOnUse"><stop stop-color="currentColor"/><stop offset="1" stop-color="currentColor" stop-opacity=".1"/></linearGradient><clipPath id="clip0_318_112332"><path fill="#fff" d="M0 0h64v64H0z"/></clipPath></defs></svg>
