<svg fill="none" xmlns="http://www.w3.org/2000/svg" viewBox="0 0 88 88"><g clip-path="url(#clip0_1841_6099)"><path fill-rule="evenodd" clip-rule="evenodd" d="M67.356 16.844h14.746L88 83.875H.507v-53.5a1 1 0 0 1 1.486-.874L30.982 45.65V30.375a1 1 0 0 1 1.486-.874l32.195 17.935 2.693-30.592Zm-42.86 67.03V71.88a9.173 9.173 0 1 1 18.346 0v11.995H24.497Z" fill="url(#paint0_linear_1841_6099)"/><path d="M68.597 16.5a2 2 0 0 0-1.992 1.826L60.974 82.7a2 2 0 0 0 1.992 2.174H86.91a2 2 0 0 0 1.992-2.174l-5.63-64.375a2 2 0 0 0-1.993-1.826H68.597Z" stroke="#F8F8F8" stroke-width="2"/></g><defs><linearGradient id="paint0_linear_1841_6099" x1="85.055" y1="83.875" x2="18.945" y2="-5.371" gradientUnits="userSpaceOnUse"><stop stop-color="#32A3FD"/><stop offset="1" stop-color="#32A3FD" stop-opacity=".1"/></linearGradient><clipPath id="clip0_1841_6099"><path fill="#fff" d="M0 0h88v88H0z"/></clipPath></defs></svg>