<svg fill="none" xmlns="http://www.w3.org/2000/svg" viewBox="0 0 64 64"><g clip-path="url(#clip0_317_129522)"><rect width="64" height="64" rx="16" fill="url(#paint0_linear_317_129522)"/><path d="M29.05 19.287c8.808 0 16.154 6.057 18.216 14.22h8.979c-2.105-10.912-11.728-19.16-23.285-19.16s-21.137 8.248-23.285 19.16h1.16c2.019-8.163 9.408-14.22 18.215-14.22ZM9.677 42.314V37.63c-.602.472-1.289.86-2.062 1.074v-1.117c1.117-.473 1.933-1.074 2.363-1.847h1.03v6.573H9.678ZM48.814 37.46v4.854h1.332v-6.787h-1.074c-.43.773-1.246 1.417-2.406 1.89v1.16c.816-.258 1.504-.602 2.148-1.117ZM53.111 41.24h3.222v1.116h-4.94v-.859c.515-.816 1.203-1.503 2.019-2.148 1.074-.816 1.59-1.417 1.503-1.804 0-.602-.386-.902-1.03-.945-.645 0-1.032.386-1.16 1.16l-1.29-.258c.258-1.332 1.16-2.02 2.664-2.02 1.418.044 2.148.688 2.277 1.891.086.86-.43 1.633-1.504 2.277-.73.473-1.288 1.031-1.76 1.59Z" fill="#fff"/><path fill-rule="evenodd" clip-rule="evenodd" d="M34.38 27.664c1.975-7.26 6.701 11.385 6.701 11.385 1.16 7.733-7.518 1.632-9.838-.086a3.526 3.526 0 0 1-2.921 1.547c-.473 0-.902-.086-1.332-.258-.988 1.203 1.933 4.296 1.933 4.296l2.621 2.792c4.554 5.972-13.146-1.503-13.146-1.503-7.26-3.996 4.683-7.476 6.487-7.948a3.352 3.352 0 0 1-.129-.945c0-1.117.559-2.148 1.418-2.793-.816-1.332-4.726.215-4.726.215l-3.566 1.418c-7.26 2.019 6.316-11.6 6.316-11.6 6.916-5.67 4.897 9.194 4.897 9.194l-.129.086c1.203.258 2.191 1.074 2.621 2.148 1.504-.172 2.148-4.167 2.148-4.167l.644-3.78Zm-7.948 9.366c0 .945.773 1.718 1.718 1.718s1.718-.816 1.718-1.718c0-.903-.773-1.676-1.718-1.676s-1.718.73-1.718 1.676Z" fill="#fff"/></g><defs><linearGradient id="paint0_linear_317_129522" x1="61.846" y1="64" x2="-4.1" y2="-4.205" gradientUnits="userSpaceOnUse"><stop stop-color="currentColor"/><stop offset="1" stop-color="currentColor" stop-opacity=".1"/></linearGradient><clipPath id="clip0_317_129522"><path fill="#fff" d="M0 0h64v64H0z"/></clipPath></defs></svg>
