<svg fill="none" xmlns="http://www.w3.org/2000/svg" viewBox="0 0 64 64"><g clip-path="url(#clip0_318_112292)"><rect width="64" height="64" rx="16" fill="url(#paint0_linear_318_112292)"/><path d="M32.02 55.017c-.325 0-.57-.122-.773-.325L14.813 36.265l-.691-.814a12.679 12.679 0 0 1-1.424-1.912 31.99 31.99 0 0 1-1.79-2.888 17.107 17.107 0 0 1-1.342-3.58c-.407-1.545-.61-2.806-.61-3.986 0-4.393 1.057-7.688 3.254-10.088 2.196-2.36 5.166-3.54 8.868-3.54 1.057 0 2.156.204 3.091.61 1.017.326 2.034.896 3.01 1.669a41.84 41.84 0 0 1 2.482 2.074c.57.61 1.302 1.343 1.912 2.034l.407.488.406-.488c.651-.732 1.22-1.423 1.912-2.034.773-.691 1.627-1.383 2.482-2.074.773-.61 1.749-1.14 3.01-1.668a7.91 7.91 0 0 1 3.091-.61c3.743 0 6.712 1.22 8.787 3.62 2.115 2.278 3.213 5.573 3.376 10.007 0 4.312-1.912 8.664-5.898 13.261L32.712 54.651a.945.945 0 0 1-.773.366M18.027 12.183c-.814.122-1.627.448-2.604.976a7.996 7.996 0 0 0-2.318 1.994c-.61.813-1.099 1.87-1.546 3.213-.407 1.261-.57 2.767-.57 4.597 0 3.62 1.668 7.322 5.126 11.35l15.742 17.613L47.52 34.434c3.498-4.068 5.125-7.932 4.881-11.512 0-1.749-.203-3.295-.57-4.556-.284-1.139-.813-2.278-1.545-3.213-.651-.854-1.424-1.546-2.319-1.994-.691-.406-1.546-.732-2.563-.976a12.417 12.417 0 0 0-2.725-.284c-1.017 0-2.156.325-3.254.894-1.302.692-2.238 1.343-3.051 2.075l-.57.57c-.61.61-1.22 1.138-1.708 1.667-.651.773-1.22 1.424-1.627 1.994-.163.244-.366.406-.814.406-.244 0-.57-.081-.773-.366-.366-.61-.895-1.22-1.627-1.993-.488-.488-1.098-1.058-1.709-1.668l-.569-.57c-.773-.732-1.75-1.383-3.05-2.074-1.221-.61-2.238-.895-3.255-.895s-1.871.082-2.685.285" fill="#fff"/><path d="M31.224 42.097v-3.34l-2.306 2.305-.8-.753 3.011-3.012.095-3.765-3.06 1.788-1.223 4.283-1.083-.282.848-3.154-2.871 1.648-.753-1.318 2.87-1.647-3.153-.894.283-1.036 4.094 1.083 2.871-1.553.424-.236-3.06-1.741-4.33 1.082-.282-1.082 3.154-.847-2.871-1.647.753-1.365 2.87 1.694-.847-3.153 1.083-.283 1.082 4.095L30.8 30.66l.424.235v-3.53l-3.107-3.2.8-.8 2.306 2.354v-3.342h1.507v3.342l2.353-2.354.753.8-3.012 3.012-.094 3.718 3.106-1.74 1.223-4.284 1.036.283-.847 3.153 2.918-1.694.752 1.365-2.917 1.647 3.2.847-.283 1.082-4.141-1.13-2.87 1.554-.377.235 3.059 1.789 4.33-1.083.282 1.036-3.2.894 2.917 1.647-.752 1.318-2.918-1.648.847 3.154-1.036.282-1.13-4.094-3.2-1.977v3.577l3.107 3.2-.753.753-2.353-2.306v3.341h-1.506Z" fill="#fff"/></g><defs><linearGradient id="paint0_linear_318_112292" x1="61.846" y1="64" x2="-4.1" y2="-4.205" gradientUnits="userSpaceOnUse"><stop stop-color="currentColor"/><stop offset="1" stop-color="currentColor" stop-opacity=".1"/></linearGradient><clipPath id="clip0_318_112292"><path fill="#fff" d="M0 0h64v64H0z"/></clipPath></defs></svg>
