<svg fill="none" xmlns="http://www.w3.org/2000/svg" viewBox="0 0 64 64"><g clip-path="url(#clip0_317_129178)"><rect width="64" height="64" rx="16" fill="url(#paint0_linear_317_129178)"/><path d="M38.215 37.578s-1.952.127-3.31-1.315l-.042.043c-2.036-2.121-.806-5.685-.806-5.685s.297.552 1.952 1.188c1.357.509 2.545 1.4 2.884 3.097.34 1.696-.339 2.545-.339 2.545s-1.358-.891-2.545-2.376c-1.103-1.357-1.273-2.418-1.273-2.418s.085 1.485 1.188 2.885c1.188 1.484 2.29 2.036 2.29 2.036ZM25.234 47.334c0 .89.721 1.57 1.57 1.57.848 0 1.569-.68 1.569-1.57s-.679-1.57-1.57-1.57c-.89 0-1.57.722-1.57 1.57Z" fill="#fff"/><path fill-rule="evenodd" clip-rule="evenodd" d="M29.985 51.323v-.056l5.769-3.355v.016l6.448-3.775V5.508l-6.448 3.776v.006l-5.77 3.355v-.01l-5.939 3.455v-.061l-6.448 3.775v38.688l6.406-3.751v.061l5.982-3.479Zm6.83-41.446v10.69l4.326-2.502V7.375l-4.327 2.502Zm-1.061 27.7v.065a5.244 5.244 0 0 1-.975-.663v-.036h-.043l.043.037v10.313l-3.86 2.249v-10.69l3.605-2.121h-.085c-.192-.225-.337-.45-.469-.657l-.044-.068-.026-.04.073-.042c-.212-.297-.339-.636-.466-.976v.042l-2.546 1.485V26.336l3.86-2.248v6.321s.433.288.933.533v.062s.297.127.509.212c.212.085.382.17.551.297v-8.57l4.327-2.502v10.138l-3.054 1.782c.297.254.51.509.721.806l.034-.02c.177.261.321.526.433.824l1.866-1.102v10.69l-4.327 2.503v-8.06a4.251 4.251 0 0 1-1.06-.425Zm-4.836-15.092v1.518l3.86-2.248v-10.69l-3.86 2.248v4.822a2.36 2.36 0 0 1 1.442 2.179c0 .97-.6 1.801-1.442 2.17Zm-1.994-.023v2.688l-3.86 2.248v-10.69l3.86-2.248v3.697a2.349 2.349 0 0 0-1.358 2.157c0 .95.555 1.768 1.358 2.148Zm-3.86 19.826v10.69l3.86-2.248V40.04l-3.86 2.248Zm0-2.378V29.772l3.86-2.248v10.138l-3.86 2.248Zm-6.406-8.78V20.483l4.327-2.546v10.69l-4.327 2.503Zm0 12.471 4.327-2.545V30.918l-4.327 2.502v10.181Zm0 13.067v-10.69l4.327-2.546v10.69l-4.327 2.546Z" fill="#fff"/><path d="M14.587 21.5a2.19 2.19 0 0 1-2.206-2.205 2.19 2.19 0 0 1 2.206-2.206 2.19 2.19 0 0 1 2.206 2.206 2.19 2.19 0 0 1-2.206 2.206ZM10.132 40.76a2.19 2.19 0 0 1-2.206-2.206 2.19 2.19 0 0 1 2.206-2.206 2.19 2.19 0 0 1 2.206 2.206 2.19 2.19 0 0 1-2.206 2.206ZM11.277 28.628c0 .933.764 1.654 1.655 1.654.89 0 1.654-.763 1.654-1.654 0-.891-.763-1.655-1.654-1.655-.891 0-1.655.764-1.655 1.655ZM15.307 49.075a1.792 1.792 0 0 1-1.782-1.782c0-.975.806-1.781 1.782-1.781.975 0 1.781.806 1.781 1.781 0 .976-.806 1.782-1.781 1.782ZM46.826 26.125c-1.4.51-2.587 1.442-2.884 3.14-.34 1.696.339 2.545.339 2.545s1.358-.891 2.545-2.376c1.103-1.357 1.273-2.418 1.273-2.418s-.085 1.485-1.188 2.885c-1.188 1.485-2.29 2.036-2.29 2.036s1.95.127 3.308-1.315c2.036-2.121.806-5.685.806-5.685s-.297.552-1.951 1.188h.042ZM47.208 34.142c-1.697 2.417-.976 5.26-.976 5.26s.51-1.782 2.333-3.946c1.74-2.036 3.903-2.587 3.903-2.587s-1.485.594-3.181 2.587c-1.824 2.206-2.715 4.455-2.715 4.455s1.484.72 3.86-.255c2.375-.975 3.351-3.012 3.733-5.175.424-2.588 1.188-3.224 1.188-3.224s-.467-.085-1.188-.085c-1.782 0-5.09.382-6.915 2.927l-.042.043ZM48.711 45.46a.476.476 0 0 0-.06-.034l.042.043.018-.008ZM48.711 45.46c.17.109.685.517 1.34 1.79.678 1.316 1.696 2.419 3.393 2.546 1.697.17 2.503-.594 2.503-.594s-1.018-1.273-2.63-2.29c-1.485-.934-2.546-1.019-2.546-1.019s1.485-.085 3.012.89c1.612 1.019 2.291 2.037 2.291 2.037s-.085-1.951-1.654-3.14c-.849-.635-1.824-.847-2.758-.847-1.503 0-2.785.553-2.951.628ZM44.96 20.312a2.19 2.19 0 0 0 2.205 2.206 2.19 2.19 0 0 0 2.206-2.206 2.19 2.19 0 0 0-2.206-2.206 2.19 2.19 0 0 0-2.206 2.206ZM44.96 50.39a2.19 2.19 0 0 1-2.207-2.206 2.19 2.19 0 0 1 2.206-2.206 2.19 2.19 0 0 1 2.206 2.206 2.19 2.19 0 0 1-2.206 2.206Z" fill="#fff"/></g><defs><linearGradient id="paint0_linear_317_129178" x1="61.846" y1="64" x2="-4.1" y2="-4.205" gradientUnits="userSpaceOnUse"><stop stop-color="currentColor"/><stop offset="1" stop-color="currentColor" stop-opacity=".1"/></linearGradient><clipPath id="clip0_317_129178"><path fill="#fff" d="M0 0h64v64H0z"/></clipPath></defs></svg>
