<svg fill="none" xmlns="http://www.w3.org/2000/svg" viewBox="0 0 64 64"><g clip-path="url(#clip0_132_34280)"><rect width="64" height="64" rx="16" fill="url(#paint0_linear_132_34280)"/><path d="M33.456 50.182h-2.912a.527.527 0 0 0-.524.523v1.656c0 .29.238.528.524.528h2.912a.529.529 0 0 0 .528-.528v-1.655a.528.528 0 0 0-.528-.524Zm0-36.356h-2.912a.527.527 0 0 0-.524.524v1.655c0 .291.238.528.524.528h2.912a.529.529 0 0 0 .528-.528V14.35a.528.528 0 0 0-.528-.524Z" fill="#fff"/><path d="M35.438 47.73h-6.275a3.66 3.66 0 0 0-3.655 3.656v5.802h1.46v-5.802c0-1.206.985-2.191 2.195-2.191h6.275c1.206 0 2.192.985 2.192 2.191v5.802h1.463v-5.802a3.66 3.66 0 0 0-3.655-3.656Z" fill="#fff"/><path fill-rule="evenodd" clip-rule="evenodd" d="M14.219 6.462a3.197 3.197 0 0 0-3.199 3.195v11.05a3.2 3.2 0 0 0 3.199 3.195h35.565a3.196 3.196 0 0 0 3.195-3.195V9.657a3.194 3.194 0 0 0-3.195-3.195H14.219Zm-1.592 3.195c0-.876.716-1.592 1.592-1.592h35.565c.876 0 1.593.716 1.593 1.592l-.001 11.05c0 .874-.716 1.588-1.592 1.588H14.219a1.593 1.593 0 0 1-1.592-1.588V9.657Z" fill="#fff"/><path d="M32 44.12a3.708 3.708 0 0 0-2.74 1.21.794.794 0 0 0 1.172 1.068A2.096 2.096 0 0 1 32 45.704c.603 0 1.169.253 1.568.694.158.175.37.262.587.262l.532-.203a.795.795 0 0 0 .054-1.123A3.709 3.709 0 0 0 32 44.12Z" fill="#fff"/><path d="m35.915 44.991.565-.233a.795.795 0 0 0-.004-1.122 6.307 6.307 0 0 0-4.474-1.843 6.3 6.3 0 0 0-4.475 1.843.79.79 0 0 0 0 1.119.79.79 0 0 0 1.118.004 4.736 4.736 0 0 1 3.356-1.38 4.72 4.72 0 0 1 3.356 1.384l.557.229Z" fill="#fff"/><path d="M25.76 43.076a.79.79 0 0 0 1.118.03 7.345 7.345 0 0 1 5.124-2.059 7.36 7.36 0 0 1 5.119 2.059l.55.22.573-.245a.797.797 0 0 0-.024-1.118 8.933 8.933 0 0 0-6.218-2.5 8.94 8.94 0 0 0-6.22 2.5.783.783 0 0 0-.021 1.114h-.001ZM32 28.287a3.696 3.696 0 0 0 2.741-1.214.79.79 0 0 0-.054-1.119.794.794 0 0 0-1.118.054c-.408.445-.96.69-1.568.69a2.104 2.104 0 0 1-1.567-.69.786.786 0 0 0-.587-.262l-.532.204a.795.795 0 0 0-.055 1.123 3.696 3.696 0 0 0 2.741 1.215v-.001Z" fill="#fff"/><path d="m28.087 27.414-.562.232a.79.79 0 0 0 .004 1.124 6.29 6.29 0 0 0 4.47 1.842 6.3 6.3 0 0 0 4.476-1.842.783.783 0 0 0 .004-1.115.79.79 0 0 0-1.123-.008A4.716 4.716 0 0 1 32 29.027a4.718 4.718 0 0 1-3.352-1.38l-.56-.233h-.002Z" fill="#fff"/><path d="m26.33 29.082-.573.241c-.3.32-.287.82.029 1.122a8.932 8.932 0 0 0 6.217 2.495 8.914 8.914 0 0 0 6.217-2.494.788.788 0 0 0 .02-1.119.79.79 0 0 0-1.118-.025 7.35 7.35 0 0 1-5.12 2.054 7.367 7.367 0 0 1-5.123-2.054l-.548-.22Z" fill="#fff"/></g><defs><linearGradient id="paint0_linear_132_34280" x1="61.846" y1="64" x2="-4.1" y2="-4.205" gradientUnits="userSpaceOnUse"><stop stop-color="currentColor"/><stop offset="1" stop-color="currentColor" stop-opacity=".1"/></linearGradient><clipPath id="clip0_132_34280"><path fill="#fff" d="M0 0h64v64H0z"/></clipPath></defs></svg>
