<svg width="88" height="88" viewBox="0 0 88 88" fill="none" xmlns="http://www.w3.org/2000/svg">
<path fill-rule="evenodd" clip-rule="evenodd" d="M51.02 20.9371V29.8743H68.51H86V20.9371V12H68.51H51.02V20.9371ZM26.1658 15.2616C25.8829 15.3159 25.493 15.388 25.2995 15.4219C25.1059 15.4558 24.8378 15.5044 24.7038 15.5299C24.0494 15.6541 23.8465 15.6909 23.6344 15.7232C23.4253 15.7551 23.4043 15.7725 23.4043 15.914C23.4043 16.0517 23.4279 16.0738 23.6073 16.1041C24.0803 16.1842 24.2754 16.3381 24.4157 16.7418C24.508 17.0074 24.5143 17.315 24.5143 21.5755C24.5143 24.0781 24.5143 26.1256 24.5143 26.1256C24.5143 26.1256 24.6849 26.1611 24.8933 26.2045C26.2646 26.4895 27.8405 26.5461 28.6894 26.3409C30.3589 25.9374 31.3923 24.8194 31.7409 23.0397C31.8371 22.5487 31.8097 21.483 31.6882 20.9915C31.3883 19.7773 30.6128 18.8592 29.5884 18.5052C29.3592 18.4261 29.1254 18.3973 28.6837 18.3939C28.0216 18.3888 27.6606 18.4583 27.1456 18.6901L26.7987 18.8463L26.8301 16.9987C26.859 15.2934 26.8545 15.1515 26.7708 15.1571C26.721 15.1603 26.4488 15.2074 26.1658 15.2616ZM1.20335 15.5857C1.20335 15.7052 1.22165 15.8032 1.24396 15.8035C1.42471 15.8053 2.00626 15.9322 2.13135 15.9971C2.32801 16.0991 2.53313 16.408 2.63504 16.7556C2.77577 17.2358 2.82667 18.2813 2.82678 20.6927C2.82683 23.0407 2.77425 24.3267 2.65832 24.8125C2.58127 25.1353 2.38216 25.488 2.21501 25.5979C2.11391 25.6644 1.38659 25.8539 1.2327 25.8539C1.21656 25.8539 1.20335 25.9517 1.20335 26.0713V26.2886H4.12737H7.05139V26.0737C7.05139 25.8672 7.04343 25.8576 6.84834 25.8273C5.99284 25.6944 5.87312 25.6394 5.67564 25.2893C5.41649 24.8299 5.31864 24.0089 5.31864 22.2933V21.1273L5.65707 21.1283C6.36414 21.1303 6.94483 21.2226 7.16359 21.3679C7.41468 21.5347 7.62152 21.8752 7.74986 22.3332L7.84581 22.6757L8.07134 22.6924L8.29681 22.7091V20.8588V19.0085H8.06007C7.82859 19.0085 7.82258 19.013 7.7896 19.2122C7.74363 19.4901 7.50895 19.9805 7.33226 20.1678C7.08962 20.4251 6.93822 20.4725 6.25622 20.5047C5.90437 20.5213 5.54942 20.5453 5.46755 20.5581L5.31864 20.5813V19.0156C5.31864 18.1545 5.33456 17.1527 5.35405 16.7895L5.38941 16.129H6.50931C7.49909 16.129 7.66918 16.1422 7.97382 16.2426C8.75247 16.499 9.29845 17.1025 9.71041 18.1622C9.86972 18.5721 9.89723 18.588 10.2289 18.4614C10.3533 18.4139 10.3545 18.4055 10.3542 17.5022C10.3541 17.0009 10.3382 16.3158 10.3189 15.9796L10.2837 15.3684H5.74354H1.20335V15.5857ZM59.8192 15.8666C60.5138 16.015 61.1156 16.4589 61.3927 17.0273C61.7718 17.8046 61.7926 19.1803 61.4412 20.2337C61.2049 20.9418 60.5396 22.043 59.1698 23.9932L58.8169 24.4957H60.2521H61.6873V25.2563V26.0169H58.7903H55.8934V25.8658C55.8934 25.7671 56.0237 25.5269 56.2691 25.1731C56.4758 24.8752 56.7377 24.4973 56.8512 24.3333C56.9647 24.1693 57.3228 23.6559 57.6469 23.1924C59.308 20.8169 59.6384 20.1741 59.746 19.1083C59.8096 18.4789 59.7439 17.8963 59.5791 17.6289C59.3218 17.2111 58.6171 17.1415 58.2393 17.4966C58.0819 17.6445 57.9127 18.0943 57.8698 18.4788L57.8349 18.7911H56.9454C55.9141 18.7911 56.0035 18.8688 56.1318 18.0849C56.3218 16.9234 56.8858 16.2138 57.8693 15.8988C58.3143 15.7562 59.2317 15.7411 59.8192 15.8666ZM67.2646 15.8956C68.0705 16.1155 68.6511 16.5822 68.999 17.2898C69.365 18.034 69.3853 18.2498 69.3623 21.1384C69.3402 23.9005 69.3391 23.911 68.9862 24.646C68.6656 25.3138 68.0949 25.7817 67.3052 26.0243C66.7414 26.1975 65.6751 26.1972 65.1101 26.0237C64.0928 25.7112 63.49 25.0753 63.1721 23.9796C63.0373 23.5152 62.9902 19.0491 63.1126 18.3489C63.3141 17.1961 63.7925 16.5098 64.6925 16.0823C65.3774 15.757 66.467 15.6779 67.2646 15.8956ZM74.3039 15.8971C74.7519 16.0217 75.0806 16.2071 75.37 16.4984C75.8696 17.0014 76.0367 17.5354 76.0367 18.6292C76.0367 19.4993 75.9267 20.0304 75.6009 20.7343C75.39 21.1899 74.9629 21.932 74.6553 22.3769C74.0284 23.2839 73.5516 23.9651 73.3721 24.2105L73.1634 24.4957H74.6271H76.0908V25.2563V26.0169H73.1609H70.2309L70.2541 25.8404C70.2699 25.7201 70.6718 25.1009 71.5149 23.8981C73.3695 21.252 73.7026 20.7061 73.9888 19.8444C74.0944 19.5262 74.1131 19.3566 74.1137 18.7097C74.1144 17.8654 74.0482 17.6318 73.7449 17.4093C73.5197 17.2441 72.9349 17.2499 72.6977 17.4197C72.486 17.5711 72.3114 17.9219 72.2703 18.2776C72.2047 18.8463 72.3062 18.7911 71.3247 18.7911H70.4594L70.4603 18.5059C70.4643 17.2733 71.1513 16.2594 72.2192 15.91C72.7302 15.7428 73.7269 15.7366 74.3039 15.8971ZM80.8017 20.9643V26.0169H79.8541H78.9065V21.9422C78.9065 19.7012 78.8931 17.8675 78.8767 17.8675C78.8604 17.8675 78.5586 18.0844 78.2062 18.3493C77.8539 18.6144 77.5384 18.848 77.5051 18.8687C77.4614 18.8957 77.4445 18.6706 77.4445 18.063V17.2198L77.8913 16.8659C78.1369 16.6713 78.5085 16.3771 78.717 16.2122L79.0961 15.9123L79.9489 15.912L80.8017 15.9117V20.9643ZM65.7806 17.3232C65.5644 17.3926 65.2672 17.6876 65.1502 17.949C64.9807 18.3276 64.9362 18.954 64.9362 20.9643C64.9362 23.0588 64.9802 23.6116 65.1784 24.0035C65.3957 24.4334 65.6941 24.6044 66.2274 24.6044C66.6242 24.6044 66.8745 24.5031 67.092 24.2545C67.4273 23.8714 67.4447 23.7319 67.4682 21.2317C67.4911 18.8011 67.4626 18.3726 67.2469 17.9001C67.0587 17.4875 66.793 17.316 66.3034 17.2912C66.1024 17.2811 65.8671 17.2955 65.7806 17.3232ZM12.7099 18.304C11.4214 18.4571 10.4191 19.0937 9.79781 20.1533C9.36435 20.8927 9.15718 21.9661 9.2652 22.9126C9.39608 24.0588 9.70278 24.768 10.3521 25.4256C11.0739 26.1567 11.8704 26.4546 13.105 26.4553C14.3625 26.456 15.181 26.1595 15.9518 25.4239C16.8102 24.6046 17.2316 23.4332 17.1568 22.0745C17.0462 20.0665 16 18.7167 14.2802 18.3634C13.8781 18.2808 13.1398 18.2529 12.7099 18.304ZM22.5108 18.2956C21.9069 18.4572 21.1701 19.0882 20.8234 19.7404L20.6521 20.0626L20.6825 19.1824L20.713 18.3022H20.5623C20.4794 18.3022 20.3235 18.3254 20.2158 18.3538C20.1081 18.3823 19.7519 18.4556 19.4243 18.5168C18.4613 18.6967 17.4282 18.9013 17.3261 18.9325C17.2652 18.9511 17.2313 19.016 17.2313 19.1139C17.2313 19.256 17.2487 19.2679 17.489 19.2911C18.0918 19.3492 18.2422 19.565 18.325 20.4903C18.3563 20.8407 18.3679 21.9323 18.3523 23.056C18.328 24.7918 18.3135 25.0423 18.2237 25.2821C18.1008 25.61 17.887 25.7704 17.505 25.8212L17.2313 25.8577V26.0731V26.2886H19.6409H22.0505V26.0776V25.8667L21.631 25.8273C21.1549 25.7825 20.9436 25.668 20.829 25.3928C20.7005 25.0841 20.6427 24.1412 20.6427 22.3524C20.6427 20.3916 20.6162 20.5229 21.0508 20.3298C21.2099 20.2591 21.4053 20.2348 21.8069 20.2361C22.2996 20.2376 22.3819 20.2533 22.7213 20.4109C22.9265 20.5061 23.1003 20.584 23.1076 20.584C23.1149 20.584 23.1334 20.5413 23.1487 20.4889C23.1639 20.4366 23.3374 19.98 23.5341 19.4743C23.7307 18.9685 23.8916 18.5277 23.8916 18.4947C23.8916 18.3347 22.8991 18.1916 22.5108 18.2956ZM35.9397 18.3029C35.3925 18.363 34.974 18.4926 34.4881 18.7524C33.7419 19.1513 33.0219 20.0257 32.7552 20.8568C32.5547 21.4815 32.5288 21.6631 32.5306 22.4312C32.5321 23.0821 32.5537 23.294 32.6549 23.6505C32.8469 24.3272 33.1682 24.8915 33.6188 25.3437C34.3911 26.1185 35.2588 26.4554 36.4821 26.4554C37.0918 26.4554 37.312 26.4224 37.8959 26.2433C38.4278 26.0801 39.07 25.6534 39.4775 25.1924C39.5993 25.0545 39.6005 25.0441 39.5116 24.9079L39.4192 24.7665L39.2498 24.8713C38.5709 25.291 37.9292 25.4294 37.1974 25.3138C35.8303 25.098 35.0046 24.0964 34.9023 22.5297L34.8675 21.9966H37.2852H39.703V21.7349C39.703 21.3928 39.6201 20.9198 39.4779 20.4505C39.0041 18.8864 37.7205 18.1074 35.9397 18.3029ZM43.0873 18.2822C42.3194 18.349 41.5097 18.7022 41.0567 19.1679C40.8929 19.3362 40.6859 19.6198 40.5966 19.7981C40.4428 20.1053 40.4345 20.1562 40.4365 20.7742C40.439 21.5415 40.5191 21.7767 40.926 22.2133C41.2355 22.5453 41.653 22.7822 42.4646 23.0865C43.4229 23.4457 43.8933 23.735 44.0674 24.0719C44.1712 24.2728 44.1644 24.8391 44.0558 25.0553C43.8051 25.554 43.4886 25.719 42.7894 25.7156C42.3425 25.7133 42.239 25.6943 42.0002 25.57C41.5758 25.3493 41.1533 24.8507 40.833 24.1925C40.6814 23.8812 40.5495 23.6264 40.5398 23.6264C40.5301 23.6264 40.4576 23.6511 40.3785 23.6813L40.2348 23.7361L40.2532 24.8467C40.2653 25.5789 40.2924 25.9783 40.3329 26.0188C40.4137 26.0998 41.0716 26.2744 41.6718 26.3742C42.397 26.4947 43.6547 26.4816 44.1902 26.3479C45.2248 26.0896 45.9868 25.4422 46.2336 24.6117C46.3692 24.1554 46.3554 23.4108 46.2039 23.0146C45.9984 22.4771 45.4292 21.9996 44.6034 21.6721C43.2977 21.1541 42.7478 20.8132 42.5526 20.4006C42.3781 20.0318 42.4692 19.5042 42.7638 19.177C42.9955 18.9197 43.274 18.8255 43.7175 18.8546C44.4058 18.8997 44.9033 19.3131 45.316 20.1828C45.4453 20.4552 45.551 20.7085 45.551 20.7456C45.551 20.817 45.8075 20.7798 45.8932 20.6959C45.9176 20.6721 45.9201 20.2081 45.8987 19.6649L45.8599 18.6772L45.6789 18.6014C45.1961 18.3989 43.7678 18.2231 43.0873 18.2822ZM13.5785 18.8933C14.2953 19.22 14.7408 20.5959 14.7403 22.4821C14.7399 24.3932 14.3813 25.544 13.6876 25.8601C12.7934 26.2677 12.0467 25.4544 11.7613 23.7623C11.6793 23.276 11.6812 21.2154 11.764 20.7177C11.9371 19.678 12.2712 19.0373 12.737 18.8519C12.9528 18.766 13.3412 18.7851 13.5785 18.8933ZM36.5813 18.8729C36.7789 18.9676 36.9724 19.2314 37.0878 19.5634C37.2009 19.8888 37.32 20.6551 37.3202 21.0594L37.3204 21.3989H36.8417C36.5783 21.3989 36.0268 21.4151 35.6161 21.4349L34.8692 21.4708L34.9068 21.0953C34.9842 20.3196 35.3151 19.4032 35.6247 19.107C35.9497 18.7959 36.2614 18.7196 36.5813 18.8729ZM27.8881 19.2348C28.5271 19.3941 28.9253 19.8659 29.1872 20.7742C29.633 22.3198 29.2911 24.4874 28.4542 25.4221C28.1202 25.7951 27.8283 25.9165 27.3124 25.8969L26.8968 25.8811L26.8631 25.2835C26.8446 24.9548 26.8263 23.4835 26.8225 22.0139L26.8156 19.3419L27.154 19.2615C27.5839 19.1593 27.5851 19.1593 27.8881 19.2348ZM8.13437 37.5758C7.56743 37.618 7.04019 37.695 6.32986 37.8397C6.18615 37.869 5.81145 37.9792 5.49706 38.0847C2.4381 39.1118 0.735885 41.4419 1.03349 44.195C1.13133 45.1001 1.29145 45.6518 1.64899 46.3157C1.93517 46.8471 2.10768 47.0718 2.60802 47.5652C3.54224 48.4866 4.83834 49.1149 6.48283 49.4436C8.50994 49.8489 11.1615 49.7126 12.9956 49.1087C13.3496 48.9921 14.3484 48.5032 14.578 48.3341C15.3385 47.774 15.8221 47.2116 16.1504 46.5058C16.4964 45.7622 16.5404 45.5111 16.5676 44.1289L16.5918 42.8929H13.067H9.54223V44.1425V45.3921H11.1906C12.0972 45.3921 12.8512 45.4121 12.8663 45.4365C12.9072 45.5031 12.6674 45.9908 12.4901 46.2016C12.2329 46.5072 11.6386 46.8412 11.1125 46.9757C9.93957 47.2757 8.24813 47.2505 7.22305 46.9176C6.11143 46.5567 5.33868 45.7755 5.04243 44.713C4.99342 44.5372 4.96673 44.1633 4.96684 43.6535C4.967 42.9826 4.98503 42.8119 5.08818 42.5028C5.4774 41.3367 6.27637 40.6412 7.6741 40.2515C8.10047 40.1327 9.6371 40.0849 10.1649 40.1741C11.3188 40.369 12.0621 40.8104 12.3698 41.4833L12.4927 41.752H14.355H16.2172L16.185 41.5211C16.055 40.5888 15.4449 39.622 14.5893 38.9925C13.4424 38.1486 11.9827 37.7078 9.87633 37.569C9.4198 37.539 8.98119 37.5178 8.90165 37.522C8.82216 37.5262 8.47686 37.5505 8.13437 37.5758ZM35.8043 37.6002C33.7006 37.777 31.6442 38.607 30.4515 39.7603C30.0072 40.1901 29.6477 40.6928 29.3574 41.2902C29.0439 41.9355 28.9422 42.2993 28.8716 43.0288C28.5949 45.8845 30.1645 48.1056 33.1727 49.1156C33.9825 49.3874 34.4619 49.4827 35.6148 49.6006C37.2902 49.7721 38.8422 49.6476 40.3257 49.2227C42.8396 48.5025 44.5435 46.8723 44.9822 44.7673C45.3034 43.2266 45.0144 41.6723 44.1792 40.4481C44.0875 40.3137 43.8287 40.0189 43.604 39.7932C42.621 38.8054 41.1159 38.0768 39.4593 37.7869C39.2508 37.7504 38.9584 37.6969 38.8095 37.668C38.5337 37.6145 36.2474 37.5629 35.8043 37.6002ZM18.2601 43.5992V49.4668H23.296H28.3318V48.19V46.9133H25.1912H22.0505V42.3225V37.7317H20.1553H18.2601V43.5992ZM46.7964 43.5992V49.4668H50.7725C54.5727 49.4668 55.0952 49.4496 55.9205 49.2981C57.1121 49.0792 58.1197 48.5203 58.5943 47.815C59.2964 46.7718 59.1876 45.1624 58.3588 44.331C58.0802 44.0515 57.4092 43.6689 57.0034 43.5583C56.8843 43.5258 56.6772 43.4699 56.5432 43.4341L56.2995 43.3689L56.6583 43.2474C57.452 42.9787 57.986 42.5324 58.2853 41.8878C58.4544 41.5234 58.4619 41.4792 58.4636 40.8284C58.4648 40.3834 58.4402 40.0838 58.3922 39.9592C57.9907 38.9171 57.2425 38.3034 55.9746 37.9759C55.1056 37.7515 54.6726 37.7317 50.6586 37.7317H46.7964V43.5992ZM64.1257 38.5053C63.9388 38.9314 63.743 39.3778 63.6906 39.4974C63.3974 40.1667 62.1523 42.9995 62.0908 43.1374C62.0297 43.2743 61.1745 45.2225 60.8149 46.044C60.7561 46.1785 60.3953 46.9975 60.0131 47.8641L59.3182 49.4396L61.0543 49.4539C62.0092 49.4618 62.8083 49.4496 62.8302 49.4268C62.852 49.404 63.0692 48.9145 63.3128 48.3389L63.7557 47.2927L66.6814 47.3067L69.6071 47.3208L70.0452 48.3938L70.4833 49.4668H72.4748C73.5701 49.4668 74.4664 49.4532 74.4664 49.4366C74.4664 49.42 74.4206 49.3039 74.3647 49.1785C74.3088 49.0532 74.1352 48.6573 73.979 48.2987C73.8228 47.9401 73.6522 47.5489 73.6 47.4294C73.5477 47.3099 73.3774 46.9187 73.2214 46.5602C73.0654 46.2016 72.9052 45.8349 72.8652 45.7452C72.8253 45.6556 72.2296 44.2865 71.5415 42.7028C70.0364 39.2392 70.186 39.5836 69.7519 38.5804L69.3963 37.7588L66.931 37.7447L64.4656 37.7306L64.1257 38.5053ZM75.7659 43.5992V49.4668H80.8017H85.8376V48.19V46.9133H82.6969H79.5563V42.3225V37.7317H77.6611H75.7659V43.5992ZM54.4018 40.258C54.6493 40.3831 54.75 40.4714 54.835 40.6383C55.0398 41.04 54.9403 41.658 54.6264 41.9334C54.2849 42.2331 53.726 42.3054 51.9135 42.2848L50.4515 42.2682L50.4368 41.1641L50.4221 40.0601L52.2508 40.0775L54.0794 40.095L54.4018 40.258ZM37.9973 40.2026C38.5961 40.3135 38.7592 40.3582 39.1445 40.517C39.8209 40.7957 40.3973 41.2845 40.7541 41.882C41.0767 42.4223 41.1377 42.7024 41.134 43.6264C41.131 44.3804 41.1198 44.4697 40.9833 44.8202C40.5977 45.811 39.8715 46.4713 38.7554 46.8465C37.8372 47.1551 36.5363 47.193 35.5065 46.9413C34.6155 46.7234 33.7576 46.1608 33.3206 45.5079C32.7313 44.6275 32.6072 43.3671 33.0005 42.2595C33.3771 41.1991 34.4232 40.4527 35.8855 40.201C36.43 40.1074 37.4874 40.1081 37.9973 40.2026ZM67.3976 41.9693C67.7481 42.8209 68.1568 43.8111 68.3059 44.1697C68.455 44.5282 68.5889 44.8522 68.6034 44.8895C68.6243 44.9431 68.221 44.9574 66.6955 44.9574C64.8786 44.9574 64.7628 44.9517 64.7894 44.8624C64.8144 44.778 65.2336 43.773 66.3433 41.1367C66.5298 40.6937 66.7 40.3514 66.7214 40.3761C66.7429 40.4007 67.0472 41.1177 67.3976 41.9693ZM54.2702 44.6528C55.0181 44.8323 55.3183 45.1762 55.3189 45.8539C55.3194 46.3874 55.1217 46.7078 54.6614 46.9191C54.2632 47.1019 53.9219 47.1306 52.1498 47.1306H50.4244V45.8539V44.5771L52.1978 44.5791C53.4747 44.5805 54.0548 44.6011 54.2702 44.6528ZM9.51515 58.0241C8.80565 58.0664 8.12776 58.1476 7.72825 58.2381C6.57489 58.4993 6.13915 58.6407 5.388 58.9982C3.65899 59.821 2.40491 61.2083 1.82752 62.937C1.65668 63.4485 1.60367 63.6862 1.50923 64.3637L1.43911 64.8667L3.98583 64.8527L6.53254 64.8385L6.59286 64.5397C6.75607 63.7314 7.07024 63.1063 7.56034 62.6145C8.27136 61.9011 9.09897 61.6259 10.3815 61.6763C11.4084 61.7166 11.9627 61.8955 12.4652 62.3487C12.962 62.7969 13.1874 63.5512 13.0386 64.2673C12.8196 65.3211 11.9615 66.2942 9.69612 68.0574C9.19903 68.4443 8.32464 69.1165 6.42739 70.5703C5.90095 70.9737 5.24727 71.4757 4.9748 71.6859C4.70227 71.8961 4.11383 72.3472 3.66711 72.6885C3.22038 73.0296 2.70868 73.4218 2.52999 73.5598C2.3513 73.6979 1.95536 74.0019 1.65007 74.2353L1.09505 74.6597V75.1685V75.6772H9.94834H18.8016V73.8847V72.0922L14.784 72.0782L10.7664 72.0643L11.4581 71.5754C11.8386 71.3064 12.3041 70.9764 12.4926 70.8419C12.6811 70.7075 13.1117 70.4031 13.4495 70.1655C15.3438 68.8334 16.6181 67.7381 17.3948 66.7746C17.8244 66.2417 18.3619 65.2115 18.5042 64.6484C18.5533 64.4542 18.6061 64.0141 18.6216 63.6705C18.6983 61.9762 17.9355 60.4417 16.5489 59.5008C15.5298 58.8094 14.286 58.3756 12.6287 58.1337C12.2688 58.0811 10.4132 57.956 10.2732 57.9748C10.2435 57.9788 9.90232 58.0009 9.51515 58.0241ZM29.6313 58.0253C26.7645 58.1839 24.549 58.9523 22.8505 60.3771C22.1123 60.9963 21.3701 62.014 20.9592 62.9703C20.6919 63.5925 20.455 64.5041 20.3702 65.2376C20.2916 65.9165 20.3313 68.8281 20.4247 69.2392C20.6046 70.0309 20.6687 70.2597 20.8386 70.7171C21.4711 72.4197 22.7272 73.8154 24.4331 74.7109C26.3812 75.7337 29.3148 76.1931 32.1763 75.9237C34.0442 75.7478 35.2495 75.4345 36.5996 74.7738C38.899 73.6484 40.2631 71.867 40.7961 69.2935C40.9102 68.7428 40.92 68.5573 40.9206 66.9302C40.9213 65.1669 40.901 64.9052 40.7036 64.1323C40.3212 62.6354 39.5348 61.3472 38.4366 60.4188C36.969 59.1779 35.2766 58.4822 32.8803 58.1347C32.5308 58.084 30.5204 57.9513 30.4436 57.9739C30.4287 57.9783 30.0632 58.0014 29.6313 58.0253ZM52.0759 58.0216C47.3669 58.2965 44.2576 60.2308 43.1462 63.5767C42.8139 64.5771 42.7353 65.2293 42.7353 66.9845C42.7353 69.1281 42.9183 70.1206 43.5485 71.3957C44.4302 73.1794 45.8755 74.4181 47.9985 75.2095C50.3933 76.1022 53.9209 76.2542 56.7598 75.5869C57.9348 75.3107 59.4469 74.6494 60.2253 74.0713C60.7355 73.6923 61.5049 72.9337 61.8474 72.4718C62.5525 71.5209 62.9961 70.4523 63.2426 69.1108C63.3217 68.6804 63.3388 68.2827 63.3388 66.8759C63.3388 65.0077 63.2907 64.5969 62.9533 63.5823C62.4574 62.0912 61.4103 60.7206 60.0848 59.8275C58.5876 58.8188 56.4963 58.1708 54.3502 58.0508C53.1277 57.9825 52.8156 57.9785 52.0759 58.0216ZM74.4934 58.0239C72.1954 58.1511 70.3926 58.6374 68.8659 59.5422C68.1882 59.9438 67.8001 60.248 67.2375 60.8183C66.2705 61.7986 65.6521 62.9777 65.3052 64.502C65.2068 64.9342 65.1882 65.2286 65.1668 66.6857C65.1367 68.7437 65.2018 69.3573 65.5669 70.4557C66.306 72.6798 67.9448 74.2862 70.416 75.2091C73.1961 76.2475 77.4191 76.2627 80.3415 75.245C82.7911 74.3919 84.5945 72.6516 85.3205 70.4402C85.6807 69.3434 85.7829 68.5465 85.7812 66.8487C85.7793 64.8554 85.5983 63.8967 84.9883 62.6486C83.7874 60.1913 81.2351 58.6127 77.6882 58.1336C77.2979 58.0809 75.4385 57.9569 75.3057 57.9748C75.2759 57.9787 74.9104 58.0009 74.4934 58.0239ZM31.4453 61.7183C33.0519 61.9082 34.226 62.6183 34.8127 63.7547C35.2745 64.6493 35.3711 65.208 35.371 66.9845C35.3709 69.0685 35.1778 69.8862 34.4729 70.7876C34.1366 71.2177 33.3668 71.7535 32.8803 71.8961C32.0934 72.1269 31.5698 72.2001 30.7143 72.1991C29.676 72.1979 29.0066 72.0801 28.262 71.7676C27.4596 71.4309 26.8218 70.8323 26.4431 70.0604C26.0312 69.2211 25.9494 68.7067 25.9494 66.9574C25.9494 65.181 26.054 64.5624 26.4938 63.7369C26.8819 63.0084 27.3963 62.5218 28.1511 62.1688C29.0472 61.7496 30.2824 61.5807 31.4453 61.7183ZM53.9746 61.739C56.1555 62.0289 57.3404 63.1391 57.7059 65.2354C57.8203 65.8919 57.8203 68.1315 57.7059 68.7881C57.533 69.7795 57.2284 70.4395 56.6876 70.9945C55.8694 71.8343 54.79 72.1999 53.1282 72.2001C52.0933 72.2001 51.5678 72.112 50.7872 71.8073C50.2123 71.5829 49.8101 71.3105 49.4152 70.8777C48.9073 70.3212 48.6474 69.7649 48.4464 68.8046C48.3351 68.2726 48.3341 65.6614 48.445 65.08C48.7183 63.6471 49.4288 62.6844 50.6095 62.1474C51.5339 61.7268 52.7617 61.5778 53.9746 61.739ZM76.3921 61.7396C78.2663 61.9908 79.3891 62.8376 79.9242 64.4039C80.1562 65.0831 80.179 65.3165 80.179 67.0117C80.179 68.7053 80.1564 68.937 79.925 69.6195C79.7472 70.1437 79.498 70.57 79.1522 70.9413C78.3374 71.8161 77.238 72.1999 75.5458 72.2001C73.859 72.2003 72.8119 71.8458 71.9424 70.9803C71.4414 70.4816 71.1383 69.9348 70.9454 69.1819C70.6678 68.0985 70.6829 65.6334 70.9733 64.628C71.2337 63.7266 71.6493 63.0658 72.2463 62.6041C73.2242 61.8479 74.7794 61.5235 76.3921 61.7396Z" fill="url(#paint0_linear_1854_1522)"/>
<defs>
<linearGradient id="paint0_linear_1854_1522" x1="83.1394" y1="76" x2="20.346" y2="-10.2535" gradientUnits="userSpaceOnUse">
<stop stop-color="#32A3FD"/>
<stop offset="1" stop-color="#32A3FD" stop-opacity="0.1"/>
</linearGradient>
</defs>
</svg>
