<svg width="88" height="88" viewBox="0 0 88 88" fill="none" xmlns="http://www.w3.org/2000/svg">
<path fill-rule="evenodd" clip-rule="evenodd" d="M24.7767 7.05147C24.1228 7.18889 23.6049 7.48387 23.0768 8.01986C22.5369 8.56776 22.2565 9.15277 22.1386 9.97709C22.102 10.2332 22.0919 11.5792 22.1033 14.6946C22.1212 19.6007 22.0987 19.2734 22.4719 20.0463C23.0862 21.3186 24.5098 22.0882 25.9107 21.9053C27.3747 21.7142 28.5324 20.6637 28.8293 19.2571C28.8796 19.0187 28.8913 18.1216 28.892 14.4616C28.8928 9.39594 28.905 9.60037 28.5602 8.89747C28.1324 8.02552 27.4284 7.4192 26.4992 7.12252C26.1025 6.99579 25.2158 6.95925 24.7767 7.05147ZM14.5318 14.4471V21.7276H15.7621H16.9924V18.6051V15.4826L18.122 15.4706L19.2517 15.4586L19.2636 14.2565L19.2755 13.0543H18.1339H16.9924V11.3467V9.63897H18.7603H20.5281L20.5162 8.41438L20.5043 7.18979L17.5181 7.17824L14.5318 7.16669V14.4471ZM31.3533 14.4475V21.7276H32.5836H33.8139V15.6833V9.63897H34.3344C34.6207 9.63897 34.9316 9.66207 35.0254 9.69024C35.265 9.76242 35.4862 9.96019 35.6006 10.2047C35.6959 10.4084 35.698 10.4504 35.6845 11.9025L35.6706 13.3914L35.5282 13.6942C35.285 14.2115 34.8315 14.6124 34.3165 14.765C34.1631 14.8105 34.1308 14.8377 34.1517 14.9038C34.1659 14.949 34.3295 15.5676 34.5152 16.2784C34.7008 16.9892 35.0119 18.1774 35.2065 18.9189C35.4011 19.6604 35.6455 20.5956 35.7497 20.9972L35.939 21.7273L37.2029 21.7275C37.898 21.7275 38.4665 21.7124 38.4662 21.6939C38.466 21.6753 38.4347 21.5591 38.3967 21.4355C38.284 21.0689 37.4528 18.1944 37.1259 17.0411L36.8229 15.9721L37.0993 15.6929C37.6109 15.176 37.8553 14.7009 38.0273 13.8888C38.1146 13.4766 38.1235 13.2922 38.1271 11.8185C38.1318 9.95246 38.1087 9.77639 37.7652 9.05854C37.5917 8.69597 37.5042 8.57697 37.1535 8.22716C36.7284 7.80303 36.4272 7.59649 35.9542 7.40455C35.4399 7.1959 35.1414 7.17055 33.1764 7.16889L31.3533 7.16732V14.4475ZM39.6299 8.40314V9.63897H40.7036H41.7773V15.6833V21.7276H43.0076H44.2379V15.6833V9.63897H45.3117H46.3854V8.40314V7.16732H43.0076H39.6299V8.40314ZM48.454 13.1547C48.4677 19.8629 48.4398 19.3077 48.7989 20.0424C49.2277 20.9198 50.0178 21.5651 50.9802 21.824C51.4624 21.9538 52.2199 21.9528 52.7119 21.8218C53.8594 21.5163 54.8034 20.57 55.1371 19.3908C55.2153 19.1144 55.2204 18.7768 55.2326 13.133L55.2455 7.16732H54.0148H52.7842L52.7724 13.0014L52.7606 18.8356L52.6357 19.025C52.4958 19.2373 52.3101 19.3681 52.045 19.4409C51.5765 19.5696 51.0139 19.2122 50.9086 18.7189C50.8723 18.5489 50.8585 16.8785 50.8599 12.8356L50.8619 7.18979L49.6518 7.17783L48.4417 7.16588L48.454 13.1547ZM57.5699 14.4475V21.7276H58.8H60.03L60.0414 18.2175L60.0529 14.7074L60.3142 15.5324C60.4579 15.9861 60.692 16.7416 60.8344 17.2112C60.9769 17.6808 61.2052 18.4189 61.3418 18.8515C61.4784 19.284 61.7376 20.1081 61.9176 20.6828L62.2451 21.7276H63.5984H64.9517V14.4475V7.16732H63.7214H62.4911L62.4865 11.0883L62.4818 15.0092L62.2374 14.2452C62.0077 13.5274 61.8603 13.0585 60.9094 10.021C60.7006 9.35361 60.4138 8.43851 60.2723 7.98746L60.015 7.16732H58.7924H57.5699V14.4475ZM67.3676 14.4475V21.7276H70.365H73.3625V20.4918V19.2559H71.5953H69.8282V17.3685V15.4811H70.9466H72.0651V14.2685V13.0559L70.9578 13.0439L69.8506 13.0319L69.8388 11.3354L69.8271 9.63897H71.5948H73.3625V8.40314V7.16732H70.365H67.3676V14.4475ZM74.5591 7.26367C74.3474 7.32353 73.9695 7.66156 73.8436 7.90374C73.7088 8.16294 73.7083 8.68729 73.8425 8.94547C73.9576 9.16666 74.2527 9.44285 74.4747 9.537C74.8566 9.69892 75.4257 9.59493 75.7736 9.29963C76.0997 9.02281 76.2421 8.36337 76.067 7.94108C75.9787 7.7282 75.7177 7.45587 75.4876 7.33651C75.2791 7.22839 74.8132 7.19186 74.5591 7.26367ZM75.4497 7.54162C75.7548 7.70106 75.9126 7.99537 75.9126 8.40535C75.9126 8.76144 75.8352 8.94776 75.598 9.16306C75.3108 9.42371 74.8886 9.48591 74.5265 9.32094C74.2753 9.20648 74.1804 9.12069 74.0747 8.91284C73.7583 8.28999 74.0955 7.55294 74.7494 7.43839C74.9447 7.40419 75.2817 7.4539 75.4497 7.54162ZM74.5257 8.40314V9.00982H74.6574C74.7826 9.00982 74.7899 8.99922 74.8028 8.79987C74.8104 8.68442 74.8394 8.58236 74.8673 8.57315C74.8953 8.56389 74.9807 8.6584 75.0571 8.7831C75.1742 8.97432 75.217 9.00982 75.3306 9.00982C75.4046 9.00982 75.4652 8.99764 75.4652 8.98272C75.4652 8.96785 75.4103 8.8577 75.3433 8.73794L75.2215 8.52021L75.321 8.41384C75.426 8.30154 75.4498 8.11526 75.3767 7.97798C75.3159 7.86401 75.0967 7.79647 74.7875 7.79647H74.5257V8.40314ZM75.0035 8.04866C75.2195 8.10686 75.1552 8.33574 74.9229 8.33574C74.8114 8.33574 74.7941 8.3187 74.7941 8.20842C74.7941 8.02521 74.8261 8.00085 75.0035 8.04866ZM25.9176 9.5379C26.1102 9.63353 26.2492 9.77154 26.3481 9.96509C26.4314 10.1284 26.4342 10.2764 26.4337 14.4435C26.4333 17.3954 26.418 18.7934 26.3853 18.881C26.2517 19.2373 25.7396 19.5277 25.3658 19.4591C25.0832 19.4072 24.8331 19.228 24.6875 18.973L24.554 18.7391L24.5535 14.4797C24.5531 9.81967 24.5406 10.0463 24.8127 9.75855C25.1143 9.43962 25.5461 9.35338 25.9176 9.5379ZM22.6691 31.7494C21.4674 31.865 20.5315 32.3089 19.7733 33.1229C19.269 33.6643 18.9023 34.398 18.7527 35.1644C18.6633 35.623 18.6673 36.6942 18.7604 37.1815C18.9027 37.9261 19.2763 38.6983 19.7309 39.1873C20.3493 39.8525 20.9587 40.185 21.9674 40.4075C22.2587 40.4717 22.5264 40.4889 23.211 40.4871C24.1823 40.4847 24.5956 40.4173 25.2478 40.155C26.2001 39.7719 26.9681 38.9239 27.2644 37.9281C27.374 37.5597 27.3865 37.4397 27.4053 36.58L27.426 35.6362L25.3968 35.6452L23.3676 35.6542L23.3554 36.5091L23.3433 37.3641L24.0712 37.3765L24.7992 37.3889L24.7846 37.5237C24.7617 37.7355 24.5571 38.0704 24.3717 38.1995C23.8482 38.5639 22.8741 38.588 22.3044 38.2506C21.9787 38.0577 21.765 37.7695 21.5939 37.2923C21.4636 36.929 21.4261 35.8327 21.5275 35.352C21.6664 34.694 22.0211 34.1908 22.4975 33.9761C23.0351 33.7337 23.7527 33.7894 24.1653 34.1056C24.3353 34.2358 24.5531 34.6202 24.5531 34.7899V34.8922L25.898 34.9047L27.2428 34.9172L27.214 34.6925C27.137 34.0921 26.8801 33.4682 26.5229 33.0143C26.4206 32.8843 26.179 32.6603 25.9859 32.5165C25.3918 32.074 24.6879 31.8379 23.7031 31.7505C23.1471 31.7011 23.1703 31.7012 22.6691 31.7494ZM39.2388 31.7521C38.0617 31.8665 37.1326 32.3149 36.3403 33.1512C36.0266 33.4824 35.9216 33.6327 35.7402 34.0102C35.3298 34.8643 35.2217 35.3931 35.2604 36.3553C35.2918 37.1348 35.3977 37.5896 35.6919 38.2085C36.0246 38.9083 36.3558 39.3027 36.9948 39.7598C38.0697 40.5289 39.9569 40.7369 41.4865 40.2549C41.9453 40.1103 42.3072 39.9275 42.6721 39.656C43.787 38.8266 44.3272 37.6524 44.3274 36.0578C44.3274 35.3887 44.2448 34.8625 44.0588 34.3476C43.8823 33.859 43.7294 33.5988 43.3736 33.1813C42.6671 32.3524 41.6276 31.8685 40.3 31.7505C39.7395 31.7007 39.7692 31.7006 39.2388 31.7521ZM28.8033 36.1081V40.3773H31.6889H34.5745V39.3443V38.3113L33.0198 38.2995L31.4652 38.2876L31.4537 35.0633L31.4422 31.8389H30.1227H28.8033V36.1081ZM45.7143 36.1077V40.3797L47.8953 40.3735C49.0949 40.3701 50.2474 40.3486 50.4565 40.3257C51.5928 40.2013 52.2803 39.802 52.6254 39.0661C53.0043 38.2581 52.894 37.1682 52.3749 36.5919C52.1861 36.3823 51.761 36.1262 51.4514 36.0355C51.2383 35.9731 51.1683 35.8834 51.3327 35.8834C51.3688 35.8834 51.536 35.8137 51.7044 35.7285C52.2749 35.4399 52.549 34.9857 52.5927 34.2559C52.6604 33.1267 52.1702 32.383 51.133 32.0418C50.6349 31.8779 50.1475 31.8478 47.8953 31.8417L45.7143 31.8358V36.1077ZM55.9495 32.2091C55.8859 32.4133 55.6723 33.0961 55.4748 33.7263C55.2774 34.3566 55.012 35.2059 54.8851 35.6138C54.7582 36.0216 54.5065 36.8204 54.3256 37.3889C54.1448 37.9573 53.9217 38.6752 53.8298 38.9842C53.738 39.2932 53.6058 39.7032 53.536 39.8955C53.4663 40.0878 53.4093 40.2752 53.4093 40.3119C53.4093 40.3697 53.576 40.3771 54.6465 40.3668L55.8836 40.3548L56.0669 39.6583L56.2502 38.9617L57.5894 38.9498C58.326 38.9433 58.9438 38.9534 58.9624 38.9723C58.9915 39.0018 59.0876 39.3353 59.3124 40.1863L59.3629 40.3773H60.7704C61.5445 40.3773 62.1778 40.3622 62.1777 40.3436C62.1776 40.325 62.0561 39.9257 61.9078 39.4561C61.7595 38.9864 61.4972 38.1391 61.3249 37.5731C61.1526 37.0071 61.0031 36.53 60.9927 36.513C60.9734 36.4817 60.4017 34.6473 59.8511 32.85L59.5483 31.8614L57.8067 31.8496L56.0652 31.8378L55.9495 32.2091ZM63.3411 36.1081V40.3773H66.2268H69.1124V39.3437V38.3101H67.5689H66.0254V35.0745V31.8389H64.6833H63.3411V36.1081ZM49.6951 33.6926C49.9831 33.8405 50.0706 33.9858 50.0884 34.3457C50.1079 34.7375 50.0181 34.9236 49.7424 35.0633C49.5642 35.1535 49.4767 35.1644 48.926 35.1644H48.3091V34.3779V33.5915H48.9036C49.4319 33.5915 49.52 33.6027 49.6951 33.6926ZM40.304 33.8876C40.6048 33.9759 40.9302 34.1794 41.074 34.3692C41.6415 35.1179 41.7381 36.5304 41.2864 37.4742C41.0952 37.8738 40.9198 38.0614 40.5801 38.2294C40.0292 38.502 39.2536 38.4496 38.8057 38.1095C38.5772 37.9359 38.2655 37.4758 38.1795 37.1847C37.9979 36.5704 37.9967 35.6499 38.1768 35.0408C38.3327 34.5134 38.7834 34.0359 39.2662 33.8865C39.5455 33.8001 40.0079 33.8006 40.304 33.8876ZM57.6772 34.1645C57.6987 34.2358 57.8946 34.9591 58.3131 36.5125C58.3963 36.8215 58.4645 37.0894 58.4646 37.108C58.4646 37.1266 58.0818 37.1417 57.6138 37.1417H56.7629L56.7927 37.0181C56.8091 36.9501 56.9099 36.5811 57.0166 36.198C57.1233 35.8149 57.2965 35.1831 57.4015 34.794C57.5064 34.4049 57.606 34.0864 57.6228 34.0862C57.6396 34.086 57.664 34.1212 57.6772 34.1645ZM49.6668 36.8542C49.9633 36.9557 50.1254 37.1346 50.1921 37.4341C50.3082 37.9554 50.0665 38.436 49.6206 38.5702C49.5202 38.6004 49.1879 38.6247 48.8743 38.6247H48.3091V37.7034V36.7822H48.8827C49.2916 36.7822 49.5168 36.8029 49.6668 36.8542ZM41.4865 42.0001C39.1523 42.148 36.9527 42.8864 35.4222 44.0358C35.0695 44.3007 34.6674 44.6603 34.3409 45.0025C32.9809 46.4285 32.1954 48.1094 31.7815 50.4796C31.5508 51.8004 31.5547 51.614 31.5547 61.4987C31.5547 71.3856 31.5527 71.2891 31.7821 72.6318C32.0998 74.4914 32.573 75.756 33.423 77.0168C34.8075 79.0706 37.1034 80.381 40.0946 80.8246C41.9569 81.1007 44.1697 81.0374 45.8709 80.6594C48.0501 80.175 49.7422 79.2725 51.0307 77.9071C51.3639 77.554 51.9693 76.7349 52.2165 76.3026C53.0668 74.8154 53.5731 72.9939 53.7206 70.891C53.7823 70.0121 53.7833 52.7178 53.7217 51.8592C53.5062 48.8539 52.5457 46.4524 50.9088 44.8262C50.2182 44.1402 49.5096 43.6378 48.6029 43.1916C46.6858 42.2479 44.1843 41.8291 41.4865 42.0001ZM66.786 41.9944C65.5692 42.0761 64.0946 42.3719 63.0994 42.734C61.9188 43.1636 60.6688 43.9324 59.8176 44.7524C58.2285 46.2835 57.2273 48.5382 56.9115 51.2975C56.8374 51.9445 56.8317 52.6738 56.8317 61.5436C56.8317 72.0278 56.8205 71.545 57.1002 73.066C57.2683 73.9806 57.6795 75.2362 58.0437 75.9471C58.7941 77.4119 59.6347 78.3681 60.9812 79.2884C61.2946 79.5026 62.4563 80.0732 62.8938 80.2278C63.4785 80.4344 64.6755 80.729 65.3103 80.8226C66.9627 81.0662 69.2337 81.0392 70.6903 80.7586C71.2709 80.6468 72.3994 80.3385 72.8604 80.1658C73.9 79.7762 75.119 79.0274 75.8755 78.3135C76.5994 77.6303 77.3031 76.677 77.7605 75.7601C78.0127 75.2547 78.402 74.1871 78.5515 73.5913C78.7224 72.9095 78.8903 71.8376 78.9528 71.028C79.0141 70.2344 79.0164 52.474 78.9553 51.7469C78.7599 49.4221 78.2421 47.7197 77.2713 46.2096C76.1159 44.4124 74.3084 43.1242 72.0827 42.5115C71.2812 42.2908 70.4944 42.1362 69.7985 42.0626C69.0206 41.9802 67.5077 41.946 66.786 41.9944ZM9.47555 42.5681C9.47506 42.6113 9.43543 43.7185 9.38738 45.0285C9.33933 46.3385 9.25969 48.5225 9.21044 49.8819C9.16114 51.2413 9.10933 52.5356 9.09537 52.758C9.06687 53.2108 8.9922 55.2073 8.82976 59.8584C8.76932 61.5886 8.71143 63.1811 8.70109 63.3974L8.6823 63.7906H10.7794C11.9328 63.7906 12.8765 63.7745 12.8765 63.7549C12.8765 63.7353 13.0241 63.566 13.2046 63.3788C14.2306 62.3142 15.4378 61.8034 16.9215 61.8061C18.8491 61.8096 19.8321 62.6081 20.2501 64.5096L20.3637 65.0264L20.3818 68.1497C20.4013 71.5193 20.3788 72.0622 20.1883 72.8166C20.0482 73.3715 19.8915 73.6904 19.6293 73.9537C19.2109 74.374 18.7475 74.5133 17.897 74.4743C17.2196 74.4433 16.8814 74.3385 16.5261 74.0495C15.9334 73.5674 15.6339 72.5695 15.5746 70.8797L15.5467 70.0821H11.7734H8L8.00009 70.7674C8.0004 72.5093 8.23546 74.054 8.71867 75.4893C8.86814 75.9333 9.28551 76.8021 9.54901 77.2178C9.95331 77.8557 10.6196 78.5882 11.2212 79.0564C12.6169 80.1427 14.5986 80.7923 17.0147 80.9555C18.804 81.0764 20.4103 80.9513 21.8913 80.5758C22.8414 80.3349 23.3922 80.1312 24.1051 79.7572C25.7073 78.9165 26.7711 77.8185 27.5752 76.1753C27.9942 75.319 28.1931 74.7177 28.4031 73.6721C28.6488 72.4486 28.6603 72.2163 28.6656 68.3418C28.6709 64.5481 28.6485 63.9375 28.4629 62.8244C28.2314 61.4361 27.9999 60.6561 27.5294 59.6786C26.8892 58.349 26.0527 57.4302 24.8698 56.7574C24.3663 56.471 24.0331 56.3293 23.495 56.1727C21.8265 55.687 19.8293 55.7105 18.2879 56.2338C17.743 56.4189 17.4711 56.5578 16.8737 56.9562C16.3659 57.2949 15.8791 57.7472 15.3693 58.3539L15.2002 58.5552L15.2241 57.9036C15.2372 57.5452 15.2887 55.5634 15.3385 53.4995C15.3883 51.4357 15.4403 49.6005 15.454 49.4213L15.4789 49.0955H21.5147H27.5506V45.7925V42.4894H18.5135C9.93685 42.4894 9.47632 42.4934 9.47555 42.5681ZM43.3281 48.5334C43.8037 48.6245 44.1744 48.8173 44.5197 49.1531C44.9925 49.6131 45.3084 50.3903 45.4778 51.5103C45.5526 52.0052 45.5577 52.6401 45.5577 61.4313V70.8235L45.4594 71.44C45.3493 72.1305 45.1158 72.8863 44.884 73.3028C44.7036 73.6269 44.2772 74.0337 43.9486 74.1952C43.5708 74.3809 43.1257 74.4529 42.5155 74.427C41.6319 74.3895 41.2131 74.2221 40.6958 73.6996C40.2757 73.2753 40.0548 72.7391 39.8443 71.6324L39.7418 71.0932V61.4313C39.7418 52.3766 39.7467 51.7425 39.821 51.3424C40.0382 50.1717 40.3029 49.5394 40.7497 49.1239C41.1236 48.7762 41.5703 48.564 42.0681 48.4977C42.3933 48.4543 43.0056 48.4717 43.3281 48.5334ZM68.6044 48.5365C69.068 48.6328 69.3923 48.7975 69.7132 49.1C70.347 49.6975 70.652 50.5704 70.7677 52.1176C70.8046 52.6111 70.8143 55.3313 70.8023 61.8357C70.7842 71.6647 70.7951 71.2347 70.5378 72.2841C70.1835 73.7293 69.332 74.4384 67.9492 74.44C66.7245 74.4415 65.9855 74.0194 65.5037 73.0434C65.1999 72.4281 65.0645 71.7542 64.9962 70.5185C64.9388 69.4799 64.9396 53.3058 64.997 52.3086C65.0825 50.8267 65.2961 50.0323 65.7933 49.3476C66.0921 48.9361 66.6464 48.6092 67.2042 48.5156C67.5837 48.4518 68.244 48.4618 68.6044 48.5365Z" fill="url(#paint0_linear_1854_6448)"/>
<defs>
<linearGradient id="paint0_linear_1854_6448" x1="76.6106" y1="81" x2="0.318941" y2="5.29457" gradientUnits="userSpaceOnUse">
<stop stop-color="#32A3FD"/>
<stop offset="1" stop-color="#32A3FD" stop-opacity="0.1"/>
</linearGradient>
</defs>
</svg>
