<svg fill="none" xmlns="http://www.w3.org/2000/svg" viewBox="0 0 64 64"><g clip-path="url(#clip0_317_129089)"><rect width="64" height="64" rx="16" fill="url(#paint0_linear_317_129089)"/><path fill-rule="evenodd" clip-rule="evenodd" d="M49.073 27.036c1.04 1.04 2.322 1.56 3.883 1.56 1 0 1.801-.16 2.481-.44.681-.28 1.321-.76 1.882-1.36l-1.481-1.601c-.48.4-.92.72-1.321.92-.44.24-.92.32-1.481.32-.881 0-1.601-.32-2.202-.96-.6-.64-.88-1.442-.88-2.362 0-.92.32-1.721.88-2.362.6-.64 1.321-.96 2.202-.96.56 0 1.04.08 1.44.28.401.2.841.52 1.282.92l1.4-1.6c-.6-.561-1.16-1.002-1.8-1.282-.641-.28-1.402-.44-2.322-.44-1.602 0-2.922.56-3.963 1.601-1.04 1.041-1.561 2.362-1.561 3.883s.52 2.842 1.56 3.883Zm-8.767-.72h-1.761V19.99h1.801c.92 0 1.681.28 2.282.88.6.601.88 1.362.88 2.282 0 .92-.28 1.681-.88 2.282-.6.6-1.361.88-2.322.88Zm-4.123 2.081V17.83h4.123c1.641 0 3.002.48 4.043 1.521 1.04 1.001 1.561 2.282 1.561 3.803s-.52 2.762-1.561 3.763c-1.04 1-2.402 1.521-4.043 1.521h-4.123v-.04ZM29.819 17.39h1.16v11.008h-1.16V17.39Zm-2.803 0h-1.161v11.008h1.16V17.39ZM17.09 27.757c.56.56 1.281.84 2.202.84 1.16 0 2.041-.52 2.682-1.52v1.36h1.16v-7.805h-1.16v4.483c0 .72-.24 1.321-.68 1.762-.441.44-1.001.68-1.682.68-.68 0-1.24-.24-1.601-.64-.36-.4-.56-1.001-.56-1.722v-4.563H16.29v4.844c0 .96.28 1.721.8 2.281ZM6.722 17.83v10.568h1.201v-4.603h5.724v-1.081H7.923V18.95h6.405v-1.12H6.722Zm.64 21.457H6.68v7.125h.68v-7.125Zm2.682 0v7.125l-.04.04h.68v-4.123c0-.76.24-1.36.72-1.84.481-.481 1.042-.721 1.762-.721s1.281.24 1.681.68c.4.44.6 1 .6 1.761v4.243h.681v-4.363c0-.88-.24-1.56-.76-2.121-.48-.56-1.201-.841-2.082-.841-1.12 0-2.001.48-2.562 1.481v-1.32h-.68Zm10.767 7.206-3.202-7.206h.8l2.722 6.365 2.722-6.365h.76l-3.202 7.206h-.6Zm10.648-3.964h-5.164c.08-.76.36-1.441.84-1.962.52-.52 1.121-.8 1.802-.8.76 0 1.36.28 1.801.8.44.52.68 1.161.72 1.962Zm-2.44 4.082h.038-.08.041Zm2.92-1.32c-.83.87-1.778 1.31-2.92 1.32-.945-.01-1.773-.369-2.444-1.04-.68-.68-1.04-1.601-1.04-2.682s.32-1.921.96-2.642c.64-.72 1.44-1.08 2.402-1.08.96 0 1.761.36 2.361 1.08.6.72.881 1.601.881 2.682v.28h-5.924c.08.84.36 1.521.92 2.042.52.52 1.161.76 1.882.76.92 0 1.761-.36 2.442-1.12l.48.4Zm2.283 1.12v-7.124h.68v2.04c.28-.64.721-1.16 1.282-1.56.56-.4 1.2-.6 1.881-.56v.76h-.08c-.88 0-1.601.32-2.202.96-.6.641-.88 1.522-.88 2.603v2.922h-.68v-.04Zm6.525-.36c.36.32.841.48 1.441.48v.04c.4 0 .801-.08 1.161-.24v-.64c-.36.16-.72.24-1.04.24-.961 0-1.441-.48-1.441-1.401v-4.604h2.481v-.64h-2.481v-2.282h-.681v2.282h-1.04v.64h1.04v4.684c0 .64.2 1.12.56 1.441Zm4.683-3.522h5.164a3.42 3.42 0 0 0-.72-1.962c-.44-.52-1.041-.8-1.802-.8-.68 0-1.28.28-1.801.8-.48.52-.76 1.201-.84 1.962Zm2.762 4.083h-.038c1.142-.011 2.09-.451 2.92-1.321l-.48-.4c-.68.76-1.521 1.12-2.442 1.12-.72 0-1.36-.24-1.881-.76-.56-.52-.84-1.201-.92-2.042h5.924v-.28c0-1.08-.28-1.961-.881-2.682-.6-.72-1.401-1.08-2.362-1.08-.96 0-1.761.36-2.402 1.08-.64.72-.96 1.561-.96 2.642 0 1.08.36 2.002 1.04 2.682.672.671 1.5 1.03 2.444 1.04h-.042.08Zm5.164-7.325v7.165h.68v-2.922c0-1.081.28-1.962.88-2.602.601-.64 1.322-.961 2.203-.961h.08v-.76c-.68-.04-1.321.16-1.882.56-.56.4-1 .92-1.28 1.56v-2.04h-.681Zm-20.294-4.324h15.811v2.442l7.446-4.284-7.446-4.283v2.682H33.062v3.443Zm-9.808-3.443h7.805v3.402h-7.805V31.52Zm-1.761 0H16.89v3.402h4.603V31.52Zm-9.048 0h2.922v3.402h-2.922V31.52Zm-1.64 0H9.323v3.402h1.482V31.52Zm-4.124 0h.92v3.402h-.92V31.52Z" fill="#fff"/></g><defs><linearGradient id="paint0_linear_317_129089" x1="61.846" y1="64" x2="-4.1" y2="-4.205" gradientUnits="userSpaceOnUse"><stop stop-color="currentColor"/><stop offset="1" stop-color="currentColor" stop-opacity=".1"/></linearGradient><clipPath id="clip0_317_129089"><path fill="#fff" d="M0 0h64v64H0z"/></clipPath></defs></svg>
