<svg fill="none" xmlns="http://www.w3.org/2000/svg" viewBox="0 0 64 64"><g clip-path="url(#clip0_132_33640)"><rect width="64" height="64" rx="16" fill="url(#paint0_linear_132_33640)"/><path fill-rule="evenodd" clip-rule="evenodd" d="M9.819 21.656C15.05 14.884 23.324 11 31.593 11c8.151 0 15.757 3.541 20.93 9.616l1.923-.628.3 5.144-.935.274-1.277-2.276c-4.859-6.648-12.593-10.584-20.94-10.584m0 0c-8.124 0-15.612 3.666-20.547 10.054l-.303.393-1.233-.938.308-.399" fill="#fff"/><path d="M56.54 35.385C55.472 28.32 51.294 22.257 45.43 18.6a1.162 1.162 0 0 0-1.603.376l-4.064 6.603a1.138 1.138 0 0 0 .367 1.556c3.063 1.954 5.305 5.048 6.122 8.675.118.516.586.883 1.124.883h8.019c.704 0 1.25-.621 1.145-1.307Zm-9.672-4.978-.778-1.197 3.33-2.115-.66-.63.8-.834 1.206 1.049.573.887-4.47 2.84ZM31.728 24.387c2.054 0 4.012.433 5.773 1.215a1.153 1.153 0 0 0 1.455-.446l4.082-6.634a1.13 1.13 0 0 0-.472-1.612 24.39 24.39 0 0 0-10.837-2.518 24.36 24.36 0 0 0-12.569 3.462 1.13 1.13 0 0 0-.306 1.682l4.908 6.131c.223.28.554.429.895.429.184 0 .372-.04.542-.127a14.117 14.117 0 0 1 6.53-1.582Zm-.27-7.464h.065c1.11 0 1.896.651 1.919 1.617v.018c.021.835-.407 1.276-1.18 1.853l-.892.646 2.18-.047.027 1.175-4.178.096-.026-1.092 1.945-1.534c.48-.389.673-.634.664-.953-.008-.328-.236-.524-.586-.524h-.021c-.354.008-.63.223-1.032.703l-1.005-.79c.547-.73 1.102-1.146 2.12-1.168ZM18.091 19.919a1.155 1.155 0 0 0-.904-.433c-.245 0-.49.075-.7.232-4.999 3.71-8.509 9.273-9.474 15.662a1.147 1.147 0 0 0 1.145 1.312h8.02c.537 0 1.004-.363 1.118-.883.757-3.34 2.723-6.228 5.415-8.194a1.129 1.129 0 0 0 .236-1.63l-4.855-6.066Zm-.625 9.981c-.489.892-1.145 1.329-1.896 1.508l-.367-1.241c.524-.153.9-.38 1.136-.809.201-.362.135-.681-.149-.834l-.013-.009a.496.496 0 0 0-.227-.061c-.232 0-.459.183-.665.55l-.292.538-.77-.184-.38-1.568-.966 1.748-1.04-.56 1.827-3.303.913.49.35 1.612c.35-.398.765-.678 1.25-.678.222 0 .458.062.707.197l.014.004c.93.503 1.127 1.587.567 2.6h.001ZM38.662 37.959h-.044l-4.47-.031 1.15-6.332.008-.057c.039-.394-.035-.708-.214-.936a.778.778 0 0 0-.617-.288c-.275 0-.52.135-.586.179a.492.492 0 0 0-.157.144l-8.605 11.27-.039.058c-.13.219-.218.563-.06.878.078.166.283.437.764.437h.07l3.964-.004-2.216 7.088c-.009.04-.022.083-.026.127-.009.1-.03.45.197.73a.775.775 0 0 0 .611.288c.15 0 .307-.035.481-.11a.596.596 0 0 0 .21-.157l10.09-11.83.061-.079c.07-.113.276-.507.092-.918a.778.778 0 0 0-.665-.458h.001Z" fill="#fff"/></g><defs><linearGradient id="paint0_linear_132_33640" x1="61.846" y1="64" x2="-4.1" y2="-4.205" gradientUnits="userSpaceOnUse"><stop stop-color="currentColor"/><stop offset="1" stop-color="currentColor" stop-opacity=".1"/></linearGradient><clipPath id="clip0_132_33640"><path fill="#fff" d="M0 0h64v64H0z"/></clipPath></defs></svg>
