<svg fill="none" xmlns="http://www.w3.org/2000/svg" viewBox="0 0 64 64"><g clip-path="url(#clip0_318_112411)"><rect width="64" height="64" rx="16" fill="url(#paint0_linear_318_112411)"/><path d="M31.913 15.865c2.36 5.756 6.253 15.901 6.253 18.717 0 3.686-2.816 6.626-6.252 6.626-3.438 0-6.253-2.94-6.253-6.626 0-2.857 3.933-13.003 6.252-18.717Zm0 27.454c4.597 0 8.324-3.934 8.324-8.696 0-4.347-6.626-20.083-7.413-21.822-.165-.373-.496-.621-.91-.621-.415 0-.787.248-.953.62-.787 1.74-7.412 17.476-7.412 21.782 0 4.804 3.727 8.737 8.323 8.737M9.76 28.33c3.147 1.905 8.53 5.425 9.524 6.791 1.284 1.781.952 4.141-.704 5.342-1.657 1.2-4.017.787-5.3-.994-.994-1.366-2.65-7.62-3.52-11.18m9.565 13.168c2.195-1.615 2.609-4.804.953-7.081-1.533-2.07-10.187-7.33-11.18-7.91a.636.636 0 0 0-.663 0c-.207.125-.29.415-.249.622.249 1.118 2.526 10.973 4.058 13.044 1.656 2.319 4.845 2.899 7.04 1.284M54.19 48.538c-7.205-.704-14.451-.248-21.408.166-6.915.414-14.08.87-21.119.207a1.093 1.093 0 0 0-1.16.952c-.04.58.373 1.077.953 1.118a89.59 89.59 0 0 0 8.158.373c4.513 0 8.944-.249 13.292-.58 6.916-.414 14.08-.87 21.119-.207a1.03 1.03 0 0 0 1.118-.952c0-.497-.414-1.036-.994-1.077M45.495 41c-.29-.248-.58-.497-.786-.828-.414-.58-.58-1.408-.414-2.153.165-.746.662-1.367 1.366-1.781a.483.483 0 0 1 .663.207.483.483 0 0 1-.207.663c-.58.33-.787.786-.87 1.118-.124.497 0 .993.248 1.366 1.326 1.822 4.059 1.532 5.467.787.993-.538 2.815-2.278 2.857-4.43-.58.62-1.325.993-2.112 1.034-.911 0-1.698-.372-2.112-1.118-.331-.62-.414-1.242-.207-1.863.248-.704.911-1.284 1.74-1.574 1.614-.62 2.65-1.2 3.022-3.81-2.236 1.45-3.81 1.491-5.217 1.533-1.243 0-2.278.041-3.686.952-.455.29-.87.621-1.242 1.035-.704.787-.953 1.657-.787 2.65.041.25-.124.54-.414.58-.29.042-.538-.124-.58-.414-.207-1.283.125-2.443.994-3.437.414-.497.911-.87 1.45-1.242 1.614-1.035 2.94-1.077 4.182-1.077 1.532 0 3.105-.082 5.549-1.946a.509.509 0 0 1 .538-.041c.166.083.29.29.248.455-.207 3.727-1.366 4.804-3.727 5.715-.538.207-.993.58-1.159.994-.124.33-.083.662.124 1.035.207.414.663.621 1.201.58.828 0 1.574-.622 2.03-1.615.082-.208.289-.29.496-.29.207 0 .373.165.456.331.455 1.45.207 2.982-.704 4.43-.746 1.202-1.822 2.03-2.444 2.403a5.978 5.978 0 0 1-3.395.662c-.994-.083-1.864-.414-2.526-.952" fill="#fff"/><path fill-rule="evenodd" clip-rule="evenodd" d="M47.9 13.83c-.764.733-1.474 1.007-2.073 1.237l-.122.048-.004.001-.028.01c-.647.243-1.139.428-1.647 1.044l-.001.002c-.194.233-.325.438-.388.659l-.007.026-.012.024c-.196.426-.168.801.064 1.203a.566.566 0 0 1 .044.51.724.724 0 0 1-.273.337.565.565 0 0 1-.521.05.723.723 0 0 1-.337-.272l-.004-.006-.005-.008c-.429-.715-.481-1.539-.103-2.308.14-.367.366-.683.563-.958l.011-.016.009-.012.01-.011c.744-.876 1.502-1.16 2.155-1.404l.059-.022.007-.003c.416-.145.79-.278 1.184-.54.391-.261.816-.661 1.293-1.356l.018-.027.023-.023a.735.735 0 0 1 .537-.227c.326 0 .51.234.581.447l.004.012c.297 1.02.36 1.792.159 2.443-.202.654-.651 1.123-1.227 1.572a.992.992 0 0 0-.325.501.225.225 0 0 0 .026.093.482.482 0 0 0 .132.144c.097.078.248.112.43.034l.009-.004.01-.003c.288-.105.519-.41.556-.887.007-.316.237-.496.446-.566l.054-.018h.066c.055 0 .148 0 .235.018a.502.502 0 0 1 .342.229c.548.785.73 1.716.455 2.722v.001c-.215.773-.609 1.503-1.009 1.86a4.188 4.188 0 0 1-1.894 1.078l-.006.001a3.716 3.716 0 0 1-1.737-.001l.085-.34h-.042l-.13.325-.018-.007c-.19-.076-.429-.172-.63-.319-.423-.27-.72-.78-.77-1.29-.051-.503.099-1.014.494-1.421a.578.578 0 0 1 .46-.216c.156 0 .319.058.446.174.156.12.219.3.219.456 0 .149-.058.32-.2.44a.721.721 0 0 0-.14.248.354.354 0 0 0-.008.175l.006.034v.035c0 .15.084.28.22.349l.019.01.017.01c.432.283.944.31 1.448.177a2.913 2.913 0 0 0 1.26-.711c.186-.186.439-.563.6-1.03.073-.213.124-.437.143-.663-.173.147-.373.26-.597.328-.575.19-1.211.157-1.702-.277a1.587 1.587 0 0 1-.576-1.216c0-.553.326-1.054.739-1.421l.008-.008c.377-.313.628-.548.767-.846.076-.164.125-.363.123-.63Zm-27.583 7.044.206.283c1.244-.909 1.466-2.704.532-3.967-.221-.307-.667-.689-1.175-1.076a33.201 33.201 0 0 0-1.761-1.236 67.832 67.832 0 0 0-2.678-1.677l-.01-.005-.01-.005c-.195-.098-.423-.078-.598-.02l-.078.027-.059.058a.795.795 0 0 0-.226.537v.04l.008.04.007.029c.076.328.38 1.648.758 3.027.195.713.41 1.446.626 2.068.21.608.433 1.154.653 1.46.931 1.303 2.727 1.656 3.977.695l-.213-.277h.041Zm-3.547-3.443a58.251 58.251 0 0 1-.63-2.311 56.56 56.56 0 0 1 2.021 1.327c.458.316.878.62 1.213.885.342.27.566.477.66.602.512.72.37 1.66-.257 2.163-.66.454-1.605.303-2.162-.427-.09-.121-.22-.395-.375-.808-.15-.4-.31-.897-.47-1.431Z" fill="#fff"/></g><defs><linearGradient id="paint0_linear_318_112411" x1="61.846" y1="64" x2="-4.1" y2="-4.205" gradientUnits="userSpaceOnUse"><stop stop-color="currentColor"/><stop offset="1" stop-color="currentColor" stop-opacity=".1"/></linearGradient><clipPath id="clip0_318_112411"><path fill="#fff" d="M0 0h64v64H0z"/></clipPath></defs></svg>
