<svg fill="none" xmlns="http://www.w3.org/2000/svg" viewBox="0 0 64 64"><g clip-path="url(#clip0_318_112990)"><rect width="64" height="64" rx="16" fill="url(#paint0_linear_318_112990)"/><path d="M34.81 53.078V47.46l4.7 2.714 1.223-1.147.383-1.605-6.307-3.631v-9.02l7.912 4.548v7.224l1.567.688 1.605-.65v-5.389l4.892 2.828 1.3-1.07.306-1.682-4.893-2.828 4.702-2.675-.383-1.606-1.223-1.146-6.306 3.593-7.835-4.549 7.873-4.472 6.268 3.631 1.223-1.146.383-1.605-4.702-2.714 4.893-2.79-.268-1.682-1.3-1.07-4.892 2.79v-5.39l-1.605-.649-1.605.65v7.224l-7.988 4.471v-9.02l6.42-3.592-.19-1.682-1.376-1.07-4.816 2.675v-5.618l-1.605-.612v1.185L31.33 10.54c-1.643.153-3.287.459-4.816.956l6.612 3.707v3.21l-9.899-5.541a23.042 23.042 0 0 0-3.057 1.949l12.956 7.224v3.172L17.916 16.73c-.765.764-1.453 1.605-2.103 2.446l17.314 9.67v3.172L14.285 21.51c-.535.917-.956 1.872-1.338 2.904l20.18 11.275v3.172l-21.02-11.733a19.83 19.83 0 0 0-.498 3.363l21.518 12.002v3.172L11.61 33.662c.115 1.377.344 2.714.688 4.014l20.83 11.619v3.172l-19.3-10.778c1.184 2.408 2.827 4.51 4.777 6.306l8.6 4.778c1.872.535 3.86.84 5.923.84l1.606-.61.076.075Z" fill="#fff"/></g><defs><linearGradient id="paint0_linear_318_112990" x1="61.846" y1="64" x2="-4.1" y2="-4.205" gradientUnits="userSpaceOnUse"><stop stop-color="currentColor"/><stop offset="1" stop-color="currentColor" stop-opacity=".1"/></linearGradient><clipPath id="clip0_318_112990"><path fill="#fff" d="M0 0h64v64H0z"/></clipPath></defs></svg>
