<svg fill="none" xmlns="http://www.w3.org/2000/svg" viewBox="0 0 64 64"><g clip-path="url(#clip0_132_34163)"><rect width="64" height="64" rx="16" fill="url(#paint0_linear_132_34163)"/><path d="M27.59 18.655c-.387.145-.436 1.308.824 5.62l2.374 8.139 1.453-.485-2.373-8.139c-1.26-4.263-1.89-5.232-2.326-5.135" fill="#fff"/><path d="M33.647 34.545c-.29.872-1.308 1.357-2.18 1.066-.872-.29-1.356-1.26-1.066-2.18.291-.872 1.308-1.357 2.18-1.066.872.29 1.357 1.26 1.066 2.18Zm-1.21-3.052c-1.357-.242-2.665.678-2.86 2.035-.242 1.356.679 2.616 2.035 2.858 1.357.242 2.616-.678 2.859-2.035.242-1.356-.678-2.616-2.035-2.858ZM31.708 43.266c-.824-1.454-1.599-3.973-1.599-4.506-.048.097-.097.582-.242 1.018-.242.678-.63 1.695-1.066 2.325-1.211 1.938-2.616 4.021-2.664 5.959-.049 2.374 1.356 4.36 3.681 4.457 2.326.097 4.312-2.083 4.167-4.312-.097-1.84-1.211-3.197-2.229-4.941M37.962 41.09c-.51-.901-.99-2.462-.99-2.793-.03.06-.06.36-.15.631-.15.42-.391 1.05-.661 1.44-.75 1.202-1.621 2.493-1.651 3.693-.03 1.471.84 2.702 2.281 2.762 1.441.06 2.672-1.29 2.582-2.672-.06-1.14-.75-1.98-1.381-3.062M4.53 42.636l.873-.872c.387.436.823.727 1.453.727.485 0 .824-.291.824-.727 0-.485-.436-.775-1.163-.775h-.533l-.194-.824 1.405-1.405H4.87v-1.114h4.02v.969l-1.5 1.453c.823.146 1.598.582 1.598 1.648 0 1.114-.824 1.937-2.132 1.937-1.066 0-1.792-.436-2.325-1.017ZM9.423 40.601c0-1.744 1.066-3.1 2.616-3.1s2.616 1.308 2.616 3.052-1.066 3.1-2.616 3.1-2.616-1.308-2.616-3.052Zm3.924 0c0-1.066-.533-1.89-1.308-1.89s-1.308.776-1.308 1.89c0 1.114.533 1.89 1.308 1.89s1.308-.824 1.308-1.89ZM14.996 39.1c0-.873.581-1.551 1.453-1.551.872 0 1.454.678 1.454 1.502 0 .872-.582 1.55-1.454 1.55s-1.453-.678-1.453-1.502Zm4.941-1.454h1.018l-4.312 5.91h-1.017l4.312-5.91Zm-2.955 1.453c0-.436-.242-.775-.533-.775-.339 0-.532.34-.532.727 0 .436.242.775.532.775.34 0 .533-.34.533-.727Zm1.648 3.004c0-.872.58-1.55 1.453-1.55.872 0 1.453.678 1.453 1.502 0 .871-.581 1.55-1.453 1.55-.872 0-1.405-.678-1.405-1.502m1.986 0c0-.388-.242-.775-.581-.775-.34 0-.533.339-.533.726 0 .436.242.776.533.776.29 0 .533-.34.533-.727M42.416 42.975l.678-.969c.436.34.824.533 1.308.533.727 0 1.114-.533 1.211-1.357-.29.243-.678.388-1.21.388-1.309 0-2.133-.727-2.133-1.938 0-1.211.921-2.083 2.277-2.083.824 0 1.26.194 1.696.63.436.436.727 1.066.727 2.228 0 1.938-.92 3.246-2.616 3.246-.872 0-1.454-.29-1.938-.727m3.197-3.39c0-.534-.387-.921-1.066-.921-.678 0-1.017.387-1.017.872 0 .533.388.92 1.017.92.63 0 1.018-.387 1.018-.872M47.357 40.601c0-1.744 1.066-3.1 2.616-3.1s2.616 1.308 2.616 3.052-1.066 3.1-2.616 3.1-2.616-1.308-2.616-3.052Zm3.924 0c0-1.066-.533-1.89-1.308-1.89s-1.308.776-1.308 1.89c0 1.114.533 1.89 1.308 1.89s1.308-.824 1.308-1.89ZM52.928 39.1c0-.873.581-1.551 1.453-1.551.872 0 1.405.678 1.405 1.502 0 .872-.581 1.55-1.453 1.55-.872 0-1.454-.678-1.454-1.502m4.942-1.453h1.017l-4.312 5.91H53.51l4.312-5.91Zm-2.955 1.453c0-.436-.243-.775-.533-.775-.34 0-.533.34-.533.727 0 .436.242.775.581.775.34 0 .533-.34.533-.727m1.647 3.004c0-.872.582-1.55 1.454-1.55s1.453.678 1.453 1.502c0 .871-.581 1.55-1.453 1.55-.872 0-1.454-.678-1.454-1.502Zm1.986 0c0-.388-.242-.775-.58-.775-.34 0-.534.339-.534.726 0 .436.242.776.533.776.29 0 .533-.34.533-.727" fill="#fff"/><path fill-rule="evenodd" clip-rule="evenodd" d="M31.491 10.3c-12.454 0-22.562 10.047-22.66 22.479h5.766c.097-9.248 7.624-16.714 16.895-16.714 9.27 0 16.797 7.466 16.894 16.714h5.765c-.097-12.432-10.205-22.48-22.66-22.48Zm0 3.991a.514.514 0 1 0 1.03 0v-2.348a.514.514 0 0 0-1.03 0v2.348Zm13.184 5.461a.514.514 0 1 0 .728.727l1.66-1.66a.514.514 0 1 0-.727-.727l-1.66 1.66Zm-28.754-1.66c.2-.201.526-.201.727 0l1.66 1.66a.514.514 0 1 1-.727.728l-1.66-1.66c-.201-.202-.201-.527 0-.728Zm-3.766 6.674a.514.514 0 0 0-.4.947l2.162.914a.514.514 0 1 0 .4-.948l-2.162-.913Zm36.123 1.301a.514.514 0 0 1 .262-.678l2.148-.951a.514.514 0 0 1 .416.94l-2.147.951a.514.514 0 0 1-.679-.262ZM23.521 13.515a.514.514 0 1 0-.951.391l.891 2.172a.515.515 0 0 0 .952-.39l-.892-2.173Zm17.144-.038a.514.514 0 0 1 .23.69l-1.053 2.1a.514.514 0 1 1-.92-.461l1.053-2.1a.514.514 0 0 1 .69-.23Z" fill="#fff"/></g><defs><linearGradient id="paint0_linear_132_34163" x1="61.846" y1="64" x2="-4.1" y2="-4.205" gradientUnits="userSpaceOnUse"><stop stop-color="currentColor"/><stop offset="1" stop-color="currentColor" stop-opacity=".1"/></linearGradient><clipPath id="clip0_132_34163"><path fill="#fff" d="M0 0h64v64H0z"/></clipPath></defs></svg>
