<svg fill="none" xmlns="http://www.w3.org/2000/svg" viewBox="0 0 64 64"><g clip-path="url(#clip0_318_112367)"><rect width="64" height="64" rx="16" fill="url(#paint0_linear_318_112367)"/><path d="M23.902 12.17a7.956 7.956 0 0 1 5.67-2.348c2.135 0 4.147.824 5.671 2.348l.884-.884c-1.768-1.768-4.085-2.713-6.585-2.713s-4.816.975-6.585 2.713l.884.884h.061Z" fill="#fff"/><path d="M29.573 12.077c-1.555 0-2.987.58-4.085 1.677l-.64-.64a6.692 6.692 0 0 1 4.725-1.951c1.768 0 3.445.7 4.726 1.981l-.64.61c-1.098-1.067-2.53-1.677-4.086-1.677Z" fill="#fff"/><path d="M29.573 14.515c-.884 0-1.738.366-2.348.976l-.64-.64a4.195 4.195 0 0 1 2.988-1.22c1.128 0 2.195.427 2.987 1.25l-.64.61a3.274 3.274 0 0 0-2.347-.976Z" fill="#fff"/><path fill-rule="evenodd" clip-rule="evenodd" d="M34.787 36.925H30.62c-.34-.119-.7-.186-1.077-.186a3.396 3.396 0 0 0-3.384 3.384 3.396 3.396 0 0 0 3.384 3.384c.475 0 .927-.109 1.339-.295h3.905v12.215H24.452v-37.59h10.335v19.088Zm-3.69 8.473c0 .64.489 1.158 1.129 1.158.61 0 1.128-.549 1.128-1.158 0-.61-.518-1.129-1.128-1.129-.61 0-1.128.488-1.128 1.129Zm-2.651 0c0 .64.518 1.158 1.158 1.158.61 0 1.128-.549 1.128-1.158 0-.61-.488-1.129-1.128-1.129-.64 0-1.158.488-1.158 1.129Zm-2.622 0c0 .64.518 1.158 1.158 1.158.61 0 1.128-.549 1.128-1.158 0-.61-.488-1.129-1.128-1.129-.64 0-1.158.488-1.158 1.129Zm3.262-10.976c0-.884-.732-1.615-1.616-1.615-.884 0-1.616.731-1.616 1.615s.732 1.616 1.616 1.616c.884 0 1.616-.732 1.616-1.616Zm4.207-13.109h-7.347v9.116h7.347v-9.116Zm-3.14 13.14c0 .884.732 1.616 1.616 1.616.884 0 1.615-.732 1.615-1.616 0-.884-.731-1.616-1.615-1.616s-1.616.732-1.616 1.616Z" fill="#fff"/><path d="M29.96 37.687v.001h5.493v-.001h7.29a7.364 7.364 0 0 1 7.378 7.377 7.364 7.364 0 0 1-7.378 7.378h-6.585v-10h-6.433c-.353 0-.69-.067-.994-.192a3.614 3.614 0 0 1-.631-.377 2.241 2.241 0 0 1-.814-1.747c0-.788.379-1.492.963-1.939.236-.158.501-.293.789-.401.218-.065.449-.1.687-.1h.235ZM19.879 38.937c0 1.181.962 2.151 2.14 2.165a2.173 2.173 0 0 0-2.14 2.164c0 1.182.965 2.154 2.145 2.164a2.173 2.173 0 0 0-2.145 2.165c0 1.103.84 2.022 1.91 2.15a2.175 2.175 0 0 0-1.91 2.149c0 1.189.976 2.165 2.164 2.165a2.173 2.173 0 0 0 2.165-2.165c0-1.103-.84-2.022-1.91-2.15a2.174 2.174 0 0 0 1.91-2.15 2.173 2.173 0 0 0-2.145-2.164 2.173 2.173 0 0 0 2.145-2.164c0-1.18-.962-2.151-2.14-2.164a2.173 2.173 0 0 0 2.14-2.165 2.173 2.173 0 0 0-2.165-2.164 2.173 2.173 0 0 0-2.164 2.164Z" fill="#fff"/></g><defs><linearGradient id="paint0_linear_318_112367" x1="61.846" y1="64" x2="-4.1" y2="-4.205" gradientUnits="userSpaceOnUse"><stop stop-color="currentColor"/><stop offset="1" stop-color="currentColor" stop-opacity=".1"/></linearGradient><clipPath id="clip0_318_112367"><path fill="#fff" d="M0 0h64v64H0z"/></clipPath></defs></svg>
