<svg fill="none" xmlns="http://www.w3.org/2000/svg" viewBox="0 0 64 64"><g clip-path="url(#clip0_132_33615)"><rect width="64" height="64" rx="16" fill="url(#paint0_linear_132_33615)"/><path fill-rule="evenodd" clip-rule="evenodd" d="M56.764 21.969h-.004l-.005-.005-.004-.004h-.004l-.013-.004h-.005l-.008-.005h-.013l-.005-.004-.008-.005h-.005l-.008-.004h-.013l-.013-.004-.005-.005h-.008l-.013-.004-.005-.004h-.008l-.013-.005-.013-.004h-.005l-.004-.005h-.014l-.008-.004-.004-.004s-.008-.005-.013-.005h-.009l-.013-.004-.004-.004h-.013l-.005-.005h-.004s-.004-.004-.009-.004h-.008l-.007-.004-.01-.005c-.005 0-.014-.004-.014-.004h-.008l-.01-.004a.024.024 0 0 1-.008-.005h-.017l-.009-.004-.234-.07-.252-.066-.022-.004-.274-.066-.282-.056a.546.546 0 0 1-.043-.014l-.308-.048-.317-.044a.13.13 0 0 0-.022-.004.126.126 0 0 1-.022-.004l-.339-.027-.373-.021h-.447l-.235.008-.234.018-.24.026-.238.035c-.004 0-.009 0-.013.005l-.243.035-.243.056-.252.062-.256.074-.017.009-.018.004-.021.009-.018.004-.017.009-.022.004-.022.01-.021.008s-.022.004-.03.009h-.005l-.017.004-.018.009-.022.004-.013.009a.17.17 0 0 1-.056.017.162.162 0 0 1-.04.018h-.008l-.017.009-.013.004-.017.009-.018.004-.013.009h-.004l-.005.004h-.013l-.004.005h-.004l-.018.008c-.008.005-.017.008-.026.011l-.026.011h-.008l-.014.005-.006.003c-.008.003-.017.007-.024.014l-.003.001c-.012.004-.024.008-.036.017a.279.279 0 0 1-.035.013l-.004.004-.017.005-.014.004-.013.009h-.004a.202.202 0 0 1-.03.013l-.005.004c-.004.005-.009.005-.009.005h-.004l-.004.004h-.005l-.004.004h-.009a.201.201 0 0 1-.043.022l-.009.004-.017.005-.013.008-.014.005c-.005.005-.008.008-.013.008l-.004.005c-.005 0-.005.004-.005.004h-.008l-.008.005-.005.004h-.004l-.009.004-.004.005-.017.004-.009.004-.008.009h-.005l-.017.008h-.009l-.004.005-.013.004-.009.009-.013.008-.009.005h-.008l-.005.004-.008.004h-.005l-.004.005-.008.004-.005.005-.013.004-.013.009-.013.004-.013.009-.013.009-.009.004-.004.004a.01.01 0 0 0-.004.001h-.002a.028.028 0 0 1-.011.004l-.009.004-.004.004c-.004 0-.008.004-.012.007l-.002.002h-.004l-.004.004h-.005l-.004.005-.01.004h-.003a.046.046 0 0 0-.009.004l-.008.005-.014.013-.013.005-.008.004-.009.009a.446.446 0 0 1-.017.007c-.01.005-.018.009-.026.015h-.004l-.009.008h-.004l-.009.005-.009.004-.008.004-.004.005-.009.004-.008.008-.013.01-.014.004-.013.008-.013.004-.013.01-.009.008-.013.008-.004.005-.013.004-.004.004-.009.005c-.005.005-.011.008-.017.011a.118.118 0 0 1-.028.015c-.008.005-.015.008-.02.013l-.009.005-.013.013h-.004c-.005.004-.009.008-.013.008l-.005.005-.017.008-.004.005a.07.07 0 0 1-.03.017.073.073 0 0 0-.022.018l-.01.006a.098.098 0 0 0-.02.016h-.005l-.008.004-.005.009-.008.004-.01.005c-.01.003-.019.011-.024.016l-.001.001-.009.009-.008.004-.009.005-.004.004-.009.004-.009.009-.008.004-.005.005-.013.008-.013.009-.013.009-.008.008-.014.009-.008.009-.013.004-.014.009c-.004.005-.008.008-.013.008v.005l-.008.004-.009.005-.008.004-.005.009-.008.004-.009.005-.009.008-.013.009-.013.008-.013.01-.008.008-.01.008-.006.005c-.002.002-.004.004-.006.004l-.013.013-.005.004-.008.005h-.005l-.008.004-.004.005-.009.008-.004.005-.009.004-.004.004-.018.014-.008.008-.009.005-.004.004-.008.009-.009.009-.004.004a.144.144 0 0 0-.03.022c-.01.004-.014.009-.014.009l-.004.004-.004.004a.06.06 0 0 0-.018.013l-.008.01-.014.004-.004.004-.013.013-.009.013-.013.009-.008.008-.013.009-.013.009-.013.008-.01.009-.008.009-.004.008-.009.005-.008.004-.005.005-.004.004-.009.004-.004.009-.009.004-.008.01-.013.012-.013.013-.014.01-.013.008-.008.013-.013.009-.009.008-.013.009-.005.009-.004.004-.008.004-.01.005-.004.008-.008.005-.005.004-.013.013-.017.014-.01.013-.012.013-.013.008-.013.014-.013.013-.014.013-.004.004-.009.005c-.002.005-.007.01-.012.013a.104.104 0 0 0-.01.008v.001c-.004.005-.008.008-.012.008l-.018.018-.017.022-.022.017-.017.018-.018.017-.017.022-.022.017-.017.018a.113.113 0 0 0-.01.013l-.012.013-.013.009-.013.013-.004.007-.002.003-.002.003-.014.009-.017.022-.008.004a.447.447 0 0 0-.018.02l-.026.028-.002.003-.006.006-.005.004-.004.004-.004.01-.01.004-.003.004-.005.008-.008.005-.009.013-.013.013-.008.013-.014.009-.008.013-.013.009-.009.013-.009.013-.008.009-.004.009-.009.004-.008.009-.005.004-.004.009-.008.004-.005.014-.009.008-.017.014-.004.008-.005.004-.004.005-.009.013-.008.009-.009.008-.008.009-.009.013-.004.008-.009.005-.004.004-.01.009c0 .004-.003.009-.003.009a.023.023 0 0 0-.004.005c-.001.002-.002.003-.005.003l-.005.009-.013.013-.008.009-.009.013-.013.013-.009.013-.008.014-.013.008-.009.013-.003.005c-.002.003-.004.006-.01.009l-.009.008v.005l-.004.004v.004l-.009.005v.009l-.008.004-.009.014-.008.013s-.005.004-.013.004l-.01.018-.012.017-.013.013-.009.018-.013.017-.017.018-.005.004-.004.009-.004.008a.239.239 0 0 0-.03.04s-.005.009-.009.013l-.009.004-.008.01-.005.012-.008.009-.005.013-.008.009-.005.008-.008.009-.004.009c-.01.01-.016.018-.023.027a.164.164 0 0 1-.017.02l-.004.014-.008.009-.005.009-.004.004a.061.061 0 0 0-.008.013l-.014.013-.004.009-.004.009-.009.008-.004.005-.009.022-.004.004-.009.009-.004.009-.005.008-.008.009-.009.008-.004.01-.004.008-.005.004-.004.009-.004.009-.009.008c0 .004-.004.009-.004.009l-.005.009-.008.008-.004.009-.005.013-.004.005-.008.008-.009.01v.007l-.009.014-.013.017-.004.009a.087.087 0 0 1-.007.011l-.007.01-.008.018-.013.018-.013.013-.008.017-.005.009-.004.013h-.005l-.004.009v.004l-.004.009-.005.004-.004.009h-.004v.013l-.009.005-.009.008-.004.009-.004.013-.005.009-.008.008v.005l-.005.004-.004.009v.004l-.004.005-.005.004v.004l-.004.005-.004.013-.01.009-.003.004s-.005.013-.01.017l-.004.01-.004.008v.009a.053.053 0 0 0-.013.008v.014c-.004.003-.006.007-.008.01-.002.005-.004.01-.01.011l-.008.018-.004.009-.004.013c-.005 0-.005.004-.005.004l-.008.014v.004l-.004.013-.004.004-.005.005-.004.004-.004.014v.008h-.005l-.004.013-.009.01-.004.008c0 .007-.005.01-.01.014l-.001.002-.002.001v.005l-.004.013-.005.009-.004.008-.004.005-.005.009-.008.017-.005.013-.008.018-.01.017-.008.014-.008.017-.004.018-.01.013-.003.009v.004l-.005.009-.004.008-.004.009-.005.009v.004s-.004.004-.004.009l-.02.037a1.055 1.055 0 0 0-.02.037v.008h-.004v.01l-.004.004-.004.013v.004l-.005.009-.004.008-.004.009-.005.009v.004l-.004.008-.004.014-.009.008v.005l-.004.008-.005.009-.004.008v.01l-.004.008-.005.004-.004.014v.008l-.004.005-.005.008-.004.01v.008l-.004.008-.005.013c-.004.005-.004.014-.004.014l-.009.008-.004.009v.009c-.005.004-.005.009-.005.009l-.004.004v.013l-.004.004-.005.005v.009l-.004.008-.004.013-.005.014-.004.008-.004.018-.005.013-.004.013-.004.014-.005.008-.004.013-.004.009-.005.004-.004.008v.014l-.004.004-.005.005v.008l-.004.014-.004.008v.01l-.005.012-.004.009-.004.008-.005.014v.008l-.004.009v.009l-.004.004v.005c-.003.002-.004.005-.005.009l-.001.004a.015.015 0 0 1-.003.004l-.004.004v.005l-.004.013-.005.009v.004l-.013.053-.004.004v.009l-.005.004v.009l-.004.009v.008l-.004.009v.013l-.005.008-.004.01v.008l-.004.009v.008l-.004.009-.01.009v.021l-.004.005v.004l-.004.009v.004l-.004.009-.005.008v.018l-.004.013-.004.013-.005.018-.004.013-.004.017-.005.018v.017l-.004.013-.004.018-.005.013-.004.014v.013l-.009.013-.004.017v.01l-.004.008v.022l-.005.008-.004.014v.008l-.004.013v.009l-.005.009v.021l-.004.01v.012l-.004.005v.013l-.005.009v.013l-.001.006-.012.055v.013l-.004.005v.004l-.005.009v.004s0 .013-.004.018v.008l-.004.013v.018l-.005.013v.013l-.004.013v.014l-.004.017v.013l-.005.018v.013l-.004.017-.004.018v.04l-.005.013v.013l-.004.009v.021l-.004.014v.03h-.005v.031l-.004.013v.022l-.004.013v.048l-.009.014v.04l-.004.012v.035l-.004.018v.052l-.005.014v.078l-.004.014v.362a8.521 8.521 0 0 0-2.507-.675l.672-1.48.035-.178.005-.009.036-.081c.005-.011.013-.02.021-.031l.01-.012.036-.089.066-.135.073-.155.067-.174.085-.193.078-.21.085-.228.073-.209.014-.045a.437.437 0 0 0 .01-.032l.073-.224.085-.278.079-.295.066-.236c.006-.042.019-.088.03-.135l.061-.26.073-.34.054-.352.061-.364.042-.379.037-.379v-.023l.024-.39.012-.411v-.43l-.006-.386-.003-.043a.424.424 0 0 1-.003-.042l-.024-.406-.043-.457-.054-.464-.079-.468-.097-.483-.007-.028-.4-2.643c.437.4.883 1.463 1.197 2.38.262.885.562 2.154.71 3.679v.02c.046.48.08.982.088 1.51l.004.028v.02a18.72 18.72 0 0 1-.046 1.658l.027-.058v.001l.01-.017-.005.05c1.758-1.562 2.873-1.993 3.867-2.377.148-.057.293-.114.437-.172l-.01-.03.038-.017-.122-.857-.121-.516c-.109-.429-.239-.84-.39-1.229l-.218-.52-.217-.399a6.1 6.1 0 0 0-.317-.546l-.209-.323-.135-.18a9.174 9.174 0 0 0-.577-.704l-.182-.206-.495-.467-.521-.434-.196-.14c-.2-.144-.404-.28-.612-.406l-.29-.18-.513-.271A9.79 9.79 0 0 0 44.808 13c-.004.048-.074.599-.395 1.548l-.178.503-.243.582a20.621 20.621 0 0 1-1.155 2.257c-.067.117-.148.25-.23.384a27.76 27.76 0 0 0-.14.228l-.025.048-.074.123-.074.122-.004.004v.009l-.005.004h-.004v.005l-.013.017-.013.018-.004.013v.005l-.005.004v.004a.119.119 0 0 0-.019.027l-.007.013a2.017 2.017 0 0 1-.035.061c-.004 0-.008.009-.008.009v.004l-.005.008-.008.014-.008.013-.005.013-.01.017-.007.01-.005.004-.004.008-.004.005s-.005.008-.005.013l-.004.008-.004.009-.009.013c0 .005-.009.013-.009.013l-.004.009-.004.008-.005.01-.004.004-.009.013v.005l-.004.004-.004.009-.005.008-.004.005v.004l-.004.005-.005.008-.004.009-.004.008v.005l-.005.004-.004.009-.004.009-.005.008-.004.004-.005.005-.008.013v.004l-.004.009-.004.004-.005.004v.009l-.004.009-.009.009v.008l-.004.004c-.009.018-.018.035-.03.053l-.005.008-.004.005-.005.009v.008h-.004l-.004.009-.005.009v.004l-.004.007-.004.006-.174.337-.083.18c-.2.423-.373.87-.49 1.342l-.074.358-.065.411-.026.425.013.433.052.446.1.455.147.463.122.276c.056.127.113.253.186.384l.152.294.191.288c.157.227.318.46.517.69l.009.01.008.008v.005l.005.004.004.009c.002 0 .003 0 .004.002l.005.002.004.005.004.008.009.009.004.008.005.005.004.004.004.004.009.01.008.008.005.009h.004s.004.008.009.013l.004.004a.133.133 0 0 0 .035.035c.004.009.013.018.022.026l.004.005a.136.136 0 0 1 .026.035l.009.009.008.004.009.009.004.004.004.009.005.004.004.005.004.004.005.004.004.005.004.004.005.009.008.004.004.009c.007.004.012.01.018.017a.446.446 0 0 1 .034.035c.01.012.02.022.03.03 0 .005.004.008.008.012l.002.002h.004l.004.009.005.004.008.009.009.008.004.005.004.004.009.009.004.004.009.01.004.003.009.009.004.004.005.009.008.004.005.005.004.004.004.004v.005h.005l.004.004.004.009h.005l.008.008.005.009.01.01c.007.005.013.01.016.016l.009.005.004.008s.009.005.013.009l.013.013.004.004.005.005.004.004.004.004.009.01.008.008.009.008.009.009.004.009.009.004.021.022.005.004.004.005.005.004.004.005.004.004.005.004h.004l.008.009.005.009a.05.05 0 0 0 .013.008l.004.005a.058.058 0 0 0 .005.004c.005.003.01.007.013.013l.004.009.009.004.008.009a.38.38 0 0 0 .009.008h.004l.005.005.004.004.004.004v.005h.005a.129.129 0 0 1 .007.008c.005.006.008.01.014.014.003.005.008.007.012.009a.021.021 0 0 1 .006.004v.004l.004.004.018.014.017.013.005.008h.004l.004.01.005.004.004.004.004.004h.005l.013.013.008.005a.058.058 0 0 1 .007.009l.007.008.008.005.009.013a.098.098 0 0 1 .011.007.105.105 0 0 0 .01.006v.005a.162.162 0 0 1 .031.026l.013.009v.004a.145.145 0 0 0 .012.01l.01.008.004.004.009.004c.017.018.03.031.065.062l.015.013.015.013.004.004.018.013.013.014h.004a.284.284 0 0 1 .01.01c.008.01.018.02.038.033l.013.009.008.013.012.01a5.432 5.432 0 0 1-.276-.034 3.353 3.353 0 0 0-.462-.042c-4.82 0-8.727 3.932-8.727 8.782S38.167 45 42.986 45c4.82 0 8.727-3.932 8.727-8.782a8.77 8.77 0 0 0-2.635-6.274h.046l.104.005.113-.005.104-.004.109-.005.108-.004.1-.013.022-.005.017-.004h.044l.021-.005.018-.004h.021l.026-.004.018-.005h.017l.017-.004.022-.004h.022l.013-.005c.014 0 .026-.003.04-.006l.008-.003h.013l.026-.004.022-.004.017-.005.017-.004.022-.004.017-.005.018-.004.499-.14.456-.193.42-.24.361-.267a.098.098 0 0 0 .016-.013.089.089 0 0 1 .015-.013l.326-.298.308-.336.004-.004.278-.355.247-.376.222-.39.2-.384.177-.39.157-.38.139-.362.121-.346.083-.232c.026-.078.057-.162.085-.24l.05-.136v-.009l.003-.008.01-.013v-.009l.003-.004.005-.018.004-.004v-.008c.117-.32.27-.604.434-.866l.191-.298.378-.46.382-.375.356-.298.295-.219.213-.135.1-.057-.008-.005-.006.01ZM42.98 41.03c-2.635 0-4.767-2.147-4.767-4.801 0-2.655 2.132-4.798 4.767-4.798 2.636 0 4.768 2.147 4.768 4.798 0 2.65-2.137 4.801-4.768 4.801Zm11.488-18.222-.07.048-.087.074c-.004.005-.008.005-.008.005l-.127.1-.151.132-.187.157-.204.175-.235.202-.034.026-.03.022-.031.021-.035.027-.03.017-.035.022-.035.026-.026.022a.065.065 0 0 0-.017.013h-.005l-.004.005-.009.008H53.1l-.03.027-.035.022-.026.021-.035.022-.03.022-.031.026-.03.022-.035.022h-.005v.005l-.004.004h-.004l-.005.004-.004.005-.004.004-.03.022-.031.022-.03.026-.03.026-.031.022-.035.022-.03.026-.035.026-.03.022-.031.026-.03.022-.035.026-.026.022-.035.026-.026.026-.034.022-.005.005h-.004v.004h-.004v.005l-.005.004h-.008l-.06.052-.062.053-.06.048-.061.053-.065.048-.057.052-.06.057-.062.048a1.252 1.252 0 0 0-.077.068l-.035.032-.01.005-.02.022-.005.004-.035.026-.03.03-.031.032-.06.048-.057.052-.057.053-.052.052-.056.048-.061.057-.057.053-.056.052-.026.026-.026.027-.026.026-.03.026-.027.026-.026.027-.026.026-.026.026-.056.053-.048.052-.052.053-.057.052-.048.053-.052.052-.052.053-.056.057-.048.052-.043.048-.052.048-.048.053-.048.052-.043.053-.048.048-.048.052-.021.027-.022.021-.021.027-.022.026-.022.026-.03.026-.022.031-.003.003-.003.004a.07.07 0 0 1-.025.02l-.039.047-.039.049-.039.043-.039.048-.043.048-.035.044-.022.026c-.022.022-.039.044-.056.066l-.004.004-.005.005v.004h-.004v.004l-.005.005-.004.004h-.004l-.013.022-.022.026-.013.018-.004.004-.022.022-.018.022-.017.026-.008.009-.018.022-.022.026-.017.018-.017.021-.018.022-.017.022-.017.022-.022.026-.005.005a.15.15 0 0 0-.03.043l-.073.09-.057.072c-.004.004-.007.01-.01.016l-.003.006h-.005l-.004.009-.01.015a.107.107 0 0 0-.012.015l-.013.009-.005.013-.016.02c-.009.01-.017.018-.023.028l-.004.005-.017.026-.005.005a.134.134 0 0 1-.034.039l-.013.022-.013.017-.014.018-.013.017-.017.027-.017.017-.005.008-.013.018-.017.026c-.01.008-.018.018-.025.027l-.014.017-.004.013-.014.018-.013.017h-.004l-.013.017-.005.014a.102.102 0 0 0-.017.026l-.004.004-.005.005h-.004l-.004.004v.004l-.005.005v.004l-.026.04-.026.034-.03.035-.026.035-.026.04-.026.044-.026.04-.035.038-.009.018-.008.017-.017.018-.009.017-.013.018-.013.017-.013.022-.018.022-.07.1-.064.101-.06.092-.057.092-.021.034a8.65 8.65 0 0 0-1.144-.703c.263-.4.86-1.282 1.456-1.95v-.005l.004-.004a14.24 14.24 0 0 1 1.385-1.36h.004c.53-.45 1.13-.884 1.793-1.264.061-.035.122-.07.196-.11.195-.104.395-.205.625-.314l.026-.01.013-.008a.06.06 0 0 0 .018-.006l.004-.002.004-.005.026-.008.017-.009a.173.173 0 0 0 .01-.004l.004-.002c.01-.004.02-.008.034-.011l.018-.009.008-.004v-.005a1.499 1.499 0 0 0 .2-.083l.032-.011.008-.004a.134.134 0 0 1 .008-.003c.03-.01.06-.023.091-.035l.091-.035h.005v-.004h.008l.005-.005h.004l.004-.004.01-.003c.14-.052.28-.103.424-.15h.005l.008-.004h.004l.009-.005h.008l.005-.004h.008l.004-.005.022-.004.017-.004.022-.009.017-.004.005-.005c.022-.003.04-.008.059-.015l.023-.007.009-.004h.009l.004-.004.017-.005h.005l.004-.004.013-.005.03-.004.018-.004.004-.005.015-.003.094-.023.008-.004.005-.005h.004l.008-.004h.01l.02-.004.01-.005h.008c.04-.013.074-.022.113-.03h.008l.018-.005.017-.009h.022l.004-.004.008-.004h.01l.008-.005h.008l.01-.004.03-.004.008-.005.187-.04-.022.023.004-.001Z" fill="#fff"/><path d="m33.04 41.354-.009-.014-.013-.017a8.696 8.696 0 0 1-.634-1.177l-.278-.615-.513.403a8.166 8.166 0 0 1-.484.34l-.02.009-.009.004a4.2 4.2 0 0 1-.45.248c-.302.15-.626.261-.97.332h-.005c-.34.08-.702.115-1.08.115-.215 0-.429-.017-.635-.044h-.009a5.252 5.252 0 0 1-.605-.115h-.008a4.55 4.55 0 0 1-1.115-.464l-.008-.01-.017-.004a4.544 4.544 0 0 1-.93-.734h-.004a4.835 4.835 0 0 1-.378-.456v-.005a4.154 4.154 0 0 1-.572-1.08l-.004-.008-.004-.004a5.484 5.484 0 0 1-.173-.602l-.004-.009v-.009a6.004 6.004 0 0 1-.063-2.314v-.018l.004-.013c.11-.62.324-1.182.648-1.69l.004-.005.004-.004c.16-.257.35-.5.572-.73.66-.699 1.425-1.133 2.309-1.305l.012-.004h.009a5.15 5.15 0 0 1 .925-.085c.546 0 1.067.085 1.576.262h.009l.004.004c.509.173 1 .438 1.471.788l.522.39.273-.611a6.9 6.9 0 0 1 .345-.708 9.365 9.365 0 0 1 1.119-1.615l.407-.474-.5-.367-.164-.12-.169-.115-.168-.11-.168-.106h-.004l-.177-.102-.177-.097-.176-.093-.185-.093-.454-.204-.459-.172-.017-.009-.454-.146-.48-.124-.479-.102-.483-.066-.488-.04-.492-.018-.568.022-.567.058-.555.093-.543.132h-.008l-.535.168-.525.204-.521.248-.505.274-.488.314-.462.336-.437.359-.404.385-.374.411-.35.434-.315.456-.29.486-.252.496-.202.482c-.008.022-.021.049-.03.071l-.172.495-.151.549c0 .005-.005.013-.005.013l-.117.567-.076.553c-.004.026-.009.053-.009.08l-.05.561-.017.624c0 1.195.181 2.292.522 3.297l.075.247.341.783.03.058c.197.398.437.774.698 1.133l.164.239.555.641c.332.346.69.65 1.06.925l.218.168.66.407c.017.009.03.018.042.027l.745.354.281.097c.42.155.854.283 1.308.368l.025.004.067.008c.539.098 1.107.151 1.703.151l.496-.013.467-.031.017-.005.467-.053.441-.075c.013 0 .021-.005.03-.005l.429-.092.428-.124.412-.146.396-.168.202-.089.201-.102.206-.11.207-.12.214-.133.206-.137.215-.146.21-.155.479-.372-.395-.473a9.043 9.043 0 0 1-.82-1.097ZM19.19 44.14l-.003-.009-.005-.004a10.979 10.979 0 0 1-1.92-3.12h-6.36v-2.49h5.662a13.452 13.452 0 0 1-.139-1.804c0-.312.017-.645.042-.97l.004-.02v-.014c.025-.329.067-.649.11-.947H10.9v-2.366h6.361c.156-.38.333-.749.526-1.103l.009-.013.008-.013c.194-.355.404-.701.632-1.026l.004-.004v-.004a11.628 11.628 0 0 1 1.595-1.826H7V45h13.037a10.87 10.87 0 0 1-.846-.86Z" fill="#fff"/></g><defs><linearGradient id="paint0_linear_132_33615" x1="61.846" y1="64" x2="-4.1" y2="-4.205" gradientUnits="userSpaceOnUse"><stop stop-color="currentColor"/><stop offset="1" stop-color="currentColor" stop-opacity=".1"/></linearGradient><clipPath id="clip0_132_33615"><path fill="#fff" d="M0 0h64v64H0z"/></clipPath></defs></svg>
