<svg fill="none" xmlns="http://www.w3.org/2000/svg" viewBox="0 0 64 64"><g clip-path="url(#clip0_317_129059)"><rect width="64" height="64" rx="16" fill="url(#paint0_linear_317_129059)"/><path d="m47.591 15.466.924-2.748-4.997-1.666-1.54 4.582a19.576 19.576 0 0 0-1.709-.167V9.429h1.583V8.054h-4.747V9.43h1.707v6.038c-8.162.333-9.662 5.83-9.662 5.83s5.54.833 10.453.833c.418 0 .84-.007 1.262-.02l6.726-6.644ZM53.039 13.183l-1.854 11.691s-1.843-1.698-1.962-1.752l-.026.054-.613 1.292-.006.013-.024.05-.012.022-.093.185c-.097.191-.245.473-.447.841l-.11.198a56.527 56.527 0 0 1-1.79 2.974c-1.738 2.714-4.454 6.532-8.35 10.923-3.886 4.379-7.766 7.752-11.308 10.105-3.556 2.362-6.712 3.656-9.156 3.962-2.65.328-4.178.088-5.042-.51-.781-.541-1.285-1.58-1.285-3.704 0-1.901 1.067-3.879 2.268-5.475.204-.27.408-.524.606-.76v.157a17.894 17.894 0 0 0-1.37 2.903c-.318.88-.593 1.899-.65 2.916-.056 1.015.102 2.112.743 3.053l.347.509.613-.06h.01l.015-.002.045-.005.15-.021c.125-.02.303-.051.53-.1.174-.039.38-.087.612-.15a18.3 18.3 0 0 0 1.314-.407c1.65-.577 4-1.63 6.887-3.537.604-.399 1.23-.835 1.878-1.311a53.079 53.079 0 0 0 2.327-1.815 58.565 58.565 0 0 0 1.582-1.354c4.847-4.293 10.544-10.689 16.66-20.215l.549-.854.053-.082.564-.88-2.918.295 9.263-9.149ZM27.317 20.172v4.914l-.042-.04s-2.748.832-6.205.832c-3.456 0-6.205-.833-6.205-.833v-4.622s1.708-2.624 5.54-2.915v-7.205h-1.542V8.845h4.456v1.458h-1.665v7.205c3.872.207 5.663 2.664 5.663 2.664Z" fill="#fff"/><path d="M14.908 27.544v-1.79s3.29.707 6.205.707 6.205-.708 6.205-.708v1.832s-1.749.875-6.205.875c-4.456 0-6.205-.916-6.205-.916ZM39.354 23.004c.206 0 .408 0 .608-.002l-1.815 1.793 4.474-.453c-4.997 7.519-9.656 12.88-13.72 16.703V22.213s3.54.791 10.453.791Z" fill="#fff"/><path d="M27.318 28.335v14.148c-1.952 1.714-3.747 3.063-5.352 4.124-.335.22-.66.429-.978.626l-.078.048-6.002.002V28.335s2.082.75 6.205.75 6.205-.75 6.205-.75ZM28.927 51.782h.015v4.164h20.865V26.473a58.701 58.701 0 0 1-1.919 3.198c-1.79 2.795-4.572 6.702-8.547 11.181-3.525 3.973-7.072 7.17-10.414 9.563v1.367Z" fill="#fff"/></g><defs><linearGradient id="paint0_linear_317_129059" x1="61.846" y1="64" x2="-4.1" y2="-4.205" gradientUnits="userSpaceOnUse"><stop stop-color="currentColor"/><stop offset="1" stop-color="currentColor" stop-opacity=".1"/></linearGradient><clipPath id="clip0_317_129059"><path fill="#fff" d="M0 0h64v64H0z"/></clipPath></defs></svg>
