<svg fill="none" xmlns="http://www.w3.org/2000/svg" viewBox="0 0 64 64"><g clip-path="url(#clip0_318_112277)"><rect width="64" height="64" rx="16" fill="url(#paint0_linear_318_112277)"/><path fill-rule="evenodd" clip-rule="evenodd" d="m55.699 33.4 1.497.087a25.618 25.618 0 0 0 0-2.974L55.7 30.6a24.135 24.135 0 0 1 0 2.8Zm.729-7.775c.247.951.44 1.924.576 2.915l-1.486.204a23.632 23.632 0 0 0-.542-2.741l1.452-.378Zm-1.992-1.406 1.417-.491a25.088 25.088 0 0 0-1.139-2.745l-1.349.655a23.57 23.57 0 0 1 1.07 2.581Zm-1.95-4.224 1.293-.76a25.281 25.281 0 0 0-1.654-2.47l-1.195.907a23.781 23.781 0 0 1 1.555 2.323Zm-2.74-3.764 1.121-.997a25.38 25.38 0 0 0-2.102-2.101l-.996 1.12c.697.62 1.357 1.281 1.977 1.978Zm-3.418-3.161.906-1.195a25.3 25.3 0 0 0-2.47-1.654l-.76 1.294a23.81 23.81 0 0 1 2.324 1.555Zm-3.967-2.435.656-1.35a25.084 25.084 0 0 0-2.745-1.138l-.491 1.417c.885.307 1.746.665 2.58 1.07Zm-4.364-1.611.378-1.452c-.951-.247-1.924-.44-2.915-.576l-.204 1.486c.932.127 1.847.31 2.74.542ZM33.4 8.301l.087-1.498a25.639 25.639 0 0 0-2.974 0l.087 1.498a24.141 24.141 0 0 1 2.8 0Zm-4.656.18-.204-1.485c-.991.135-1.964.329-2.915.576l.378 1.452a23.611 23.611 0 0 1 2.74-.542Zm-4.525 1.083-.491-1.417c-.942.327-1.858.707-2.745 1.138l.655 1.35a23.573 23.573 0 0 1 2.581-1.07Zm-4.224 1.95-.76-1.293a25.3 25.3 0 0 0-2.47 1.654l.907 1.195a23.799 23.799 0 0 1 2.323-1.555Zm-3.764 2.74-.997-1.121a25.38 25.38 0 0 0-2.101 2.101l1.12.997c.62-.697 1.281-1.357 1.978-1.977Zm-3.161 3.418-1.196-.906a25.3 25.3 0 0 0-1.653 2.47l1.294.76a23.78 23.78 0 0 1 1.555-2.324Zm-2.436 3.966-1.349-.655a25.084 25.084 0 0 0-1.138 2.745l1.417.491c.307-.885.665-1.746 1.07-2.58Zm-1.61 4.365-1.452-.378a25.12 25.12 0 0 0-.577 2.915l1.487.204c.127-.932.31-1.847.542-2.741ZM6.76 32c0-.5.015-.995.043-1.487l1.498.087a24.135 24.135 0 0 0 0 2.8l-1.498.087A25.627 25.627 0 0 1 6.76 32Zm1.722 3.256-1.487.204c.136.991.33 1.964.577 2.915l1.452-.378a23.624 23.624 0 0 1-.542-2.74Zm1.082 4.525-1.417.491c.327.942.707 1.858 1.138 2.745l1.35-.656a23.593 23.593 0 0 1-1.07-2.58Zm1.95 4.224-1.293.76a25.3 25.3 0 0 0 1.653 2.47l1.196-.907a23.763 23.763 0 0 1-1.555-2.323Zm2.74 3.764-1.121.997a25.38 25.38 0 0 0 2.101 2.101l.997-1.12a23.897 23.897 0 0 1-1.977-1.978Zm3.418 3.161-.906 1.195c.788.598 1.613 1.15 2.47 1.654l.76-1.294a23.799 23.799 0 0 1-2.324-1.555Zm3.966 2.435-.655 1.35c.887.43 1.803.811 2.745 1.138l.491-1.417a23.57 23.57 0 0 1-2.58-1.07Zm4.365 1.611-.378 1.452c.951.247 1.924.44 2.915.576l.204-1.486a23.603 23.603 0 0 1-2.741-.542Zm4.597.723-.087 1.498a25.711 25.711 0 0 0 2.974 0l-.087-1.498a24.135 24.135 0 0 1-2.8 0Zm7.775.729c-.951.247-1.924.44-2.915.576l-.204-1.486c.932-.127 1.847-.31 2.74-.542l.379 1.452Zm1.406-1.992.491 1.417a25.088 25.088 0 0 0 2.745-1.138l-.656-1.35c-.834.406-1.695.764-2.58 1.07Zm4.224-1.95.76 1.293a25.3 25.3 0 0 0 2.469-1.654l-.906-1.195a23.81 23.81 0 0 1-2.323 1.555Zm3.764-2.74.996 1.121a25.38 25.38 0 0 0 2.102-2.101l-1.12-.997c-.62.697-1.281 1.357-1.978 1.977Zm3.16-3.418 1.196.906a25.281 25.281 0 0 0 1.654-2.47l-1.294-.76a23.763 23.763 0 0 1-1.555 2.324Zm2.436-3.967 1.35.656c.43-.887.811-1.803 1.138-2.745l-1.418-.491a23.57 23.57 0 0 1-1.07 2.58Zm1.61-4.364 1.453.378c.247-.951.44-1.924.576-2.915l-1.486-.204c-.128.932-.31 1.847-.542 2.741ZM20.323 24.749l2.893-3.108h5.007l1.382 1.338-1.77 1.77h-7.512Zm11.009 6.302-3.109-1.943V25.05l1.77-1.77 1.339 1.339v6.432Zm-.734.173-.062.03-2.701-1.714h-4.23l-2.72 1.727 2.762 1.338h4.231l2.658-1.35.018.012.044-.043Zm.734 9.67H20.884l2.72-3.109h4.23l3.497 3.109Zm-8.116-3.497-3.065 3.497v-9.455l3.065 1.554v4.404Zm10.707 3.497 3.497-3.109h4.23l1.727 1.77-1.338 1.339h-8.116Zm.777-9.627 2.72-1.338h4.144l2.763 1.338-2.72 1.727h-4.23l-2.72-1.727h.043Zm7.34-6.13 1.726-1.77 1.338 1.338v6.39l-3.065-1.555v-4.403Zm0 8.288 3.064-1.942v6.389l-1.338 1.338-1.727-1.77v-4.015Zm-19.814 12.39-2.202-1.295.302-.561 3.152 1.856-3.152 1.813-.302-.561 2.202-1.252Zm2.07-1.295 2.202 1.295-2.201 1.252.345.561 3.151-1.813-3.151-1.856-.345.56Zm6.303 1.295L28.44 44.52l.302-.561 3.151 1.856-3.151 1.813-.302-.561 2.158-1.252Zm2.245 1.252.302.561 3.152-1.813-3.152-1.856-.302.56 2.159 1.296-2.159 1.252Zm6.605-1.252-2.202-1.295.346-.561 3.151 1.856-3.151 1.813-.346-.561 2.202-1.252Zm2.375-1.295 2.201 1.295-2.201 1.252.302.561 3.151-1.813-3.151-1.856-.302.56Zm-5.01-22.88-2.849 3.109h7.512l1.77-1.77-1.425-1.338h-5.007Z" fill="#fff"/></g><defs><linearGradient id="paint0_linear_318_112277" x1="61.846" y1="64" x2="-4.1" y2="-4.205" gradientUnits="userSpaceOnUse"><stop stop-color="currentColor"/><stop offset="1" stop-color="currentColor" stop-opacity=".1"/></linearGradient><clipPath id="clip0_318_112277"><path fill="#fff" d="M0 0h64v64H0z"/></clipPath></defs></svg>
