<svg width="200" height="52" viewBox="0 0 200 52" fill="none" xmlns="http://www.w3.org/2000/svg">
<g clip-path="url(#clip0_842_92)">
<path d="M68.2777 49.9678H131.338L99.9749 18.6665L68.2777 49.9678Z" fill="#7BB51C"/>
<path d="M67.0729 48.4283L71.9858 43.6449L70.3494 41.9698L67.2636 44.9756L61.8276 39.413L60 41.1925L67.0729 48.4283Z" fill="black"/>
<path d="M73.0642 42.5555L78.0983 37.6525L76.7158 36.2391L73.5194 39.3512L71.9845 37.7806L74.5459 35.2865L73.0993 33.8076L70.5379 36.3004L69.2228 34.9553L72.3141 31.9445L70.9325 30.5316L65.9144 35.4182L73.0642 42.5555Z" fill="black"/>
<path d="M89.541 19.3125C87.5108 17.2354 83.9889 17.4839 82.2928 19.1358C80.5963 20.7877 79.7306 24.0815 82.1263 26.5325C84.7578 29.2243 87.8886 28.2466 89.5851 26.5957C92.0864 24.16 91.196 21.0058 89.541 19.3125ZM88.0488 25.1732C86.9258 26.2667 85.553 25.9701 83.9844 24.365C82.6661 23.0165 82.7453 21.6618 83.7039 20.7282C84.3631 20.0862 85.7018 19.5119 87.2946 21.1416C89.1117 23.0007 89.1718 24.0797 88.0488 25.1732Z" fill="black"/>
<path d="M95.2031 21.0376L97.0603 19.2285L94.2663 16.3704L92.594 9.42578L90.4649 11.4993L91.5724 15.4391L87.8308 14.0639L85.8233 16.0184L92.2025 18.0628L95.2031 21.0376Z" fill="black"/>
<path d="M85.3008 30.6909C85.3008 30.6909 80.7807 29.1517 80.5658 29.189C80.4962 29.2003 81.5368 26.4368 79.1989 25.212C79.1989 25.212 77.4641 24.2747 75.728 25.8489L72.0277 29.4884L79.1611 36.6583L81.0484 34.8207L77.1883 30.8727L83.4281 32.5146L85.3008 30.6909ZM78.2999 29.7064C77.2511 30.7259 77.1095 30.8063 77.1095 30.8063C77.1095 30.8063 75.4654 29.1245 75.4071 29.065C75.3488 29.0055 76.5828 27.9496 76.7772 27.7602C76.8596 27.6797 77.628 27.1796 78.2639 27.8297C78.2639 27.8297 79.3481 28.6852 78.2999 29.7064Z" fill="black"/>
<path d="M94.6269 10.7941L92.9764 9.13317L100.182 2L102.541 4.37288L99.9445 9.47207L105.237 7.08649L107.506 9.37033L100.301 16.5035L98.5613 14.7535L102.365 10.9886L97.1615 13.3447L96.0858 12.262L98.5043 7.07377L94.6269 10.7941Z" fill="black"/>
<path d="M107.138 23.3843L102.142 18.3573L109.348 11.2241L114.359 16.2661L112.903 17.7072L109.764 14.5488L108.59 15.7104L111.066 18.2019L109.55 19.7021L107.089 17.2256L105.514 18.7843L108.624 21.9132L107.138 23.3843Z" fill="black"/>
<path d="M123.613 25.5785L125.47 27.4475L120.017 32.8448L123.068 35.9132L121.314 37.6501L116.407 32.7121L123.613 25.5785Z" fill="black"/>
<path d="M122.611 38.9553L129.817 31.8221L131.63 33.6457L124.424 40.7784L122.611 38.9553Z" fill="black"/>
<path d="M127.71 44.0865L126.015 42.3805L133.221 35.2478L135.682 37.7229L133.58 45.1291L138.35 40.407L140 42.0679L132.794 49.2007L130.642 47.0363L132.495 39.2612L127.71 44.0865Z" fill="black"/>
<path d="M120.357 22.3016L115.98 17.897L108.759 25.0156L110.616 26.8837L114.553 22.9866L113.136 29.4197L115.037 31.3328C115.037 31.3328 116.535 26.7311 116.581 26.5394C116.581 26.5394 118.205 27.4321 119.986 25.9033C119.986 25.9033 121.695 24.2415 120.357 22.3016ZM117.684 24.3877C117.684 24.3877 116.764 25.0042 115.954 24.1888L114.687 22.854C114.687 22.854 116.217 21.3393 116.41 21.148C116.41 21.148 117.589 22.3347 117.737 22.4828C117.884 22.6309 118.813 23.3288 117.684 24.3877Z" fill="black"/>
</g>
<defs>
<clipPath id="clip0_842_92">
<rect width="80" height="48" fill="white" transform="translate(60 2)"/>
</clipPath>
</defs>
</svg>
