<svg width="16" height="16" viewBox="0 0 16 16" fill="none" xmlns="http://www.w3.org/2000/svg">
<path fill-rule="evenodd" clip-rule="evenodd" d="M4.30613 2.62035C5.2892 1.58223 6.61666 0.999926 8 1C9.38334 0.999926 10.7108 1.58223 11.6939 2.62035C12.6769 3.65847 13.2362 5.0685 13.25 6.54398C13.25 10.38 8.65625 14.65 8.42656 14.832C8.30769 14.9404 8.15642 15 8 15C7.84358 15 7.69231 14.9404 7.57344 14.832L7.57236 14.831C7.3604 14.635 2.75 10.3733 2.75 6.54398C2.76383 5.0685 3.32306 3.65847 4.30613 2.62035ZM8 8C9.10457 8 10 7.10457 10 6C10 4.89543 9.10457 4 8 4C6.89543 4 6 4.89543 6 6C6 7.10457 6.89543 8 8 8Z" fill="#212121" fill-opacity="0.6"/>
</svg>
