<svg fill="none" xmlns="http://www.w3.org/2000/svg" viewBox="0 0 64 64"><g clip-path="url(#clip0_318_112358)"><rect width="64" height="64" rx="16" fill="url(#paint0_linear_318_112358)"/><path fill-rule="evenodd" clip-rule="evenodd" d="M22.19 49.3a1.237 1.237 0 0 1-1.223-1.222V33.239c0-.698.559-1.256 1.222-1.256h19.656c.664 0 1.222.558 1.222 1.256v14.839c0 .663-.558 1.221-1.222 1.221H22.19Zm9.845-34.6c4.05 0 7.366 3.317 7.366 7.402v7.437H24.668v-7.437c0-4.085 3.317-7.402 7.367-7.402Zm-9.811 7.402v7.437h-.035a3.68 3.68 0 0 0-3.7 3.7v14.839c0 2.024 1.675 3.7 3.7 3.7h19.656c2.025 0 3.666-1.64 3.666-3.7V33.239c0-2.025-1.64-3.7-3.666-3.7v-7.437c0-5.446-4.399-9.88-9.81-9.88-5.412 0-9.811 4.434-9.811 9.88Zm12.22 16.095c0-1.362-1.083-2.479-2.445-2.479-1.326 0-2.444 1.117-2.444 2.479 0 .908.49 1.71 1.223 2.13v2.828c0 .663.558 1.222 1.222 1.222.663 0 1.221-.524 1.221-1.222v-2.828a2.45 2.45 0 0 0 1.222-2.13Z" fill="#fff"/></g><defs><linearGradient id="paint0_linear_318_112358" x1="61.846" y1="64" x2="-4.1" y2="-4.205" gradientUnits="userSpaceOnUse"><stop stop-color="currentColor"/><stop offset="1" stop-color="currentColor" stop-opacity=".1"/></linearGradient><clipPath id="clip0_318_112358"><path fill="#fff" d="M0 0h64v64H0z"/></clipPath></defs></svg>
