<svg viewBox="0 0 77 15" fill="none" xmlns="http://www.w3.org/2000/svg"><g clip-path="url(#artw)"><path d="M12.966 10.963h-3.15v3.654h7.315V.278h-6.12L0 14.618h5.107l7.86-10.824v7.169ZM48.93 3.863V.243H35.024v3.62h4.998v10.789h4.346V3.863h4.564Z" fill="#36312F"/><path d="M54.87 9.014V.244h-4.164v14.338h4.817l6.048-8.318v8.388h4.419L77 .278h-5.107l-6.338 8.77V.244h-4.346l-6.338 8.77Z" fill="#DC2655"/><path d="M28.359.243H20.1v14.409h4.238v-3.446h2.86l2.355 3.446h5.216l-3.224-4.176.616-.523a5.04 5.04 0 0 0 .869-.87 6.08 6.08 0 0 0 .507-.8c.217-.452.362-.905.47-1.357.073-.21.11-.453.146-.627.036-.209.036-.383.036-.557 0-1.427-.543-2.75-1.449-3.724a5.43 5.43 0 0 0-3.114-1.67l-.508-.07h-.579c-.072-.035-.109-.035-.181-.035Zm.724 3.794c.218.104.399.244.544.383.18.174.29.383.398.591.072.21.145.453.145.697 0 .278-.037.522-.145.73a1.509 1.509 0 0 1-.362.557c-.145.14-.326.279-.544.383-.217.07-.434.14-.688.14H24.302v-3.62h4.093c.254 0 .47.07.688.139Z" fill="#36312F"/></g><defs><clipPath id="artw"><path fill="#fff" d="M0 0h77v15H0z"/></clipPath></defs></svg>
