<svg viewBox="0 0 100 40" fill="none" xmlns="http://www.w3.org/2000/svg"><path fill-rule="evenodd" clip-rule="evenodd" d="M47.698 19.617v14.351h3.382V19.617h-3.382Zm-6.075-5.46H38.14a.306.306 0 0 0-.332.353c.125.904.179 1.817.16 2.73 0 3.41-.408 8.309-4.153 12.963l-.264.327s-2.255-15.698-2.29-16.01c0 0-.014-.364-.316-.364h-3.509c-.333 0-.31.35-.31.35-.082 1.816-1.097 16.93-12.125 19.37 2.35.26 5.186-.469 7.666-2.009 3.049-1.892 5.105-4.701 5.793-7.91 0 0 1.353 8.426 1.524 10.372v.122l-.108.059A21.527 21.527 0 0 1 0 24.018 20.332 20.332 0 0 0 19.87 40c11.244 0 17.93-9.414 19.082-16.097 0 0 1.517 9.748 1.553 10.068h4.602c-.068-.422-3.116-19.166-3.157-19.461-.01 0-.024-.352-.327-.352ZM2.706 22.362c0-10.296 8.683-18.672 19.357-18.672a19.616 19.616 0 0 1 16.309 8.68C35.757 5.04 28.498 0 20.329 0 9.81 0 1.247 8.207 1.247 18.295a17.63 17.63 0 0 0 1.932 7.94 18.004 18.004 0 0 1-.473-3.874Zm80.688-.66c-1.232-1.426-2.916-2.147-5.006-2.147-2.09 0-3.874.676-5.272 2.029-1.398 1.353-2.09 3.096-2.09 5.267 0 2.171.69 3.903 2.043 5.186 1.353 1.283 3.303 1.935 5.756 1.935 4.749 0 5.781-3.274 6.172-4.359l-1.23-.397c-1.093 1.998-3.548 2.118-4.982 2.03a5.119 5.119 0 0 1-2.69-.95c-.738-.532-1.236-1.32-1.461-2.52l-.066-.451h10.686c-.05-2.354-.661-4.255-1.856-5.624h-.004Zm-8.612 3.654c-.162 0-.175-.162-.171-.239a3.623 3.623 0 0 1 3.743-3.123 3.558 3.558 0 0 1 2.404.848c.554.471.93 1.148 1.17 2.108.034.102.088.397-.151.397l-6.995.01Zm19.342-5.846c-4.059 0-5.495 2.466-5.948 3.648l-.158.426 1.353.45s.875-2.5 4.32-2.355c3.481.142 3.073 2.992 3.046 3.445-1.918-.58-4.674-.523-6.46.293-2.255 1.028-2.59 3.094-2.52 4.609.103 2.241 2.08 3.817 4.656 3.96 2.31.13 3.35-.375 4.306-1.333l-.027 1.305h3.051v-9.83c.07-1.705-1.132-4.618-5.614-4.618h-.005Zm2.568 11.131a.475.475 0 0 1-.257.48 6.72 6.72 0 0 1-3.312.567c-1.579-.12-2.18-1.243-2.287-1.728-.038-.182-.376-2.281 1.649-2.942 1.33-.433 3-.149 3.894.1.261.071.329.225.329.534l-.016 2.99ZM50.83 14.18h-2.796a.331.331 0 0 0-.343.406V17.6h3.459v-3.062a.31.31 0 0 0-.316-.361l-.004.004Zm17.2 0h-2.867c-.288 0-.293.334-.293.334V20.4l-.41-.225a4.921 4.921 0 0 0-1.384-.487 9.1 9.1 0 0 0-1.71-.14c-2.254 0-4.078.656-5.44 1.952-1.362 1.297-2.03 3.157-2.03 5.439 0 2.03.582 3.75 1.698 5.085 1.116 1.334 2.773 2 4.934 2 3.1 0 4.327-1.872 4.327-1.872v1.804h3.463V14.52s.034-.345-.284-.345l-.005.004Zm-3.351 15.892c-.379.306-.803.55-1.256.726-.611.233-1.26.347-1.915.336-1.147 0-2.076-.388-2.762-1.15-.685-.762-1-1.905-1-3.405 0-1.499.317-2.568.946-3.26.63-.692 1.624-1.066 2.902-1.066a5.577 5.577 0 0 1 1.9.317 3.36 3.36 0 0 1 1.178.65c.127.13.199.305.198.487v5.878a.695.695 0 0 1-.187.483l-.004.004Z" fill="currentColor"/></svg>