<svg fill="none" xmlns="http://www.w3.org/2000/svg" viewBox="0 0 64 64"><g clip-path="url(#clip0_132_34517)"><rect width="64" height="64" rx="16" fill="url(#paint0_linear_132_34517)"/><path fill-rule="evenodd" clip-rule="evenodd" d="M45.411 55.876H18.619c-3.017 0-5.467-2.886-5.467-6.442V35.597c-.677.22-1.333.04-1.9-.528-1.228-1.228-.561-2.863-.038-3.563l.033-.033c6.381-6.513 18.55-18.946 18.912-19.37.529-.627 1.564-.55 1.84-.518.275-.033 1.31-.11 1.844.518.172.206 3.21 3.318 6.132 6.315l.002.001 2.819 2.89v-.737h6.69v7.565l3.292 3.37c.529.7 1.2 2.334-.027 3.562-.556.556-1.206.738-1.878.534v13.83c0 3.557-2.45 6.443-5.462 6.443ZM15.955 33.124v16.308c0 1.784 1.195 3.243 2.664 3.243h26.792c1.47 0 2.665-1.459 2.665-3.243V33.158L31.998 16.706 15.954 33.125Zm12.11 12.517a.935.935 0 0 1-.716-.323l-.012-.014c-.626-.733-1.403-1.644-1.403-3.04 0-.867.294-1.809.894-2.877 1.183-2.083.59-2.778-.301-3.822l-.008-.01a.889.889 0 0 1-.22-.674.893.893 0 0 1 .333-.632.943.943 0 0 1 1.312.112c.988 1.148 2.337 2.717.52 5.926-1.18 2.094-.586 2.787.313 3.836a.887.887 0 0 1 .22.675.927.927 0 0 1-.932.843Zm4.352 0a.943.943 0 0 1-.717-.323l-.012-.014c-.625-.733-1.402-1.644-1.402-3.04 0-.867.294-1.809.894-2.877 1.186-2.088.59-2.782-.308-3.83v-.001a.889.889 0 0 1-.22-.675.894.894 0 0 1 .332-.632.943.943 0 0 1 1.312.112c.988 1.148 2.337 2.717.524 5.926-1.185 2.094-.59 2.787.31 3.836a.887.887 0 0 1 .22.675.928.928 0 0 1-.933.843Zm4.352 0a.943.943 0 0 1-.717-.323l-.002-.003c-.632-.74-1.408-1.648-1.408-3.051 0-.867.29-1.809.89-2.877 1.186-2.088.59-2.782-.308-3.83v-.001a.888.888 0 0 1-.22-.675.894.894 0 0 1 .332-.632.947.947 0 0 1 1.312.112c.988 1.148 2.337 2.717.524 5.93-1.185 2.09-.59 2.783.31 3.832a.917.917 0 0 1-.113 1.307.93.93 0 0 1-.6.21Z" fill="#fff"/><path d="M11.628 21.595c-2.01 0-3.014-1.025-3.014-3.075v-5.513h-1.33v-2.063h1.33V8.068h2.4v2.876h2.816v2.063h-2.817v5.137c0 .872.43 1.309 1.29 1.309.515 0 1.011-.12 1.487-.357v1.963c-.635.357-1.355.536-2.162.536Zm10.079-8.687c-.661.634-1.428.952-2.3.952-.874 0-1.64-.318-2.302-.952-.66-.648-.991-1.402-.991-2.261v-.04c0-.86.33-1.607.991-2.241.662-.635 1.428-.952 2.301-.952.873 0 1.64.317 2.3.952.675.634 1.012 1.381 1.012 2.24v.04c0 .86-.337 1.614-1.011 2.262Zm-3.63-.913c.357.37.8.556 1.33.556.528 0 .97-.185 1.328-.556a1.88 1.88 0 0 0 .555-1.348v-.04c0-.516-.178-.959-.535-1.329-.357-.37-.807-.555-1.349-.555-.529 0-.972.185-1.329.555-.357.37-.535.813-.535 1.329v.04c0 .515.178.965.535 1.348Z" fill="#fff"/></g><defs><linearGradient id="paint0_linear_132_34517" x1="61.846" y1="64" x2="-4.1" y2="-4.205" gradientUnits="userSpaceOnUse"><stop stop-color="currentColor"/><stop offset="1" stop-color="currentColor" stop-opacity=".1"/></linearGradient><clipPath id="clip0_132_34517"><path fill="#fff" d="M0 0h64v64H0z"/></clipPath></defs></svg>
