<svg fill="none" xmlns="http://www.w3.org/2000/svg" viewBox="0 0 64 64"><g clip-path="url(#clip0_318_112432)"><rect width="64" height="64" rx="16" fill="url(#paint0_linear_318_112432)"/><path fill-rule="evenodd" clip-rule="evenodd" d="m52.154 31.325-6.22 5.926-5.156-4.925-2.174 2.074c.17.43.115.932-.195 1.324-.41.54-1.11.682-1.683.46l-1.562 1.49a1.36 1.36 0 0 1-.133 1.147c-.344.588-1.066.79-1.673.6l-1.541 1.471c.06.136.097.285.103.444.045.407-.13.766-.314.995l-.003.005c-.41.5-1.108.64-1.684.392l-1.525 1.455c.064.14.111.3.111.475 0 .317-.088.67-.308.95-.41.54-1.113.686-1.693.437L25 47.48c.068.134.116.286.123.454.042.359-.061.737-.334 1.022a1.442 1.442 0 0 1-1.667.372l-.708.674h2.81l-5.389 1.284-.228-.217h-3.74l3.01-.695-6.143-5.85-.489.488.175-.786-.572-.546.24-.958a2.68 2.68 0 0 1 .773-1.34l.04-.041a1.353 1.353 0 0 1 .218-1.431c.41-.493 1.1-.63 1.672-.384l1.49-1.443a1.353 1.353 0 0 1 .213-1.416c.417-.536 1.133-.642 1.687-.395l1.513-1.443a1.353 1.353 0 0 1 .215-1.412c.425-.549 1.126-.639 1.684-.393l1.516-1.446a1.353 1.353 0 0 1 .215-1.412c.425-.549 1.126-.639 1.684-.393l1.514-1.444c-.195-.457-.12-1 .217-1.413.416-.508 1.126-.645 1.706-.383l3.09-2.957-5.156-4.927 6.23-5.935 5.421 2.816.024.016a12.26 12.26 0 0 1 1.478 1.169l.005.004 8.371 7.912c.456.421.873.908 1.22 1.393l.015.022 3.012 5.28Zm-6.545-7.399-.812-.767c.241.313.455.616.644.908l.168-.14Zm1.593 2.712c.05.175.096.35.138.526l.014.06v.39l-4.587 4.368 3.167 3.008 3.992-3.795-2.309-4.017a7.158 7.158 0 0 0-.415-.54Zm-1.498.441c-.222-.784-1.009-2.812-3.288-4.954-2.295-2.157-4.436-2.91-5.265-3.146l-.305.286a.723.723 0 0 1-.505.197.826.826 0 0 1-.456-.138l-.088-.06-.06-.088a.721.721 0 0 1-.114-.333.968.968 0 0 1 .005-.218 1.227 1.227 0 0 1 .04-.185l.004-.015.002-.005v-.003s.001-.001.507.167l-.506-.168.043-.128.397-.373a4.566 4.566 0 0 0-.43-1.003l-.007-.013-.007-.014a.683.683 0 0 1-.047-.473l-2.733-1.415-3.98 3.784 3.16 3.004.88-.856a.745.745 0 0 1 .521-.202c.129 0 .352.032.525.206.25.25.203.567.183.666a1.028 1.028 0 0 1-.07.216l-.007.017-.004.007v.002l-.002.002-.477-.238.477.239-.042.084-.943.893 8.52 8.129 4.072-3.87ZM32.85 24.045l-.132-.126-.045.044.13.133.047-.05ZM14.115 42.594l-.075.07c-.152.178-.237.311-.279.45l6.524 6.215.01-.002c.178-.045.36-.135.523-.272l.814-.772-7.517-5.69Zm10.901 2.47-7.48-5.683-1.353 1.29 7.48 5.684 1.353-1.29Zm3.415-3.25-7.48-5.684-1.353 1.29 7.48 5.684 1.353-1.29Zm3.415-3.251-7.48-5.684-1.353 1.29 7.48 5.684 1.353-1.29Zm-1.97-10.93 7.48 5.685 2.156-2.057-6.745-6.391-2.891 2.764Zm5.386 7.679-7.481-5.684-1.353 1.29 7.481 5.684 1.353-1.29Zm2.384-17.738-.074-.058.011.04.063.018Z" fill="#fff"/></g><defs><linearGradient id="paint0_linear_318_112432" x1="61.846" y1="64" x2="-4.1" y2="-4.205" gradientUnits="userSpaceOnUse"><stop stop-color="currentColor"/><stop offset="1" stop-color="currentColor" stop-opacity=".1"/></linearGradient><clipPath id="clip0_318_112432"><path fill="#fff" d="M0 0h64v64H0z"/></clipPath></defs></svg>
