<svg fill="none" xmlns="http://www.w3.org/2000/svg" viewBox="0 0 64 64"><g clip-path="url(#clip0_318_112229)"><rect width="64" height="64" rx="16" fill="url(#paint0_linear_318_112229)"/><path fill-rule="evenodd" clip-rule="evenodd" d="M15.057 27.469v3.104h1.4V27.47l2.185 2.142.7-.7-2.886-2.973v-3.323l2.973 1.837 1.05 3.804.962-.263-.787-2.93 2.71 1.531.7-1.224-2.71-1.53 2.973-.831-.263-.962-4.023 1.005-2.842-1.661.35-.219 2.668-1.443 3.847 1.05.263-1.006-2.974-.787 2.711-1.53-.7-1.269-2.71 1.575.787-2.93-.962-.263-1.137 3.98-2.886 1.617.088-3.454 2.798-2.798-.7-.744-2.186 2.187v-3.105h-1.4v3.104l-2.142-2.186-.743.744 2.886 2.973v3.28l-.394-.22-2.58-1.573-1.005-3.804-1.006.262.787 2.93-2.667-1.575-.7 1.268 2.668 1.53-2.93.788.262 1.006 4.023-1.006 2.842 1.618-.393.218-2.668 1.443-3.804-1.005-.262.962 2.93.83-2.668 1.53.7 1.225 2.667-1.53-.787 2.93 1.006.262 1.137-3.98 2.842-1.661-.088 3.498-2.798 2.799.743.7 2.143-2.143Zm29.121-6.034c0-1.88 1.53-3.411 3.41-3.411 1.881 0 3.411 1.53 3.411 3.41 0 1.88-1.53 3.411-3.41 3.411-1.88 0-3.41-1.53-3.41-3.41Zm-1.311 0c0 2.58 2.098 4.722 4.722 4.722 2.58 0 4.722-2.143 4.722-4.722 0-2.58-2.142-4.723-4.722-4.723-2.58 0-4.722 2.143-4.722 4.723Zm9.226-3.806s-.35-.044-.481-.175a.686.686 0 0 1 0-.962l1.53-1.53a.686.686 0 0 1 .962 0c.262.262.262.7 0 .962l-1.53 1.53s-.306.175-.481.175Zm1.836 4.46h2.186c.35 0 .656-.306.656-.656a.673.673 0 0 0-.656-.656h-2.186a.673.673 0 0 0-.656.656c0 .35.306.656.656.656Zm-.306 6.034s-.35-.044-.48-.175l-1.531-1.53a.686.686 0 0 1 0-.963.686.686 0 0 1 .962 0l1.53 1.53c.262.263.262.7 0 .963-.131.131-.306.175-.481.175Zm-6.69 1.837c0 .35.307.656.657.656.35 0 .655-.306.655-.656v-2.186a.672.672 0 0 0-.655-.656.672.672 0 0 0-.656.656v2.186ZM41.6 28.123s-.35-.044-.481-.175a.686.686 0 0 1 0-.962l1.53-1.53a.686.686 0 0 1 .962 0c.263.262.263.699 0 .961l-1.53 1.53s-.306.176-.481.176Zm-2.537-6.034h2.186c.35 0 .656-.306.656-.656a.672.672 0 0 0-.656-.656h-2.186a.673.673 0 0 0-.656.656c0 .35.306.656.656.656Zm4.067-4.46s-.35-.044-.48-.175l-1.531-1.53a.686.686 0 0 1 0-.962.686.686 0 0 1 .962 0l1.53 1.53c.263.262.263.7 0 .962-.13.131-.306.175-.48.175Zm3.805-2.535c0 .35.306.656.656.656.35 0 .655-.306.655-.656v-2.186a.672.672 0 0 0-.655-.656.672.672 0 0 0-.656.656v2.186Zm-9.97 29.472-4.81-8.658s0-.044-.044-.087c-.087-.088-.175-.175-.35-.175-.174 0-.262.043-.306.175 0 0 0 .043-.043.087l-4.81 8.658a5.983 5.983 0 0 0-.875 3.148c0 3.323 2.711 6.034 6.035 6.034 3.323 0 6.034-2.711 6.034-6.034 0-1.137-.306-2.23-.875-3.148h.044Zm-9.429-21.223a.846.846 0 0 0 0 1.692h9.429a.846.846 0 1 0 0-1.692h-9.429Zm-3.795 6.575a.846.846 0 1 0-1.46.853l4.525 7.743a.846.846 0 1 0 1.46-.854l-4.525-7.742Zm17.54.864a.846.846 0 1 0-1.448-.875l-4.675 7.743a.846.846 0 0 0 1.448.874l4.676-7.742Z" fill="#fff"/></g><defs><linearGradient id="paint0_linear_318_112229" x1="61.846" y1="64" x2="-4.1" y2="-4.205" gradientUnits="userSpaceOnUse"><stop stop-color="currentColor"/><stop offset="1" stop-color="currentColor" stop-opacity=".1"/></linearGradient><clipPath id="clip0_318_112229"><path fill="#fff" d="M0 0h64v64H0z"/></clipPath></defs></svg>
