<svg fill="none" xmlns="http://www.w3.org/2000/svg" viewBox="0 0 64 64"><g clip-path="url(#clip0_318_113198)"><rect width="64" height="64" rx="16" fill="url(#paint0_linear_318_113198)"/><path d="M28.235 25.17h24.498s.111 0 .111.118v1.426s0 .119-.111.119H28.235s-.111 0-.111-.12v-1.425s0-.119.111-.119Z" fill="#fff"/><path d="M54.756 16.438H26.09c-.475 0-.831.356-.831.712v8.969c0 .416.416.712.831.712h1.01v-2.544s.178-.297.356-.297h26.172s.356.12.356.297v2.544h.832c.475 0 .83-.296.83-.712V17.15c0-.415-.415-.712-.83-.712M28.235 45.9h24.498s.111 0 .111.118v1.425s0 .12-.111.12H28.235s-.111 0-.111-.12v-1.425s0-.119.111-.119Z" fill="#fff"/><path d="M54.756 37.106H26.09c-.475 0-.831.357-.831.713v8.969c0 .416.416.713.831.713h1.01v-2.545s.178-.297.356-.297h26.172s.356.119.356.297V47.5h.832c.475 0 .83-.297.83-.712v-8.969c0-.416-.415-.713-.83-.713M16.134 29.922H9.601v-3.98h6.533v3.98Zm.238 1.544s-.297.475-.713.475h-1.604c-.416 0-.713-.178-.713-.475s.297-.475.713-.475h1.604c.416 0 .713.178.713.475Zm-1.426 1.841h-1.069s-.475-.119-.475-.297.238-.297.475-.297h1.07s.475.12.475.297c0 .178-.238.297-.476.297Zm0 1.01h-1.069s-.475-.119-.475-.297.238-.297.475-.297h1.07s.475.119.475.297-.238.297-.476.297Zm0 1.069h-1.069s-.475-.119-.475-.297.238-.297.475-.297h1.07s.475.119.475.297-.238.297-.476.297Zm-3.326-3.504h-1.604c-.415 0-.712-.178-.712-.475s.297-.476.712-.476h1.604c.416 0 .713.179.713.476s-.297.475-.713.475Zm.238 1.425h-1.07s-.475-.119-.475-.297.238-.297.476-.297h1.069s.475.12.475.297c0 .178-.238.297-.475.297Zm0 1.01h-1.07s-.475-.119-.475-.297.238-.297.476-.297h1.069s.475.119.475.297-.238.297-.475.297Zm0 1.069h-1.07s-.475-.119-.475-.297.238-.297.476-.297h1.069s.475.119.475.297-.238.297-.475.297Zm13.401-14.73V19H11.858v5.22h-2.08c-.771 0-1.424.535-1.424 1.188V39.9c0 .653.653 1.188 1.425 1.188h2.079V45.5h13.401v-1.561H13.402v-2.851h2.613c.772 0 1.426-.535 1.426-1.188V25.408c0-.654-.654-1.188-1.426-1.188h-2.613v-3.564h11.857Z" fill="#fff"/></g><defs><linearGradient id="paint0_linear_318_113198" x1="61.846" y1="64" x2="-4.1" y2="-4.205" gradientUnits="userSpaceOnUse"><stop stop-color="currentColor"/><stop offset="1" stop-color="currentColor" stop-opacity=".1"/></linearGradient><clipPath id="clip0_318_113198"><path fill="#fff" d="M0 0h64v64H0z"/></clipPath></defs></svg>
