<svg fill="none" xmlns="http://www.w3.org/2000/svg" viewBox="0 0 64 64"><g clip-path="url(#clip0_318_112124)"><rect width="64" height="64" rx="16" fill="url(#paint0_linear_318_112124)"/><path fill-rule="evenodd" clip-rule="evenodd" d="M34.297 46.77V31.881l-.038.038V16.273c0-.755-.189-1.473-.945-1.813-.755-.303-1.473-.038-2.078.529-.227.189-.454.415-.68.642l-9.637 9.41c-.265.264-.794.491-1.21.491-.955.025-1.894.017-2.84.009-.474-.005-.95-.009-1.43-.009-1.625.038-2.191.567-2.191 2.154v8.654c0 1.55.604 2.154 2.116 2.154.477 0 .959-.008 1.441-.016.97-.017 1.946-.034 2.905.016.453 0 1.02.227 1.322.53 2.154 2.002 4.233 4.08 6.311 6.16A187.434 187.434 0 0 0 31.273 49c1.286 1.172 2.57.756 2.91-.907.114-.416.114-.869.114-1.323Zm16.059-11.564-3.213-3.212 3.1-3.213c.528-.529.528-1.436 0-1.965a1.415 1.415 0 0 0-1.966 0l-3.212 3.212-3.212-3.212a1.415 1.415 0 0 0-1.965 0c-.53.53-.53 1.436 0 1.965l3.325 3.213-3.212 3.212a1.415 1.415 0 0 0 0 1.965c.529.529 1.436.529 1.965 0l3.212-3.212 3.212 3.212c.53.529 1.436.529 1.965 0 .53-.53.53-1.436 0-1.965Z" fill="#fff"/></g><defs><linearGradient id="paint0_linear_318_112124" x1="61.846" y1="64" x2="-4.1" y2="-4.205" gradientUnits="userSpaceOnUse"><stop stop-color="currentColor"/><stop offset="1" stop-color="currentColor" stop-opacity=".1"/></linearGradient><clipPath id="clip0_318_112124"><path fill="#fff" d="M0 0h64v64H0z"/></clipPath></defs></svg>
