<svg fill="none" xmlns="http://www.w3.org/2000/svg" viewBox="0 0 64 64"><g clip-path="url(#clip0_132_34079)"><rect width="64" height="64" rx="16" fill="url(#paint0_linear_132_34079)"/><path d="M25.013 53.564c2.505 1.092 5.275 1.638 8.177 1.638 11.87 0 21.497-9.967 21.497-22.255 0-12.289-9.628-22.256-21.497-22.256-2.902 0-5.671.546-8.177 1.638 7.781 3.277 13.32 11.333 13.32 20.481 0 9.148-5.539 17.204-13.32 20.48" fill="#fff"/><path fill-rule="evenodd" clip-rule="evenodd" d="m24.389 26.119-1.48-6.61-1.481 6.61-6.61 1.48 6.61 1.481 1.48 6.611 1.48-6.61L31 27.6l-6.611-1.481ZM11.222 22.394l-.806-3.595-.805 3.595-3.594.805 3.594.805.805 3.596.806-3.596 3.595-.805-3.595-.805ZM14.347 36.713l-.805-3.596-.805 3.596-3.595.805 3.595.805.805 3.595.805-3.595 3.596-.805-3.596-.805Z" fill="#fff"/></g><defs><linearGradient id="paint0_linear_132_34079" x1="61.846" y1="64" x2="-4.1" y2="-4.205" gradientUnits="userSpaceOnUse"><stop stop-color="currentColor"/><stop offset="1" stop-color="currentColor" stop-opacity=".1"/></linearGradient><clipPath id="clip0_132_34079"><path fill="#fff" d="M0 0h64v64H0z"/></clipPath></defs></svg>
