<svg fill="none" xmlns="http://www.w3.org/2000/svg" viewBox="0 0 64 64"><g clip-path="url(#clip0_132_33804)"><rect width="64" height="64" rx="16" fill="url(#paint0_linear_132_33804)"/><path d="M45.079 32.014c0-3.478-1.855-6.53-4.637-8.269l-1.468 2.357c1.97 1.237 3.323 3.4 3.323 5.873a6.83 6.83 0 0 1-3.323 5.873l1.468 2.357a9.656 9.656 0 0 0 4.637-8.269" fill="#fff"/><path d="M51.298 32.013c0-5.718-3.052-10.74-7.611-13.561l-1.468 2.395c3.748 2.319 6.259 6.414 6.259 11.127 0 4.714-2.511 8.848-6.26 11.167l1.469 2.395c4.56-2.82 7.611-7.843 7.611-13.562M17.493 25.213h-.27a2.16 2.16 0 0 0-2.164 2.164v8.886a2.16 2.16 0 0 0 2.163 2.164h4.984s.696.657 1.546 1.507l4.482 4.25v.077l4.636 4.443c1.7 1.661 3.09 1.043 3.09-1.313v-3.67L17.455 25.25l.039-.038Z" fill="#fff"/><path d="M47.705 46.734 35.998 35.027V16.25c0-2.357-1.39-2.975-3.09-1.314L28.27 19.38v.078l-4.018 3.786-8.655-8.655c-.58-.58-1.545-.58-2.163 0-.58.58-.58 1.546 0 2.164l8.422 8.423 14.18 14.18 9.582 9.504c.309.309.695.425 1.082.425a1.66 1.66 0 0 0 1.081-.425c.58-.58.58-1.546 0-2.164" fill="#fff"/></g><defs><linearGradient id="paint0_linear_132_33804" x1="61.846" y1="64" x2="-4.1" y2="-4.205" gradientUnits="userSpaceOnUse"><stop stop-color="currentColor"/><stop offset="1" stop-color="currentColor" stop-opacity=".1"/></linearGradient><clipPath id="clip0_132_33804"><path fill="#fff" d="M0 0h64v64H0z"/></clipPath></defs></svg>
