<svg fill="none" xmlns="http://www.w3.org/2000/svg" viewBox="0 0 64 64"><g clip-path="url(#clip0_318_112396)"><rect width="64" height="64" rx="16" fill="url(#paint0_linear_318_112396)"/><path d="M35.95 32.533c-.118 2.884-1.422 5.965-2.963 7.585-1.5 1.66-3.2.988-5.214-1.699-1.422-1.856-2.252-3.752-2.41-4.148-.514 0-.948-.197-1.343-.474-.277.237-1.54 1.304-1.62 2.726-.118 1.62.514 3.714 2.134 4.74.948.593 1.422.633.948.949-.514.316-3.358.04-5.729-1.422-2.449-1.541-4.424-4.227-5.095-6.36-.672-2.134.75-3.28 4.069-3.674 2.33-.277 4.384-.08 4.78 0 .236-.395.631-.712 1.066-.909-.04-.356-.355-1.975-1.54-2.765-1.383-.909-3.477-1.422-5.176-.553-.987.513-1.264.908-1.303.316 0-.593 1.62-2.923 4.108-4.227 2.528-1.343 5.886-1.738 8.059-1.264 2.173.474 2.45 2.29 1.145 5.372-.908 2.173-2.133 3.793-2.37 4.148.158.316.277.711.277 1.106v.277c.355.158 1.896.71 3.16.079 1.462-.711 2.963-2.291 3.042-4.188.04-1.106-.158-1.54.355-1.264.514.277 1.739 2.884 1.62 5.65Zm-10.508-12.76c-6.755 0-12.246 5.492-12.246 12.207 0 6.716 5.49 12.207 12.246 12.207 6.755 0 12.207-5.491 12.207-12.207 0-6.715-5.491-12.206-12.207-12.206Zm28.324 25.994-1.935.316H12.169l-1.936-.316.474-13.787-.474-13.787 1.936-.316H51.83l1.935.316-.474 13.787.474 13.787Zm-2.37-29.035H12.603l-3.002 1.145v28.364l3.002 1.027h38.793l3.002-1.027V17.877l-3.002-1.145ZM25.442 44.898c-7.15 0-12.957-5.807-12.957-12.918 0-7.11 5.807-12.918 12.957-12.918S38.36 24.87 38.36 31.98c0 7.11-5.807 12.918-12.918 12.918Zm-12.72-26.547-1.501 13.63 1.5 13.589h38.636l1.5-13.59-1.5-13.629H12.722Z" fill="#fff"/></g><defs><linearGradient id="paint0_linear_318_112396" x1="61.846" y1="64" x2="-4.1" y2="-4.205" gradientUnits="userSpaceOnUse"><stop stop-color="currentColor"/><stop offset="1" stop-color="currentColor" stop-opacity=".1"/></linearGradient><clipPath id="clip0_318_112396"><path fill="#fff" d="M0 0h64v64H0z"/></clipPath></defs></svg>
