<svg width="200" height="52" viewBox="0 0 200 52" fill="none" xmlns="http://www.w3.org/2000/svg">
<g clip-path="url(#clip0_842_131)">
<path fill-rule="evenodd" clip-rule="evenodd" d="M54.5188 13.0712C51.8037 12.7899 49.0665 13.3426 46.6837 14.6532C44.3009 15.9639 42.3893 17.9683 41.2117 20.3908C40.0342 22.8133 39.6484 25.535 40.1075 28.1819C40.5666 30.8287 41.848 33.2708 43.7755 35.1723C45.7031 37.0739 48.1822 38.3417 50.8721 38.8014C53.5619 39.2611 56.3306 38.8901 58.7974 37.7395C61.2642 36.5888 63.3081 34.7151 64.6482 32.3757C65.9883 30.0363 66.5587 27.3461 66.2811 24.675C65.9756 21.7058 64.6392 18.9308 62.4968 16.8172C60.3544 14.7037 57.537 13.3808 54.5188 13.0712ZM54.0906 32.8744C52.6303 33.0671 51.1453 32.8048 49.8443 32.1246C48.5434 31.4444 47.4919 30.3804 46.8376 29.0821C46.1832 27.7837 45.959 26.3164 46.1965 24.8863C46.4339 23.4562 47.1209 22.1352 48.1612 21.109C49.2014 20.0828 50.5424 19.4029 51.9958 19.1649C53.4492 18.927 54.9419 19.1429 56.264 19.7823C57.5861 20.4218 58.6713 21.4526 59.3671 22.7299C60.0628 24.0073 60.334 25.4669 60.1427 26.9037C59.9419 28.4149 59.2402 29.8189 58.1461 30.8983C57.052 31.9776 55.6266 32.6721 54.0906 32.8744ZM73.3493 13.5853C72.891 13.5864 72.4387 13.688 72.0253 13.8826C71.6119 14.0773 71.2478 14.3601 70.9595 14.7106C70.6712 15.061 70.466 15.4703 70.3588 15.9086C70.2517 16.3468 70.2451 16.8031 70.3398 17.2441C70.6297 18.673 71.9868 19.6493 73.4652 19.6493H82.0442L68.6933 37.0256C68.5945 37.1538 68.5341 37.3066 68.5186 37.4668C68.5033 37.627 68.5336 37.7882 68.6061 37.9324C68.6787 38.0766 68.7906 38.1981 68.9294 38.2832C69.0682 38.3683 69.2284 38.4138 69.392 38.4144H90.3342C91.8115 38.4144 93.1696 37.4384 93.4595 36.0092C93.5542 35.5682 93.5477 35.112 93.4406 34.6738C93.3335 34.2356 93.1285 33.8264 92.8404 33.4759C92.5522 33.1254 92.1883 32.8425 91.775 32.6477C91.3617 32.4529 90.9095 32.3512 90.4512 32.3499H79.9983L93.339 14.9872C93.4387 14.8577 93.4998 14.7034 93.5153 14.5417C93.5308 14.3799 93.5002 14.2171 93.4269 14.0715C93.3536 13.926 93.2404 13.8033 93.1002 13.7175C92.96 13.6316 92.7982 13.5858 92.633 13.5853H73.3493ZM157.033 13.6553C156.34 13.8174 155.723 14.2074 155.286 14.7608C154.849 15.3142 154.616 15.9978 154.627 16.6986V26.7949L137.993 13.776C137.862 13.6742 137.705 13.6106 137.54 13.5927C137.374 13.5747 137.207 13.6031 137.057 13.6745C136.907 13.746 136.781 13.8575 136.692 13.9965C136.604 14.1354 136.558 14.296 136.558 14.4598V35.3065C136.547 36.0074 136.78 36.691 137.217 37.2444C137.654 37.7978 138.27 38.1878 138.964 38.3499C139.414 38.4473 139.88 38.4441 140.33 38.3404C140.779 38.2368 141.198 38.0354 141.557 37.7511C141.916 37.4668 142.205 37.1068 142.404 36.6978C142.603 36.2887 142.706 35.841 142.705 35.3876V25.2039L159.34 38.223C159.471 38.3247 159.628 38.3883 159.793 38.4062C159.958 38.4241 160.126 38.3958 160.275 38.3244C160.425 38.253 160.552 38.1415 160.64 38.0026C160.728 37.8637 160.775 37.7031 160.774 37.5394V16.6166C160.775 16.1633 160.672 15.7157 160.473 15.3068C160.274 14.8979 159.985 14.538 159.625 14.2538C159.266 13.9696 158.847 13.7683 158.398 13.6647C157.949 13.5611 157.483 13.5579 157.033 13.6553ZM113.721 19.0689C120.757 19.0689 126.014 22.7257 126.014 25.9968C126.014 29.2678 120.757 32.9247 113.721 32.9247C106.685 32.9247 101.427 29.2678 101.427 25.9968C101.427 22.7257 106.685 19.0689 113.721 19.0689ZM113.721 13.0051C103.536 13.0051 95.2805 18.8217 95.2805 25.9968C95.2805 33.1719 103.536 38.9885 113.721 38.9885C123.905 38.9885 132.161 33.1719 132.161 25.9968C132.161 18.8217 123.905 13.0051 113.721 13.0051Z" fill="#0069FF"/>
</g>
<defs>
<clipPath id="clip0_842_131">
<rect width="120.774" height="26" fill="white" transform="translate(40 13)"/>
</clipPath>
</defs>
</svg>
