<svg fill="none" xmlns="http://www.w3.org/2000/svg" viewBox="0 0 88 88"><path d="M55 55v7.028A6.972 6.972 0 0 0 61.972 69h16.554A6.474 6.474 0 0 0 85 62.526V55c0-7.732-6.268-14-14-14h-2c-7.732 0-14 6.268-14 14Z" fill="url(#paint0_linear_1841_5706)"/><path d="M2 55v7.028A6.972 6.972 0 0 0 8.972 69h16.554A6.474 6.474 0 0 0 32 62.526V55c0-7.732-6.268-14-14-14h-2C8.268 41 2 47.268 2 55Z" fill="url(#paint1_linear_1841_5706)"/><circle cx="70.5" cy="27.5" r="9.5" fill="url(#paint2_linear_1841_5706)"/><circle cx="17.5" cy="27.5" r="9.5" fill="url(#paint3_linear_1841_5706)"/><path d="M23.879 62.094v15.233a9.34 9.34 0 0 0 9.34 9.34h22.176a8.673 8.673 0 0 0 8.672-8.673v-15.9C64.067 50.996 55.071 42 43.973 42S23.88 50.996 23.88 62.094Z" fill="url(#paint4_linear_1841_5706)"/><circle cx="44.825" cy="23.925" fill="url(#paint5_linear_1841_5706)" r="12.925"/><defs><linearGradient id="paint0_linear_1841_5706" x1="83.99" y1="69" x2="55.274" y2="37.179" gradientUnits="userSpaceOnUse"><stop stop-color="#fff"/><stop offset="1" stop-color="#fff" stop-opacity=".1"/></linearGradient><linearGradient id="paint1_linear_1841_5706" x1="30.99" y1="69" x2="2.274" y2="37.179" gradientUnits="userSpaceOnUse"><stop stop-color="#fff"/><stop offset="1" stop-color="#fff" stop-opacity=".1"/></linearGradient><linearGradient id="paint2_linear_1841_5706" x1="79.361" y1="37" x2="59.783" y2="16.752" gradientUnits="userSpaceOnUse"><stop stop-color="#fff"/><stop offset="1" stop-color="#fff" stop-opacity=".1"/></linearGradient><linearGradient id="paint3_linear_1841_5706" x1="26.361" y1="37" x2="6.783" y2="16.752" gradientUnits="userSpaceOnUse"><stop stop-color="#fff"/><stop offset="1" stop-color="#fff" stop-opacity=".1"/></linearGradient><linearGradient id="paint4_linear_1841_5706" x1="62.715" y1="86.667" x2="16.783" y2="43.924" gradientUnits="userSpaceOnUse"><stop stop-color="#fff"/><stop offset="1" stop-color="#fff" stop-opacity=".1"/></linearGradient><linearGradient id="paint5_linear_1841_5706" x1="56.88" y1="36.85" x2="30.244" y2="9.302" gradientUnits="userSpaceOnUse"><stop stop-color="#fff"/><stop offset="1" stop-color="#fff" stop-opacity=".1"/></linearGradient></defs></svg>