<svg fill="none" xmlns="http://www.w3.org/2000/svg" viewBox="0 0 88 88"><path opacity=".5" d="M73.25 6.6H21.9a1 1 0 0 0-1 1v67.3a1 1 0 0 0 1 1H73.25a1 1 0 0 0 1-1V7.6a1 1 0 0 0-1-1Z" fill="url(#paint0_linear_1841_6107)"/><path fill-rule="evenodd" clip-rule="evenodd" d="M52.793 14.293a1 1 0 0 0-.707-.293H15a1 1 0 0 0-1 1v67.3a1 1 0 0 0 1 1h51.35a1 1 0 0 0 1-1V29.264a1 1 0 0 0-.293-.707L52.793 14.293Z" fill="url(#paint1_linear_1841_6107)"/><path d="M51.975 14.025V28.6h14.85M21.9 33.65h22.2M21.9 43h12.85M21.9 51.8h22.2" stroke="#fff" stroke-width="2" stroke-linecap="round" stroke-linejoin="round"/><defs><linearGradient id="paint0_linear_1841_6107" x1="72.454" y1="75.9" x2="2.822" y2="20.459" gradientUnits="userSpaceOnUse"><stop stop-color="#32A3FD"/><stop offset="1" stop-color="#32A3FD" stop-opacity=".1"/></linearGradient><linearGradient id="paint1_linear_1841_6107" x1="65.555" y1="83.3" x2="-4.078" y2="27.859" gradientUnits="userSpaceOnUse"><stop stop-color="#32A3FD"/><stop offset="1" stop-color="#32A3FD" stop-opacity=".1"/></linearGradient></defs></svg>