<svg fill="none" xmlns="http://www.w3.org/2000/svg" viewBox="0 0 64 64"><path d="M31.427.401a1 1 0 0 1 1.146 0l3.79 2.651a1 1 0 0 0 .763.162l4.54-.88a1 1 0 0 1 1.048.466l2.383 3.963a1 1 0 0 0 .632.46l4.506 1.041a1 1 0 0 1 .767.852l.566 4.59a1 1 0 0 0 .39.677l3.692 2.784a1 1 0 0 1 .354 1.09l-1.35 4.424a1 1 0 0 0 .082.776l2.24 4.046a1 1 0 0 1-.12 1.14l-3.032 3.492a1 1 0 0 0-.241.743l.4 4.607a1 1 0 0 1-.573.993l-4.19 1.956a1 1 0 0 0-.523.58l-1.507 4.372a1 1 0 0 1-.928.674l-4.624.083a1 1 0 0 0-.713.317l-3.155 3.381a1 1 0 0 1-1.122.239l-4.258-1.805a1 1 0 0 0-.78 0l-4.258 1.805a1 1 0 0 1-1.122-.239l-3.155-3.38a1 1 0 0 0-.713-.318l-4.624-.083a1 1 0 0 1-.928-.674l-1.507-4.372a1 1 0 0 0-.523-.58l-4.19-1.956a1 1 0 0 1-.574-.993l.401-4.607a1 1 0 0 0-.24-.743l-3.033-3.492a1 1 0 0 1-.12-1.14l2.24-4.046a1 1 0 0 0 .082-.776l-1.35-4.423a1 1 0 0 1 .354-1.09l3.692-2.785a1 1 0 0 0 .39-.676l.566-4.59a1 1 0 0 1 .767-.853l4.506-1.042a1 1 0 0 0 .631-.459L21.287 2.8a1 1 0 0 1 1.047-.466l4.54.88a1 1 0 0 0 .764-.162l3.79-2.651Z" fill="url(#paint0_linear_218_48837)"/><path fill-rule="evenodd" clip-rule="evenodd" d="M31.296 48.407a1 1 0 0 0-.475 1.421l7.235 12.532a1 1 0 0 0 1.733 0l3.07-5.332a1 1 0 0 1 .867-.501l6.152.007a1 1 0 0 0 .867-1.5l-4.879-8.451a1 1 0 0 0-.884-.5l-3.344.06a1 1 0 0 0-.713.318l-3.155 3.38a1 1 0 0 1-1.122.239l-4.258-1.805a1 1 0 0 0-.78 0l-.314.133Z" fill="url(#paint1_linear_218_48837)"/><path fill-rule="evenodd" clip-rule="evenodd" d="M19.347 46.089a1 1 0 0 0-.884.5l-4.875 8.445a1 1 0 0 0 .867 1.5l6.152-.007a1 1 0 0 1 .868.5l3.07 5.332a1 1 0 0 0 1.732.001l7.17-12.418a1 1 0 0 0-.476-1.421l-.58-.246a1 1 0 0 0-.781 0l-4.258 1.805a1 1 0 0 1-1.122-.239l-3.155-3.38a1 1 0 0 0-.713-.318l-3.015-.054Z" fill="url(#paint2_linear_218_48837)"/><circle cx="31.636" cy="25.091" r="14.886" stroke="#fff" stroke-width="1.5"/><defs><linearGradient id="paint0_linear_218_48837" x1="55.741" y1="50.909" x2="3.284" y2="-3.345" gradientUnits="userSpaceOnUse"><stop stop-color="#fff"/><stop offset="1" stop-color="#fff" stop-opacity=".1"/></linearGradient><linearGradient id="paint1_linear_218_48837" x1="50.201" y1="62.861" x2="33.311" y2="41.833" gradientUnits="userSpaceOnUse"><stop stop-color="#fff"/><stop offset="1" stop-color="#fff" stop-opacity=".1"/></linearGradient><linearGradient id="paint2_linear_218_48837" x1="32.904" y1="62.86" x2="16.009" y2="41.888" gradientUnits="userSpaceOnUse"><stop stop-color="#fff"/><stop offset="1" stop-color="#fff" stop-opacity=".1"/></linearGradient></defs></svg>
