<svg width="88" height="88" viewBox="0 0 88 88" fill="none" xmlns="http://www.w3.org/2000/svg">
    <path opacity="0.5" d="M73.25 6.59998H21.9C21.3477 6.59998 20.9 7.04769 20.9 7.59998V14.3V74.9C20.9 75.4523 21.3477 75.9 21.9 75.9H66.825H73.25C73.8023 75.9 74.25 75.4523 74.25 74.9V7.59998C74.25 7.04769 73.8023 6.59998 73.25 6.59998Z" fill="url(#paint0_linear_1854_1422)"/>
    <path fill-rule="evenodd" clip-rule="evenodd" d="M52.7929 14.2929C52.6054 14.1054 52.351 14 52.0858 14H15C14.4477 14 14 14.4477 14 15V82.3C14 82.8523 14.4477 83.3 15 83.3H66.35C66.9023 83.3 67.35 82.8523 67.35 82.3L67.35 29.2642C67.35 28.999 67.2446 28.7446 67.0571 28.5571L52.7929 14.2929Z" fill="url(#paint1_linear_1854_1422)"/>
    <path d="M51.975 14.025V28.6H66.825" stroke="white" stroke-width="2" stroke-linecap="round" stroke-linejoin="round"/>
    <line x1="21.9" y1="33.65" x2="44.1" y2="33.65" stroke="white" stroke-width="2" stroke-linecap="round" stroke-linejoin="round"/>
    <line x1="21.9" y1="43" x2="34.75" y2="43" stroke="white" stroke-width="2" stroke-linecap="round" stroke-linejoin="round"/>
    <line x1="21.9" y1="51.8" x2="44.1" y2="51.8" stroke="white" stroke-width="2" stroke-linecap="round" stroke-linejoin="round"/>
    <defs>
        <linearGradient id="paint0_linear_1854_1422" x1="72.4546" y1="75.9" x2="2.8225" y2="20.4586" gradientUnits="userSpaceOnUse">
            <stop stop-color="#32A3FD"/>
            <stop offset="1" stop-color="#32A3FD" stop-opacity="0.1"/>
        </linearGradient>
        <linearGradient id="paint1_linear_1854_1422" x1="65.5546" y1="83.3" x2="-4.07753" y2="27.8586" gradientUnits="userSpaceOnUse">
            <stop stop-color="#32A3FD"/>
            <stop offset="1" stop-color="#32A3FD" stop-opacity="0.1"/>
        </linearGradient>
    </defs>
</svg>
