<svg fill="none" xmlns="http://www.w3.org/2000/svg" viewBox="0 0 64 64"><g clip-path="url(#clip0_317_129365)"><rect width="64" height="64" rx="16" fill="url(#paint0_linear_317_129365)"/><path d="m45.613 25.555 13.13 25.585h-40.44L5.258 25.555h40.355Zm-35.39 4.292c0-.21-.083-.463-.21-.631l-.673-.842s-.379-.336-.673-.336l-.631-.085L9.509 30.9l.336-.294c.21-.169.337-.463.337-.758m.673-2.44c0-.21-.084-.463-.21-.632l-.295-.378H8.12l.168.463s.084.21.169.336l.673.842s.42.336.673.378c.253 0 .505-.042.715-.21.253-.168.379-.463.379-.757m2.272 5.133c0-.21-.084-.462-.21-.63l-.673-.843c-.337-.42-.968-.504-1.389-.168-.252.21-.379.463-.379.758 0 .21.084.42.21.63l.674.843c.337.42.968.504 1.389.168.252-.21.378-.463.378-.758Zm.253-2.735c0-.21-.084-.463-.21-.631l-.674-.842c-.337-.42-.968-.505-1.389-.168a.977.977 0 0 0-.378.8c0 .21.084.42.21.63l.674.842c.336.421.967.505 1.388.169.253-.21.379-.463.379-.758m-.253 5.47c0-.21-.084-.42-.21-.63l-.673-.842c-.21-.253-.505-.379-.884-.337h-.505l1.43 2.82.295-.169c.38-.294.505-.547.505-.883m.926-7.911c0-.21-.084-.463-.21-.632l-.295-.378h-2.23l.126.463s.084.21.168.336l.674.842c.336.42.968.505 1.388.168.253-.168.379-.463.379-.757m-1.01 9.425c0 .21.084.463.21.632l.674.841c.337.421.968.505 1.389.169a.977.977 0 0 0 .378-.8c0-.21-.084-.42-.21-.631l-.673-.842c-.337-.42-.968-.505-1.389-.168-.253.21-.379.463-.379.758m2.651 3.703c0-.21-.084-.421-.21-.632l-.673-.841c-.169-.21-.421-.337-.716-.379h-.589l1.473 2.861.337-.252a.977.977 0 0 0 .378-.8m.632-5.217c0-.21-.085-.421-.21-.632l-.674-.841c-.337-.421-.968-.505-1.389-.169-.253.169-.379.463-.379.758 0 .21.085.463.21.631l.674.842s.42.336.673.378c.253 0 .505-.042.716-.21.252-.168.379-.463.379-.757Zm0-2.778c0-.21-.085-.463-.21-.63l-.674-.843c-.337-.42-.968-.505-1.389-.168-.253.21-.379.463-.379.758 0 .21.085.42.21.63l.674.842c.337.421.968.505 1.389.169.252-.21.379-.463.379-.758Zm.252-2.735c0-.21-.084-.463-.21-.631l-.674-.842c-.336-.42-.968-.505-1.389-.168a.977.977 0 0 0-.378.8c0 .21.084.462.21.63l.674.842c.168.21.42.337.673.379.252 0 .505 0 .715-.21.253-.21.379-.463.379-.758m.631-2.44c0-.21-.084-.463-.21-.632l-.295-.378h-2.23l.168.462s.085.21.169.337l.673.842c.336.42.968.505 1.389.168.252-.168.378-.463.378-.758m1.094 15.444c0-.21-.084-.463-.21-.631l-.674-.842c-.336-.42-.967-.505-1.388-.168-.252.168-.379.463-.379.757 0 .21.084.463.21.631l.674.842c.337.42.968.505 1.389.168.252-.21.378-.462.378-.757Zm0 2.861c0-.21-.084-.462-.21-.63l-.674-.842c-.168-.21-.42-.337-.715-.38h-.589l1.43 2.778.296-.168c.294-.21.462-.505.462-.8m.547-5.428c0-.21-.084-.463-.21-.631l-.673-.842c-.337-.42-.968-.505-1.389-.168-.252.21-.379.463-.379.757 0 .21.084.463.21.632l.674.841c.337.42.968.505 1.389.168.252-.21.378-.462.378-.757Zm-1.178-4.46c-.337-.21-.757-.169-1.094.084-.252.168-.379.462-.379.757 0 .21.084.463.21.631l.674.842c.337.42.968.505 1.389.168a.977.977 0 0 0 .378-.8c0-.21-.084-.42-.21-.63l-.59-.758.38.126c.252 0 .505-.042.715-.21.252-.169.378-.463.378-.758 0-.21-.084-.42-.21-.63l-.673-.842s-.379-.337-.673-.38c-.253 0-.505.043-.716.211-.252.169-.378.463-.378.758 0 .21.084.463.21.631l.589.757v.043Zm1.81-3.325c0-.21-.085-.463-.211-.631l-.673-.842c-.337-.42-.968-.505-1.389-.168-.252.21-.378.463-.378.758 0 .21.084.42.21.63l.673.842c.337.421.968.505 1.389.169.252-.21.379-.463.379-.758Zm.294-2.735c0-.21-.084-.463-.21-.631l-.674-.842c-.336-.42-.968-.505-1.388-.168-.253.21-.379.463-.379.757 0 .21.084.463.21.631l.674.842c.336.42.968.505 1.388.168.253-.21.379-.463.379-.757Zm.631-2.44c0-.211-.084-.464-.21-.632l-.295-.379h-2.23l.169.463s.084.21.168.337l.673.841c.337.421.968.505 1.389.169.252-.169.378-.463.378-.758m.632 20.746c0-.21-.085-.463-.21-.631l-.674-.842a1.094 1.094 0 0 0-.674-.379c-.252 0-.504.042-.715.21a.977.977 0 0 0-.378.8c0 .21.084.463.21.632l.673.841c.337.421.968.505 1.389.168.252-.168.379-.462.379-.757m-.926 1.304c-.168-.252-.463-.378-.8-.336h-.547l.842 1.64h1.557l-1.01-1.304h-.042Zm-.126-5.764c-.253-.043-.548 0-.758.21-.252.21-.378.463-.378.757 0 .21.084.463.21.632l.673.841s.42.337.673.379c.253 0 .505 0 .716-.21.252-.211.378-.463.378-.758 0-.21-.084-.463-.21-.631l-.673-.842s-.169-.168-.253-.21c.253 0 .505 0 .716-.21.252-.211.378-.463.378-.758 0-.21-.084-.463-.21-.631l-.673-.842s-.421-.337-.674-.379c-.252 0-.504.042-.715.21-.252.17-.379.464-.379.758 0 .21.085.463.21.631l.674.842s.168.168.253.21m2.061-3.366c0-.21-.084-.463-.21-.631l-.673-.842c-.337-.42-.968-.505-1.389-.168-.253.21-.379.463-.379.757 0 .21.084.463.21.632l.674.841c.337.421.968.505 1.389.169.252-.21.378-.463.378-.758Zm-1.178-4.46a.95.95 0 0 0-1.094.084c-.253.168-.379.463-.379.757 0 .21.084.463.21.631l.674.842c.337.42.968.505 1.389.168a.977.977 0 0 0 .378-.8c0-.21-.084-.42-.21-.63l-.631-.758.379.126c.252 0 .505-.042.715-.21.252-.168.378-.463.378-.757 0-.21-.084-.421-.21-.632l-.673-.841c-.337-.421-.968-.505-1.389-.169-.252.169-.378.463-.378.758 0 .21.084.463.21.631l.631.758v.041Zm1.81-3.325c0-.21-.085-.42-.21-.63l-.674-.843c-.337-.42-.968-.505-1.389-.168-.252.21-.378.463-.378.758 0 .21.084.42.21.63l.673.842c.337.421.968.505 1.389.169.252-.21.378-.463.378-.758Zm.294-2.735c0-.21-.084-.463-.21-.631l-.673-.842c-.337-.42-.968-.505-1.39-.168a.977.977 0 0 0-.378.8c0 .21.084.42.21.63l.674.842c.337.421.968.505 1.389.169.252-.21.378-.463.378-.758m.631-2.44c0-.21-.084-.463-.21-.632l-.295-.378h-2.23l.169.462s.084.21.168.337l.673.842c.337.42.968.505 1.389.168.252-.168.379-.463.379-.758m-.253 22.05s-.42-.336-.673-.378c-.253 0-.505.042-.716.21-.21.169-.378.463-.378.758a.81.81 0 0 0 .168.505l.084.168h2.525l-1.01-1.305v.043Zm.926-1.304c0-.21-.084-.463-.21-.631l-.674-.842a1.093 1.093 0 0 0-.673-.378c-.253 0-.505.042-.716.21a.977.977 0 0 0-.378.8c0 .21.084.462.21.63l.673.842s.421.337.674.379c.252 0 .505-.042.715-.21.21-.169.379-.463.379-.758m-1.052-4.46c-.295-.043-.547 0-.8.21-.252.21-.378.463-.378.758 0 .21.084.462.21.63l.673.842s.421.337.674.379c.252 0 .504 0 .715-.21.252-.21.379-.463.379-.758 0-.21-.085-.463-.21-.631l-.674-.842s-.168-.168-.253-.21c.295.042.548 0 .8-.21s.379-.463.379-.758c0-.21-.085-.463-.21-.631l-.674-.842c-.337-.42-.968-.505-1.389-.168-.252.168-.378.463-.378.757 0 .21.084.463.21.632l.673.841s.169.168.253.21Zm2.02-3.409c0-.21-.085-.463-.21-.631l-.674-.842c-.337-.42-.968-.505-1.389-.168-.252.21-.378.463-.378.758 0 .21.084.462.21.63l.673.842c.337.421.968.505 1.389.169.252-.21.379-.463.379-.758Zm-1.136-4.46c-.337-.21-.8-.169-1.137.084-.252.168-.378.463-.378.757 0 .21.084.463.21.631l.673.842c.337.42.968.505 1.389.168a.977.977 0 0 0 .379-.8c0-.21-.085-.42-.21-.63l-.632-.758s.252.127.379.127c.252 0 .505-.043.715-.21.253-.17.379-.464.379-.758 0-.21-.084-.421-.21-.632l-.674-.841c-.337-.421-.968-.505-1.388-.169-.253.169-.38.463-.38.758 0 .21.085.463.211.631l.631.758.043.042Zm1.809-3.325c0-.21-.084-.463-.21-.63l-.674-.842c-.337-.421-.968-.505-1.388-.169-.253.21-.38.463-.38.758 0 .21.085.42.211.63l.674.842c.168.21.42.337.673.38.252 0 .505-.043.715-.211.253-.21.379-.463.379-.758Zm.294-2.735c0-.21-.084-.463-.21-.631l-.673-.842c-.337-.42-.968-.505-1.389-.168a.977.977 0 0 0-.379.8c0 .21.085.462.21.63l.674.842c.337.421.968.505 1.389.169.252-.21.378-.463.378-.758m.632-2.44c0-.21-.085-.463-.21-.632l-.295-.378h-2.23l.126.463s.084.21.168.336l.673.842c.337.42.968.505 1.389.168.253-.168.379-.463.379-.757m-.295 22.05s-.42-.337-.673-.38c-.253 0-.505.043-.715.211-.21.169-.38.463-.38.758 0 .168.043.336.127.505l.084.168h2.567l-1.052-1.304.042.042Zm.926-1.305c0-.21-.084-.463-.21-.631l-.674-.842a1.093 1.093 0 0 0-.673-.378c-.253 0-.505.042-.715.21a.977.977 0 0 0-.38.8c0 .21.085.462.211.63l.674.842c.336.421.967.505 1.388.169.253-.169.379-.463.379-.758m-1.094-4.46c-.253 0-.505.042-.716.21-.252.21-.378.463-.378.758 0 .21.084.462.21.63l.673.842s.421.337.674.38c.252 0 .505 0 .715-.211.253-.21.379-.463.379-.758 0-.21-.084-.463-.21-.63l-.674-.843s-.168-.168-.252-.21c.294.084.589 0 .841-.168.253-.21.379-.463.379-.758 0-.21-.084-.462-.21-.63l-.674-.843s-.42-.336-.673-.378c-.252 0-.505.042-.715.21-.253.168-.38.463-.38.758 0 .21.085.462.211.63l.674.842s.168.169.252.21h-.126m2.104-3.366c0-.21-.084-.462-.21-.63l-.674-.843a1.094 1.094 0 0 0-.673-.378c-.253 0-.505.042-.715.21-.253.21-.38.463-.38.758 0 .21.085.463.211.63l.673.843c.337.42.968.504 1.39.168.252-.21.378-.463.378-.758Zm-1.136-4.46a.953.953 0 0 0-1.136.084c-.253.168-.38.463-.38.758 0 .21.085.462.211.63l.673.842c.337.421.968.505 1.39.169a.977.977 0 0 0 .378-.8c0-.21-.084-.42-.21-.631l-.632-.758s.253.127.379.127c.252 0 .505-.042.715-.21.253-.169.38-.464.38-.758 0-.21-.085-.421-.211-.631l-.674-.842c-.336-.42-.968-.505-1.388-.168-.253.168-.379.463-.379.757 0 .21.084.463.21.631l.632.758.042.042Zm1.81-3.325c0-.21-.085-.42-.211-.63l-.674-.842c-.336-.421-.968-.505-1.388-.169-.253.21-.379.463-.379.758 0 .21.084.42.21.631l.674.842c.336.42.968.505 1.388.168.253-.21.38-.463.38-.758Zm.294-2.735c0-.21-.085-.463-.21-.63l-.674-.842c-.337-.421-.968-.505-1.389-.169-.252.21-.378.463-.378.758 0 .21.084.463.21.63l.673.842c.337.421.968.505 1.389.169.252-.21.379-.463.379-.758Zm.63-2.44c0-.21-.083-.463-.21-.631l-.294-.38h-2.23l.168.464s.084.21.168.336l.674.842c.336.42.967.505 1.388.168.253-.168.379-.463.379-.757m-.253 22.05s-.42-.337-.673-.379c-.252 0-.505.042-.715.21-.21.169-.379.463-.379.758 0 .168.042.337.126.505l.127.168h2.524l-1.052-1.304.042.042Zm.926-1.305c0-.21-.084-.462-.21-.63l-.673-.843a1.094 1.094 0 0 0-.674-.378c-.252 0-.505.042-.715.21-.21.21-.379.463-.379.8 0 .21.084.463.21.63l.674.843c.336.42.968.505 1.389.168.252-.168.378-.463.378-.758m-.968-4.46c-.294-.084-.631 0-.883.168-.253.21-.379.463-.379.758 0 .21.084.462.21.63l.674.842s.42.337.673.38c.252 0 .505 0 .715-.211.253-.21.38-.463.38-.758 0-.21-.085-.463-.211-.63l-.674-.842-.252-.253c.294.084.631 0 .884-.168.252-.21.378-.463.378-.758 0-.21-.084-.462-.21-.63l-.673-.843c-.337-.42-.968-.505-1.39-.168-.252.168-.378.463-.378.758 0 .21.085.462.21.63l.674.842.252.253Zm1.936-3.409c0-.21-.084-.462-.21-.63l-.674-.843a1.093 1.093 0 0 0-.673-.378c-.252 0-.505.042-.715.21-.253.21-.379.463-.379.758 0 .21.084.463.21.63l.674.843c.336.42.968.504 1.388.168.253-.21.38-.463.38-.758Zm-1.136-4.46s-.252-.126-.42-.126c-.253 0-.506 0-.716.21-.253.168-.379.463-.379.758 0 .21.084.462.21.63l.674.842c.336.421.968.505 1.388.169a.977.977 0 0 0 .38-.8c0-.21-.085-.42-.211-.631l-.631-.8s.252.127.42.127c.253 0 .505-.042.716-.21.252-.17.378-.464.378-.758 0-.21-.084-.421-.21-.632l-.673-.841c-.337-.42-.968-.505-1.389-.168-.252.168-.379.462-.379.757 0 .21.084.463.21.631l.632.758v.084Zm1.81-3.325c0-.21-.085-.462-.211-.63l-.673-.842c-.337-.421-.968-.505-1.389-.169-.252.21-.379.463-.379.758 0 .21.084.42.21.631l.674.842c.168.21.379.336.673.378.253 0 .505-.042.716-.21.252-.21.378-.463.378-.758Zm.294-2.735c0-.21-.084-.463-.21-.63l-.674-.842c-.337-.421-.968-.505-1.388-.169a.978.978 0 0 0-.38.8c0 .21.085.42.211.631l.674.841c.336.421.967.505 1.388.169.252-.21.379-.463.379-.758m.59-2.44c0-.21-.085-.463-.211-.632l-.295-.378h-2.23l.168.463s.084.21.169.336l.673.842c.336.42.968.505 1.388.168.253-.168.38-.463.38-.757m-.253 22.05s-.421-.337-.674-.379c-.252 0-.505.042-.715.21-.21.169-.379.463-.379.758 0 .168.042.337.127.505l.084.168h2.524l-1.01-1.304.043.042Zm.925-1.305c0-.21-.084-.462-.21-.63l-.673-.842a1.093 1.093 0 0 0-.674-.38c-.252 0-.505.043-.715.211a.977.977 0 0 0-.379.8c0 .21.084.463.21.631l.674.842c.337.42.968.505 1.389.168.252-.168.378-.463.378-.758m-.925-4.418a1.071 1.071 0 0 0-.926.168c-.253.21-.379.463-.379.758 0 .21.084.463.21.631l.674.842s.42.336.673.378c.253 0 .505 0 .715-.21.253-.21.38-.463.38-.758 0-.21-.085-.462-.211-.63l-.673-.842s-.169-.21-.295-.253c.294.084.631.042.926-.168.252-.21.378-.463.378-.758 0-.21-.084-.462-.21-.63l-.673-.842s-.421-.337-.674-.38c-.252 0-.504.043-.715.211-.252.169-.379.463-.379.758 0 .21.084.463.21.631l.674.842s.169.168.295.252Zm1.893-3.408c0-.21-.084-.463-.21-.632l-.673-.841a1.093 1.093 0 0 0-.674-.379c-.252 0-.505.042-.715.21-.253.21-.379.463-.379.758 0 .21.084.463.21.631l.674.842c.337.42.968.505 1.389.168.252-.21.378-.463.378-.757Zm-1.136-4.419a.953.953 0 0 0-1.136.084c-.253.169-.379.463-.379.758 0 .21.084.463.21.63l.674.843c.337.42.968.505 1.389.168a.977.977 0 0 0 .378-.8c0-.21-.084-.42-.21-.63l-.631-.8s.252.126.42.168c.253 0 .505-.042.716-.21.252-.169.379-.463.379-.758 0-.21-.085-.42-.21-.631l-.674-.842c-.337-.42-.968-.505-1.389-.168-.252.168-.379.463-.379.757 0 .21.085.463.21.632l.632.8Zm1.81-3.324c0-.21-.085-.421-.21-.632l-.674-.841s-.42-.337-.673-.379c-.253 0-.505.042-.716.21-.252.211-.379.463-.379.758 0 .21.085.42.21.631l.674.842c.337.42.968.505 1.389.168.252-.21.379-.463.379-.757Zm.294-2.735c0-.21-.084-.463-.21-.632l-.674-.841c-.336-.421-.968-.505-1.388-.169a.977.977 0 0 0-.379.8c0 .21.084.463.21.631l.674.842c.168.21.42.337.673.379.252 0 .505 0 .715-.21.253-.211.38-.464.38-.758m.588-2.44c0-.211-.084-.464-.21-.632l-.295-.379h-2.23l.168.463s.085.21.169.337l.673.841c.337.421.968.505 1.389.169.252-.169.378-.463.378-.758m-.252 22.05s-.421-.337-.673-.379c-.253 0-.505.042-.716.21-.21.17-.379.464-.379.758 0 .169.043.337.127.505l.084.169h2.567l-1.052-1.305.042.042Zm.926-1.304c0-.21-.084-.463-.21-.632l-.674-.841a1.092 1.092 0 0 0-.673-.379c-.253 0-.505.042-.716.21a.977.977 0 0 0-.379.8c0 .21.085.463.21.631l.674.842c.337.42.968.505 1.389.168.252-.168.379-.463.379-.757m-.842-4.419c-.337-.126-.715-.084-.968.127-.252.21-.379.462-.379.757 0 .21.084.463.21.631l.674.842s.42.336.673.379c.253 0 .505 0 .716-.21.252-.211.378-.464.378-.758 0-.21-.084-.463-.21-.632l-.673-.841s-.21-.21-.337-.295c.337.127.716.084.968-.126.252-.21.379-.463.379-.758 0-.21-.085-.462-.21-.63l-.674-.842s-.42-.337-.673-.379c-.253 0-.505.042-.716.21-.252.169-.378.463-.378.758 0 .21.084.463.21.631l.673.842s.21.21.337.294Zm1.81-3.45c0-.21-.085-.463-.211-.631l-.673-.842a1.093 1.093 0 0 0-.674-.379c-.252 0-.505.042-.715.21-.252.21-.379.463-.379.758 0 .21.084.463.21.631l.674.842c.337.42.968.505 1.389.168.252-.21.378-.463.378-.757ZM37.196 36.2s-.252-.126-.42-.168c-.253 0-.505 0-.716.21-.252.169-.379.463-.379.758 0 .21.084.463.21.631l.674.842c.337.42.968.505 1.389.168a.977.977 0 0 0 .378-.8c0-.21-.084-.42-.21-.63l-.631-.8s.252.126.42.168c.253 0 .506-.042.716-.21.252-.169.379-.463.379-.758 0-.21-.085-.42-.21-.631l-.674-.842c-.337-.42-.968-.505-1.389-.168-.252.168-.378.463-.378.758 0 .21.084.462.21.63l.631.8v.042Zm1.81-3.324c0-.21-.085-.463-.21-.631l-.674-.842c-.337-.42-.968-.505-1.389-.168-.252.21-.378.463-.378.757 0 .21.084.421.21.631l.673.842c.169.21.421.337.674.379.252.042.505-.042.715-.21.252-.211.379-.463.379-.758Zm.294-2.735c0-.21-.084-.463-.21-.631l-.673-.842c-.337-.42-.968-.505-1.39-.168-.252.21-.378.462-.378.757 0 .21.084.463.21.631l.674.842c.168.21.42.336.673.378.253 0 .505 0 .716-.21.252-.21.378-.463.378-.757Zm.59-2.44c0-.211-.085-.464-.211-.632l-.295-.379h-2.23l.169.463s.084.21.168.337l.673.841c.337.421.968.505 1.389.169.252-.169.378-.463.378-.758m-.294 22.05s-.379-.337-.673-.379c-.253 0-.506.042-.716.21-.21.17-.378.464-.378.758 0 .169.041.337.126.505l.084.169h2.567l-1.052-1.305.042.042Zm.926-1.304c0-.21-.085-.463-.21-.631l-.674-.842a1.093 1.093 0 0 0-.673-.379c-.253 0-.505.042-.716.21a.977.977 0 0 0-.378.8c0 .21.084.463.21.631l.673.842c.337.42.968.505 1.389.168.252-.168.379-.463.379-.757m.42-2.651c0-.21-.084-.463-.21-.631l-.673-.842c-.337-.42-.968-.505-1.389-.168-.252.21-.379.463-.379.757 0 .21.084.463.21.631l.674.842s.42.337.673.379c.253 0 .505 0 .716-.21.252-.211.378-.464.378-.758Zm.169-2.651c0-.21-.084-.463-.21-.632l-.674-.841s-.42-.337-.673-.379c-.253 0-.505.042-.716.21-.252.169-.378.463-.378.758 0 .21.084.463.21.631l.673.842c.337.42.968.505 1.39.168.252-.21.378-.463.378-.757Zm.379-2.567c0-.21-.085-.463-.21-.631l-.674-.842a1.093 1.093 0 0 0-.673-.379c-.253 0-.505.042-.716.21-.252.211-.379.463-.379.758 0 .21.085.463.21.631l.674.842c.337.42.968.505 1.389.168.252-.21.379-.463.379-.757Zm-1.137-4.419a1.09 1.09 0 0 0-1.178.042c-.252.169-.379.463-.379.758 0 .21.084.463.21.631l.674.842c.337.42.968.505 1.389.168a.977.977 0 0 0 .378-.8c0-.21-.084-.42-.21-.63l-.631-.8s.294.126.42.168c.253 0 .506-.042.716-.21.252-.169.379-.463.379-.758 0-.21-.084-.42-.21-.63l-.674-.843c-.337-.42-.968-.505-1.389-.168-.252.168-.378.463-.378.758 0 .21.084.462.21.63l.631.8.042.042Zm1.81-3.324c0-.21-.084-.463-.21-.631l-.674-.842s-.42-.336-.673-.378c-.253 0-.505.042-.716.21-.252.21-.378.463-.378.757 0 .21.084.421.21.632l.673.841c.337.42.968.505 1.39.168.252-.21.378-.462.378-.757Zm.294-2.735c0-.21-.084-.463-.21-.631l-.673-.842c-.337-.42-.968-.505-1.389-.168a.978.978 0 0 0-.379.8c0 .21.085.42.21.63l.674.842c.337.42.968.505 1.389.168.252-.21.378-.463.378-.757m.59-2.44c0-.211-.085-.464-.21-.632l-.295-.379h-2.23l.168.463s.084.21.168.337l.673.841c.337.421.968.505 1.389.169.252-.169.379-.463.379-.758m-.253 22.05s-.379-.336-.673-.378c-.253 0-.505.042-.716.21-.21.168-.378.463-.378.758 0 .168.042.336.126.504l.084.169h2.567l-1.01-1.305v.042Zm.926-1.304c0-.21-.084-.463-.21-.631l-.674-.842a1.094 1.094 0 0 0-.673-.379c-.253 0-.505.042-.715.21a.977.977 0 0 0-.38.8c0 .21.085.463.211.631l.673.842c.337.42.968.505 1.39.168.252-.168.378-.462.378-.757m.463-2.651c0-.21-.085-.463-.21-.631l-.674-.842a.993.993 0 0 0-.673-.379c-.253 0-.505.042-.716.21-.252.211-.378.464-.378.758 0 .21.084.463.21.631l.673.842s.421.337.674.379c.252 0 .505 0 .715-.21.21-.211.379-.464.379-.758Zm.168-2.651c0-.21-.084-.463-.21-.631l-.674-.842s-.42-.337-.673-.379c-.252 0-.505.042-.715.21-.253.169-.379.464-.379.758 0 .21.084.463.21.631l.674.842s.378.337.673.379c.252 0 .505 0 .715-.21.253-.211.38-.464.38-.758Zm.379-2.567c0-.21-.084-.463-.21-.631l-.674-.842a1.094 1.094 0 0 0-.673-.379c-.253 0-.505.042-.716.21-.252.211-.378.464-.378.758 0 .21.084.463.21.631l.673.842c.337.42.968.505 1.39.168.252-.21.378-.462.378-.757Zm-1.094-4.418c-.337-.253-.842-.21-1.179.042-.252.168-.378.463-.378.757 0 .21.084.463.21.631l.673.842c.337.42.968.505 1.39.168a.977.977 0 0 0 .378-.8c0-.21-.084-.42-.21-.63l-.632-.8s.295.126.463.168c.252 0 .505-.042.715-.21.253-.169.38-.463.38-.758 0-.21-.085-.42-.211-.63l-.674-.842c-.336-.421-.968-.505-1.388-.169-.253.169-.379.463-.379.758 0 .21.084.463.21.63l.632.8v.043Zm1.81-3.367c0-.21-.085-.42-.211-.631l-.674-.842c-.336-.42-.968-.505-1.388-.168-.253.21-.379.463-.379.757 0 .21.084.421.21.632l.674.841c.336.421.968.505 1.388.169.253-.21.38-.463.38-.758Zm.294-2.735c0-.21-.085-.463-.21-.631l-.674-.842c-.337-.42-.968-.505-1.389-.168a.977.977 0 0 0-.378.8c0 .21.084.462.21.63l.673.842c.169.21.38.337.674.379.252 0 .505 0 .715-.21.252-.211.379-.463.379-.758m.336-2.104-.673-1.263h-1.852l.127.463s.084.21.168.337l.673.842c.337.42.968.505 1.389.168l.168-.168v-.379Zm-.084 21.755s-.42-.336-.673-.378c-.253 0-.505.042-.715.21-.21.169-.38.463-.38.758 0 .168.043.336.127.505l.084.168h2.525l-1.01-1.305.042.042Zm.926-1.304c0-.21-.084-.463-.21-.631l-.674-.842a1.093 1.093 0 0 0-.673-.379c-.252 0-.505.043-.715.21a.977.977 0 0 0-.38.8c0 .21.085.463.211.632l.674.841c.336.42.968.505 1.388.168.253-.168.379-.462.379-.757m.463-2.651c0-.21-.084-.463-.21-.631l-.674-.842a1.094 1.094 0 0 0-.673-.379c-.253 0-.505.042-.715.21-.253.211-.38.464-.38.758 0 .21.085.463.211.632l.673.841s.421.337.674.379c.252 0 .505 0 .715-.21.253-.211.379-.464.379-.758Zm.21-2.651c0-.21-.084-.463-.21-.631l-.674-.842c-.336-.42-.967-.505-1.388-.168-.253.168-.379.463-.379.757 0 .21.084.463.21.631l.674.842c.336.42.968.505 1.389.168.252-.21.378-.462.378-.757Zm.337-2.567c0-.21-.084-.463-.21-.631l-.674-.842a1.094 1.094 0 0 0-.673-.378c-.253 0-.505.042-.715.21-.253.21-.38.463-.38.757 0 .21.085.463.211.632l.674.841c.336.42.967.505 1.388.168.253-.21.379-.462.379-.757Zm-1.094-4.418s-.295-.169-.463-.169c-.253 0-.505 0-.715.21-.253.169-.38.463-.38.758 0 .21.085.463.211.631l.674.842c.336.42.967.505 1.388.168a.977.977 0 0 0 .379-.8c0-.21-.084-.42-.21-.63l-.632-.8s.295.168.463.168c.253 0 .505-.042.715-.21.253-.168.38-.463.38-.757 0-.21-.085-.421-.211-.632l-.673-.841s-.421-.337-.674-.379c-.252 0-.505.042-.715.21-.253.169-.379.463-.379.758 0 .21.084.463.21.631l.632.8v.042Zm1.767-3.367c0-.21-.084-.42-.21-.589l-.674-.841s-.42-.337-.673-.38c-.252 0-.505.043-.715.211-.253.21-.379.463-.379.757 0 .211.084.421.21.632l.674.841c.168.21.42.337.673.38.253 0 .505-.043.715-.211.169-.127.253-.295.337-.505v-.295h.042Zm.631 16.959s-.378-.337-.673-.38c-.252 0-.505.043-.715.211-.21.169-.379.463-.379.758 0 .168.042.336.126.505l.084.168h2.525l-1.01-1.305.042.043Zm.926-1.305c0-.21-.084-.463-.21-.631l-.674-.842a.992.992 0 0 0-.673-.378c-.252 0-.505.041-.715.21a.977.977 0 0 0-.379.8c0 .21.084.462.21.63l.674.842c.337.421.968.505 1.388.169.253-.169.38-.463.38-.758m.42-2.65c0-.211-.084-.464-.21-.632l-.674-.842c-.336-.42-.968-.505-1.388-.168-.253.21-.38.463-.38.757 0 .21.085.463.211.632l.674.841s.378.337.673.379c.252 0 .505 0 .715-.21.253-.21.379-.463.379-.758Zm-1.01-4.377s-.21-.084-.295-.084c-.252 0-.505.042-.715.21-.21.168-.379.463-.379.757 0 .21.085.463.21.632l.674.841s.42.337.673.379c.253 0 .505 0 .716-.21.252-.21.378-.463.378-.758 0-.21-.084-.463-.21-.631l-.673-.842-.21-.21c.336.168.715.126 1.051-.126.253-.21.379-.463.379-.758 0-.21-.084-.463-.21-.631l-.674-.842a1.094 1.094 0 0 0-.673-.378c-.252 0-.505.042-.715.21-.253.21-.379.463-.379.758 0 .21.084.462.21.63l.674.842s.126.127.21.169m1.557-3.577c0-.21-.084-.421-.21-.631l-.674-.842s-.42-.337-.673-.379c-.252 0-.505 0-.715.21-.253.169-.379.463-.379.758 0 .21.084.463.21.631l.674.842c.336.42.967.505 1.388.168a.997.997 0 0 0 .379-.63v-.127Zm1.304 11.909s-.378-.337-.673-.38c-.252 0-.505.043-.715.211-.21.169-.379.463-.379.758 0 .168.042.336.126.505l.085.168h2.566l-1.052-1.305.042.043Zm.926-1.305c0-.21-.084-.463-.21-.631l-.673-.842a1.094 1.094 0 0 0-.674-.378c-.252 0-.505.041-.715.21a.977.977 0 0 0-.379.8c0 .21.084.462.21.63l.674.842c.336.421.968.505 1.389.169.252-.169.378-.463.378-.758m.463-2.65c0-.211-.084-.464-.21-.632l-.673-.842c-.337-.42-.968-.505-1.39-.168-.252.21-.378.463-.378.757 0 .21.084.463.21.632l.674.841s.379.337.673.379c.253 0 .505 0 .715-.21.253-.21.38-.463.38-.758Zm.253-2.652c0-.21-.084-.42-.21-.631l-.674-.842c-.505-.42-1.01-.463-1.389-.168-.252.168-.378.463-.378.757 0 .21.084.463.21.632l.673.841c.337.42.968.505 1.389.168a.654.654 0 0 0 .252-.336.849.849 0 0 0 .127-.463m1.599 6.607s-.421-.337-.674-.38c-.252 0-.505.043-.715.211-.252.169-.379.463-.379.758 0 .168.042.336.127.505l.084.168h2.567l-1.01-1.305v.043Zm.925-1.305c0-.21-.084-.42-.21-.59l-.673-.84a1.094 1.094 0 0 0-.673-.38c-.253 0-.505.043-.716.211a.977.977 0 0 0-.379.8c0 .21.085.462.21.63l.674.842c.337.421.968.505 1.389.169.252-.169.378-.463.378-.758v-.084ZM44.186 10.532c.631 0 1.094.505 1.094 1.094 0 .59-.505 1.136-1.094 1.136-.589 0-1.136-.505-1.136-1.136 0-.631.505-1.094 1.136-1.094ZM22.22 9.396c.84 0 1.514.673 1.514 1.515 0 .841-.673 1.515-1.515 1.515a1.509 1.509 0 0 1-1.515-1.515c0-.842.674-1.515 1.515-1.515ZM37.196 20.673c.842 0 1.557.673 1.557 1.557 0 .884-.715 1.557-1.557 1.557a1.581 1.581 0 0 1-1.557-1.557c0-.842.715-1.557 1.557-1.557ZM30.508 15.792c1.767 0 3.24 1.43 3.24 3.24 0 1.81-1.473 3.24-3.24 3.24-1.768 0-3.24-1.472-3.24-3.24 0-1.767 1.472-3.24 3.24-3.24Z" fill="#fff"/></g><defs><linearGradient id="paint0_linear_317_129365" x1="61.846" y1="64" x2="-4.1" y2="-4.205" gradientUnits="userSpaceOnUse"><stop stop-color="currentColor"/><stop offset="1" stop-color="currentColor" stop-opacity=".1"/></linearGradient><clipPath id="clip0_317_129365"><path fill="#fff" d="M0 0h64v64H0z"/></clipPath></defs></svg>
