<svg viewBox="0 0 16 16" fill="none" xmlns="http://www.w3.org/2000/svg"><path d="m8.022 15.22-.02.016-.002.001a24.76 24.76 0 0 1-2.729-3.05C3.938 10.415 2.751 8.27 2.75 6.339c.015-1.502.585-2.928 1.573-3.971C5.31 1.325 6.633.75 8 .75s2.69.575 3.677 1.618c.988 1.043 1.558 2.47 1.573 3.971-.001 1.933-1.18 4.078-2.508 5.849A24.351 24.351 0 0 1 8.28 14.98a10.68 10.68 0 0 1-.256.238l-.002.002Z" stroke="currentColor" stroke-width="1.5"/><circle cx="8" cy="6" r="2" stroke="currentColor" stroke-width="1.5"/></svg>
