<svg fill="none" xmlns="http://www.w3.org/2000/svg" viewBox="0 0 64 64"><g clip-path="url(#clip0_317_129819)"><rect width="64" height="64" rx="16" fill="url(#paint0_linear_317_129819)"/><path fill-rule="evenodd" clip-rule="evenodd" d="m20.492 11.229-7.168 1.92.31 1.156 7.168-1.92-.31-1.156Zm.151 5.494a5.837 5.837 0 0 1-.897-.42l.897-1.894c.283.131.566.262.887.382l-.848 1.921-.039.01Zm3.85 1.57-1.93-.721.8-1.95c.605.252 1.247.492 1.88.695l-.712 1.967-.039.01Zm3.969 1.25h-.004c-.67-.192-1.34-.384-1.97-.586l.624-1.985c.449.144.892.268 1.352.396l.574.162-.538 2.003-.038.01Zm4.023.988c-.699-.143-1.36-.297-2.02-.45l.488-2.031a36.78 36.78 0 0 0 1.982.46l-.44 2.06-.01-.04Zm4.126.753-2.066-.314.362-2.038h.001c.65.115 1.3.23 1.978.296l-.275 2.056Zm4.15.375a59.383 59.383 0 0 1-2.104-.139l.188-2.074a35.9 35.9 0 0 0 1.504.105l.473.026-.062 2.082Zm4.199-.05c-.686.059-1.381.08-2.077.102h-.003l-.025-2.1a34.33 34.33 0 0 0 2.002-.082l.141 2.069-.038.01Zm8.628-3.263-8.085-1.964 2.302 7.975 5.783-6.01ZM15.501 30.38a57.685 57.685 0 0 1-.469-.38l1.288-1.668c.568.426 1.098.862 1.627 1.297l.002.002-1.348 1.6-.028.05c-.345-.315-.705-.605-1.072-.9ZM19.532 34c-.19-.185-.38-.364-.567-.54a37.578 37.578 0 0 1-.879-.85l1.407-1.533c.491.447.993.932 1.505 1.456l-1.466 1.467Zm2.797 2.885c-.463-.496-.926-.991-1.379-1.448l1.515-1.438c.463.495.926.99 1.4 1.525l-1.564 1.41.028-.05Zm2.597 3.063a36.463 36.463 0 0 0-1.246-1.566l1.585-1.334c.145.182.294.362.443.543.299.36.597.72.862 1.09l-1.644 1.267Zm2.281 3.272c-.358-.565-.716-1.13-1.102-1.647l1.703-1.2c.396.556.803 1.149 1.172 1.752l-1.773 1.095Zm1.917 3.452c-.281-.586-.6-1.161-.92-1.737l1.831-1.027.99 1.841-1.863.912-.038.01ZM13.386 28.789l-.01-.038 1.24-1.695c-.089-.062-.181-.123-.276-.185-.179-.118-.364-.24-.538-.382l-1.19 1.723c.265.218.52.398.774.577Zm21.47 17.998L32.541 54.8l-5.783-6.01 8.096-2.004Zm8.497-14.835 4.157 7.189-8.343.005 1.675-2.845-24.58-14.191.875-1.515 24.58 14.19 1.636-2.833ZM13.32 17.924l.32-1.194 7.169 1.92-.32 1.195-7.169-1.92Zm-1.188 2.204-.875.875 5.25 5.245.874-.875-5.25-5.245ZM7.88 22.58l1.195-.32 1.92 7.168-1.194.32-1.921-7.168Z" fill="#fff"/></g><defs><linearGradient id="paint0_linear_317_129819" x1="61.846" y1="64" x2="-4.1" y2="-4.205" gradientUnits="userSpaceOnUse"><stop stop-color="currentColor"/><stop offset="1" stop-color="currentColor" stop-opacity=".1"/></linearGradient><clipPath id="clip0_317_129819"><path fill="#fff" d="M0 0h64v64H0z"/></clipPath></defs></svg>
