<svg fill="none" xmlns="http://www.w3.org/2000/svg" viewBox="0 0 64 64"><g clip-path="url(#clip0_318_112980)"><rect width="64" height="64" rx="16" fill="url(#paint0_linear_318_112980)"/><path d="M48.675 15.083a1.046 1.046 0 0 0-.485-.658 1.06 1.06 0 0 0-.795-.103c-1.454.484-2.872.657-4.256.657-5.12 0-9.34-2.768-10.275-3.425-.138-.104-.172-.138-.172-.138-.035 0-.07-.035-.104-.07h-.035c-.034 0-.07-.034-.138-.069H31.688c-.034 0-.069 0-.138.07h-.035s-.069.034-.104.069c0 0-.069.034-.173.138-.934.657-5.154 3.425-10.274 3.425-1.35 0-2.768-.173-4.256-.657-.276-.07-.553-.07-.795.103-.242.139-.415.381-.485.658 0 .034-.588 2.975-.588 7.334 0 4.36.588 10.136 2.976 15.74 2.387 5.605 6.607 11.037 13.768 14.531.035 0 .104.034.139.034h.553c.035 0 .104 0 .139-.034 7.161-3.494 11.382-8.96 13.769-14.53 2.387-5.605 2.975-11.382 2.975-15.74 0-4.325-.588-7.266-.588-7.335m-4.186 22.314c-2.18 5.154-5.95 10.032-12.385 13.32-6.435-3.288-10.206-8.166-12.386-13.32-2.248-5.259-2.802-10.794-2.802-14.98 0-2.076.139-3.806.277-5.05 0-.312.07-.589.104-.831 1.28.311 2.56.45 3.736.45 5.328 0 9.548-2.526 11.07-3.564 1.523 1.038 5.743 3.529 11.071 3.564 1.21 0 2.456-.139 3.736-.45.035.242.07.519.104.83.139 1.21.277 2.975.277 5.051 0 4.186-.554 9.721-2.802 14.98ZM32.588 17.435l-.139-.104s-.034 0-.069-.034c0 0-.07 0-.104-.035H31.861c-.034 0-.069 0-.104.035 0 0-.069 0-.069.034 0 0-.034 0-.138.104-.658.485-3.667 2.457-7.334 2.457a9.785 9.785 0 0 1-3.045-.485c-.173-.069-.415-.034-.588.07-.173.103-.277.276-.346.484 0 0-.415 2.145-.415 5.224s.415 7.23 2.11 11.243l16.606-16.606c-2.975-.38-5.328-1.937-5.916-2.352m-8.614 22.798c.415.623.9 1.246 1.419 1.834l18.82-18.82c-.07-1.419-.243-2.456-.312-2.94l-19.962 19.96.035-.034Zm7.75 6.573s.069 0 .103.035H32.276s.07 0 .104-.035c5.12-2.49 8.13-6.4 9.825-10.378 1.003-2.387 1.557-4.844 1.868-7.092L28.54 44.904a18.458 18.458 0 0 0 3.217 1.937Z" fill="#fff"/></g><defs><linearGradient id="paint0_linear_318_112980" x1="61.846" y1="64" x2="-4.1" y2="-4.205" gradientUnits="userSpaceOnUse"><stop stop-color="currentColor"/><stop offset="1" stop-color="currentColor" stop-opacity=".1"/></linearGradient><clipPath id="clip0_318_112980"><path fill="#fff" d="M0 0h64v64H0z"/></clipPath></defs></svg>
