<svg fill="none" xmlns="http://www.w3.org/2000/svg" viewBox="0 0 65 64"><g clip-path="url(#clip0_318_113200)"><rect x=".409" width="64" height="64" rx="16" fill="url(#paint0_linear_318_113200)"/><path d="M31.442 15.86c0 .688.162 1.416.445 2.063a3.889 3.889 0 0 0-1.699 2.508l-.162.202c-1.011-.809-2.265-1.214-3.56-1.214-.849 0-1.698.162-2.467.567-2.71 1.335-3.883 4.57-2.71 7.322a3.881 3.881 0 0 0-1.74 3.479 2.6 2.6 0 0 0-.93 2.346 10.717 10.717 0 0 0 5.946 1.78c5.947 0 10.72-4.855 10.72-10.76 0-3.318-1.537-6.311-3.924-8.293m13.39-6.756c-.769 0-1.537.162-2.265.526-.769.405-1.457.971-1.942 1.659-1.011-.81-2.265-1.214-3.56-1.214-.85 0-1.699.202-2.467.566-1.902.93-3.034 2.792-3.156 4.774 2.59 2.022 4.288 5.178 4.288 8.737 0 6.15-4.976 11.125-11.084 11.125-2.144 0-4.126-.607-5.825-1.659 0 .121.081.243.162.364.162.324.364.567.607.769a5.205 5.205 0 0 0 1.699 5.38c.97.769 2.103 1.173 3.276 1.173a5.135 5.135 0 0 0 4.005-1.901 5.071 5.071 0 0 0 1.092-2.306c.445.121.89.162 1.335.162.81 0 1.618-.162 2.347-.526.404.08.809.162 1.213.162.85 0 1.74-.203 2.508-.648a5.5 5.5 0 0 0 1.86-1.739 5.643 5.643 0 0 0 3.277 1.052 5.6 5.6 0 0 0 2.751-.728A5.578 5.578 0 0 0 47.34 32h.607a5.6 5.6 0 0 0 2.75-.728 5.6 5.6 0 0 0 2.468-6.998c.647-.688 1.052-1.578 1.214-2.468.12-.485.202-1.011.12-1.537a2.686 2.686 0 0 0 .486-3.236 2.607 2.607 0 0 0-2.306-1.376c-.445 0-.89.122-1.294.324h-.08c-.486-.162-1.053-.324-1.578-.364a5.189 5.189 0 0 0-.324-3.64c-.89-1.861-2.75-2.913-4.652-2.913" fill="#fff" fill-opacity=".3"/><path fill-rule="evenodd" clip-rule="evenodd" d="M8.994 24.154c-.04-8.61 6.898-15.59 15.508-15.59 8.566 0 15.546 6.935 15.548 15.504.04 3.111-.872 5.993-2.441 8.427l2.21 2.117 1.18-1.22 13.904 13.776-.052.051c.695.812 1.006 1.725.97 2.64-.041 1.047-.533 2.039-1.31 2.837l-1.29 1.33-.001.002c-.844.888-1.9 1.408-3.03 1.408-.99 0-1.965-.381-2.821-1.237l-.001-.001L33.83 40.785l1.291-1.331-2.267-2.204a15.344 15.344 0 0 1-8.312 2.41c-8.567 0-15.548-6.936-15.549-15.506Zm29.328-.083c0-7.611-6.207-13.819-13.819-13.82-7.653.04-13.821 6.249-13.821 13.86 0 7.613 6.208 13.82 13.82 13.82 7.65 0 13.82-6.245 13.82-13.86Zm-1.762 9.842a16.838 16.838 0 0 1-2.337 2.31l2.081 1.993 2.294-2.325-2.038-1.978Zm4.453 1.951-4.763 4.868L48.6 52.965c.531.53 1.057.743 1.59.743.56 0 1.208-.284 1.787-.862l1.35-1.393.078-.039c.4-.437.68-.97.73-1.52.052-.553-.125-1.19-.78-1.844v-.001L41.013 35.864Zm-16.51-23.167c-6.288 0-11.334 5.089-11.334 11.374 0 6.288 5.089 11.334 11.374 11.334 6.289 0 11.334-5.13 11.334-11.374 0-6.247-5.088-11.334-11.374-11.334Zm-7.469 3.946a10.462 10.462 0 0 1 7.428-3.082c5.768 0 10.47 4.701 10.51 10.47 0 5.77-4.703 10.51-10.47 10.51s-10.47-4.701-10.51-10.47c0-2.808 1.068-5.454 3.042-7.428Zm3.544 5.325c-1.415 0-2.427 1.092-2.427 2.427 0 1.294 1.012 2.387 2.427 2.387 1.416 0 2.428-1.093 2.428-2.428 0-1.294-1.012-2.386-2.428-2.386Zm0 .768c.93 0 1.578.728 1.578 1.659 0 .93-.647 1.658-1.578 1.658-.93 0-1.577-.728-1.577-1.658 0-.93.647-1.659 1.577-1.659Zm3.398-.687V26.7h.81v-1.902h2.345v-.728h-2.346v-1.254h2.67v-.768h-3.479Zm4.37 4.652v-4.652h3.438v.768h-2.63v1.254H31.5v.728h-2.346v1.902h-.809Z" fill="#fff"/></g><defs><linearGradient id="paint0_linear_318_113200" x1="62.255" y1="64" x2="-3.691" y2="-4.205" gradientUnits="userSpaceOnUse"><stop stop-color="currentColor"/><stop offset="1" stop-color="currentColor" stop-opacity=".1"/></linearGradient><clipPath id="clip0_318_113200"><path fill="#fff" transform="translate(.41)" d="M0 0h64v64H0z"/></clipPath></defs></svg>
