<svg width="88" height="88" viewBox="0 0 88 88" fill="none" xmlns="http://www.w3.org/2000/svg">
    <path d="M27.1803 6.16426L24.0594 0L20.9385 6.16426L14.0403 7.19174L19.0098 12.029L17.8673 18.8284L22.8824 16.2572L10.5149 38.6584V49.3453L7.58452 47.2342C6.92307 46.7577 6 47.2304 6 48.0456V88H82V56.5047C82 55.6883 81.0746 55.2159 80.4134 55.6948L75.2277 59.451L70.0421 55.6948C69.3809 55.2159 68.4554 55.6883 68.4554 56.5047V67.9273H63.1881V56.5047C63.1881 55.6883 62.2627 55.2159 61.6015 55.6948L56.4158 59.451L51.2302 55.6948C50.569 55.2159 49.6436 55.6883 49.6436 56.5047V67.9273H42.1188V48.0456C42.1188 47.2304 41.1957 46.7577 40.5343 47.2343L37.604 49.3453V38.6584L25.2364 16.2572L30.2515 18.8284L29.109 12.029L34.0785 7.19174L27.1803 6.16426Z" fill="url(#paint0_linear_1854_6425)"/>
    <circle cx="24.5" cy="60.5" r="7.5" stroke="white" stroke-width="2"/>
    <path d="M24 57V60.5H27.5" stroke="white" stroke-width="2" stroke-linecap="round" stroke-linejoin="round"/>
    <defs>
        <linearGradient id="paint0_linear_1854_6425" x1="79.4423" y1="88" x2="-10.7101" y2="7.47483" gradientUnits="userSpaceOnUse">
            <stop stop-color="#32A3FD"/>
            <stop offset="1" stop-color="#32A3FD" stop-opacity="0.1"/>
        </linearGradient>
    </defs>
</svg>
