<svg width="200" height="52" viewBox="0 0 200 52" fill="none" xmlns="http://www.w3.org/2000/svg">
<g clip-path="url(#clip0_842_106)">
<path d="M82.0936 14.0353L85.3285 11.6326H74.5291V26.0163H85.3285V23.63H77.6169V19.9435H84.1848V17.5408H77.6169V14.0353H82.0936Z" fill="#21A038"/>
<path d="M66.3762 17.2445H62.6348V14.0353H68.6145L71.8331 11.6326H59.5469V26.0163H65.9841C69.5948 26.0163 71.6697 24.3706 71.6697 21.4905C71.6533 18.7586 69.7908 17.2445 66.3762 17.2445ZM65.837 23.63H62.6185V19.6473H65.837C67.7976 19.6473 68.6962 20.3221 68.6962 21.6387C68.7126 22.9882 67.7486 23.63 65.837 23.63Z" fill="#21A038"/>
<path d="M94.0691 11.6326H88.1875V26.0163H91.2753V21.9349H94.0691C97.8271 21.9349 100.147 19.9435 100.147 16.7672C100.147 13.6075 97.8271 11.6326 94.0691 11.6326ZM94.0038 19.5486H91.2753V14.0353H94.0038C95.9806 14.0353 97.0591 15.0228 97.0591 16.8002C97.0591 18.5776 95.9806 19.5486 94.0038 19.5486Z" fill="#21A038"/>
<path d="M54.2535 22.906C53.4366 23.3503 52.5217 23.5808 51.5904 23.5808C48.813 23.5808 46.8034 21.5894 46.8034 18.8246C46.8034 16.0761 48.813 14.0683 51.5904 14.0683C52.587 14.0519 53.5836 14.3646 54.4005 14.957L56.6062 13.3114L56.4592 13.1797C55.1685 12.0441 53.4366 11.4352 51.476 11.4352C49.3357 11.4352 47.3915 12.1593 46.0191 13.4759C44.6304 14.8089 43.8625 16.6686 43.8625 18.7259C43.8625 20.7994 44.6304 22.6921 46.0191 24.058C47.4079 25.424 49.3521 26.181 51.476 26.181C53.698 26.181 55.6423 25.4075 56.9493 23.9757L54.956 22.4946L54.2535 22.906Z" fill="#21A038"/>
<path d="M34.272 11.5012C34.8276 12.2254 35.3177 13.0317 35.6935 13.8876L24.8451 21.9517L20.3031 19.0881V15.632L24.8451 18.4956L34.272 11.5012Z" fill="#21A038"/>
<path d="M15.6958 18.8245C15.6958 18.6764 15.6958 18.5118 15.7121 18.3637L12.9673 18.2321C12.951 18.4296 12.951 18.627 12.951 18.8245C12.951 22.1324 14.2907 25.1442 16.4473 27.3166L18.3915 25.3581C16.7087 23.6795 15.6958 21.3754 15.6958 18.8245Z" fill="url(#paint0_linear_842_106)"/>
<path d="M24.845 9.60847C24.9921 9.60847 25.1555 9.60847 25.3025 9.62493L25.4332 6.86009C25.2372 6.84363 25.0411 6.84363 24.845 6.84363C21.5611 6.84363 18.5712 8.19314 16.4146 10.3655L18.3588 12.324C20.0253 10.6288 22.3289 9.60847 24.845 9.60847Z" fill="url(#paint1_linear_842_106)"/>
<path d="M24.8451 28.0571C24.6981 28.0571 24.5347 28.0571 24.3877 28.0407L24.257 30.8056C24.453 30.822 24.6491 30.822 24.8451 30.822C28.1291 30.822 31.1189 29.4725 33.2756 27.3002L31.3314 25.3417C29.6649 27.0204 27.3775 28.0571 24.8451 28.0571Z" fill="url(#paint2_linear_842_106)"/>
<path d="M30.008 11.2049L32.328 9.47689C30.2858 7.8147 27.688 6.81079 24.8452 6.81079V9.57564C26.7567 9.60855 28.5376 10.201 30.008 11.2049Z" fill="url(#paint3_linear_842_106)"/>
<path d="M36.7555 18.8249C36.7555 18.0843 36.6902 17.3766 36.5595 16.6689L33.9944 18.578C33.9944 18.6602 33.9944 18.7425 33.9944 18.8249C33.9944 21.5403 32.8345 23.976 30.9719 25.6712L32.8181 27.7283C35.2525 25.5395 36.7555 22.3632 36.7555 18.8249Z" fill="#21A038"/>
<path d="M24.8451 28.0571C22.1493 28.0571 19.7313 26.8887 18.0485 25.0125L16.0062 26.8722C18.1792 29.2914 21.3324 30.8219 24.8451 30.8219V28.0571Z" fill="url(#paint4_linear_842_106)"/>
<path d="M18.7021 11.9949L16.8559 9.93774C14.4542 12.1266 12.9348 15.3029 12.9348 18.8412H15.6795C15.6959 16.1258 16.8559 13.6736 18.7021 11.9949Z" fill="url(#paint5_linear_842_106)"/>
<path d="M56.7859 34.344L52.2112 41.9803H50.9205L46.2315 34.4427V45.14H43.6827V30.7727H46.9014L51.623 38.59L56.3121 30.7727H59.3345V45.14H56.7859V34.344Z" fill="#632895"/>
<path d="M71.9475 38.9192H65.3797V42.7866H72.9115V45.14H62.831V30.7727H72.6991V33.1261H65.3797V36.5492H71.9475V38.9192Z" fill="#632895"/>
<path d="M85.4427 33.1261H78.303V45.14H75.7542V30.7727H85.4263V33.1261H85.4427Z" fill="#632895"/>
<path d="M98.546 45.14H95.8338L94.4614 41.7334H87.9262L86.5865 45.14H84.0051L89.7887 30.7727H92.6805L98.546 45.14ZM93.5301 39.3799L91.1937 33.4882L88.8574 39.3799H93.5301Z" fill="#632895"/>
<path d="M113.462 34.344L108.871 41.9803H107.581L102.892 34.4427V45.14H100.343V30.7727H103.561L108.283 38.59L112.989 30.7727H116.012V45.14H113.462V34.344Z" fill="#632895"/>
<path d="M132.349 45.14H129.637L128.264 41.7334H121.73L120.39 45.14H117.808L123.592 30.7727H126.483L132.349 45.14ZM127.334 39.3799L124.997 33.4882L122.66 39.3799H127.334Z" fill="#632895"/>
<path d="M136.711 40.6637V45.14H134.163V30.7727H138.917C141.171 30.7727 142.805 31.1841 143.819 31.9906C144.831 32.797 145.338 34.0148 145.338 35.6276C145.338 37.3063 144.798 38.5736 143.704 39.3964C142.609 40.2358 141.024 40.6471 138.917 40.6471L136.711 40.6637ZM136.711 33.1261V38.2938H139.097C140.29 38.2938 141.188 38.0798 141.792 37.6684C142.397 37.257 142.691 36.5492 142.691 35.5618C142.691 34.6731 142.413 34.0477 141.858 33.6692C141.302 33.3072 140.404 33.1097 139.146 33.1097L136.711 33.1261Z" fill="#632895"/>
<path d="M150.484 45.14H147.936V30.7727H150.484V36.8126H152.624L157.215 30.7727H160.319L154.879 37.6026L161.202 45.14H157.934L152.755 38.9192H150.501L150.484 45.14Z" fill="#632895"/>
<path d="M172.116 38.9192H165.548V42.7866H173.079V45.14H162.999V30.7727H172.867V33.1261H165.548V36.5492H172.116V38.9192Z" fill="#632895"/>
<path d="M186.509 33.1261H181.706V45.14H179.157V33.1261H174.436V30.7727H186.526L186.509 33.1261Z" fill="#632895"/>
</g>
<defs>
<linearGradient id="paint0_linear_842_106" x1="16.9833" y1="26.9671" x2="13.9372" y2="18.2259" gradientUnits="userSpaceOnUse">
<stop offset="0.1444" stop-color="#F2E913"/>
<stop offset="0.3037" stop-color="#E7E518"/>
<stop offset="0.5823" stop-color="#CADB26"/>
<stop offset="0.891" stop-color="#A3CD39"/>
</linearGradient>
<linearGradient id="paint1_linear_842_106" x1="17.2118" y1="10.8352" x2="24.9703" y2="7.9" gradientUnits="userSpaceOnUse">
<stop offset="0.0592" stop-color="#0FA8E0"/>
<stop offset="0.5385" stop-color="#0099F9"/>
<stop offset="0.9234" stop-color="#0291EB"/>
</linearGradient>
<linearGradient id="paint2_linear_842_106" x1="24.0726" y1="29.1564" x2="32.8362" y2="27.19" gradientUnits="userSpaceOnUse">
<stop offset="0.1226" stop-color="#A3CD39"/>
<stop offset="0.2846" stop-color="#86C339"/>
<stop offset="0.8693" stop-color="#21A038"/>
</linearGradient>
<linearGradient id="paint3_linear_842_106" x1="24.2735" y1="7.7595" x2="31.7703" y2="10.0558" gradientUnits="userSpaceOnUse">
<stop offset="0.0566" stop-color="#0291EB"/>
<stop offset="0.79" stop-color="#0C8ACB"/>
</linearGradient>
<linearGradient id="paint4_linear_842_106" x1="16.706" y1="26.5427" x2="24.8707" y2="29.5712" gradientUnits="userSpaceOnUse">
<stop offset="0.1324" stop-color="#F2E913"/>
<stop offset="0.2977" stop-color="#EBE716"/>
<stop offset="0.5306" stop-color="#D9E01F"/>
<stop offset="0.8023" stop-color="#BBD62D"/>
<stop offset="0.9829" stop-color="#A3CD39"/>
</linearGradient>
<linearGradient id="paint5_linear_842_106" x1="13.9622" y1="19.1658" x2="17.2755" y2="10.6093" gradientUnits="userSpaceOnUse">
<stop offset="0.0698" stop-color="#A3CD39"/>
<stop offset="0.2599" stop-color="#81C55F"/>
<stop offset="0.9216" stop-color="#0FA8E0"/>
</linearGradient>
<clipPath id="clip0_842_106">
<rect width="173.509" height="44" fill="white" transform="translate(13 4)"/>
</clipPath>
</defs>
</svg>
