<svg fill="none" xmlns="http://www.w3.org/2000/svg" viewBox="0 0 64 64"><g clip-path="url(#clip0_132_31265)"><rect width="64" height="64" rx="16" fill="url(#paint0_linear_132_31265)"/><path d="M10 8.102a1 1 0 0 1 1-1h12.813a1 1 0 0 1 .848.47l3.865 6.184a1 1 0 0 1 0 1.06l-3.865 6.183a1 1 0 0 1-.848.47H11a1 1 0 0 1-1-1V8.102ZM10 25.204a1 1 0 0 1 1-1h22.813a1 1 0 0 1 .848.47l3.865 6.184a1 1 0 0 1 0 1.06L34.66 38.1a1 1 0 0 1-.848.47H11a1 1 0 0 1-1-1V25.204ZM10 42.204a1 1 0 0 1 1-1h37.813a1 1 0 0 1 .848.47l3.865 6.184a1 1 0 0 1 0 1.06L49.66 55.1a1 1 0 0 1-.848.47H11a1 1 0 0 1-1-1V42.204Z" fill="#fff"/><path d="m13 17 3.233-7.597h1.53L20.995 17h-1.734l-.69-1.692h-3.19L14.691 17H13Zm2.974-3.157h2.004l-1.002-2.446-1.002 2.446ZM14 35.102v-7.543h3.502c.87 0 1.527.223 1.972.668.345.345.517.78.517 1.304 0 .711-.33 1.254-.991 1.627.467.18.819.417 1.056.711.237.288.355.676.355 1.164 0 .675-.251 1.189-.754 1.541-.503.352-1.192.528-2.069.528H14Zm1.616-4.493h1.53c.798 0 1.197-.273 1.197-.82 0-.25-.094-.441-.28-.57-.187-.137-.457-.205-.809-.205h-1.638v1.595Zm0 3.038h1.972c.783 0 1.175-.28 1.175-.84 0-.546-.41-.82-1.229-.82h-1.918v1.66ZM17.868 52.231c-1.106 0-2.029-.373-2.769-1.12C14.366 50.356 14 49.43 14 48.33c0-1.092.37-2.015 1.11-2.77.74-.754 1.68-1.131 2.823-1.131.654 0 1.203.108 1.649.323.445.209.869.51 1.271.905l-.991 1.142c-.323-.294-.629-.506-.916-.635-.28-.137-.621-.205-1.024-.205-.632 0-1.156.23-1.573.69-.41.452-.614 1.013-.614 1.68 0 .662.205 1.222.614 1.682.417.46.941.69 1.573.69.403 0 .751-.073 1.046-.216.294-.144.607-.367.937-.668l1.056 1.131c-.41.438-.855.762-1.336.97-.474.208-1.06.312-1.757.312Z" fill="currentColor" fill-opacity=".3"/></g><defs><linearGradient id="paint0_linear_132_31265" x1="61.846" y1="64" x2="-4.1" y2="-4.205" gradientUnits="userSpaceOnUse"><stop stop-color="currentColor"/><stop offset="1" stop-color="currentColor" stop-opacity=".1"/></linearGradient><clipPath id="clip0_132_31265"><path fill="#fff" d="M0 0h64v64H0z"/></clipPath></defs></svg>
