<svg fill="none" xmlns="http://www.w3.org/2000/svg" viewBox="0 0 65 64"><g clip-path="url(#clip0_318_113039)"><rect x=".409" width="64" height="64" rx="16" fill="url(#paint0_linear_318_113039)"/><path d="M28.47 44.633c-8.627-.48-15.225-7.889-14.709-16.515.48-8.626 7.889-15.225 16.515-14.709 8.626.516 15.225 7.889 14.709 16.515-.517 8.626-7.89 15.225-16.515 14.709Zm24.625 5.75-7.852-7.851c-.258-.222-.627-.222-.848 0l-.074.073-1.659-1.659a17.94 17.94 0 0 0 4.571-10.911c.553-9.843-6.967-18.285-16.81-18.875-9.88-.59-18.32 6.968-18.874 16.81-.553 9.843 6.967 18.322 16.81 18.875 4.977.294 9.548-1.475 12.976-4.572l1.659 1.66-.074.073a.625.625 0 0 0 0 .848l7.852 7.852c.258.221.627.221.848 0l1.512-1.512c.22-.258.22-.626 0-.847" fill="#fff"/><path d="M28.064 36.301h3.207v-2.986h-3.207v2.986Zm-.148-15.298.443 10.764h2.543l.517-10.764h-3.503Z" fill="#fff"/></g><defs><linearGradient id="paint0_linear_318_113039" x1="62.255" y1="64" x2="-3.691" y2="-4.205" gradientUnits="userSpaceOnUse"><stop stop-color="currentColor"/><stop offset="1" stop-color="currentColor" stop-opacity=".1"/></linearGradient><clipPath id="clip0_318_113039"><path fill="#fff" transform="translate(.41)" d="M0 0h64v64H0z"/></clipPath></defs></svg>
