<svg fill="none" xmlns="http://www.w3.org/2000/svg" viewBox="0 0 64 64"><g clip-path="url(#clip0_132_34228)"><rect width="64" height="64" rx="16" fill="url(#paint0_linear_132_34228)"/><path d="M32.26 57.693v-.305H30.824v.305h.305l.261-4.794h-.305v.305H32.26V52.9v.305h1.003V52.9h-.305l.262 4.794h.305v-.305h-1.22v.61h1.525l-.305-5.404h-.305c-.305 0-.654.044-.96.044H30.78l-.305 5.36h.305c.436 0 .872.044 1.308.044h.13v-.306l.044-.043ZM28.208 57.388v-.305c-.828-.131-1.7-.305-2.527-.567l-.088.305.305.087 1.264-4.62-.305-.086-.087.305c.697.174 1.395.348 2.135.48v-.306l-.261-.043-.784 4.75h.305l.043-.262v.305l.262.044.828-5.055h-.305c-.698-.175-1.395-.305-2.049-.48l-.305-.087-1.438 5.23.305.087a18.69 18.69 0 0 0 2.615.566h.305l.044-.261h-.305l.043-.087ZM36.14 57.388h.306l-.785-4.794h-.305l.044.349c.74-.131 1.438-.262 2.135-.48l-.087-.305-.305.087 1.264 4.62.305-.087-.087-.305c-.828.218-1.7.435-2.572.566v.305l.349-.043h-.305l.044.348c.871-.13 1.743-.348 2.614-.566l.305-.087-1.438-5.23-.305.087c-.654.175-1.35.349-2.048.436h-.305l.872 5.36h.305l-.044-.348.044.087ZM41.238 55.993l.261-.087-1.786-4.445-.262.13.13.262a19.767 19.767 0 0 0 1.962-.915l-.13-.262-.262.131 2.266 4.227.261-.13-.13-.262c-.785.392-1.57.785-2.397 1.09l.13.261.262-.087-.261.087.087.262c.828-.349 1.656-.698 2.44-1.134l.262-.13-2.528-4.75-.261.13c-.61.349-1.264.61-1.918.872l-.261.13 2.004 5.012.262-.087-.087-.261-.044-.044ZM23.065 55.993l.087-.261c-.828-.305-1.612-.698-2.396-1.09l-.131.262.261.13 2.267-4.227-.262-.13-.13.26c.653.35 1.307.655 1.96.916l.131-.261-.261-.131-1.787 4.445.261.087.087-.261-.087.261.262.13 1.874-4.75-.305-.13a25.624 25.624 0 0 1-1.918-.872l-.261-.13-2.528 4.793.261.131c.785.436 1.613.785 2.441 1.133l.262.131.13-.305-.261-.13h.043ZM18.361 53.466l.174-.262c-.74-.48-1.438-1.046-2.091-1.612l-.175.218.218.174 3.094-3.66-.218-.175-.174.218c.523.48 1.133.915 1.7 1.307l.174-.261-.261-.175-2.702 3.966.261.175.174-.262-.174.262.261.174 2.877-4.227-.262-.175a23.66 23.66 0 0 1-1.656-1.264l-.218-.218-3.486 4.097.218.174c.697.567 1.395 1.133 2.135 1.656l.262.175.174-.262-.261-.174-.044.13ZM45.946 53.466l.261-.175-2.702-3.966-.261.175.174.261c.61-.392 1.177-.828 1.743-1.307l-.174-.218-.218.174 3.094 3.661.218-.218-.218-.218a18.71 18.71 0 0 1-2.091 1.57l.174.26.261-.174-.261.175.174.261c.741-.48 1.438-1.046 2.136-1.612l.218-.175-3.487-4.096-.218.174c-.523.48-1.09.872-1.7 1.264l-.26.174 3.05 4.445.261-.174-.174-.261ZM14.35 50.066l.217-.218a24.35 24.35 0 0 1-1.7-2.004l-.26.174.173.262 3.836-2.92-.175-.262-.218.175a25.47 25.47 0 0 0 1.395 1.656l.218-.218-.218-.218-3.487 3.312.218.218.218-.218-.218.218.218.218 3.704-3.53-.217-.218a24.026 24.026 0 0 1-1.351-1.613l-.175-.218-4.314 3.269.174.218c.523.74 1.133 1.395 1.743 2.048l.218.218.218-.218-.218-.218v.087ZM49.956 50.066l-3.487-3.312c.48-.523.959-1.046 1.395-1.612l3.835 2.92a19.169 19.169 0 0 1-1.743 2.004ZM11.123 45.84l.262-.175c-.436-.741-.872-1.526-1.22-2.31l-.262.13.13.262 4.359-2.004-.131-.262-.261.13c.305.655.653 1.308 1.002 1.918l.261-.174-.174-.261-4.097 2.484.175.261.261-.174-.261.174.174.262 4.358-2.659-.174-.261c-.349-.61-.697-1.22-1.003-1.83l-.13-.262-4.881 2.266.13.262c.393.828.785 1.612 1.264 2.397l.175.26.261-.173-.174-.262h-.044ZM53.18 45.84l-4.097-2.485c.349-.61.697-1.22 1.002-1.874l4.358 2.005c-.392.828-.784 1.612-1.264 2.353ZM8.861 41.002l.261-.087c-.261-.828-.523-1.657-.697-2.528l-.305.087.087.305 4.707-1.046v-.305l-.349.044c.175.697.349 1.394.567 2.092l.305-.088-.087-.305-4.533 1.526.087.305.262-.087-.262.087.088.305 4.837-1.613-.087-.305c-.218-.654-.436-1.35-.567-2.048v-.305l-5.36 1.177.087.305c.175.871.436 1.743.697 2.614l.088.306.305-.088-.088-.305-.043-.043ZM55.445 41.002l-4.532-1.526c.218-.653.392-1.35.566-2.048l4.707 1.046c-.175.872-.436 1.743-.697 2.571M7.726 35.816h.305a26.488 26.488 0 0 1-.13-2.659h-.305v.305h4.793v-.305h-.305c0 .741 0 1.438.131 2.18h.305v-.35l-4.794.524v.305h.349-.305v.348l5.055-.523v-.305a16.84 16.84 0 0 1-.13-2.091v-.306H7.29v.306c0 .915.043 1.786.13 2.658v.305h.349v-.305l-.044-.087ZM56.58 35.816l-4.794-.523c.087-.698.13-1.438.13-2.136h4.794c0 .872-.043 1.787-.13 2.659ZM12.52 31.022v-.305l-4.75-.523v.305h.262c.087-.872.218-1.743.436-2.571h-.305l-.044.217 4.707 1.003v-.305l-.218-.087c-.175.697-.262 1.438-.349 2.135h.305v-.261.305h.262c.087-.698.174-1.395.348-2.092v-.305l-5.23-1.133v.305c-.26.871-.392 1.743-.479 2.658v.305l5.317.567v-.305h-.261v.087ZM51.785 30.978c-.087-.697-.175-1.394-.349-2.092l4.707-1.046c.174.872.348 1.744.435 2.615l-4.75.523h-.043ZM13.435 26.838l.088-.305-4.533-1.525-.087.305.305.087c.262-.828.61-1.656.959-2.44l-.262-.131-.13.261 4.358 2.005.13-.262-.261-.13a15.928 15.928 0 0 0-.784 2.004l.305.087.087-.305-.087.305.305.088c.218-.654.479-1.308.784-1.961l.13-.262-4.88-2.266-.13.261c-.393.828-.698 1.657-1.003 2.485l-.087.305 5.142 1.7.087-.306-.305-.087-.13.087ZM50.87 26.838a19.038 19.038 0 0 0-.785-2.005l4.358-2.004c.393.784.698 1.612 1.003 2.484l-4.532 1.525h-.044ZM15.221 22.96l.131-.262-4.097-2.484-.174.262.262.13c.435-.74.958-1.482 1.481-2.179l-.217-.174-.175.261 3.835 2.92.175-.218-.262-.174c-.436.567-.828 1.177-1.22 1.787l.261.13.131-.261-.13.262.26.174c.35-.61.742-1.177 1.177-1.743l.175-.218-4.315-3.269-.174.218a28.455 28.455 0 0 0-1.525 2.223l-.131.261 4.62 2.79.174-.262-.262-.174ZM49.084 22.96c-.392-.61-.784-1.22-1.22-1.744l3.835-2.92a23.985 23.985 0 0 1 1.482 2.18l-4.097 2.483ZM17.793 19.56l.218-.218-3.487-3.312-.218.218.218.218c.61-.654 1.22-1.22 1.918-1.787l-.175-.218-.217.175 3.094 3.66.218-.174-.218-.218c-.567.48-1.09.959-1.57 1.482l.219.218.218-.218-.218.218.218.218a15.71 15.71 0 0 1 1.525-1.438l.218-.175-3.487-4.096-.217.218a19.498 19.498 0 0 0-1.962 1.83l-.217.218 3.922 3.704.218-.218-.218-.218v-.087ZM46.468 19.56A16.954 16.954 0 0 0 44.9 18.08l3.095-3.661c.697.566 1.307 1.177 1.917 1.83l-3.486 3.312h.043ZM21.062 16.815l.262-.175-2.702-3.965-.262.174.175.261c.74-.479 1.482-.958 2.266-1.35l-.13-.262-.262.13 2.266 4.228.261-.13-.13-.262c-.654.348-1.264.697-1.874 1.133l.174.261.261-.174-.261.174.174.262c.567-.392 1.177-.741 1.787-1.09l.261-.13-2.527-4.75-.261.13c-.785.436-1.57.872-2.31 1.395l-.262.174 3.05 4.445.262-.174-.174-.262-.044-.043ZM43.244 16.771c-.61-.392-1.22-.784-1.83-1.09l2.266-4.227c.784.436 1.569.872 2.266 1.395l-2.702 3.966v-.044ZM24.809 14.81l.261-.087-1.787-4.445-.26.13.13.262c.784-.305 1.656-.61 2.484-.828l-.087-.305-.306.087 1.308 4.62.305-.088-.087-.305c-.697.218-1.395.436-2.048.697l.13.262.262-.087-.262.087.088.261c.653-.261 1.307-.479 2.004-.653l.305-.087-1.482-5.186-.305.087c-.871.261-1.7.523-2.527.871l-.262.131 2.005 5.012.262-.13-.088-.262-.043-.044ZM39.452 14.81c-.653-.261-1.35-.48-2.004-.697l1.264-4.62c.871.218 1.7.523 2.527.872l-1.787 4.445ZM28.95 13.677h.305l-.784-4.794h-.305l.043.349c.828-.131 1.7-.218 2.615-.262v-.305h-.305l.261 4.794h.305v-.305c-.74 0-1.438.13-2.179.218v.305l.35-.044h-.306l.044.349c.697-.13 1.394-.174 2.091-.218h.305l-.305-5.404h-.305c-.915.087-1.786.175-2.658.305h-.305l.872 5.36h.305l-.044-.348ZM35.356 13.677c-.697-.087-1.394-.174-2.135-.218l.261-4.794c.872.044 1.787.131 2.615.262l-.74 4.75ZM32.61 5.092h-.523v15.514h.523V5.092Z" fill="#fff"/><path d="M34.747 3.958h-4.794v1.264h4.794V3.958ZM19.156 38.047v-1.632l3.115-2.553c.615-.509 1.039-.914 1.27-1.217.232-.312.348-.656.348-1.03 0-.383-.116-.682-.348-.896-.231-.214-.534-.32-.909-.32-.347 0-.664.097-.95.293-.275.188-.596.509-.962.963l-1.444-1.163c.49-.669.994-1.159 1.511-1.47.526-.313 1.186-.469 1.979-.469.972 0 1.752.268 2.34.802.588.526.882 1.23.882 2.113 0 .508-.098.967-.294 1.377-.196.401-.45.758-.762 1.07-.312.303-.78.695-1.404 1.177l-1.524 1.176h4.078v1.779h-6.926ZM31.043 38.18c-1.052 0-1.916-.25-2.594-.748-.677-.5-1.016-1.16-1.016-1.98 0-1.042.504-1.796 1.511-2.26-.793-.48-1.19-1.171-1.19-2.072 0-.73.303-1.341.91-1.831.614-.49 1.408-.736 2.38-.736.98 0 1.773.245 2.38.736.605.49.909 1.11.909 1.858 0 .883-.397 1.565-1.19 2.046.508.267.886.57 1.136.91.25.338.374.78.374 1.323 0 .847-.338 1.52-1.016 2.019-.668.49-1.533.735-2.594.735Zm-.976-5.99c.25.214.575.321.976.321s.722-.107.963-.32c.25-.215.374-.496.374-.843 0-.303-.125-.562-.374-.776-.24-.214-.562-.32-.963-.32-.41 0-.735.106-.976.32-.24.214-.36.477-.36.79 0 .329.12.605.36.828Zm.976 4.292c.5 0 .892-.111 1.177-.334.294-.223.441-.508.441-.856a.965.965 0 0 0-.455-.842c-.294-.205-.681-.308-1.163-.308-.481 0-.873.107-1.176.321a.985.985 0 0 0-.442.856c0 .33.147.606.442.829.294.223.686.334 1.176.334ZM39.76 32.671c-.428.464-.977.696-1.645.696-.669 0-1.212-.228-1.631-.682-.42-.464-.629-1.034-.629-1.712 0-.677.214-1.243.642-1.698.428-.463.976-.695 1.645-.695.668 0 1.212.232 1.63.695.42.455.63 1.02.63 1.698 0 .669-.215 1.235-.642 1.698Zm-2.969 5.376 6.833-9.36h1.59l-6.832 9.36h-1.59Zm8.718-.589c-.428.464-.976.696-1.645.696-.668 0-1.212-.228-1.63-.682-.42-.464-.63-1.034-.63-1.712 0-.677.215-1.243.642-1.698.428-.463.977-.695 1.645-.695.669 0 1.212.232 1.631.695.42.455.629 1.02.629 1.698 0 .669-.214 1.235-.642 1.698Zm-7.367-5.308a.72.72 0 0 0 .628-.334c.152-.232.227-.513.227-.843 0-.32-.084-.597-.254-.829-.16-.231-.37-.347-.628-.347a.72.72 0 0 0-.629.334c-.151.223-.227.504-.227.842 0 .321.08.598.24.83.17.231.384.347.643.347Zm5.75 4.787a.72.72 0 0 0 .628-.334c.151-.232.227-.513.227-.843 0-.32-.085-.597-.254-.829-.16-.232-.37-.347-.629-.347a.72.72 0 0 0-.628.334c-.151.223-.227.503-.227.842 0 .321.08.597.24.83.17.23.384.347.642.347Z" fill="#fff"/></g><defs><linearGradient id="paint0_linear_132_34228" x1="61.846" y1="64" x2="-4.1" y2="-4.205" gradientUnits="userSpaceOnUse"><stop stop-color="currentColor"/><stop offset="1" stop-color="currentColor" stop-opacity=".1"/></linearGradient><clipPath id="clip0_132_34228"><path fill="#fff" d="M0 0h64v64H0z"/></clipPath></defs></svg>
