<svg fill="none" xmlns="http://www.w3.org/2000/svg" viewBox="0 0 64 64"><g clip-path="url(#clip0_318_112309)"><rect width="64" height="64" rx="16" fill="url(#paint0_linear_318_112309)"/><path fill-rule="evenodd" clip-rule="evenodd" d="M44.367 21.375h-1.662a.691.691 0 0 0-.674.674c0 .36.314.674.674.674h1.662a.69.69 0 0 0 .674-.674.691.691 0 0 0-.674-.674Zm-1.662-.719h1.662c.36 0 .674-.314.674-.674a.691.691 0 0 0-.674-.674h-1.662a.691.691 0 0 0-.674.674c0 .36.314.674.674.674ZM32.393 47.702c-4.088 0-7.413-3.325-7.413-7.413 0-2.201.989-4.313 2.696-5.706l.494-.404v-14.96c0-1.573 1.932-2.876 4.223-2.876s4.223 1.303 4.223 2.876v14.96l.494.404c1.708 1.438 2.696 3.505 2.696 5.706 0 4.088-3.325 7.413-7.413 7.413Zm6.964-14.826V19.174c0-1.573-.809-3.055-2.202-4.089-1.303-.988-3.01-1.527-4.807-1.527-1.797 0-3.504.539-4.807 1.527-1.392 1.034-2.201 2.561-2.201 4.089v13.702c-2.022 1.932-3.19 4.583-3.19 7.413s1.078 5.256 2.965 7.188c1.932 1.932 4.448 2.965 7.188 2.965 2.74 0 5.257-1.033 7.189-2.965 1.931-1.932 2.965-4.448 2.965-7.188 0-2.74-1.168-5.481-3.19-7.413h.09Zm-4.854-9.93v12.58h-.09a5.196 5.196 0 0 1 3.1 4.762c0 2.83-2.336 5.166-5.166 5.166a5.167 5.167 0 0 1-5.167-5.166c0-2.157 1.303-3.954 3.1-4.762v-12.58c0-.853.943-1.572 2.111-1.572 1.169 0 2.112.719 2.112 1.572Zm22.789 9.128c.05-.107.093-.211.128-.31.08-.279 0-.598-.16-.717-.159-.12-.398 0-.477.239-.2.757-2.152 3.108-4.304 3.068-.837 0-1.674-.319-2.55-1.155-1.595-1.594-2.99-2.112-4.145-2.112-2.351 0-3.666 2.152-3.666 2.231a.93.93 0 0 0 0 .797.47.47 0 0 0 .07.07.564.564 0 0 0-.07.133.93.93 0 0 0 0 .797c.16.2.398.2.518 0v-.12s1.116-1.872 3.148-1.872c.996 0 2.272.478 3.746 1.952.956.957 1.992 1.355 2.949 1.355 2.47-.04 4.463-2.311 4.941-3.666.075-.26.01-.555-.128-.69Zm-34.67.546.008-.023c.09-.314 0-.674-.18-.808-.18-.135-.45 0-.54.27-.224.853-2.425 3.503-4.851 3.458-.944 0-1.887-.359-2.875-1.303-1.797-1.797-3.37-2.38-4.673-2.38-2.65 0-4.133 2.425-4.133 2.515-.109.217-.13.493-.064.732-.066.24-.045.515.064.732.18.225.45.225.584 0v-.135s1.258-2.111 3.55-2.111c1.122 0 2.56.539 4.222 2.201 1.079 1.078 2.246 1.527 3.325 1.527 2.785-.044 5.031-2.605 5.57-4.133a.956.956 0 0 0-.008-.542Zm20.4-6.169h2.741c.629 0 1.123.45 1.123.989 0 .539-.494.988-1.123.988h-2.74c-.63 0-1.124-.45-1.124-.988 0-.54.494-.989 1.123-.989Zm0-3.055h2.741c.629 0 1.123.45 1.123.989 0 .539-.494.988-1.123.988h-2.74c-.63 0-1.124-.449-1.124-.988 0-.54.494-.989 1.123-.989Z" fill="#fff"/></g><defs><linearGradient id="paint0_linear_318_112309" x1="61.846" y1="64" x2="-4.1" y2="-4.205" gradientUnits="userSpaceOnUse"><stop stop-color="currentColor"/><stop offset="1" stop-color="currentColor" stop-opacity=".1"/></linearGradient><clipPath id="clip0_318_112309"><path fill="#fff" d="M0 0h64v64H0z"/></clipPath></defs></svg>
