<svg fill="none" xmlns="http://www.w3.org/2000/svg" viewBox="0 0 64 64"><g clip-path="url(#clip0_317_129142)"><rect width="64" height="64" rx="16" fill="url(#paint0_linear_317_129142)"/><path fill-rule="evenodd" clip-rule="evenodd" d="M15.81 45.818h36.652v-27.68H15.811v27.68Zm8.38-9.776v-6.18l-1.354.339-.338-1.397 2.243-.677h1.185v7.915H24.19Zm12.317.042h-1.524l-1.777-5.121-1.778 5.12h-1.524l-2.666-7.914H29.1l1.608 5.333 1.778-5.333h1.481l1.778 5.333 1.608-5.333h1.82l-2.666 7.915Zm13.882-16.125h-5.29v23.955h5.29V19.96Z" fill="#fff"/><path d="M11.432 20.002c0-1.016.846-1.82 1.82-1.82h1.48v27.68h-1.48c-1.016 0-1.82-.805-1.82-1.778V20.002ZM7.422 27.196H10.3v9.565H7.422v-9.565ZM54.8 18.182h-1.524v27.68H54.8c.974 0 1.778-.805 1.778-1.778V20.002c0-.974-.805-1.82-1.778-1.82Z" fill="#fff"/></g><defs><linearGradient id="paint0_linear_317_129142" x1="61.846" y1="64" x2="-4.1" y2="-4.205" gradientUnits="userSpaceOnUse"><stop stop-color="currentColor"/><stop offset="1" stop-color="currentColor" stop-opacity=".1"/></linearGradient><clipPath id="clip0_317_129142"><path fill="#fff" d="M0 0h64v64H0z"/></clipPath></defs></svg>
