<svg fill="none" xmlns="http://www.w3.org/2000/svg" viewBox="0 0 64 64"><g clip-path="url(#clip0_317_129416)"><rect width="64" height="64" rx="16" fill="url(#paint0_linear_317_129416)"/><path d="M34.64 33.514c.518 0 .95-.476.907-.994 0-.433-.216-.735-.519-.908a1.1 1.1 0 0 0-1.037.043c-.26.216-.476.562-.39.994.087.519.52.908.995.865M27.724 29.02c-.432-.26-.994-.217-1.34.086-.389.302-.648.821-.562 1.34 0 .519.303.994.692 1.253.432.26.994.216 1.34-.086.389-.303.648-.822.562-1.34 0-.519-.303-.994-.692-1.253ZM31.095 38.57c.562 0 .95-.518.907-1.123 0-.605-.518-.994-1.08-.95a.81.81 0 0 0-.648.345c-.216.173-.303.475-.216.778 0 .605.518.994 1.08.95" fill="#fff"/><path d="m37.361 26.642-.95 1.123.95.26-.432 2.463 1.859 1.297-1.427 2.118.951 1.988-2.031 1.167-.173 2.29-2.204.043-1.167 1.945-1.988-1.08-1.902 1.167-1.383-1.945-1.296.043-1.038 1.167 1.816-.086 1.512 2.29 2.29-1.383 2.421 1.254 1.383-2.291h2.637l.259-2.766 2.334-1.297-.994-2.593 1.47-2.334-2.032-1.772.302-2.766-1.167-.302ZM23.791 37.878l.735-1.21-1.556-.778.735-2.16-1.34-1.86 1.686-1.512-.39-2.334 2.162-.518.734-2.204 2.118.561 1.643-1.599 1.771 1.47 2.162-.649.259.865.82-1.21-.345-.951-2.55.734-2.031-1.815-1.902 1.902-2.593-.691-.864 2.68-2.55.647.389 2.766-1.945 1.859 1.556 2.247-.951 2.593 2.247 1.167ZM24.138 40.126s.26 0 .303-.13l12.922-14.694a.648.648 0 0 0 0-.778c-.216-.173-.518-.173-.691 0L23.749 39.262c-.173.216-.173.562 0 .735.13.086.26.13.433.086" fill="#fff"/><path d="m15.191 37.964 2.723-1.297c.691 2.075 1.815 3.977 3.458 5.576l1.34-1.513c-4.495-4.322-4.755-11.669-.606-16.38 4.15-4.668 11.194-4.97 15.646-.605l1.34-1.513a12.783 12.783 0 0 0-5.965-3.284l.519-3.847.562.13h.216c.216 0 .389-.086.562-.216l3.63-2.939s.346-.39.346-.648c0-.26 0-.519-.173-.735-.173-.26-.475-.39-.778-.39-.216 0-.389.087-.562.217l-3.587 2.896.778-6.224c0-.26 0-.519-.216-.735a1.024 1.024 0 0 0-.648-.389h-.13c-.476 0-.864.39-.908.865l-.778 6.266-3.328-4.408c-.172-.26-.475-.389-.777-.389-.217 0-.39.087-.562.216-.433.346-.476.951-.173 1.426l3.37 4.495c.174.216.433.346.692.39h.562l-.518 3.76c-3.804-.303-7.65 1.08-10.46 4.148l-2.852-2.722.389-.433s.087-.13.13-.172c.086-.173.173-.39.13-.606l-.303-4.797c0-.26-.13-.518-.303-.691-.173-.173-.432-.26-.691-.26a.799.799 0 0 0-.735.476c-.13.173-.173.389-.13.605l.26 4.71-4.495-4.191s-.432-.26-.692-.26c-.259 0-.475.13-.648.346 0 0-.043.086-.086.13-.26.432-.173.95.172 1.296l4.539 4.192-5.36.39c-.302 0-.561.172-.734.475-.087.173-.173.389-.13.605 0 .562.475.95 1.037.907l5.446-.389c.26 0 .519-.172.691-.388l.346-.476 2.853 2.723c-2.118 3.112-2.81 6.915-2.161 10.502l-3.112 1.47-.216-.519s-.043-.13-.087-.173a.686.686 0 0 0-.432-.346l-4.149-1.555a.955.955 0 0 0-.691 0c-.217.086-.39.302-.476.561-.086.303-.043.605.087.865.13.172.259.302.432.346l4.062 1.512-4.883 2.334c-.216.13-.39.303-.476.562-.086.216-.043.475 0 .735 0 .043.043.086.087.13a.888.888 0 0 0 1.167.302l4.927-2.377-1.686 5.1c-.086.302-.043.605.13.864.13.173.259.303.475.346.475.173.994-.087 1.167-.605l1.729-5.143c.086-.26.043-.52-.087-.778l-.259-.476h.043ZM17.48 54.431l1.513 1.167 5.057-7.909-1.513-1.124-5.056 7.866ZM53.31 19.554l-1.037-1.816-8.47 5.532 1.037 1.816 8.47-5.532ZM30.49 49.244l.087 8.688h1.859l-.13-8.73-1.815.042ZM46.611 31.784l.044 1.988 9.897-.605-.087-1.988-9.854.605ZM44.32 41.509l8.038 4.97.95-1.686-8.038-4.97-.95 1.686ZM38.702 47.3l4.884 7.477 1.555-1.08-4.883-7.478-1.556 1.08ZM42.419 32.649c.13 3.112-.908 6.05-2.94 8.341-4.148 4.711-11.15 4.97-15.645.649l-1.34 1.512c2.507 2.42 5.706 3.63 8.86 3.63 3.545 0 7.045-1.469 9.595-4.408 2.377-2.68 3.587-6.18 3.458-9.81a13.991 13.991 0 0 0-4.192-9.509l-1.34 1.513c2.16 2.118 3.457 4.97 3.544 8.039" fill="#fff"/></g><defs><linearGradient id="paint0_linear_317_129416" x1="61.846" y1="64" x2="-4.1" y2="-4.205" gradientUnits="userSpaceOnUse"><stop stop-color="currentColor"/><stop offset="1" stop-color="currentColor" stop-opacity=".1"/></linearGradient><clipPath id="clip0_317_129416"><path fill="#fff" d="M0 0h64v64H0z"/></clipPath></defs></svg>
