<svg width="32" height="32" viewBox="0 0 32 32" fill="none" xmlns="http://www.w3.org/2000/svg">
<circle cx="16" cy="16" r="16" fill="white"/>
<path d="M21.4163 10.1059C21.4163 10.1059 22.773 9.58651 22.66 10.848C22.6223 11.3674 22.2831 13.1854 22.0193 15.1518L21.1148 20.9769C21.1148 20.9769 21.0394 21.8302 20.361 21.9786C19.6826 22.127 18.665 21.4592 18.4766 21.3108C18.3258 21.1995 15.65 19.5299 14.7078 18.7136C14.4439 18.491 14.1424 18.0458 14.7454 17.5264L18.7027 13.8162C19.155 13.3709 19.6072 12.3321 17.7228 13.5936L12.4465 17.1183C12.4465 17.1183 11.8435 17.4893 10.7128 17.1554L8.2631 16.4133C8.2631 16.4133 7.35858 15.8568 8.9038 15.3002C12.6726 13.5564 17.3083 11.7755 21.4163 10.1059Z" fill="#212121"/>
</svg>
