<svg fill="none" xmlns="http://www.w3.org/2000/svg" viewBox="0 0 64 64"><g clip-path="url(#clip0_318_112188)"><rect width="64" height="64" rx="16" fill="url(#paint0_linear_318_112188)"/><path fill-rule="evenodd" clip-rule="evenodd" d="m29.573 31.984-12.5 12.501A17.782 17.782 0 0 1 11.974 32c0-9.853 7.987-17.84 17.84-17.84 9.797 0 17.75 7.899 17.838 17.675h-16.31l4.134-7.605a.75.75 0 0 0-1.318-.717l-4.526 8.328a.755.755 0 0 0-.06.143Zm.242 19.452c5.155 0 9.841-2.007 13.32-5.282l.05.04c.133.1.1.2 0 .332l-1.459 1.46c-.165.165-.165.265 0 .43.132.132.267.264.403.396.277.27.558.543.825.832a.312.312 0 0 0 .43.033c.266-.133.531-.299.764-.464 1.525-1.062 2.686-2.422 3.615-3.98.066-.133.099-.232-.034-.365l-1.194-1.194c-.232-.232-.232-.232-.464 0L44.645 45.1l-.033-.033s-.232.232-.398.066l-.037-.037a19.362 19.362 0 0 0 5.06-12.362c.374-.004.75-.004.814-.004.265 0 .265.166.265.365l.067-.033v2.388c0 .365 0 .365.364.365h2.023c.2 0 .299-.1.332-.266.53-2.122.697-4.245.299-6.4a11.722 11.722 0 0 0-.266-1.029c-.066-.199-.165-.331-.398-.331h-2.056c-.265 0-.331.1-.331.364v2.455c0 .199-.067.298-.266.298-.065 0-.47-.008-.864-.016a19.367 19.367 0 0 0-5.377-12.343c.194-.2.374-.38.403-.41.166-.165.398.067.398.067h.033c.498.465.962.929 1.426 1.393.116.116.175.174.233.174.058 0 .116-.058.232-.174l1.194-1.194c.132-.133.1-.232.033-.365-.929-1.592-2.09-2.918-3.615-3.98a5.842 5.842 0 0 0-.763-.464.312.312 0 0 0-.431.033c-.267.29-.548.563-.824.832-.137.133-.272.264-.403.396-.166.165-.166.265 0 .43l1.459 1.46c.1.133.133.232 0 .332-.044.029-.248.218-.462.421a19.364 19.364 0 0 0-12.941-4.934c-10.735 0-19.437 8.702-19.437 19.436s8.702 19.436 19.437 19.436Z" fill="#fff"/></g><defs><linearGradient id="paint0_linear_318_112188" x1="61.846" y1="64" x2="-4.1" y2="-4.205" gradientUnits="userSpaceOnUse"><stop stop-color="currentColor"/><stop offset="1" stop-color="currentColor" stop-opacity=".1"/></linearGradient><clipPath id="clip0_318_112188"><path fill="#fff" d="M0 0h64v64H0z"/></clipPath></defs></svg>
