<svg fill="none" xmlns="http://www.w3.org/2000/svg" viewBox="0 0 64 64"><g clip-path="url(#clip0_318_112156)"><rect width="64" height="64" rx="16" fill="url(#paint0_linear_318_112156)"/><path d="M26.714 16.026a3.335 3.335 0 0 0-3.325 3.325v2.16c-2.294-1.828-2.66-5.186-.831-7.48 1.829-2.294 5.187-2.66 7.48-.831 2.295 1.829 2.66 5.187.832 7.48-.233.3-.532.6-.831.832V19.35a3.335 3.335 0 0 0-3.325-3.325Zm15.959 11.97c-.732 0-1.43.232-1.995.664a3.335 3.335 0 0 0-3.325-3.325c-.798 0-1.596.3-2.194.831-.632-1.728-2.56-2.593-4.29-1.961-.298.1-.598.266-.83.465v-1.562c3.191-1.829 4.255-5.918 2.427-9.077-1.829-3.192-5.918-4.289-9.077-2.427-3.192 1.829-4.289 5.918-2.427 9.077.598.997 1.43 1.861 2.427 2.427v7.115a5.962 5.962 0 0 0-2.693-1.895c-.599-.2-1.264-.1-1.795.266a2.018 2.018 0 0 0-.865 1.629v11.736c0 4.39 2.061 8.545 5.586 11.172.299.232.698.166.93-.133.233-.3.167-.698-.132-.931-3.192-2.394-5.087-6.118-5.054-10.108V30.223c0-.233.1-.432.3-.566a.58.58 0 0 1 .564-.1 4.656 4.656 0 0 1 3.126 4.423v5.32c0 .365.299.664.665.664.366 0 .665-.299.665-.665V19.351a2 2 0 0 1 1.995-1.995 2 2 0 0 1 1.994 1.995v15.294c0 .365.3.665.665.665.366 0 .665-.3.665-.665V27.33A2 2 0 0 1 32 25.335a2 2 0 0 1 1.995 1.995v7.315c0 .365.3.665.665.665.366 0 .665-.3.665-.665V28.66a2 2 0 0 1 1.995-1.995 2 2 0 0 1 1.995 1.995v7.315c0 .365.3.665.665.665.366 0 .665-.3.665-.665V31.32a2 2 0 0 1 1.995-1.995 2 2 0 0 1 1.995 1.995v10.64c0 3.89-.133 7.88-1.796 10.273-.233.3-.166.698.133.93.3.234.698.167.931-.132v-.033c1.895-2.693 2.061-6.916 2.061-11.039V31.32a3.335 3.335 0 0 0-3.324-3.324" fill="#fff"/></g><defs><linearGradient id="paint0_linear_318_112156" x1="61.846" y1="64" x2="-4.1" y2="-4.205" gradientUnits="userSpaceOnUse"><stop stop-color="currentColor"/><stop offset="1" stop-color="currentColor" stop-opacity=".1"/></linearGradient><clipPath id="clip0_318_112156"><path fill="#fff" d="M0 0h64v64H0z"/></clipPath></defs></svg>
