<svg fill="none" xmlns="http://www.w3.org/2000/svg" viewBox="0 0 64 64"><g clip-path="url(#clip0_318_112451)"><rect width="64" height="64" rx="16" fill="url(#paint0_linear_318_112451)"/><path d="m34.97 5.84-1.65 8.145-4.152 1.545 4.151 1.46.256 1.048-21.396-4.695-.334 1.628.042.042 22.13 4.836.954 3.91.619-3.566 2.709.592c.697.294 1.23.79 1.602 1.367.376.585.584 1.294.584 2.004 0 .501-.083 1.002-.334 1.503L34.14 39.353l-4.926 11.064-2.296 5.469 1.503.626 2.296-5.47 4.926-11.063 5.868-13.365a3.75 3.75 0 0 1 .853 2.384c0 .5-.083 1.002-.334 1.503L32.01 53.338l-1.336 3.298 1.545.626 1.336-3.256 9.352-21.209-.023-.023.026-.057c.583.668.916 1.544.916 2.461 0 .501-.084 1.002-.334 1.503l-9.185 20.916 1.503.669 9.185-20.917c.292-.71.46-1.42.46-2.171a5.498 5.498 0 0 0-1.712-3.966.676.676 0 0 0-.092-.08 5.413 5.413 0 0 0 .425-2.05 5.41 5.41 0 0 0-2.02-4.204c.039-.251.059-.505.059-.764a5.53 5.53 0 0 0-.835-2.922 5.107 5.107 0 0 0-2.38-2.004h-.084l-2.939-.645.284-1.636 4.572-1.336-4.655-1.67L34.97 5.84ZM47.746 42.106l.752-3.215.668 3.173 2.505.501-2.463.46-.71 2.755-.835-2.755-2.422-.46 2.505-.459Z" fill="#fff"/></g><defs><linearGradient id="paint0_linear_318_112451" x1="61.846" y1="64" x2="-4.1" y2="-4.205" gradientUnits="userSpaceOnUse"><stop stop-color="currentColor"/><stop offset="1" stop-color="currentColor" stop-opacity=".1"/></linearGradient><clipPath id="clip0_318_112451"><path fill="#fff" d="M0 0h64v64H0z"/></clipPath></defs></svg>
