<svg fill="none" xmlns="http://www.w3.org/2000/svg" viewBox="0 0 64 64"><g clip-path="url(#clip0_132_34101)"><rect width="64" height="64" rx="16" fill="url(#paint0_linear_132_34101)"/><path fill-rule="evenodd" clip-rule="evenodd" d="m47.663 20.769 1.015-1.015.937.898s.468.156.624 0l.625-.625s.195-.468 0-.624l-3.162-3.162s-.468-.195-.624 0l-.625.624s-.156.469 0 .625l.937.898-1.093 1.093c-2.81-2.342-6.245-3.826-9.914-4.177v-1.912h1.834c.508 0 .898-.39.898-.898v-1.835a.908.908 0 0 0-.898-.897H30.88a.908.908 0 0 0-.898.897v1.835c0 .507.39.898.898.898h1.835v1.912c-5.504.547-10.422 3.552-13.467 8.158-.273.43-.156.976.235 1.288.429.273.975.156 1.288-.273 5.035-7.612 15.261-9.68 22.873-4.684 7.611 5.035 9.68 15.262 4.684 22.873-5.036 7.611-15.262 9.68-22.873 4.684-1.054-.703-2.07-1.522-2.928-2.46-.312-.39-.898-.428-1.288-.116a.888.888 0 0 0-.117 1.288s.078.078.078.117c6.792 7.533 18.384 8.119 25.879 1.327 7.533-6.792 8.118-18.384 1.327-25.879-.235-.273-.469-.546-.742-.78v-.078ZM34.51 45.906c-2.108 0-4.138-.508-5.972-1.523-.43-.273-1.015-.078-1.25.352-.273.429-.078 1.014.352 1.249 6.87 3.786 15.496 1.288 19.282-5.582 3.786-6.87 1.288-15.496-5.582-19.282a14.192 14.192 0 0 0-6.791-1.757.95.95 0 0 0-.937.937c0 .508.43.898.937.898 6.83 0 12.373 5.543 12.373 12.373 0 6.831-5.543 12.374-12.373 12.374l-.04-.04Zm1.833-12.374c0-1.015-.82-1.834-1.835-1.834-1.015 0-1.834.82-1.834 1.834 0 1.015.82 1.835 1.834 1.835 1.015 0 1.835-.82 1.835-1.835ZM26.429 42.9a.919.919 0 0 1-1.288 0v.04c-.274-.391-.313-.977 0-1.328l6.206-6.206a3.664 3.664 0 0 1 0-3.786c1.014-1.796 3.317-2.381 5.074-1.328 1.796 1.015 2.38 3.318 1.327 5.075-1.015 1.795-3.318 2.38-5.074 1.327L26.429 42.9ZM13.43 28.966h5.504c.507 0 .898-.39.898-.898a.883.883 0 0 0-.898-.898H13.43c-.507 0-.936.43-.936.898s.429.897.936.897Zm9.172 2.732c.508 0 .937.39.937.898a.95.95 0 0 1-.937.936H9.761c-.468 0-.897-.468-.897-.936 0-.469.39-.898.897-.898h12.842Zm3.669 4.567H13.43c-.507 0-.898.43-.898.937 0 .507.39.897.898.897h12.842c.507 0 .898-.429.898-.897 0-.469-.43-.937-.898-.937Zm-5.503 4.605c.508 0 .937.39.937.898a.95.95 0 0 1-.937.937h-9.173c-.468 0-.897-.468-.897-.937 0-.468.39-.898.897-.898h9.173Z" fill="#fff"/></g><defs><linearGradient id="paint0_linear_132_34101" x1="61.846" y1="64" x2="-4.1" y2="-4.205" gradientUnits="userSpaceOnUse"><stop stop-color="currentColor"/><stop offset="1" stop-color="currentColor" stop-opacity=".1"/></linearGradient><clipPath id="clip0_132_34101"><path fill="#fff" d="M0 0h64v64H0z"/></clipPath></defs></svg>
