<svg fill="none" xmlns="http://www.w3.org/2000/svg" viewBox="0 0 65 64"><g clip-path="url(#clip0_318_113001)"><rect x=".409" width="64" height="64" rx="16" fill="url(#paint0_linear_318_113001)"/><path fill-rule="evenodd" clip-rule="evenodd" d="m28.415 10.072 2.77 12.53-1.464.323-1.933-8.74-9.995 17.455H5.614v-1.5h11.31l11.49-20.068Zm15.223 18.98h15.566v1.5H44.665l-9.28 23.904-3.056-13.866 1.465-.322 1.988 9.02 7.856-20.235Z" fill="#fff"/><path d="M31.286 38.875h.167c2.504-1.224 4.007-3.171 4.841-5.119.501-1.168.78-2.393.946-3.506l-7.679 7.68c.501.333 1.002.667 1.614.945m-3.84-3.227c.223.278.446.612.724.89l9.293-9.292c0-.668-.112-1.224-.167-1.447l-9.85 9.85Zm4.285-11.24h-.167c-.334.222-1.836 1.224-3.617 1.224-.5 0-1.001-.056-1.502-.223h-.278c-.112 0-.167.112-.167.223 0 0-.223 1.057-.223 2.56 0 1.502.223 3.56 1.058 5.564l8.18-8.18c-1.503-.222-2.616-.946-2.894-1.168m5.843 9.849c-1.113 2.56-2.95 4.952-6.121 6.566-3.172-1.614-5.008-4.006-6.121-6.566-1.113-2.615-1.392-5.342-1.392-7.4 0-1.002.056-1.893.112-2.505v-.39c.612.168 1.28.223 1.836.223 2.615 0 4.73-1.224 5.453-1.78.724.5 2.838 1.724 5.454 1.78.612 0 1.224-.055 1.836-.222v.39c.056.611.111 1.446.111 2.503 0 2.06-.278 4.786-1.391 7.4m2.059-11.017s-.111-.278-.223-.334a.475.475 0 0 0-.39 0 7.265 7.265 0 0 1-2.114.334c-2.504 0-4.618-1.335-5.064-1.67-.055 0-.11-.055-.11-.055h-.335l-.111.056c-.445.334-2.56 1.67-5.064 1.67a7.265 7.265 0 0 1-2.114-.335h-.39a.376.376 0 0 0-.222.334s-.279 1.503-.279 3.617c0 2.115.279 5.008 1.447 7.79 1.169 2.783 3.228 5.454 6.789 7.179h.334c3.561-1.725 5.62-4.396 6.789-7.178 1.168-2.783 1.446-5.62 1.446-7.79s-.278-3.562-.278-3.618" fill="#fff"/></g><defs><linearGradient id="paint0_linear_318_113001" x1="62.255" y1="64" x2="-3.691" y2="-4.205" gradientUnits="userSpaceOnUse"><stop stop-color="currentColor"/><stop offset="1" stop-color="currentColor" stop-opacity=".1"/></linearGradient><clipPath id="clip0_318_113001"><path fill="#fff" transform="translate(.41)" d="M0 0h64v64H0z"/></clipPath></defs></svg>
