<svg fill="none" xmlns="http://www.w3.org/2000/svg" viewBox="0 0 64 64"><g clip-path="url(#clip0_132_33884)"><rect width="64" height="64" rx="16" fill="url(#paint0_linear_132_33884)"/><path d="M52.664 26.31c.259-.518.389-.82.389-.82.302-.822.518-1.642.604-2.42.13-1.512-.043-2.98-.475-4.363a16.414 16.414 0 0 0-.778-2.03c-.604-1.167-1.296-2.29-2.116-3.284a10.16 10.16 0 0 0-1.296-1.425C46.702 9.678 43.894 8.037 41 7c.26.432.518.864.734 1.253.216.345.432.69.605 1.037.216.388.432.82.605 1.21.173.345.389.733.518 1.08.173.388.346.82.519 1.209.172.388.345.777.475 1.166l.389 1.166c.13.432.302.864.432 1.296.086.346.172.691.259 1.08.13.476.26.95.346 1.426.043.302.086.605.13.95.085.519.172 1.037.215 1.555v.778c0 .561.086 1.166.086 1.728 0 .82-.043 1.685-.172 2.505a16.659 16.659 0 0 1-.39 2.117c-.085.389-.215.735-.301 1.123 2.073-.518 4.017-1.252 5.831-2.376.476-.302.907-.604 1.296-.993" fill="#fff"/><path d="M54.52 25.675c-.216 1.77-1.123 3.24-2.333 4.32-.388.388-.82.69-1.295.993-1.815 1.123-3.802 1.858-5.832 2.376a27.681 27.681 0 0 1-4.666.778c-.432 0-.907.086-1.339.086l.519-2.203c.172-.734.345-1.512.518-2.246.13-.605.216-1.037.216-1.037a67.147 67.147 0 0 1-3.154.95c-1.857.432-3.672.82-5.53 1.21-.604.13-1.252.259-1.857.388-2.635.519-5.27 1.08-7.905 1.512-.518.087-.994.173-1.512.26h-.086c3.024 3.326 6.047 6.652 9.115 9.979l1.295 1.425c1.47 1.598 2.938 3.197 4.493 4.709l.389-1.426c.302-1.123.605-2.203.907-3.326 4.752.95 9.72-.907 12.657-4.622a16.06 16.06 0 0 0 1.426-1.944 14.66 14.66 0 0 0 1.123-2.16c.303-.605.605-1.21.907-1.858.303-.734.605-1.512.864-2.29.087-.215.13-.388.173-.604.173-.605.864-4.19.864-5.27" fill="#fff"/><path d="M25.662 30.988c-.043-.389-.13-.777-.173-1.21-.086-.431-.13-.82-.216-1.166-.086-.345-.13-.69-.216-.993-.086-.303-.13-.562-.173-.735v-.086h-.086c-.26 0-.518-.043-.778-.13a4.359 4.359 0 0 1-.648-.302 5.178 5.178 0 0 1-.518-.475 6.32 6.32 0 0 1-.389-.562c-.086-.173-.216-.389-.302-.562-.087-.172-.13-.345-.216-.561-.043-.173-.087-.302-.087-.475 0-.13-.043-.216-.043-.346v-.13l-10.195-.777-.561.302V23.472c0 .215 0 .432-.087.648-.043.216-.13.475-.259.69-.086.217-.26.476-.432.649a3.295 3.295 0 0 1-.734.561c-.26.13-.605.26-.95.346-.217 0-.821.173-.821.173-.303.086-.778.345-.778.518v.519c0 .388 0 .863.043 1.339 0 .475.087 1.036.13 1.598.043.562.13 1.166.216 1.814.259 1.772.648 3.759 1.296 5.746.605 1.987 1.468 3.93 2.592 5.659 1.08 1.684 2.419 3.153 4.017 4.147 1.512.95 3.24 1.555 5.184 1.555 0 0 .993-.864 1.296-1.253 0 0 .043-.086.086-.13.908-1.08 1.728-2.246 2.29-3.498a16.147 16.147 0 0 0 1.296-4.234l-7.258-8.121 7.387-1.469.087.26ZM31.468 16.546v6.103h1.423v-6.11L37 20.65l1.006-1.006-4.107-4.107h6.105v-1.423H33.9l4.106-4.106L37.002 9l-4.111 4.11V7h-1.423v6.105L26.94 8.577l-1.006 1.006 4.53 4.53h-6.11v1.423h6.112l-4.53 4.53 1.006 1.006 4.526-4.526ZM49.945 50.396v4.329h1.009V50.39l2.914 2.915.714-.714-2.913-2.913H56V48.67H51.67l2.913-2.913-.713-.713-2.916 2.916v-4.335h-1.01v4.33l-3.21-3.212-.714.714 3.213 3.213H44.9v1.01h4.335l-3.213 3.213.713.713 3.21-3.21Z" fill="#fff"/></g><defs><linearGradient id="paint0_linear_132_33884" x1="61.846" y1="64" x2="-4.1" y2="-4.205" gradientUnits="userSpaceOnUse"><stop stop-color="currentColor"/><stop offset="1" stop-color="currentColor" stop-opacity=".1"/></linearGradient><clipPath id="clip0_132_33884"><path fill="#fff" d="M0 0h64v64H0z"/></clipPath></defs></svg>
