<svg fill="none" xmlns="http://www.w3.org/2000/svg" viewBox="0 0 64 64"><g clip-path="url(#clip0_132_34344)"><rect width="64" height="64" rx="16" fill="url(#paint0_linear_132_34344)"/><path fill-rule="evenodd" clip-rule="evenodd" d="M45.41 56.156H18.62c-3.018 0-5.468-2.885-5.468-6.442V35.878c-.677.22-1.332.038-1.9-.53-1.227-1.227-.56-2.862-.038-3.561l.033-.034c6.382-6.513 18.55-18.945 18.913-19.37.529-.627 1.564-.55 1.839-.517.275-.033 1.31-.11 1.844.518.173.205 3.21 3.318 6.133 6.314l2.82 2.892v-.738h6.69v7.565l3.293 3.37c.528.7 1.2 2.335-.028 3.563-.556.556-1.205.737-1.877.533v13.831c0 3.557-2.45 6.442-5.462 6.442Zm-29.456-22.75v16.307c0 1.784 1.195 3.244 2.665 3.244H45.41c1.47 0 2.664-1.46 2.664-3.244V33.438L31.998 16.987 15.954 33.405Zm12.211 4.249a.912.912 0 0 1-.698-.315l-.012-.014c-.61-.714-1.367-1.602-1.367-2.962 0-.845.287-1.762.872-2.803 1.152-2.03.574-2.708-.294-3.725l-.007-.009a.866.866 0 0 1-.215-.657.87.87 0 0 1 .325-.617.918.918 0 0 1 1.278.11c.963 1.118 2.277 2.647.506 5.774-1.15 2.04-.57 2.717.306 3.739.16.183.238.416.214.657a.904.904 0 0 1-.908.822Zm4.241 0a.919.919 0 0 1-.699-.315l-.011-.014c-.61-.714-1.367-1.602-1.367-2.962 0-.845.287-1.762.872-2.803 1.155-2.035.575-2.711-.301-3.733a.866.866 0 0 1-.215-.658.871.871 0 0 1 .324-.617.919.919 0 0 1 1.279.11c.963 1.118 2.277 2.647.51 5.774-1.154 2.04-.575 2.717.302 3.739.16.183.237.416.214.657a.904.904 0 0 1-.908.822Zm4.241 0a.919.919 0 0 1-.699-.315l-.002-.002c-.615-.721-1.372-1.606-1.372-2.974 0-.844.283-1.762.867-2.803 1.156-2.035.576-2.711-.3-3.733a.866.866 0 0 1-.215-.658.87.87 0 0 1 .324-.616.923.923 0 0 1 1.279.109c.963 1.118 2.277 2.648.51 5.779-1.154 2.035-.575 2.711.302 3.734a.894.894 0 0 1-.11 1.274.905.905 0 0 1-.584.205Z" fill="#fff"/><path d="M24.688 50.038c-.944 0-1.72-.224-2.328-.672-.608-.448-.912-1.04-.912-1.776 0-.936.452-1.612 1.356-2.028-.712-.432-1.068-1.052-1.068-1.86 0-.656.272-1.204.816-1.644.552-.44 1.264-.66 2.136-.66.88 0 1.592.22 2.136.66.544.44.816.996.816 1.668 0 .792-.356 1.404-1.068 1.836.456.24.796.512 1.02.816.224.304.336.7.336 1.188 0 .76-.304 1.364-.912 1.812-.6.44-1.376.66-2.328.66Zm-.876-5.376c.224.192.516.288.876.288s.648-.096.864-.288a.948.948 0 0 0 .336-.756.886.886 0 0 0-.336-.696c-.216-.192-.504-.288-.864-.288-.368 0-.66.096-.876.288a.91.91 0 0 0-.324.708c0 .296.108.544.324.744Zm.876 3.852c.448 0 .8-.1 1.056-.3.264-.2.396-.456.396-.768a.866.866 0 0 0-.408-.756c-.264-.184-.612-.276-1.044-.276-.432 0-.784.096-1.056.288a.884.884 0 0 0-.396.768c0 .296.132.544.396.744.264.2.616.3 1.056.3Zm8.111-3.612c-.416.4-.9.6-1.452.6-.552 0-1.036-.2-1.452-.6-.416-.408-.624-.888-.624-1.44 0-.544.208-1.016.624-1.416.416-.4.9-.6 1.452-.6.552 0 1.036.204 1.452.612.416.4.624.876.624 1.428 0 .544-.208 1.016-.624 1.416Zm-2.244-.624c.216.216.48.324.792.324.312 0 .572-.112.78-.336.216-.224.324-.492.324-.804 0-.304-.108-.564-.324-.78a1.02 1.02 0 0 0-.78-.336c-.312 0-.576.112-.792.336a1.14 1.14 0 0 0-.312.804c0 .304.104.568.312.792Zm8.621 5.784c-1.232 0-2.26-.416-3.084-1.248-.816-.84-1.224-1.872-1.224-3.096 0-1.216.413-2.244 1.236-3.084.825-.84 1.873-1.26 3.145-1.26.727 0 1.34.12 1.835.36.496.232.968.568 1.416 1.008l-1.103 1.272c-.36-.328-.7-.564-1.02-.708-.313-.152-.693-.228-1.14-.228-.705 0-1.288.256-1.753.768-.456.504-.684 1.128-.684 1.872 0 .736.229 1.36.684 1.872.465.512 1.048.768 1.752.768.449 0 .837-.08 1.165-.24.327-.16.675-.408 1.043-.744l1.176 1.26c-.456.488-.951.848-1.487 1.08-.529.232-1.18.348-1.957.348Z" fill="#fff"/></g><defs><linearGradient id="paint0_linear_132_34344" x1="61.846" y1="64" x2="-4.1" y2="-4.205" gradientUnits="userSpaceOnUse"><stop stop-color="currentColor"/><stop offset="1" stop-color="currentColor" stop-opacity=".1"/></linearGradient><clipPath id="clip0_132_34344"><path fill="#fff" d="M0 0h64v64H0z"/></clipPath></defs></svg>
