<svg fill="none" xmlns="http://www.w3.org/2000/svg" viewBox="0 0 64 64"><g clip-path="url(#clip0_132_31080)"><rect width="64" height="64" rx="16" fill="url(#paint0_linear_132_31080)"/><circle cx="32.131" cy="44.811" r="3.189" stroke="#fff" stroke-width="2"/><path fill-rule="evenodd" clip-rule="evenodd" d="M52.555 24.327c.31-.401.27-.972-.103-1.314A30.39 30.39 0 0 0 31.846 15a30.384 30.384 0 0 0-20.132 7.587.973.973 0 0 0-.118 1.328c.36.467 1.044.52 1.488.13A28.391 28.391 0 0 1 31.846 17c7.399 0 14.14 2.82 19.205 7.443a1.027 1.027 0 0 0 1.504-.116Zm-5.52 7.157a.96.96 0 0 0-.072-1.272A21.431 21.431 0 0 0 31.846 24c-5.66 0-10.81 2.187-14.65 5.763a.961.961 0 0 0-.093 1.293c.37.48 1.08.518 1.525.107A19.43 19.43 0 0 1 31.846 26a19.437 19.437 0 0 1 13.643 5.568c.442.432 1.17.405 1.547-.084Zm-5.555 7.203a.924.924 0 0 0-.003-1.155A12.474 12.474 0 0 0 31.846 33c-3.631 0-6.9 1.548-9.184 4.02a.928.928 0 0 0-.035 1.199c.395.512 1.172.504 1.619.036a10.47 10.47 0 0 1 7.6-3.255c3.193 0 6.054 1.426 7.98 3.676.435.508 1.246.54 1.654.01Z" fill="#fff"/></g><defs><linearGradient id="paint0_linear_132_31080" x1="61.846" y1="64" x2="-4.1" y2="-4.205" gradientUnits="userSpaceOnUse"><stop stop-color="currentColor"/><stop offset="1" stop-color="currentColor" stop-opacity=".1"/></linearGradient><clipPath id="clip0_132_31080"><path fill="#fff" d="M0 0h64v64H0z"/></clipPath></defs></svg>
