<svg fill="none" xmlns="http://www.w3.org/2000/svg" viewBox="0 0 64 64"><g clip-path="url(#clip0_317_129571)"><rect width="64" height="64" rx="16" fill="url(#paint0_linear_317_129571)"/><path fill-rule="evenodd" clip-rule="evenodd" d="M19.56 24.94a2.05 2.05 0 0 0-2.065 2.064v9.828a2.05 2.05 0 0 0 2.065 2.065h2.252v-2.066h20.564v2.066h2.064a2.05 2.05 0 0 0 2.065-2.065v-9.828a2.05 2.05 0 0 0-2.065-2.065H19.56Zm-.252 2.127a.33.33 0 0 1 .314-.314H44.44a.33.33 0 0 1 .314.314v9.828a.33.33 0 0 1-.314.314h-.25v-1.46l-.607-.606H20.667l-.606.606v1.46h-.439a.33.33 0 0 1-.314-.314v-9.828Z" fill="#fff"/><path d="M54.732 29.915s-.455.707-1.971 1.314c-1.77.708-3.692.81-3.692.81v2.477s1.922.1 3.691.809c1.467.607 1.972 1.314 1.972 1.314v1.922l3.894-5.31-3.894-5.308v1.971ZM5.393 33.189l-.018-.025v.05l.018-.025ZM5.393 33.189l3.848 5.246v-1.907s.452-.703 1.958-1.306c1.757-.703 3.615-.803 3.615-.803v-2.46s-1.908-.1-3.615-.803C9.743 30.552 9.24 29.85 9.24 29.85v-1.908L5.393 33.19Z" fill="#fff"/></g><defs><linearGradient id="paint0_linear_317_129571" x1="61.846" y1="64" x2="-4.1" y2="-4.205" gradientUnits="userSpaceOnUse"><stop stop-color="currentColor"/><stop offset="1" stop-color="currentColor" stop-opacity=".1"/></linearGradient><clipPath id="clip0_317_129571"><path fill="#fff" d="M0 0h64v64H0z"/></clipPath></defs></svg>
