<svg fill="none" xmlns="http://www.w3.org/2000/svg" viewBox="0 0 64 64"><g clip-path="url(#clip0_317_129556)"><rect width="64" height="64" rx="16" fill="url(#paint0_linear_317_129556)"/><path fill-rule="evenodd" clip-rule="evenodd" d="M14.109 25.83a1.96 1.96 0 0 0-1.973 1.974v9.791c0 1.084.857 2.02 1.973 2.02h2.156V37.6h31.652v2.013h1.973c1.107 0 1.973-.881 1.973-2.019v-9.791a1.96 1.96 0 0 0-1.973-1.973H14.109Zm36.095 2.02V37.9a.404.404 0 0 1-.314.147h-.36V36.64l-.035-.079v-.001l-.001-.002-.003-.006-.008-.017a1.364 1.364 0 0 0-.123-.212.946.946 0 0 0-.185-.197.625.625 0 0 0-.383-.138H15.258l-.079.034-.003.002-.006.002-.017.008a1.388 1.388 0 0 0-.212.124.948.948 0 0 0-.197.184.625.625 0 0 0-.137.384v1.321h-.544c-.196 0-.36-.147-.36-.406V27.85c0-.21.163-.36.36-.36h35.735c.243 0 .406.194.406.36Zm-34.86 8.556-.165-.384.165.384Zm34.151.155-.001-.003.001.003Z" fill="#fff"/><path d="M22.793 13.72H26s1.189.792 2.197 3.241c1.153 2.918 1.333 6.088 1.333 6.088h4.142s.18-3.17 1.333-6.088c.972-2.449 2.197-3.241 2.197-3.241h3.206l-8.825-6.448-8.825 6.448h.036ZM31.625 40.677h-2.099s-.184 3.24-1.362 6.185c-.994 2.503-2.245 3.313-2.245 3.313h-3.277l8.983 6.553 8.982-6.553H37.33s-1.215-.81-2.246-3.313c-1.178-2.945-1.362-6.185-1.362-6.185h-2.098Z" fill="#fff"/></g><defs><linearGradient id="paint0_linear_317_129556" x1="61.846" y1="64" x2="-4.1" y2="-4.205" gradientUnits="userSpaceOnUse"><stop stop-color="currentColor"/><stop offset="1" stop-color="currentColor" stop-opacity=".1"/></linearGradient><clipPath id="clip0_317_129556"><path fill="#fff" d="M0 0h64v64H0z"/></clipPath></defs></svg>
