<svg width="200" height="52" viewBox="0 0 200 52" fill="none" xmlns="http://www.w3.org/2000/svg">
<g clip-path="url(#clip0_842_87)">
<path d="M97.6268 38.8373C104.683 38.8373 110.403 33.0534 110.403 25.9187C110.403 18.7839 104.683 13 97.6268 13C90.5708 13 84.8508 18.7839 84.8508 25.9187C84.8508 33.0534 90.5708 38.8373 97.6268 38.8373Z" fill="#FED104"/>
<path fill-rule="evenodd" clip-rule="evenodd" d="M110.395 26.3647C110.4 26.2167 110.403 26.0679 110.403 25.9185C110.403 23.689 109.844 21.5912 108.86 19.7608C109.1 20.2063 109.314 20.6677 109.501 21.143C109.495 21.141 109.489 21.1402 109.482 21.1406C109.425 21.1444 108.419 21.9625 107.248 22.9587C106.077 23.9551 105.094 24.746 105.063 24.7165C105.033 24.6869 105.31 23.3409 105.68 21.7253C106.05 20.1096 106.313 18.6814 106.263 18.5517C106.193 18.3675 101.903 16.5087 101.548 16.5087C101.503 16.5087 99.8393 18.7992 97.8507 21.5989C95.8622 24.3986 94.2104 26.6638 94.1797 26.6331C94.1286 26.5814 94.8573 22.8422 95.0406 22.2162C95.1038 21.9998 94.7174 21.7383 93.186 20.9621C91.9227 20.3218 91.1814 20.0293 91.0495 20.1191C90.6164 20.4141 85.7861 26.4464 84.968 27.6772C85.2043 29.4329 85.7895 31.0763 86.6505 32.5339C86.8775 32.2761 87.5471 31.402 88.3021 30.3728C89.2028 29.145 89.9688 28.1699 90.0043 28.2058C90.0398 28.2417 89.7568 29.5273 89.3753 31.0627L88.6818 33.8542L90.9065 34.7451C92.1303 35.2353 93.2427 35.6773 93.3788 35.7275C93.5653 35.7964 94.4569 34.5578 96.9924 30.7082C98.844 27.8974 100.379 25.6178 100.403 25.6424C100.428 25.6671 100.134 26.9417 99.7503 28.4745C99.3675 30.0074 99.0517 31.2788 99.0498 31.3001C99.0373 31.4252 102.899 33.2623 103.047 33.2012C103.145 33.1603 104.858 31.6374 106.854 29.8166C108.946 27.907 110.034 26.8501 110.395 26.3647Z" fill="black"/>
<path fill-rule="evenodd" clip-rule="evenodd" d="M5.41751 16.5064C3.25852 17.0788 2.03928 17.9975 1.22903 19.6625C0.732337 20.6833 0.70994 20.8094 0.712148 22.5665C0.714199 24.1345 0.766881 24.5193 1.0724 25.1936C1.59701 26.3518 2.54022 27.5398 3.60978 28.3893L4.55174 29.1378L2.45884 32.2731C1.30789 33.9975 0.314987 35.4981 0.252527 35.6077C0.164513 35.7623 0.548268 35.807 1.96199 35.807H3.7847L6.25568 32.0584C7.61467 29.9967 8.69716 28.2848 8.66135 28.2542C8.62555 28.2236 7.95647 27.767 7.17461 27.2394C4.92003 25.7182 4.18486 24.7126 3.99858 22.8944C3.8306 21.2542 4.42887 20.0319 5.73755 19.3413C6.24338 19.0745 6.74716 18.9834 8.00332 18.9316L9.61866 18.8651L9.65942 27.2962L9.70028 35.7273H11.3565H13.0126L13.0533 25.9585L13.0939 16.1898L9.8199 16.1986C7.14495 16.2057 6.33928 16.262 5.41751 16.5064ZM117.508 25.9941V35.807H118.849H120.189L120.209 29.7863C120.22 26.475 120.273 23.2712 120.327 22.6667L120.426 21.5678L121.343 25.059C121.847 26.9793 122.699 30.1651 123.235 32.1388L124.211 35.7273L125.584 35.7733L126.956 35.8191L127.173 35.0556C127.294 34.6356 128.166 31.4035 129.114 27.8734L130.836 21.4547L130.915 28.5911L130.993 35.7273L132.531 35.7729L134.07 35.8185V26.0042V16.1898L131.9 16.1912L129.732 16.1927L127.857 23.0891C126.826 26.8824 125.935 30.0781 125.876 30.1911C125.817 30.304 124.917 27.2179 123.876 23.3331L121.982 16.2695L119.744 16.2254L117.508 16.181V25.9941ZM46.8905 21.5147C44.794 22.2094 43.5423 23.7015 42.9644 26.1944C42.6155 27.6997 42.7267 30.7515 43.1762 32.0061C44.1387 34.6919 46.1361 35.9698 49.3628 35.9641C50.8577 35.9616 52.3657 35.6575 53.3172 35.1666L53.9432 34.8436V33.4913C53.9432 32.7474 53.9052 32.1388 53.8588 32.1388C53.8123 32.1388 53.6172 32.241 53.4251 32.366C52.6445 32.874 51.0205 33.2935 49.7634 33.3119C48.0222 33.3373 47.1852 32.9293 46.6182 31.7788C46.3962 31.3283 46.2145 30.7226 46.2145 30.4329V29.9059H50.1577H54.101V28.253C54.101 26.1812 53.9124 25.148 53.306 23.8941C52.7976 22.8434 52.0841 22.1549 51.0253 21.6936C50.1764 21.3239 47.7793 21.2201 46.8905 21.5147ZM72.7167 21.5491C70.9681 22.0242 69.7227 23.1097 68.9156 24.8624C67.7489 27.3954 67.9942 31.5855 69.4262 33.5844C70.1051 34.5322 70.4112 34.7838 71.6088 35.378C72.6019 35.8709 72.6986 35.8868 74.6845 35.8868C76.4626 35.8868 76.8345 35.8402 77.4842 35.5369L78.2334 35.1869V33.8091C78.2334 33.0512 78.1803 32.4589 78.1151 32.4927C76.2049 33.4871 74.279 33.6182 73.0964 32.8346C72.2121 32.2487 71.6065 30.5147 71.6114 28.5823C71.6165 26.46 72.3033 24.9078 73.5128 24.2843C74.3148 23.8707 75.9211 23.9139 77.2011 24.3838L78.2334 24.7627V23.3664C78.2334 21.9919 78.2267 21.9673 77.7997 21.7951C76.4693 21.2582 74.1927 21.148 72.7167 21.5491ZM141.167 21.3853C139.742 21.6311 138.926 21.852 138.131 22.2075L137.224 22.613V23.9994V25.3858L138.131 24.9331C139.096 24.4513 140.857 24.0121 141.842 24.0075C142.619 24.004 143.447 24.3609 143.748 24.8287C143.879 25.0335 144.034 25.5664 144.093 26.013L144.198 26.825L142.565 26.9273C139.014 27.1493 136.967 28.2271 136.433 30.1539C136.14 31.2133 136.29 32.8922 136.761 33.8247C137.816 35.9131 141.018 36.5818 143.249 35.1798C143.678 34.9107 144.058 34.6906 144.096 34.6906C144.133 34.6906 144.166 34.852 144.167 35.0494C144.171 35.7573 144.332 35.8221 145.965 35.7733L147.502 35.7273L147.483 30.7571C147.473 28.0235 147.401 25.3925 147.323 24.9105C147.045 23.1824 146.195 22.1345 144.705 21.681C143.931 21.4453 141.835 21.2702 141.167 21.3853ZM155.827 21.4353C155.11 21.6721 154.666 21.9558 154 22.6044L153.346 23.2401L153.235 22.4262L153.125 21.6124H151.641H150.158V30.7034V39.7943H151.813H153.47V37.0664V34.3386L154.054 34.8566C155.046 35.7377 155.868 36.0149 157.248 35.9341C160.487 35.7446 162.299 33.1252 162.299 28.63C162.299 24.1527 160.487 21.497 157.334 21.3525C156.727 21.3247 156.049 21.3619 155.827 21.4353ZM180.745 21.5115C178.638 22.0861 177.313 23.6273 176.718 26.1963C176.408 27.535 176.492 30.6997 176.87 31.9068C177.4 33.5991 178.573 34.8601 180.256 35.549C181.9 36.222 185.406 36.0257 187.07 35.1673L187.698 34.8436V33.4871V32.1307L187.256 32.3614C186.22 32.903 184.596 33.3109 183.432 33.3215C181.362 33.3405 180.34 32.5491 179.99 30.6561L179.852 29.9059H183.872H187.892L187.814 27.7927C187.767 26.5003 187.639 25.3668 187.484 24.8748C187.141 23.7826 186.4 22.6935 185.668 22.2037C184.404 21.3582 182.362 21.071 180.745 21.5115ZM15.8107 28.6699L15.8518 35.7273H17.5078H19.164L19.2071 32.8166L19.25 29.9059H21.4547H23.6593V32.8621V35.8182L25.2761 35.7728L26.8927 35.7273L26.9338 28.6699L26.9749 21.6124H25.3209H23.6667L23.6236 24.3637L23.5805 27.1149L21.4117 27.1592L19.2429 27.2035V24.408V21.6124H17.5063H15.7696L15.8107 28.6699ZM30.6992 24.4982C30.5533 28.4293 30.182 31.031 29.5464 32.5774C29.3632 33.0228 29.2554 33.0957 28.7798 33.0957H28.2263L28.2693 36.0064L28.3123 38.9171L29.8501 38.9627L31.388 39.0083V37.4077V35.807H35.0946H38.8012V37.4077V39.0083L40.3391 38.9627L41.8769 38.9171L41.92 36.0064L41.963 33.0957H41.1708H40.3786V27.3541V21.6124H35.5924H30.8063L30.6992 24.4982ZM56.347 28.6699L56.388 35.7273H58.0442H59.7003L59.7791 32.3841L59.8581 29.0408L62.2245 32.3841L64.5908 35.7273L66.4437 35.7723C67.4628 35.797 68.2966 35.7719 68.2966 35.7167C68.2966 35.6614 67.1199 33.9327 65.6817 31.8748L63.0669 28.1334L63.335 27.7196C63.4825 27.492 64.3596 26.258 65.2842 24.9776C66.2087 23.6968 67.1277 22.416 67.3262 22.1308L67.6871 21.6124L65.9808 21.6214L64.2744 21.6303L62.0662 24.7449L59.8581 27.8595L59.8153 24.7359L59.7725 21.6124H58.0391H56.3058L56.347 28.6699ZM164.549 28.6699L164.589 35.7273H166.246H167.902L167.944 32.3186L167.988 28.9101L170.396 32.3186L172.805 35.7273L174.652 35.7723C175.667 35.797 176.499 35.7712 176.499 35.7153C176.499 35.6593 175.466 34.1319 174.203 32.3211C172.941 30.5102 171.771 28.8091 171.604 28.5405L171.3 28.0523L173.578 24.8723L175.855 21.6922L174.335 21.6463C173.499 21.6209 172.735 21.6311 172.637 21.6689C172.54 21.7067 171.47 23.1168 170.26 24.8024L168.06 27.867L168.017 24.7398L167.974 21.6124H166.241H164.508L164.549 28.6699ZM188.486 22.8884V24.1643H190.455H192.425L192.467 29.9458L192.508 35.7273L194.124 35.7728L195.742 35.8182V29.9913V24.1643H197.713H199.684V22.8884V21.6124H194.085H188.486V22.8884ZM49.6109 24.1957C50.1516 24.4448 50.5997 25.3546 50.7287 26.4651L50.8321 27.3541H48.4679H46.1039L46.2241 26.5853C46.4073 25.414 46.7708 24.6841 47.3486 24.3279C47.938 23.9645 48.9771 23.9037 49.6109 24.1957ZM157.543 24.3286C158.575 24.9652 159.122 27.349 158.829 29.9423C158.563 32.2979 157.718 33.3236 156.043 33.3236C155.005 33.3236 154.48 32.9662 153.944 31.8912C153.577 31.1576 153.549 30.9396 153.549 28.7895C153.549 26.2828 153.687 25.6125 154.378 24.7831C154.886 24.1716 155.234 24.0274 156.231 24.0155C156.758 24.009 157.192 24.113 157.543 24.3286ZM183.5 24.3379C184.073 24.7944 184.332 25.357 184.466 26.4372L184.579 27.3541H182.219H179.858L179.997 26.4594C180.176 25.3066 180.492 24.7046 181.12 24.3174C181.811 23.8909 182.949 23.9008 183.5 24.3379ZM37.0662 28.63V33.0957H34.7791C33.5213 33.0957 32.4921 33.076 32.4921 33.0521C32.4921 33.0282 32.6662 32.3142 32.8792 31.4655C33.2653 29.9268 33.5915 27.0517 33.5946 25.1611L33.5963 24.1643H35.3312H37.0662V28.63ZM144.164 30.7584C144.164 32.5594 144.132 32.6313 143.107 33.1561C142.478 33.4779 141.14 33.4913 140.548 33.1815C140.099 32.9466 139.589 31.9651 139.589 31.3331C139.589 31.1565 139.691 30.768 139.814 30.4695C140.168 29.612 141.312 29.1549 143.178 29.1245L144.164 29.1085V30.7584Z" fill="black"/>
</g>
<defs>
<clipPath id="clip0_842_87">
<rect width="200" height="26.7943" fill="white" transform="translate(0 13)"/>
</clipPath>
</defs>
</svg>
